<svg width="194" height="40" viewBox="0 0 194 40" fill="none" xmlns="http://www.w3.org/2000/svg">
<g clip-path="url(#clip0_2096_16273)">
<path d="M24.3285 10.1632C25.862 7.65798 28.6391 6.93219 28.6391 6.93219C28.6391 6.93219 23.339 5.54453 23.339 -0.000976562C23.339 5.54453 18.0358 6.93219 18.0358 6.93219C18.0358 6.93219 20.8139 7.65798 22.3484 10.1632H15.103V19.7676L16.7502 16.7933H20.0436V33.369L26.6313 39.999V19.7037C24.9513 18.9243 22.5379 16.9428 21.6733 15.4314C23.1495 15.8798 25.1296 16.4696 26.6712 16.7943H31.5729V10.1632H24.3285Z" fill="white"/>
<path fill-rule="evenodd" clip-rule="evenodd" d="M59.932 18.1955C60.7082 17.1307 61.9155 16.5471 63.3643 16.5471H63.3661C66.1581 16.5471 68.1076 18.6642 68.1076 21.6073C68.1076 24.5503 66.099 26.6854 63.3285 26.6854C61.8475 26.6854 60.6689 26.1305 59.9033 25.0765L59.8533 26.4501H57.7374V12.8643H59.932V18.1955ZM63.2105 24.8251C64.9096 24.8251 66.0955 23.5286 66.0955 21.6737C66.0955 19.7757 65.0402 18.5026 63.3196 18.5026C61.5989 18.5026 60.397 19.7595 60.397 21.6737C60.397 23.5879 61.5113 24.8251 63.2105 24.8251ZM44.661 24.5108C44.1172 24.9274 43.6844 25.089 43.1138 25.089C42.2732 25.089 41.7903 24.5754 41.7903 23.6776V18.6103H45.3174V16.6602H41.7903V14.1284H39.5957V16.6584H38.07L37.5728 18.6085H39.5957V23.6956C39.5957 25.9132 40.7708 27.1342 42.9063 27.1342C43.8811 27.1342 44.7504 26.8326 45.5606 26.2113L45.6196 26.1664L44.7468 24.4444L44.661 24.509V24.5108ZM51.0695 16.4699C48.2632 16.4699 46.2278 18.6067 46.2278 21.5498C46.2278 24.6473 48.1648 26.6476 51.1607 26.6476C52.8724 26.6476 54.1512 26.1233 55.1815 24.9974L55.2351 24.94L54.0708 23.5304L54.001 23.5986C53.1979 24.3869 52.368 24.7389 51.3056 24.7389C49.6386 24.7389 48.6138 23.8213 48.4116 22.1496H55.6215V22.0598C55.6215 21.97 55.625 21.8856 55.6304 21.8012C55.6358 21.7132 55.6394 21.6252 55.6394 21.5318C55.6394 18.4577 53.8454 16.4699 51.0695 16.4699ZM48.4564 20.7059C48.7354 19.307 49.7442 18.4092 51.0516 18.4092C52.3591 18.4092 53.2426 19.2442 53.4358 20.7059H48.4564ZM74.0637 16.4699C71.2574 16.4699 69.222 18.6067 69.222 21.5498C69.222 24.6473 71.159 26.6476 74.1549 26.6476C75.8666 26.6476 77.1454 26.1233 78.1757 24.9974L78.2293 24.94L77.065 23.5304L76.9952 23.5986C76.1921 24.3869 75.3622 24.7389 74.2998 24.7389C72.6328 24.7389 71.6079 23.8213 71.4058 22.1496H78.6157V22.0598C78.6157 21.97 78.6192 21.8856 78.6246 21.8012C78.63 21.7132 78.6336 21.6252 78.6336 21.5318C78.6336 18.4577 76.8396 16.4699 74.0637 16.4699ZM74.0458 18.4074C75.3729 18.4074 76.2368 19.2424 76.43 20.7041H71.4506C71.7296 19.3052 72.7383 18.4074 74.0458 18.4074ZM88.19 16.6585L84.7863 21.3146L88.5746 26.4502H85.9668L83.52 22.945L81.1269 26.4502H78.6479L82.3073 21.4439L78.8124 16.6585H81.4202L83.5737 19.8476L85.7093 16.6585H88.19Z" fill="white"/>
<path d="M99.8747 15.779C102.135 15.779 103.715 17.319 103.715 20.319V26.499H101.575V20.579C101.575 18.659 100.655 17.779 99.1347 17.779C97.6747 17.779 96.3747 18.699 96.3747 20.979V26.499H94.2347V11.719H96.3747V17.619C97.1547 16.379 98.3547 15.779 99.8747 15.779ZM116.214 21.239C116.214 21.439 116.194 21.619 116.194 21.819H108.234C108.434 23.819 109.634 24.859 111.534 24.859C112.694 24.859 113.634 24.499 114.574 23.579L115.734 24.979C114.594 26.219 113.194 26.759 111.374 26.759C108.194 26.759 106.034 24.699 106.034 21.259C106.034 17.899 108.414 15.779 111.274 15.779C114.174 15.779 116.214 17.779 116.214 21.239ZM111.254 17.579C109.714 17.579 108.554 18.659 108.274 20.299H113.994C113.814 18.659 112.854 17.579 111.254 17.579ZM124.892 26.499C124.812 25.979 124.732 25.499 124.672 24.999C123.992 26.099 122.832 26.719 121.352 26.719C119.192 26.719 117.672 25.559 117.672 23.499C117.672 21.479 119.352 20.179 122.232 20.179C123.212 20.179 123.972 20.319 124.592 20.479V19.959C124.592 18.479 123.632 17.619 122.052 17.619C120.832 17.619 119.932 18.019 119.112 18.599L118.272 16.999C119.332 16.279 120.612 15.799 122.192 15.799C124.932 15.799 126.632 17.319 126.632 19.939V23.499C126.632 24.639 126.732 25.679 126.852 26.499H124.892ZM121.812 25.019C123.432 25.019 124.572 24.059 124.592 22.419V21.959C123.992 21.779 123.312 21.679 122.472 21.679C120.592 21.679 119.772 22.399 119.772 23.459C119.772 24.379 120.512 25.019 121.812 25.019ZM139.763 11.719V26.499H137.723L137.663 24.719C136.883 25.979 135.623 26.759 133.903 26.759C130.823 26.759 128.983 24.339 128.983 21.299C128.983 18.219 131.003 15.779 133.943 15.779C135.643 15.779 136.863 16.519 137.623 17.699V11.719H139.763ZM134.343 24.859C136.043 24.859 137.443 23.699 137.623 21.719V20.819C137.443 18.859 136.163 17.699 134.443 17.699C132.603 17.699 131.183 19.099 131.183 21.279C131.183 23.479 132.523 24.859 134.343 24.859ZM143.102 11.719H145.242V26.499H143.102V11.719ZM158.03 21.239C158.03 21.439 158.01 21.619 158.01 21.819H150.05C150.25 23.819 151.45 24.859 153.35 24.859C154.51 24.859 155.45 24.499 156.39 23.579L157.55 24.979C156.41 26.219 155.01 26.759 153.19 26.759C150.01 26.759 147.85 24.699 147.85 21.259C147.85 17.899 150.23 15.779 153.09 15.779C155.99 15.779 158.03 17.779 158.03 21.239ZM153.07 17.579C151.53 17.579 150.37 18.659 150.09 20.299H155.81C155.63 18.659 154.67 17.579 153.07 17.579ZM163.763 26.739C161.643 26.739 160.363 25.979 159.323 24.959L160.563 23.539C161.523 24.499 162.503 24.919 163.743 24.919C164.923 24.919 165.723 24.499 165.723 23.599C165.723 21.219 159.723 23.059 159.723 19.019C159.723 17.219 161.323 15.839 163.823 15.839C165.603 15.839 166.903 16.459 167.823 17.339L166.683 18.779C165.963 18.079 165.063 17.639 163.883 17.639C162.543 17.639 161.903 18.179 161.903 18.899C161.903 21.079 167.903 19.459 167.903 23.459C167.903 25.539 166.023 26.739 163.763 26.739ZM173.47 26.739C171.35 26.739 170.07 25.979 169.03 24.959L170.27 23.539C171.23 24.499 172.21 24.919 173.45 24.919C174.63 24.919 175.43 24.499 175.43 23.599C175.43 21.219 169.43 23.059 169.43 19.019C169.43 17.219 171.03 15.839 173.53 15.839C175.31 15.839 176.61 16.459 177.53 17.339L176.39 18.779C175.67 18.079 174.77 17.639 173.59 17.639C172.25 17.639 171.61 18.179 171.61 18.899C171.61 21.079 177.61 19.459 177.61 23.459C177.61 25.539 175.73 26.739 173.47 26.739Z" fill="#41C4C3"/>
</g>
<defs>
<clipPath id="clip0_2096_16273">
<rect width="193.002" height="40" fill="white" transform="translate(0.337646 -0.000976562)"/>
</clipPath>
</defs>
</svg>
