<svg width="269" height="40" viewBox="0 0 269 40" fill="none" xmlns="http://www.w3.org/2000/svg">
<g clip-path="url(#clip0_2096_16284)">
<g clip-path="url(#clip1_2096_16284)">
<path fill-rule="evenodd" clip-rule="evenodd" d="M38.4143 19.8334L38.4136 19.833C35.6684 18.2694 30.3206 15.2235 30.2994 15.104C30.2858 15.0316 30.2719 14.9563 30.2576 14.8784L30.2573 14.8769C30.0413 13.7031 29.7196 11.9558 28.4651 11.0239C27.5826 10.374 22.8122 8.16767 20.622 7.15468C19.9534 6.84542 19.5252 6.64739 19.5216 6.63885C18.0899 4.52074 16.821 2.30135 15.7257 -0.000976562C14.6855 0.765257 13.8395 1.75554 13.2531 2.89318C12.6668 4.03081 12.3559 5.28527 12.3445 6.55939C8.52453 7.09519 4.93929 8.68389 2.00767 11.1398C9.61051 9.43479 11.8003 11.0067 11.8003 11.0067C9.31116 11.4407 6.91264 12.2751 4.70213 13.4762C1.46132 15.2199 0 17.3137 0 17.3137C0 17.3137 7.35928 15.2543 13.0071 17.2578C10.3734 17.6215 7.92517 18.7928 6.01425 20.6035C17.7202 22.023 23.4931 31.9655 25.9221 39.999C26.8151 25.7101 19.5458 20.2836 19.5458 20.2836C21.6566 20.4317 24.3115 22.038 26.0098 24.4281C31.1238 23.864 33.9993 25.3712 34.0467 25.4087C34.046 25.4092 34.0462 25.4094 34.0471 25.4094C34.0474 25.4094 34.0473 25.4092 34.0467 25.4087C34.0543 25.4032 34.1712 25.3652 34.3692 25.3009C35.166 25.0422 37.275 24.3574 38.8611 23.6421C38.6878 23.3866 37.9593 22.4997 37.5446 22.0036C37.6017 22.0079 39.1947 21.9156 39.9999 20.741C40.0079 20.741 39.3683 20.3767 38.4143 19.8334ZM23.8804 14.4039C24.2582 14.3046 26.5273 13.7079 27.2057 13.9594C27.8639 14.2021 27.8771 16.036 27.8771 16.036C27.8771 16.036 26.3741 16.2421 23.831 14.4168L23.844 14.4135L23.8792 14.4043L23.8804 14.4039Z" fill="white"/>
<path fill-rule="evenodd" clip-rule="evenodd" d="M54.0704 15.792C51.5189 15.792 48.9406 17.55 48.9406 20.8879C48.9406 24.2258 51.5145 25.964 54.0571 25.964C56.5997 25.964 59.1735 24.2214 59.1735 20.8879C59.1735 17.5544 56.6041 15.792 54.0704 15.792ZM54.0526 23.9797C52.6475 23.9797 51.2245 22.9249 51.2245 20.9033C51.2245 18.8487 52.6564 17.7741 54.0704 17.7741C55.7254 17.7741 56.8807 19.0464 56.8807 20.8681C56.8807 22.9117 55.4577 23.9797 54.0526 23.9797Z" fill="white"/>
<path fill-rule="evenodd" clip-rule="evenodd" d="M104.218 20.8879C104.218 17.55 106.796 15.792 109.348 15.792C111.881 15.792 114.449 17.5544 114.449 20.8879C114.449 24.2214 111.877 25.964 109.334 25.964C106.792 25.964 104.218 24.2258 104.218 20.8879ZM106.502 20.9033C106.502 22.9249 107.923 23.9797 109.33 23.9797C110.735 23.9797 112.156 22.9117 112.156 20.8681C112.156 19.0464 111 17.7741 109.348 17.7741C107.934 17.7741 106.502 18.8487 106.502 20.9033Z" fill="white"/>
<path d="M65.0455 25.9289H64.4924L64.4545 25.8542L59.541 16.047H62.1037L64.7957 22.0328L67.49 16.047H69.9947L65.0455 25.9289Z" fill="white"/>
<path fill-rule="evenodd" clip-rule="evenodd" d="M70.3496 20.8703C70.3496 23.9643 72.3212 25.964 75.3746 25.964C77.1165 25.964 78.4168 25.441 79.4561 24.3093L79.5364 24.2214L78.3031 22.7557L78.1982 22.859C77.855 23.2175 77.4398 23.5017 76.979 23.6935C76.5182 23.8853 76.022 23.9805 75.5218 23.9731C73.8602 23.9731 72.8788 23.1205 72.6558 21.5032H79.9401V20.8461C79.9401 17.7697 78.138 15.792 75.2809 15.792C72.4238 15.792 70.3496 17.9279 70.3496 20.8703ZM77.6295 19.8683H72.6982C72.997 18.5366 73.9516 17.6862 75.2586 17.6862C76.5656 17.6862 77.4243 18.4795 77.6295 19.8683Z" fill="white"/>
<path d="M99.6878 25.929H99.119L96.63 19.9981L94.1409 25.929H93.5521L89.5441 16.0471H91.9841L94.0026 21.5429L96.3534 15.9922H96.94L99.3443 21.5429L101.309 16.0471H103.734L99.6878 25.929Z" fill="white"/>
<path d="M87.642 16.0625H87.7379C87.7379 16.0625 88.1817 17.6865 88.3579 18.383C87.5929 18.1963 86.4353 18.4182 85.599 18.9016C84.6957 19.4246 84.1983 20.1893 84.1983 21.1364V25.7291H81.968V16.045H84.1225L84.1693 17.871C84.5402 17.2996 85.0551 16.8327 85.6637 16.5158C86.2723 16.1988 86.9539 16.0427 87.642 16.0625Z" fill="white"/>
<path d="M124.093 25.729H121.862V17.9743H119.882L120.392 16.045H121.862V15.5132C121.862 13.2498 123.178 11.8984 125.386 11.8984C126.285 11.8835 127.165 12.1505 127.9 12.6609L128.002 12.7334L127.012 14.3903L126.887 14.2892C126.511 13.9674 126.027 13.793 125.529 13.7992C124.617 13.7992 124.093 14.3925 124.093 15.4297V16.0515H127.313V17.9809H124.093V25.729Z" fill="white"/>
<path d="M116.206 25.729H118.437V12.1334H116.206V25.729Z" fill="white"/>
</g>
<path d="M140.882 26.239C138.762 26.239 137.482 25.479 136.442 24.459L137.682 23.039C138.642 23.999 139.622 24.419 140.862 24.419C142.042 24.419 142.842 23.999 142.842 23.099C142.842 20.719 136.842 22.559 136.842 18.519C136.842 16.719 138.442 15.339 140.942 15.339C142.722 15.339 144.022 15.959 144.942 16.839L143.802 18.279C143.082 17.579 142.182 17.139 141.002 17.139C139.662 17.139 139.022 17.679 139.022 18.399C139.022 20.579 145.022 18.959 145.022 22.959C145.022 25.039 143.142 26.239 140.882 26.239ZM156.489 15.559V25.999H154.429L154.349 24.379C153.589 25.639 152.409 26.259 150.889 26.259C148.669 26.259 147.129 24.739 147.129 21.719V15.559H149.269V21.459C149.269 23.379 150.149 24.279 151.649 24.279C153.089 24.279 154.329 23.359 154.329 21.059V15.559H156.489ZM165.691 15.279C168.791 15.279 170.631 17.719 170.631 20.759C170.631 23.839 168.591 26.259 165.651 26.259C163.911 26.259 162.671 25.499 161.931 24.279L161.871 25.999H159.811V11.219H161.951V17.319C162.711 16.059 163.991 15.279 165.691 15.279ZM165.151 24.339C166.991 24.339 168.431 22.959 168.431 20.779C168.431 18.559 167.091 17.199 165.271 17.199C163.431 17.199 161.951 18.539 161.951 20.779C161.951 23.019 163.311 24.339 165.151 24.339ZM176.429 26.239C174.309 26.239 173.029 25.479 171.989 24.459L173.229 23.039C174.189 23.999 175.169 24.419 176.409 24.419C177.589 24.419 178.389 23.999 178.389 23.099C178.389 20.719 172.389 22.559 172.389 18.519C172.389 16.719 173.989 15.339 176.489 15.339C178.269 15.339 179.569 15.959 180.489 16.839L179.349 18.279C178.629 17.579 177.729 17.139 176.549 17.139C175.209 17.139 174.569 17.679 174.569 18.399C174.569 20.579 180.569 18.959 180.569 22.959C180.569 25.039 178.689 26.239 176.429 26.239ZM187.534 26.239C184.554 26.239 182.294 24.199 182.294 20.779C182.294 17.559 184.614 15.339 187.714 15.339C189.234 15.339 190.474 15.819 191.434 16.759L190.274 18.319C189.594 17.619 188.794 17.279 187.794 17.279C185.934 17.279 184.494 18.659 184.494 20.799C184.494 23.099 185.954 24.279 187.674 24.279C188.674 24.279 189.494 23.979 190.334 23.159L191.494 24.659C190.434 25.699 189.214 26.239 187.534 26.239ZM196.052 17.659C197.012 15.799 198.612 15.399 199.972 15.399V17.579C198.192 17.459 196.072 18.119 196.072 20.959V25.999H193.932V15.559H195.992L196.052 17.659ZM203.274 13.599C202.454 13.599 201.874 13.059 201.874 12.299C201.874 11.539 202.454 10.999 203.274 10.999C204.074 10.999 204.674 11.539 204.674 12.299C204.674 13.059 204.074 13.599 203.274 13.599ZM202.194 15.559H204.334V25.999H202.194V15.559ZM213.562 15.279C216.642 15.279 218.482 17.719 218.482 20.759C218.482 23.839 216.462 26.259 213.522 26.259C211.802 26.259 210.582 25.519 209.822 24.319V30.119H207.682V15.559H209.742L209.802 17.339C210.562 16.079 211.842 15.279 213.562 15.279ZM213.022 24.339C214.862 24.339 216.282 22.959 216.282 20.779C216.282 18.559 214.962 17.199 213.142 17.199C211.302 17.199 209.822 18.539 209.822 20.779C209.822 23.019 211.182 24.339 213.022 24.339ZM227.55 25.319C226.75 25.919 225.85 26.259 224.79 26.259C222.85 26.259 221.37 25.279 221.37 22.779V17.399H219.25L219.73 15.559H221.37V12.679H223.51V15.559H227.35V17.399H223.51V22.759C223.51 23.819 224.13 24.319 225.01 24.319C225.67 24.319 226.15 24.119 226.71 23.699L227.55 25.319ZM230.832 13.599C230.012 13.599 229.432 13.059 229.432 12.299C229.432 11.539 230.012 10.999 230.832 10.999C231.632 10.999 232.232 11.539 232.232 12.299C232.232 13.059 231.632 13.599 230.832 13.599ZM229.752 15.559H231.892V25.999H229.752V15.559ZM239.941 26.259C237.061 26.259 234.501 24.219 234.501 20.779C234.501 17.319 237.041 15.279 239.961 15.279C242.841 15.279 245.381 17.299 245.381 20.779C245.381 24.199 242.861 26.259 239.941 26.259ZM239.941 24.359C241.641 24.359 243.181 23.019 243.181 20.759C243.181 18.519 241.701 17.179 239.961 17.179C238.241 17.179 236.701 18.519 236.701 20.779C236.701 23.019 238.201 24.359 239.941 24.359ZM253.555 15.279C255.755 15.279 257.315 16.819 257.315 19.819V25.999H255.175V20.079C255.175 18.159 254.295 17.279 252.795 17.279C251.355 17.279 250.095 18.199 250.095 20.479V25.999H247.955V15.559H250.015L250.075 17.159C250.855 15.899 252.035 15.279 253.555 15.279ZM263.617 26.239C261.497 26.239 260.217 25.479 259.177 24.459L260.417 23.039C261.377 23.999 262.357 24.419 263.597 24.419C264.777 24.419 265.577 23.999 265.577 23.099C265.577 20.719 259.577 22.559 259.577 18.519C259.577 16.719 261.177 15.339 263.677 15.339C265.457 15.339 266.757 15.959 267.677 16.839L266.537 18.279C265.817 17.579 264.917 17.139 263.737 17.139C262.397 17.139 261.757 17.679 261.757 18.399C261.757 20.579 267.757 18.959 267.757 22.959C267.757 25.039 265.877 26.239 263.617 26.239Z" fill="#D34037"/>
</g>
<defs>
<clipPath id="clip0_2096_16284">
<rect width="269.002" height="40" fill="white" transform="translate(0 -0.000976562)"/>
</clipPath>
<clipPath id="clip1_2096_16284">
<rect width="128.002" height="40" fill="white" transform="translate(0 -0.000976562)"/>
</clipPath>
</defs>
</svg>
