<svg width="214" height="41" viewBox="0 0 214 41" fill="none" xmlns="http://www.w3.org/2000/svg">
<g clip-path="url(#clip0_2098_5892)">
<path fill-rule="evenodd" clip-rule="evenodd" d="M55.3538 19.9691C52.6086 18.4055 47.2601 15.3592 47.2389 15.2397C47.2253 15.1673 47.2114 15.092 47.1971 15.0142L47.1968 15.0127C46.9807 13.8388 46.6591 12.0915 45.4046 11.1596C44.5221 10.5098 39.7517 8.30341 37.5615 7.29042C36.8928 6.98116 36.4647 6.78313 36.4611 6.77459C35.0293 4.65649 33.7605 2.43709 32.6652 0.134766C31.6249 0.901 30.7789 1.89128 30.1926 3.02892C29.6062 4.16656 29.2953 5.42101 29.2839 6.69514C25.464 7.23093 21.8787 8.81963 18.9471 11.2756C26.55 9.57053 28.7398 11.1424 28.7398 11.1424C26.2506 11.5764 23.8521 12.4109 21.6416 13.612C18.4008 15.3557 16.9395 17.4494 16.9395 17.4494C16.9395 17.4494 24.2987 15.39 29.9466 17.3936C27.3128 17.7572 24.8646 18.9285 22.9537 20.7393C34.6597 22.1587 40.4326 32.1013 42.8615 40.1348C43.7545 25.8458 36.4852 20.4193 36.4852 20.4193C38.596 20.5675 41.251 22.1737 42.9493 24.5638C48.0633 23.9997 50.9388 25.507 50.9861 25.5445C50.9937 25.5389 51.1106 25.501 51.3087 25.4367C52.1055 25.178 54.2144 24.4932 55.8006 23.7779C55.6273 23.5223 54.8988 22.6354 54.4841 22.1394C54.5411 22.1437 56.1341 22.0513 56.9394 20.8767C56.9473 20.8767 56.3078 20.5125 55.3538 19.9691ZM40.8198 14.5397C41.1976 14.4404 43.4668 13.8437 44.1451 14.0951C44.8034 14.3378 44.8165 16.1717 44.8165 16.1717C44.8165 16.1717 43.3135 16.3779 40.7705 14.5525L40.7835 14.5492L40.8186 14.54L40.8198 14.5397Z" fill="white"/>
<path fill-rule="evenodd" clip-rule="evenodd" d="M70.0693 5.4958C67.5177 5.4958 64.9395 7.25375 64.9395 10.5917C64.9395 13.9296 67.5133 15.6677 70.0559 15.6677C72.5985 15.6677 75.1723 13.9252 75.1723 10.5917C75.1723 7.25814 72.6029 5.4958 70.0693 5.4958ZM70.0514 13.6834C68.6463 13.6834 67.2233 12.6287 67.2233 10.607C67.2233 8.55243 68.6552 7.47788 70.0693 7.47788C71.7242 7.47788 72.8795 8.7502 72.8795 10.5719C72.8795 12.6155 71.4565 13.6834 70.0514 13.6834Z" fill="white"/>
<path fill-rule="evenodd" clip-rule="evenodd" d="M120.217 10.5917C120.217 7.25375 122.795 5.4958 125.347 5.4958C127.88 5.4958 130.447 7.25814 130.447 10.5917C130.447 13.9252 127.876 15.6677 125.333 15.6677C122.791 15.6677 120.217 13.9296 120.217 10.5917ZM122.501 10.607C122.501 12.6287 123.921 13.6834 125.329 13.6834C126.734 13.6834 128.155 12.6155 128.155 10.5719C128.155 8.7502 126.999 7.47788 125.347 7.47788C123.933 7.47788 122.501 8.55243 122.501 10.607Z" fill="white"/>
<path d="M81.0444 15.6326H80.4912L80.4533 15.5579L75.5398 5.75078H78.1025L80.7945 11.7366L83.4888 5.75078H85.9935L81.0444 15.6326Z" fill="white"/>
<path fill-rule="evenodd" clip-rule="evenodd" d="M86.3484 10.5741C86.3484 13.6681 88.3201 15.6677 91.3734 15.6677C93.1153 15.6677 94.4156 15.1447 95.455 14.0131L95.5353 13.9252L94.3019 12.4595L94.1971 12.5627C93.8538 12.9213 93.4386 13.2055 92.9778 13.3973C92.5171 13.5891 92.0208 13.6843 91.5206 13.6768C89.859 13.6768 88.8777 12.8242 88.6546 11.2069H95.939V10.5499C95.939 7.47349 94.1368 5.4958 91.2797 5.4958C88.4227 5.4958 86.3484 7.6317 86.3484 10.5741ZM93.6283 9.57204H88.697C88.9959 8.24039 89.9505 7.38999 91.2574 7.38999C92.5644 7.38999 93.4231 8.18326 93.6283 9.57204Z" fill="white"/>
<path d="M115.687 15.6327H115.118L112.629 9.70187L110.14 15.6327H109.551L105.543 5.75088H107.983L110.001 11.2467L112.352 5.69595H112.939L115.343 11.2467L117.308 5.75088H119.732L115.687 15.6327Z" fill="white"/>
<path d="M103.641 5.76631H103.737C103.737 5.76631 104.181 7.39022 104.357 8.0868C103.592 7.90002 102.434 8.12196 101.598 8.6054C100.694 9.12839 100.197 9.8931 100.197 10.8402V15.4328H97.9668V5.74873H100.121L100.168 7.5748C100.539 7.00341 101.054 6.53647 101.662 6.21952C102.271 5.90257 102.953 5.74642 103.641 5.76631Z" fill="white"/>
<path d="M140.091 15.4328H137.861V7.67806H135.88L136.391 5.74871H137.861V5.21693C137.861 2.95357 139.177 1.60215 141.385 1.60215C142.284 1.58724 143.164 1.85428 143.899 2.36466L144.001 2.43718L143.011 4.09404L142.886 3.99296C142.509 3.67117 142.026 3.49679 141.528 3.50293C140.616 3.50293 140.091 4.09624 140.091 5.13343V5.7553H143.312V7.68465H140.091V15.4328Z" fill="white"/>
<path d="M132.205 15.4327H134.435V1.83721H132.205V15.4327Z" fill="white"/>
<path d="M69.8195 34.908C67.6995 34.908 66.4195 34.148 65.3795 33.128L66.6195 31.708C67.5795 32.668 68.5595 33.088 69.7995 33.088C70.9795 33.088 71.7795 32.668 71.7795 31.768C71.7795 29.388 65.7795 31.228 65.7795 27.188C65.7795 25.388 67.3795 24.008 69.8795 24.008C71.6595 24.008 72.9595 24.628 73.8795 25.508L72.7395 26.948C72.0195 26.248 71.1195 25.808 69.9395 25.808C68.5995 25.808 67.9595 26.348 67.9595 27.068C67.9595 29.248 73.9595 27.628 73.9595 31.628C73.9595 33.708 72.0795 34.908 69.8195 34.908ZM85.4265 24.228V34.668H83.3665L83.2865 33.048C82.5265 34.308 81.3465 34.928 79.8265 34.928C77.6065 34.928 76.0665 33.408 76.0665 30.388V24.228H78.2065V30.128C78.2065 32.048 79.0865 32.948 80.5865 32.948C82.0265 32.948 83.2665 32.028 83.2665 29.728V24.228H85.4265ZM94.6279 23.948C97.7279 23.948 99.5679 26.388 99.5679 29.428C99.5679 32.508 97.5279 34.928 94.5879 34.928C92.8479 34.928 91.6079 34.168 90.8679 32.948L90.8079 34.668H88.7479V19.888H90.8879V25.988C91.6479 24.728 92.9279 23.948 94.6279 23.948ZM94.0879 33.008C95.9279 33.008 97.3679 31.628 97.3679 29.448C97.3679 27.228 96.0279 25.868 94.2079 25.868C92.3679 25.868 90.8879 27.208 90.8879 29.448C90.8879 31.688 92.2479 33.008 94.0879 33.008ZM105.366 34.908C103.246 34.908 101.966 34.148 100.926 33.128L102.166 31.708C103.126 32.668 104.106 33.088 105.346 33.088C106.526 33.088 107.326 32.668 107.326 31.768C107.326 29.388 101.326 31.228 101.326 27.188C101.326 25.388 102.926 24.008 105.426 24.008C107.206 24.008 108.506 24.628 109.426 25.508L108.286 26.948C107.566 26.248 106.666 25.808 105.486 25.808C104.146 25.808 103.506 26.348 103.506 27.068C103.506 29.248 109.506 27.628 109.506 31.628C109.506 33.708 107.626 34.908 105.366 34.908ZM116.471 34.908C113.491 34.908 111.231 32.868 111.231 29.448C111.231 26.228 113.551 24.008 116.651 24.008C118.171 24.008 119.411 24.488 120.371 25.428L119.211 26.988C118.531 26.288 117.731 25.948 116.731 25.948C114.871 25.948 113.431 27.328 113.431 29.468C113.431 31.768 114.891 32.948 116.611 32.948C117.611 32.948 118.431 32.648 119.271 31.828L120.431 33.328C119.371 34.368 118.151 34.908 116.471 34.908ZM124.989 26.328C125.949 24.468 127.549 24.068 128.909 24.068V26.248C127.129 26.128 125.009 26.788 125.009 29.628V34.668H122.869V24.228H124.929L124.989 26.328ZM132.211 22.268C131.391 22.268 130.811 21.728 130.811 20.968C130.811 20.208 131.391 19.668 132.211 19.668C133.011 19.668 133.611 20.208 133.611 20.968C133.611 21.728 133.011 22.268 132.211 22.268ZM131.131 24.228H133.271V34.668H131.131V24.228ZM142.499 23.948C145.579 23.948 147.419 26.388 147.419 29.428C147.419 32.508 145.399 34.928 142.459 34.928C140.739 34.928 139.519 34.188 138.759 32.988V38.788H136.619V24.228H138.679L138.739 26.008C139.499 24.748 140.779 23.948 142.499 23.948ZM141.959 33.008C143.799 33.008 145.219 31.628 145.219 29.448C145.219 27.228 143.899 25.868 142.079 25.868C140.239 25.868 138.759 27.208 138.759 29.448C138.759 31.688 140.119 33.008 141.959 33.008ZM156.487 33.988C155.687 34.588 154.787 34.928 153.727 34.928C151.787 34.928 150.307 33.948 150.307 31.448V26.068H148.187L148.667 24.228H150.307V21.348H152.447V24.228H156.287V26.068H152.447V31.428C152.447 32.488 153.067 32.988 153.947 32.988C154.607 32.988 155.087 32.788 155.647 32.368L156.487 33.988ZM159.769 22.268C158.949 22.268 158.369 21.728 158.369 20.968C158.369 20.208 158.949 19.668 159.769 19.668C160.569 19.668 161.169 20.208 161.169 20.968C161.169 21.728 160.569 22.268 159.769 22.268ZM158.689 24.228H160.829V34.668H158.689V24.228ZM168.878 34.928C165.998 34.928 163.438 32.888 163.438 29.448C163.438 25.988 165.978 23.948 168.898 23.948C171.778 23.948 174.318 25.968 174.318 29.448C174.318 32.868 171.798 34.928 168.878 34.928ZM168.878 33.028C170.578 33.028 172.118 31.688 172.118 29.428C172.118 27.188 170.638 25.848 168.898 25.848C167.178 25.848 165.638 27.188 165.638 29.448C165.638 31.688 167.138 33.028 168.878 33.028ZM182.492 23.948C184.692 23.948 186.252 25.488 186.252 28.488V34.668H184.112V28.748C184.112 26.828 183.232 25.948 181.732 25.948C180.292 25.948 179.032 26.868 179.032 29.148V34.668H176.892V24.228H178.952L179.012 25.828C179.792 24.568 180.972 23.948 182.492 23.948ZM192.554 34.908C190.434 34.908 189.154 34.148 188.114 33.128L189.354 31.708C190.314 32.668 191.294 33.088 192.534 33.088C193.714 33.088 194.514 32.668 194.514 31.768C194.514 29.388 188.514 31.228 188.514 27.188C188.514 25.388 190.114 24.008 192.614 24.008C194.394 24.008 195.694 24.628 196.614 25.508L195.474 26.948C194.754 26.248 193.854 25.808 192.674 25.808C191.334 25.808 190.694 26.348 190.694 27.068C190.694 29.248 196.694 27.628 196.694 31.628C196.694 33.708 194.814 34.908 192.554 34.908Z" fill="#D34037"/>
</g>
<defs>
<clipPath id="clip0_2098_5892">
<rect width="213" height="40" fill="white" transform="translate(0.939453 0.134766)"/>
</clipPath>
</defs>
</svg>
