<svg width="41" height="41" viewBox="0 0 41 41" fill="none" xmlns="http://www.w3.org/2000/svg">
<path id="Vector" fill-rule="evenodd" clip-rule="evenodd" d="M39.3538 19.9691C36.6086 18.4055 31.2601 15.3592 31.2389 15.2397C31.2253 15.1673 31.2114 15.092 31.1971 15.0142L31.1968 15.0127C30.9807 13.8388 30.6591 12.0915 29.4046 11.1596C28.5221 10.5098 23.7517 8.30341 21.5615 7.29042C20.8928 6.98116 20.4647 6.78313 20.4611 6.77459C19.0293 4.65649 17.7605 2.43709 16.6652 0.134766C15.6249 0.901 14.7789 1.89128 14.1926 3.02892C13.6062 4.16656 13.2953 5.42101 13.2839 6.69514C9.46398 7.23093 5.87874 8.81963 2.94713 11.2756C10.55 9.57053 12.7398 11.1424 12.7398 11.1424C10.2506 11.5764 7.85209 12.4109 5.64158 13.612C2.40078 15.3557 0.939453 17.4494 0.939453 17.4494C0.939453 17.4494 8.29874 15.39 13.9466 17.3936C11.3128 17.7572 8.86462 18.9285 6.95371 20.7393C18.6597 22.1587 24.4326 32.1013 26.8615 40.1348C27.7545 25.8458 20.4852 20.4193 20.4852 20.4193C22.596 20.5675 25.251 22.1737 26.9493 24.5638C32.0633 23.9997 34.9388 25.507 34.9861 25.5445C34.9937 25.5389 35.1106 25.501 35.3087 25.4367C36.1055 25.178 38.2144 24.4932 39.8006 23.7779C39.6273 23.5223 38.8988 22.6354 38.4841 22.1394C38.5411 22.1437 40.1341 22.0513 40.9394 20.8767C40.9473 20.8767 40.3078 20.5125 39.3538 19.9691ZM24.8198 14.5397C25.1976 14.4404 27.4668 13.8437 28.1451 14.0951C28.8034 14.3378 28.8165 16.1717 28.8165 16.1717C28.8165 16.1717 27.3135 16.3779 24.7705 14.5525L24.7835 14.5492L24.8186 14.54L24.8198 14.5397Z" fill="white"/>
</svg>
