<svg width="52" height="15" viewBox="0 0 52 15" fill="none" xmlns="http://www.w3.org/2000/svg">
<path id="Union" fill-rule="evenodd" clip-rule="evenodd" d="M22.8289 5.33127C23.6052 4.26646 24.8125 3.68287 26.2613 3.68287H26.263C29.055 3.68287 31.0046 5.79994 31.0046 8.743C31.0046 11.6861 28.996 13.8211 26.2255 13.8211C24.7445 13.8211 23.5658 13.2662 22.8003 12.2122L22.7502 13.5859H20.6343V0H22.8289V5.33127ZM26.1074 11.9608C27.8066 11.9608 28.9924 10.6643 28.9924 8.80944C28.9924 6.91144 27.9372 5.63833 26.2165 5.63833C24.4959 5.63833 23.294 6.89528 23.294 8.80944C23.294 10.7236 24.4083 11.9608 26.1074 11.9608ZM7.55793 11.6466C7.01419 12.0631 6.58135 12.2248 6.01079 12.2248C5.17015 12.2248 4.68723 11.7112 4.68723 10.8134V5.74606H8.21434V3.79599H4.68723V1.26413H2.49263V3.79419H0.966954L0.469727 5.74427H2.49263V10.8313C2.49263 13.049 3.66773 14.27 5.80331 14.27C6.7781 14.27 7.64736 13.9683 8.45759 13.347L8.51661 13.3021L7.64378 11.5801L7.55793 11.6448V11.6466ZM13.9665 3.60565C11.1602 3.60565 9.12475 5.74247 9.12475 8.68554C9.12475 11.783 11.0618 13.7834 14.0577 13.7834C15.7694 13.7834 17.0482 13.259 18.0785 12.1332L18.1321 12.0757L16.9677 10.6661L16.898 10.7344C16.0949 11.5227 15.265 11.8746 14.2026 11.8746C12.5356 11.8746 11.5107 10.957 11.3086 9.28528H18.5185V9.1955C18.5185 9.10572 18.522 9.02132 18.5274 8.93693C18.5328 8.84894 18.5363 8.76095 18.5363 8.66758C18.5363 5.59343 16.7424 3.60565 13.9665 3.60565ZM11.3533 7.84158C11.6324 6.44277 12.6411 5.54495 13.9486 5.54495C15.2561 5.54495 16.1396 6.37992 16.3328 7.84158H11.3533ZM36.9607 3.60565C34.1544 3.60565 32.119 5.74247 32.119 8.68554C32.119 11.783 34.056 13.7834 37.0519 13.7834C38.7636 13.7834 40.0424 13.259 41.0727 12.1332L41.1263 12.0757L39.9619 10.6661L39.8922 10.7344C39.0891 11.5227 38.2592 11.8746 37.1968 11.8746C35.5298 11.8746 34.5049 10.957 34.3028 9.28528H41.5127V9.1955C41.5127 9.10572 41.5162 9.02132 41.5216 8.93693C41.527 8.84894 41.5305 8.76095 41.5305 8.66758C41.5305 5.59343 39.7366 3.60565 36.9607 3.60565ZM36.9428 5.54315C38.2699 5.54315 39.1338 6.37813 39.327 7.83979H34.3475C34.6266 6.44098 35.6353 5.54315 36.9428 5.54315ZM51.087 3.79422L47.6833 8.45033L51.4716 13.5859H48.8638L46.417 10.0808L44.0238 13.5859H41.5449L45.2043 8.57962L41.7094 3.79422H44.3172L46.4706 6.98329L48.6062 3.79422H51.087Z" fill="white"/>
</svg>
