<svg width="169" height="40" viewBox="0 0 169 40" fill="none" xmlns="http://www.w3.org/2000/svg">
<g clip-path="url(#clip0_2096_15683)">
<path d="M9.22548 10.1642C10.759 7.65896 13.536 6.93317 13.536 6.93317C13.536 6.93317 8.23594 5.5455 8.23594 0C8.23594 5.5455 2.93277 6.93317 2.93277 6.93317C2.93277 6.93317 5.71087 7.65896 7.24538 10.1642H0V19.7685L1.64719 16.7942H4.94054V33.3699L11.5283 40V19.7046C9.8483 18.9252 7.43488 16.9437 6.57031 15.4324C8.04643 15.8808 10.0265 16.4705 11.5682 16.7953H16.4698V10.1642H9.22548Z" fill="white"/>
<path fill-rule="evenodd" clip-rule="evenodd" d="M44.8289 18.1965C45.6052 17.1317 46.8125 16.5481 48.2612 16.5481H48.263C51.055 16.5481 53.0046 18.6652 53.0046 21.6082C53.0046 24.5513 50.996 26.6863 48.2255 26.6863C46.7445 26.6863 45.5658 26.1315 44.8003 25.0774L44.7502 26.4511H42.6343V12.8652H44.8289V18.1965ZM48.1074 24.826C49.8066 24.826 50.9924 23.5296 50.9924 21.6747C50.9924 19.7767 49.9372 18.5036 48.2165 18.5036C46.4959 18.5036 45.294 19.7605 45.294 21.6747C45.294 23.5888 46.4083 24.826 48.1074 24.826ZM29.5579 24.5118C29.0142 24.9284 28.5814 25.09 28.0108 25.09C27.1702 25.09 26.6872 24.5764 26.6872 23.6786V18.6113H30.2143V16.6612H26.6872V14.1294H24.4926V16.6594H22.967L22.4697 18.6095H24.4926V23.6966C24.4926 25.9142 25.6677 27.1352 27.8033 27.1352C28.7781 27.1352 29.6474 26.8336 30.4576 26.2123L30.5166 26.1674L29.6438 24.4453L29.5579 24.51V24.5118ZM35.9665 16.4709C33.1602 16.4709 31.1247 18.6077 31.1247 21.5508C31.1247 24.6483 33.0618 26.6486 36.0577 26.6486C37.7694 26.6486 39.0482 26.1243 40.0785 24.9984L40.1321 24.941L38.9677 23.5314L38.898 23.5996C38.0949 24.3879 37.265 24.7399 36.2026 24.7399C34.5356 24.7399 33.5107 23.8223 33.3086 22.1505H40.5184V22.0607C40.5184 21.971 40.522 21.8866 40.5274 21.8022C40.5328 21.7142 40.5363 21.6262 40.5363 21.5328C40.5363 18.4587 38.7424 16.4709 35.9665 16.4709ZM33.3533 20.7068C33.6324 19.308 34.6411 18.4102 35.9486 18.4102C37.256 18.4102 38.1396 19.2452 38.3328 20.7068H33.3533ZM58.9607 16.4709C56.1544 16.4709 54.1189 18.6077 54.1189 21.5508C54.1189 24.6483 56.056 26.6486 59.0519 26.6486C60.7636 26.6486 62.0424 26.1243 63.0726 24.9984L63.1263 24.941L61.9619 23.5314L61.8922 23.5996C61.0891 24.3879 60.2592 24.7399 59.1968 24.7399C57.5298 24.7399 56.5049 23.8223 56.3028 22.1505H63.5126V22.0607C63.5126 21.971 63.5162 21.8866 63.5216 21.8022C63.5269 21.7142 63.5305 21.6262 63.5305 21.5328C63.5305 18.4587 61.7366 16.4709 58.9607 16.4709ZM58.9428 18.4084C60.2699 18.4084 61.1338 19.2434 61.327 20.705H56.3475C56.6265 19.3062 57.6353 18.4084 58.9428 18.4084ZM73.087 16.6595L69.6833 21.3156L73.4715 26.4511H70.8638L68.417 22.946L66.0238 26.4511H63.5448L67.2043 21.4449L63.7094 16.6595H66.3172L68.4706 19.8485L70.6062 16.6595H73.087Z" fill="white"/>
<path d="M83.6317 26.74C80.6517 26.74 78.3917 24.7 78.3917 21.28C78.3917 18.06 80.7117 15.84 83.8117 15.84C85.3317 15.84 86.5717 16.32 87.5317 17.26L86.3717 18.82C85.6917 18.12 84.8917 17.78 83.8917 17.78C82.0317 17.78 80.5917 19.16 80.5917 21.3C80.5917 23.6 82.0517 24.78 83.7717 24.78C84.7717 24.78 85.5917 24.48 86.4317 23.66L87.5917 25.16C86.5317 26.2 85.3117 26.74 83.6317 26.74ZM95.6701 15.78C97.9301 15.78 99.5101 17.32 99.5101 20.32V26.5H97.3701V20.58C97.3701 18.66 96.4501 17.78 94.9301 17.78C93.4701 17.78 92.1701 18.7 92.1701 20.98V26.5H90.0301V11.72H92.1701V17.62C92.9501 16.38 94.1501 15.78 95.6701 15.78ZM112.009 21.24C112.009 21.44 111.989 21.62 111.989 21.82H104.029C104.229 23.82 105.429 24.86 107.329 24.86C108.489 24.86 109.429 24.5 110.369 23.58L111.529 24.98C110.389 26.22 108.989 26.76 107.169 26.76C103.989 26.76 101.829 24.7 101.829 21.26C101.829 17.9 104.209 15.78 107.069 15.78C109.969 15.78 112.009 17.78 112.009 21.24ZM107.049 17.58C105.509 17.58 104.349 18.66 104.069 20.3H109.789C109.609 18.66 108.649 17.58 107.049 17.58ZM119.022 26.74C116.042 26.74 113.782 24.7 113.782 21.28C113.782 18.06 116.102 15.84 119.202 15.84C120.722 15.84 121.962 16.32 122.922 17.26L121.762 18.82C121.082 18.12 120.282 17.78 119.282 17.78C117.422 17.78 115.982 19.16 115.982 21.3C115.982 23.6 117.442 24.78 119.162 24.78C120.162 24.78 120.982 24.48 121.822 23.66L122.982 25.16C121.922 26.2 120.702 26.74 119.022 26.74ZM131.521 26.5L127.561 21.24V26.5H125.421V11.72H127.561V20.84L131.581 16.06H134.181L129.821 20.92L134.221 26.5H131.521ZM140.101 26.76C137.221 26.76 134.661 24.72 134.661 21.28C134.661 17.82 137.201 15.78 140.121 15.78C143.001 15.78 145.541 17.8 145.541 21.28C145.541 24.7 143.021 26.76 140.101 26.76ZM140.101 24.86C141.801 24.86 143.341 23.52 143.341 21.26C143.341 19.02 141.861 17.68 140.121 17.68C138.401 17.68 136.861 19.02 136.861 21.28C136.861 23.52 138.361 24.86 140.101 24.86ZM157.236 16.06V26.5H155.176L155.096 24.88C154.336 26.14 153.156 26.76 151.636 26.76C149.416 26.76 147.876 25.24 147.876 22.22V16.06H150.016V21.96C150.016 23.88 150.896 24.78 152.396 24.78C153.836 24.78 155.076 23.86 155.076 21.56V16.06H157.236ZM167.437 25.82C166.637 26.42 165.737 26.76 164.677 26.76C162.737 26.76 161.257 25.78 161.257 23.28V17.9H159.137L159.617 16.06H161.257V13.18H163.397V16.06H167.237V17.9H163.397V23.26C163.397 24.32 164.017 24.82 164.897 24.82C165.557 24.82 166.037 24.62 166.597 24.2L167.437 25.82Z" fill="#41C4C3"/>
</g>
<defs>
<clipPath id="clip0_2096_15683">
<rect width="168.472" height="40" fill="white"/>
</clipPath>
</defs>
</svg>
