<svg width="148" height="41" viewBox="0 0 148 41" fill="none" xmlns="http://www.w3.org/2000/svg">
<g clip-path="url(#clip0_2098_4335)">
<path d="M25.2255 10.2989C26.759 7.79373 29.536 7.06793 29.536 7.06793C29.536 7.06793 24.2359 5.68027 24.2359 0.134766C24.2359 5.68027 18.9328 7.06793 18.9328 7.06793C18.9328 7.06793 21.7109 7.79373 23.2454 10.2989H16V19.9033L17.6472 16.929H20.9405V33.5047L27.5283 40.1348V19.8394C25.8483 19.06 23.4349 17.0785 22.5703 15.5671C24.0464 16.0156 26.0265 16.6053 27.5682 16.93H32.4698V10.2989H25.2255Z" fill="white"/>
<path fill-rule="evenodd" clip-rule="evenodd" d="M62.8289 8.33127C63.6052 7.26646 64.8125 6.68287 66.2613 6.68287H66.263C69.055 6.68287 71.0046 8.79994 71.0046 11.743C71.0046 14.6861 68.996 16.8211 66.2255 16.8211C64.7445 16.8211 63.5658 16.2662 62.8003 15.2122L62.7502 16.5859H60.6343V3H62.8289V8.33127ZM66.1074 14.9608C67.8066 14.9608 68.9924 13.6643 68.9924 11.8094C68.9924 9.91144 67.9372 8.63833 66.2165 8.63833C64.4959 8.63833 63.294 9.89528 63.294 11.8094C63.294 13.7236 64.4083 14.9608 66.1074 14.9608ZM47.5579 14.6466C47.0142 15.0631 46.5814 15.2248 46.0108 15.2248C45.1702 15.2248 44.6872 14.7112 44.6872 13.8134V8.74606H48.2143V6.79599H44.6872V4.26413H42.4926V6.79419H40.967L40.4697 8.74427H42.4926V13.8313C42.4926 16.049 43.6677 17.27 45.8033 17.27C46.7781 17.27 47.6474 16.9683 48.4576 16.347L48.5166 16.3021L47.6438 14.5801L47.5579 14.6448V14.6466ZM53.9665 6.60565C51.1602 6.60565 49.1248 8.74247 49.1248 11.6855C49.1248 14.783 51.0618 16.7834 54.0577 16.7834C55.7694 16.7834 57.0482 16.259 58.0785 15.1332L58.1321 15.0757L56.9677 13.6661L56.898 13.7344C56.0949 14.5227 55.265 14.8746 54.2026 14.8746C52.5356 14.8746 51.5107 13.957 51.3086 12.2853H58.5185V12.1955C58.5185 12.1057 58.522 12.0213 58.5274 11.9369C58.5328 11.8489 58.5363 11.761 58.5363 11.6676C58.5363 8.59343 56.7424 6.60565 53.9665 6.60565ZM51.3533 10.8416C51.6324 9.44277 52.6411 8.54495 53.9486 8.54495C55.2561 8.54495 56.1396 9.37992 56.3328 10.8416H51.3533ZM76.9607 6.60565C74.1544 6.60565 72.119 8.74247 72.119 11.6855C72.119 14.783 74.056 16.7834 77.0519 16.7834C78.7636 16.7834 80.0424 16.259 81.0727 15.1332L81.1263 15.0757L79.9619 13.6661L79.8922 13.7344C79.0891 14.5227 78.2592 14.8746 77.1968 14.8746C75.5298 14.8746 74.5049 13.957 74.3028 12.2853H81.5127V12.1955C81.5127 12.1057 81.5162 12.0213 81.5216 11.9369C81.527 11.8489 81.5305 11.761 81.5305 11.6676C81.5305 8.59343 79.7366 6.60565 76.9607 6.60565ZM76.9428 8.54315C78.2699 8.54315 79.1338 9.37813 79.327 10.8398H74.3475C74.6266 9.44098 75.6353 8.54315 76.9428 8.54315ZM91.087 6.79422L87.6833 11.4503L91.4716 16.5859H88.8638L86.417 13.0808L84.0238 16.5859H81.5449L85.2043 11.5796L81.7094 6.79422H84.3172L86.4706 9.98329L88.6062 6.79422H91.087Z" fill="white"/>
<path d="M46.6297 36.5095C43.6497 36.5095 41.3897 34.4695 41.3897 31.0495C41.3897 27.8295 43.7097 25.6095 46.8097 25.6095C48.3297 25.6095 49.5697 26.0895 50.5297 27.0295L49.3697 28.5895C48.6897 27.8895 47.8897 27.5495 46.8897 27.5495C45.0297 27.5495 43.5897 28.9295 43.5897 31.0695C43.5897 33.3695 45.0497 34.5495 46.7697 34.5495C47.7697 34.5495 48.5897 34.2495 49.4297 33.4295L50.5897 34.9295C49.5297 35.9695 48.3097 36.5095 46.6297 36.5095ZM58.6682 25.5495C60.9282 25.5495 62.5082 27.0895 62.5082 30.0895V36.2695H60.3682V30.3495C60.3682 28.4295 59.4482 27.5495 57.9282 27.5495C56.4682 27.5495 55.1682 28.4695 55.1682 30.7495V36.2695H53.0282V21.4895H55.1682V27.3895C55.9482 26.1495 57.1482 25.5495 58.6682 25.5495ZM75.0072 31.0095C75.0072 31.2095 74.9872 31.3895 74.9872 31.5895H67.0272C67.2272 33.5895 68.4272 34.6295 70.3272 34.6295C71.4872 34.6295 72.4272 34.2695 73.3672 33.3495L74.5272 34.7495C73.3872 35.9895 71.9872 36.5295 70.1672 36.5295C66.9872 36.5295 64.8272 34.4695 64.8272 31.0295C64.8272 27.6695 67.2072 25.5495 70.0672 25.5495C72.9672 25.5495 75.0072 27.5495 75.0072 31.0095ZM70.0472 27.3495C68.5072 27.3495 67.3472 28.4295 67.0672 30.0695H72.7872C72.6072 28.4295 71.6472 27.3495 70.0472 27.3495ZM82.0204 36.5095C79.0404 36.5095 76.7804 34.4695 76.7804 31.0495C76.7804 27.8295 79.1004 25.6095 82.2004 25.6095C83.7204 25.6095 84.9604 26.0895 85.9204 27.0295L84.7604 28.5895C84.0804 27.8895 83.2804 27.5495 82.2804 27.5495C80.4204 27.5495 78.9804 28.9295 78.9804 31.0695C78.9804 33.3695 80.4404 34.5495 82.1604 34.5495C83.1604 34.5495 83.9804 34.2495 84.8204 33.4295L85.9804 34.9295C84.9204 35.9695 83.7004 36.5095 82.0204 36.5095ZM94.5188 36.2695L90.5588 31.0095V36.2695H88.4188V21.4895H90.5588V30.6095L94.5788 25.8295H97.1788L92.8188 30.6895L97.2188 36.2695H94.5188ZM103.099 36.5295C100.219 36.5295 97.6593 34.4895 97.6593 31.0495C97.6593 27.5895 100.199 25.5495 103.119 25.5495C105.999 25.5495 108.539 27.5695 108.539 31.0495C108.539 34.4695 106.019 36.5295 103.099 36.5295ZM103.099 34.6295C104.799 34.6295 106.339 33.2895 106.339 31.0295C106.339 28.7895 104.859 27.4495 103.119 27.4495C101.399 27.4495 99.8593 28.7895 99.8593 31.0495C99.8593 33.2895 101.359 34.6295 103.099 34.6295ZM120.234 25.8295V36.2695H118.174L118.094 34.6495C117.334 35.9095 116.154 36.5295 114.634 36.5295C112.414 36.5295 110.874 35.0095 110.874 31.9895V25.8295H113.014V31.7295C113.014 33.6495 113.894 34.5495 115.394 34.5495C116.834 34.5495 118.074 33.6295 118.074 31.3295V25.8295H120.234ZM130.436 35.5895C129.636 36.1895 128.736 36.5295 127.676 36.5295C125.736 36.5295 124.256 35.5495 124.256 33.0495V27.6695H122.136L122.616 25.8295H124.256V22.9495H126.396V25.8295H130.236V27.6695H126.396V33.0295C126.396 34.0895 127.016 34.5895 127.896 34.5895C128.556 34.5895 129.036 34.3895 129.596 33.9695L130.436 35.5895Z" fill="#41C4C3"/>
</g>
<defs>
<clipPath id="clip0_2098_4335">
<rect width="147.47" height="40.27" fill="white"/>
</clipPath>
</defs>
</svg>
