<svg width="143" height="41" viewBox="0 0 143 41" fill="none" xmlns="http://www.w3.org/2000/svg">
<g clip-path="url(#clip0_2098_4315)">
<path d="M25.6952 10.2989C27.2287 7.79373 30.0058 7.06793 30.0058 7.06793C30.0058 7.06793 24.7057 5.68027 24.7057 0.134766C24.7057 5.68027 19.4025 7.06793 19.4025 7.06793C19.4025 7.06793 22.1806 7.79373 23.7151 10.2989H16.4697V19.9033L18.1169 16.929H21.4103V33.5047L27.998 40.1348V19.8394C26.318 19.06 23.9046 17.0785 23.04 15.5671C24.5162 16.0156 26.4963 16.6053 28.0379 16.93H32.9396V10.2989H25.6952Z" fill="white"/>
<path fill-rule="evenodd" clip-rule="evenodd" d="M63.2987 8.33127C64.0749 7.26646 65.2822 6.68287 66.731 6.68287H66.7328C69.5248 6.68287 71.4743 8.79994 71.4743 11.743C71.4743 14.6861 69.4657 16.8211 66.6952 16.8211C65.2143 16.8211 64.0356 16.2662 63.2701 15.2122L63.22 16.5859H61.1041V3H63.2987V8.33127ZM66.5772 14.9608C68.2763 14.9608 69.4622 13.6643 69.4622 11.8094C69.4622 9.91144 68.4069 8.63833 66.6863 8.63833C64.9656 8.63833 63.7637 9.89528 63.7637 11.8094C63.7637 13.7236 64.878 14.9608 66.5772 14.9608ZM48.0277 14.6466C47.4839 15.0631 47.0511 15.2248 46.4805 15.2248C45.6399 15.2248 45.157 14.7112 45.157 13.8134V8.74606H48.6841V6.79599H45.157V4.26413H42.9624V6.79419H41.4367L40.9395 8.74427H42.9624V13.8313C42.9624 16.049 44.1375 17.27 46.273 17.27C47.2478 17.27 48.1171 16.9683 48.9273 16.347L48.9863 16.3021L48.1135 14.5801L48.0277 14.6448V14.6466ZM54.4362 6.60565C51.6299 6.60565 49.5945 8.74247 49.5945 11.6855C49.5945 14.783 51.5315 16.7834 54.5274 16.7834C56.2391 16.7834 57.518 16.259 58.5482 15.1332L58.6018 15.0757L57.4375 13.6661L57.3677 13.7344C56.5646 14.5227 55.7347 14.8746 54.6723 14.8746C53.0053 14.8746 51.9805 13.957 51.7784 12.2853H58.9882V12.1955C58.9882 12.1057 58.9918 12.0213 58.9971 11.9369C59.0025 11.8489 59.0061 11.761 59.0061 11.6676C59.0061 8.59343 57.2121 6.60565 54.4362 6.60565ZM51.8231 10.8416C52.1021 9.44277 53.1109 8.54495 54.4183 8.54495C55.7258 8.54495 56.6093 9.37992 56.8025 10.8416H51.8231ZM77.4304 6.60565C74.6241 6.60565 72.5887 8.74247 72.5887 11.6855C72.5887 14.783 74.5257 16.7834 77.5216 16.7834C79.2333 16.7834 80.5122 16.259 81.5424 15.1332L81.596 15.0757L80.4317 13.6661L80.3619 13.7344C79.5588 14.5227 78.7289 14.8746 77.6665 14.8746C75.9995 14.8746 74.9747 13.957 74.7726 12.2853H81.9824V12.1955C81.9824 12.1057 81.986 12.0213 81.9913 11.9369C81.9967 11.8489 82.0003 11.761 82.0003 11.6676C82.0003 8.59343 80.2063 6.60565 77.4304 6.60565ZM77.4125 8.54315C78.7397 8.54315 79.6035 9.37813 79.7967 10.8398H74.8173C75.0963 9.44098 76.1051 8.54315 77.4125 8.54315ZM91.5567 6.79422L88.153 11.4503L91.9413 16.5859H89.3335L86.8867 13.0808L84.4936 16.5859H82.0146L85.674 11.5796L82.1791 6.79422H84.7869L86.9404 9.98329L89.076 6.79422H91.5567Z" fill="white"/>
<path d="M48.2395 25.5495C50.4995 25.5495 52.0795 27.0895 52.0795 30.0895V36.2695H49.9395V30.3495C49.9395 28.4295 49.0195 27.5495 47.4995 27.5495C46.0395 27.5495 44.7395 28.4695 44.7395 30.7495V36.2695H42.5995V21.4895H44.7395V27.3895C45.5195 26.1495 46.7195 25.5495 48.2395 25.5495ZM64.5785 31.0095C64.5785 31.2095 64.5585 31.3895 64.5585 31.5895H56.5985C56.7985 33.5895 57.9985 34.6295 59.8985 34.6295C61.0585 34.6295 61.9985 34.2695 62.9385 33.3495L64.0985 34.7495C62.9585 35.9895 61.5585 36.5295 59.7385 36.5295C56.5585 36.5295 54.3985 34.4695 54.3985 31.0295C54.3985 27.6695 56.7785 25.5495 59.6385 25.5495C62.5385 25.5495 64.5785 27.5495 64.5785 31.0095ZM59.6185 27.3495C58.0785 27.3495 56.9185 28.4295 56.6385 30.0695H62.3585C62.1785 28.4295 61.2185 27.3495 59.6185 27.3495ZM73.2563 36.2695C73.1763 35.7495 73.0963 35.2695 73.0363 34.7695C72.3563 35.8695 71.1963 36.4895 69.7163 36.4895C67.5563 36.4895 66.0363 35.3295 66.0363 33.2695C66.0363 31.2495 67.7163 29.9495 70.5963 29.9495C71.5763 29.9495 72.3363 30.0895 72.9563 30.2495V29.7295C72.9563 28.2495 71.9963 27.3895 70.4163 27.3895C69.1963 27.3895 68.2963 27.7895 67.4763 28.3695L66.6363 26.7695C67.6963 26.0495 68.9763 25.5695 70.5563 25.5695C73.2963 25.5695 74.9963 27.0895 74.9963 29.7095V33.2695C74.9963 34.4095 75.0963 35.4495 75.2163 36.2695H73.2563ZM70.1763 34.7895C71.7963 34.7895 72.9363 33.8295 72.9563 32.1895V31.7295C72.3563 31.5495 71.6763 31.4495 70.8363 31.4495C68.9563 31.4495 68.1363 32.1695 68.1363 33.2295C68.1363 34.1495 68.8763 34.7895 70.1763 34.7895ZM88.1277 21.4895V36.2695H86.0877L86.0277 34.4895C85.2477 35.7495 83.9877 36.5295 82.2677 36.5295C79.1877 36.5295 77.3477 34.1095 77.3477 31.0695C77.3477 27.9895 79.3677 25.5495 82.3077 25.5495C84.0077 25.5495 85.2277 26.2895 85.9877 27.4695V21.4895H88.1277ZM82.7077 34.6295C84.4077 34.6295 85.8077 33.4695 85.9877 31.4895V30.5895C85.8077 28.6295 84.5277 27.4695 82.8077 27.4695C80.9677 27.4695 79.5477 28.8695 79.5477 31.0495C79.5477 33.2495 80.8877 34.6295 82.7077 34.6295ZM91.4666 21.4895H93.6066V36.2695H91.4666V21.4895ZM106.395 31.0095C106.395 31.2095 106.375 31.3895 106.375 31.5895H98.4149C98.6149 33.5895 99.8149 34.6295 101.715 34.6295C102.875 34.6295 103.815 34.2695 104.755 33.3495L105.915 34.7495C104.775 35.9895 103.375 36.5295 101.555 36.5295C98.3749 36.5295 96.2149 34.4695 96.2149 31.0295C96.2149 27.6695 98.5949 25.5495 101.455 25.5495C104.355 25.5495 106.395 27.5495 106.395 31.0095ZM101.435 27.3495C99.8949 27.3495 98.7349 28.4295 98.4549 30.0695H104.175C103.995 28.4295 103.035 27.3495 101.435 27.3495ZM112.128 36.5095C110.008 36.5095 108.728 35.7495 107.688 34.7295L108.928 33.3095C109.888 34.2695 110.868 34.6895 112.108 34.6895C113.288 34.6895 114.088 34.2695 114.088 33.3695C114.088 30.9895 108.088 32.8295 108.088 28.7895C108.088 26.9895 109.688 25.6095 112.188 25.6095C113.968 25.6095 115.268 26.2295 116.188 27.1095L115.048 28.5495C114.328 27.8495 113.428 27.4095 112.248 27.4095C110.908 27.4095 110.268 27.9495 110.268 28.6695C110.268 30.8495 116.268 29.2295 116.268 33.2295C116.268 35.3095 114.388 36.5095 112.128 36.5095ZM121.835 36.5095C119.715 36.5095 118.435 35.7495 117.395 34.7295L118.635 33.3095C119.595 34.2695 120.575 34.6895 121.815 34.6895C122.995 34.6895 123.795 34.2695 123.795 33.3695C123.795 30.9895 117.795 32.8295 117.795 28.7895C117.795 26.9895 119.395 25.6095 121.895 25.6095C123.675 25.6095 124.975 26.2295 125.895 27.1095L124.755 28.5495C124.035 27.8495 123.135 27.4095 121.955 27.4095C120.615 27.4095 119.975 27.9495 119.975 28.6695C119.975 30.8495 125.975 29.2295 125.975 33.2295C125.975 35.3095 124.095 36.5095 121.835 36.5095Z" fill="#41C4C3"/>
</g>
<defs>
<clipPath id="clip0_2098_4315">
<rect width="142.47" height="40.27" fill="white" transform="translate(0.469727)"/>
</clipPath>
</defs>
</svg>
