<svg width="30" height="30" viewBox="0 0 30 30" fill="none" xmlns="http://www.w3.org/2000/svg"><path fill-rule="evenodd" clip-rule="evenodd" d="M15 27.7c7.014 0 12.7-5.686 12.7-12.7 0-7.014-5.686-12.7-12.7-12.7C7.986 2.3 2.3 7.986 2.3 15c0 7.014 5.686 12.7 12.7 12.7zm0 2.3c8.284 0 15-6.716 15-15 0-8.284-6.716-15-15-15C6.716 0 0 6.716 0 15c0 8.284 6.716 15 15 15zm.208-23.442c.636 0 1.15.515 1.15 1.15v9.584a1.15 1.15 0 01-2.3 0V7.708c0-.635.515-1.15 1.15-1.15zm1.15 15.109a1.15 1.15 0 00-2.3 0v.416a1.15 1.15 0 002.3 0v-.416z" fill="#303030"/></svg>