<svg width="46" height="52" viewBox="0 0 46 52" fill="none" xmlns="http://www.w3.org/2000/svg"><path d="M33.87 18.991l-2.41 2.41c-.411.413-.826.829-1.238 1.24l-3.018 3.02-3.172 3.175-1.125 1.126c-.174.174-.361.34-.523.523-.003.006-.01.01-.013.013-.012.019.257-.172.156-.124l.228-.095c-.086.035-.184.047-.276.06.086-.012.168-.022.254-.035-.764.099-1.547.09-2.317.086l.95.951c-.006-.78-.018-1.576.077-2.35-.013.086-.022.168-.035.254.022-.168.089-.333.089-.501-.045.159-.086.32-.13.479-.127.212-.156.184-.073.101l.142-.142.508-.508 1.546-1.548 2.288-2.29c.79-.79 1.579-1.582 2.371-2.372l1.762-1.763 2.77-2.772.067-.067h-1.344l2.155 2.157.314.314c.352.352.998.377 1.344 0 .348-.38.377-.97 0-1.345l-2.171-2.172-.301-.301a.962.962 0 00-1.344 0l-2.539 2.54c-.574.574-1.144 1.145-1.714 1.719l-2.685 2.686-2.006 2.008c-.843.843-1.699 1.677-2.53 2.534-.196.203-.329.453-.329.742.013-.086.022-.168.035-.254-.095.267-.101.571-.12.85-.023.298-.029.6-.035.898-.007.368-.01.736-.007 1.103a.964.964 0 00.951.952c.707.003 1.417 0 2.12-.064.431-.04.856-.076 1.186-.39.066-.063.13-.13.193-.193l2.675-2.677 3.784-3.787 2.32-2.321 2.412-2.414.108-.108c.352-.352.377-.999 0-1.344-.384-.352-.973-.378-1.35-.004z" fill="#303030"/><path d="M36.256 16.603L34.17 18.69c-.1.102-.2.2-.3.301h1.343l-2.17-2.172-.302-.301v1.345l2.124-2.125.2-.2c.015-.016.037-.032.05-.051 0-.003.01-.006.01-.01-.004.045-.22.13-.042.048l-.228.095a.599.599 0 01.13-.031l-.254.034a.411.411 0 01.09 0l-.254-.034a.72.72 0 01.142.038l-.228-.096c.165.086.34.156.53.156-.16-.045-.32-.086-.48-.13.074.047.124.13-.11-.086-.092-.225-.187-.447-.279-.672 0 .526.523.916.865 1.259l1.03 1.03.165.165c.013.013.025.03.038.039l.006.006c.02.019.004-.003-.047-.063-.098-.134-.022-.026-.006.012l-.096-.228a.514.514 0 01.032.12c-.012-.085-.022-.168-.035-.253a.824.824 0 010 .123c.013-.085.023-.168.035-.253-.006.04-.019.079-.032.12l.096-.228c-.032.095-.102.14.063-.045-.336.368-.39.987 0 1.345.364.336.989.393 1.344 0 .532-.584.538-1.424-.01-2.001-.108-.114-.222-.222-.33-.33l-1.169-1.17-.317-.317c.092.225.187.447.28.672 0-.536-.502-1.015-1.034-1.015l.478.13c-.602-.352-1.302-.197-1.777.276l-.504.504-1.465 1.466-.355.355a.963.963 0 000 1.345l2.156 2.156.313.314a.962.962 0 001.344 0l2.085-2.087.301-.301c.352-.352.378-1 0-1.345-.373-.342-.963-.37-1.34.003z" fill="#303030"/><path d="M36.256 16.603L34.17 18.69c-.1.102-.2.2-.3.301h1.343l-2.17-2.172-.302-.301v1.345l2.124-2.125.2-.2c.015-.016.037-.032.05-.051 0-.003.01-.006.01-.01-.004.045-.22.13-.042.048l-.228.095a.599.599 0 01.13-.031l-.254.034a.411.411 0 01.09 0l-.254-.034a.72.72 0 01.142.038l-.228-.096c.165.086.34.156.53.156-.16-.045-.32-.086-.48-.13.153.101-.192-.175-.078-.054.038.041.082.082.123.124l.444.444 1.027 1.027.158.159c.013.012.026.028.038.038l.007.006c.019.02.003-.003-.048-.063-.098-.133-.022-.026-.006.012l-.095-.228a.516.516 0 01.031.12c-.012-.085-.022-.168-.035-.253a.798.798 0 010 .123c.013-.085.023-.168.035-.253-.006.041-.019.08-.031.12l.095-.228c-.035.092-.105.136.06-.048-.336.368-.39.987 0 1.345.364.336.989.393 1.344 0 .532-.584.538-1.433-.016-2.008-.124-.13-.254-.253-.38-.38l-1.22-1.221c-.273-.273-.54-.555-.964-.555.158.044.32.085.478.13-.602-.352-1.302-.197-1.777.276l-.504.504-1.465 1.465-.355.356a.963.963 0 000 1.344l2.156 2.157.313.314a.962.962 0 001.344 0l2.085-2.087.301-.301c.352-.352.378-1 0-1.345-.373-.34-.963-.368-1.34.006zm-16.629 11.89c-.003.01-.006.023-.013.032a.708.708 0 00-.016.38.724.724 0 00.114.356c.06.11.143.2.244.266.092.086.2.14.324.172l.253.034a.934.934 0 00.479-.13c.063-.05.127-.098.193-.149a.95.95 0 00.244-.418c.003-.01.006-.023.013-.032a.708.708 0 00.016-.38.724.724 0 00-.114-.356.732.732 0 00-.244-.266.727.727 0 00-.324-.171c-.085-.013-.168-.023-.253-.035a.935.935 0 00-.479.13c-.063.05-.127.098-.193.149a.933.933 0 00-.244.418z" fill="#303030"/><path d="M21.363 29.226c.007-.013.013-.025.02-.035-.051.064-.099.127-.15.194l.007-.007h-1.344a.704.704 0 00.307.197c.114.06.235.085.368.082a.704.704 0 00.368-.082.742.742 0 00.307-.197l.15-.193a.946.946 0 00.129-.48c-.013-.085-.022-.167-.035-.253a.933.933 0 00-.244-.419.703.703 0 00-.307-.196.728.728 0 00-.368-.083c-.086.013-.168.023-.254.035a.932.932 0 00-.418.244 1.225 1.225 0 00-.171.232.715.715 0 00-.114.355.74.74 0 00.016.38.696.696 0 00.17.324.705.705 0 00.267.244l.228.096a.982.982 0 00.507 0l.229-.096c.133-.085.247-.2.332-.342z" fill="#303030"/><path d="M31.095 12.942v5.068l1.62-.657-.016-.015a.976.976 0 00-1.341 0l-2.535 2.48c-.572.56-1.142 1.117-1.711 1.677l-2.68 2.622-2.003 1.96c-.841.823-1.696 1.637-2.525 2.473-.196.198-.329.442-.329.724.013-.083.022-.164.035-.247-.095.26-.101.557-.12.83-.022.29-.029.584-.035.875-.006.36-.01.718-.006 1.078.003.504.43.925.949.928.55.003 1.098-.006 1.648-.03.58-.029 1.237-.02 1.68-.437.535-.508 1.057-1.034 1.582-1.548l2.943-2.879 2.933-2.87c.506-.495 1.025-.978 1.515-1.482l.023-.022c-.541-.22-1.08-.436-1.62-.656v10.822c0 .467.003.935 0 1.405 0 .087-.007.177-.016.263.012-.083.022-.164.035-.247a2.1 2.1 0 01-.143.517l.095-.223c-.05.111-.104.22-.174.322-.019.028-.041.055-.057.083-.044.078.165-.188.06-.077l-.123.133c-.044.043-.092.08-.136.12-.098.087.095-.074.095-.07.003.006-.08.052-.086.058-.11.072-.224.13-.345.183l.228-.093c-.17.068-.348.115-.528.14.085-.013.168-.022.253-.035-.237.028-.48.016-.721.016H13.273c-.747 0-1.497.006-2.244 0-.095 0-.186-.006-.278-.016.085.013.168.022.253.035a2.216 2.216 0 01-.528-.14l.227.093a1.94 1.94 0 01-.329-.17c-.028-.019-.057-.04-.085-.056-.08-.043.193.161.08.059-.045-.04-.093-.08-.137-.12-.044-.044-.082-.09-.123-.134-.089-.096.076.093.072.093-.006.003-.053-.078-.06-.084a2.348 2.348 0 01-.186-.337l.095.223a2.13 2.13 0 01-.143-.517c.013.083.022.164.035.247-.032-.263-.016-.532-.016-.798v-21.54c0-.093.006-.186.016-.279-.013.084-.022.164-.035.248.025-.18.073-.35.143-.517l-.095.223c.05-.111.104-.22.174-.322.019-.028.04-.056.057-.084.044-.077-.165.19-.06.078l.123-.133c.044-.044.092-.08.136-.121.098-.087-.095.074-.095.071-.003-.006.08-.052.085-.059.111-.07.225-.13.345-.182-.076.03-.152.062-.227.093.17-.069.347-.115.528-.14-.086.013-.168.022-.253.034.237-.028.48-.015.721-.015h16.266c.747 0 1.497-.006 2.243 0 .095 0 .187.006.279.015-.086-.012-.168-.021-.253-.034.183.025.357.072.528.14l-.228-.093c.114.046.225.102.33.17.028.019.056.04.085.056.079.043-.193-.161-.08-.06l.137.122c.044.043.082.09.123.133.089.096-.076-.093-.073-.093.007-.003.054.077.06.084.073.108.133.22.187.337l-.095-.223c.07.167.117.34.143.517-.013-.084-.023-.164-.035-.248.003.084.01.167.01.254.006.486.433.95.948.929.51-.022.956-.409.95-.929-.01-.839-.377-1.69-1.048-2.226A3.143 3.143 0 0029.982 10c-.228-.003-.453 0-.68 0H11.013a3.143 3.143 0 00-1.965.715C8.33 11.29 8 12.174 8 13.063v21.461c0 .174-.003.347 0 .52.007.771.314 1.517.867 2.068.56.56 1.345.87 2.142.876.725.006 1.45 0 2.177 0H28.5c1.031 0 2.183.127 3.091-.452a2.992 2.992 0 001.389-2.235c.016-.139.016-.275.016-.415V22.811a.93.93 0 00-.582-.848.971.971 0 00-1.038.191l-.908.889a21860.524 21860.524 0 01-4.803 4.699l-2.253 2.204-.734.718c-.107.105-.228.204-.326.319-.057.068.266-.17.149-.114l.228-.093c-.086.034-.184.046-.276.058.086-.012.168-.021.254-.034-.763.096-1.544.087-2.313.084l.949.929c-.006-.762-.02-1.539.076-2.294-.013.083-.022.164-.035.247.022-.164.089-.325.089-.489-.045.155-.086.313-.13.468-.127.207-.155.18-.073.099l.142-.14.507-.495 1.544-1.51 2.284-2.235c.788-.771 1.576-1.545 2.367-2.316l1.759-1.721 2.765-2.706.067-.064h-1.342l.016.015a.971.971 0 001.038.192.93.93 0 00.582-.848v-5.068c0-.486-.437-.95-.95-.928-.518.015-.955.402-.955.922z" fill="#303030"/><path d="M13.39 17.231h12.477c.577 0 1.157.013 1.734 0h.022c.498 0 .973-.43.951-.935-.022-.508-.418-.935-.95-.935H15.145c-.577 0-1.157-.012-1.734 0h-.022c-.498 0-.973.43-.95.935.021.508.418.935.95.935zm10.433 2.006H13.39c-.498 0-.973.43-.951.935.022.508.418.934.95.934h10.434c.497 0 .973-.43.95-.934-.025-.509-.418-.935-.95-.935zm-5.071 3.869h-5.359c-.498 0-.973.43-.95.935.021.508.418.935.95.935h5.359c.498 0 .973-.43.951-.935-.025-.505-.418-.935-.95-.935zm-1.267 3.87h-4.092c-.498 0-.973.43-.95.935.021.508.418.935.95.935h4.092c.497 0 .973-.43.95-.935-.025-.508-.418-.935-.95-.935z" fill="#303030"/></svg>