<svg width="24" height="36" viewBox="0 0 24 36" fill="none" xmlns="http://www.w3.org/2000/svg"><path fill-rule="evenodd" clip-rule="evenodd" d="M12 .004V0c6.616 0 12 5.386 12 12.01 0 2.385-1.45 4.702-2.874 6.978l-.29.465c-1.391 2.234-2.645 4.42-2.836 6.015v.563h-.04v4C17.96 33.322 15.287 36 12 36s-5.96-2.678-5.96-5.968v-4H6v-.58c-.19-1.592-1.441-3.775-2.832-6.007l-.299-.478C1.45 16.699.003 14.391 0 12.014 0 5.39 5.384.004 12 .004zm0 1.92V1.92A10.07 10.07 0 001.922 12.01c.002 1.613 1.366 3.992 2.875 6.414l.292.468c1.056 1.687 2.125 3.394 2.606 5.137h8.614c.484-1.743 1.552-3.452 2.608-5.139l.286-.458c1.51-2.424 2.875-4.803 2.875-6.418 0-5.584-4.5-10.09-10.078-10.09zm4.04 28.108v-4H7.96v4.004h8.08v-.004zM12 34.08c1.518 0 2.81-.822 3.5-2.042h-7A3.996 3.996 0 0012 34.08zm4.262-24.033a1.001 1.001 0 00-.922-1.615l-6.991 1a1 1 0 00.282 1.98l4.495-.643-4.417 5.528a1.001 1.001 0 00.944 1.611l5.993-1a1 1 0 00-.329-1.973l-3.418.57 4.363-5.458z" fill="#303030"/></svg>