<svg width="25" height="38" viewBox="0 0 25 38" fill="none" xmlns="http://www.w3.org/2000/svg"><path d="M16.066 1.316A.719.719 0 0015.472 1H4.193a.715.715 0 00-.71.62L1.007 19.358a.723.723 0 00.413.755.714.714 0 00.297.065L9 20.113 4.193 36.099a.723.723 0 00.383.83.714.714 0 00.885-.217l18.396-23.208a.722.722 0 00-.574-1.151L12.5 12.288l3.637-10.3a.724.724 0 00-.072-.672zM10.774 12.74a.723.723 0 00.329.904.714.714 0 00.336.084l10.41.065L6.496 32.922l4.125-13.348a.724.724 0 00-.379-.827.714.714 0 00-.315-.074l-7.386.065L4.817 2.44h9.595l-3.637 10.3z" fill="#303030" stroke="#303030" stroke-width=".5"/></svg>