<?xml version="1.0" encoding="utf-8"?>
	Generator: Adobe Illustrator 25.4.1, SVG Export Plug-In . SVG Version: 6.00 Build 0)
<svg version="1.1" id="Layer_1" xmlns="http://www.w3.org/2000/svg" xmlns:xlink="http://www.w3.org/1999/xlink" x="0px" y="0px"
	 viewBox="0 0 300 240" style="enable-background:new 0 0 300 240;" xml:space="preserve">
<style type="text/css">
	.st0{fill:#FFFFFF;}
</style>
<rect width="300" height="240"/>
<g>
	<g>
		<path class="st0" d="M54.5,168c-7.1,0-14.3,4.9-14.3,14.4c0,9.4,7.1,14.3,14.2,14.3s14.2-4.9,14.2-14.3
			C68.7,172.9,61.6,168,54.5,168z M54.5,191c-3.9,0-7.8-3-7.8-8.7c0-5.8,4-8.8,7.9-8.8c4.6,0,7.8,3.6,7.8,8.7
			C62.3,188,58.4,191,54.5,191z"/>
		<path class="st0" d="M207.9,168c-7.1,0-14.3,4.9-14.3,14.4c0,9.4,7.1,14.3,14.2,14.3c7.1,0,14.2-4.9,14.2-14.3
			C222.1,172.9,215,168,207.9,168z M207.9,191c-3.9,0-7.8-3-7.8-8.7c0-5.8,4-8.8,7.9-8.8c4.6,0,7.8,3.6,7.8,8.7
			C215.7,188,211.8,191,207.9,191z"/>
		<g>
			<polygon class="st0" points="85,196.5 83.5,196.5 83.3,196.3 69.7,168.7 76.8,168.7 84.3,185.6 91.8,168.7 98.7,168.7 			"/>
		</g>
		<g>
			<path class="st0" d="M113.7,196.6c-8.5,0-13.9-5.6-13.9-14.4c0-8.3,5.8-14.3,13.7-14.3c7.9,0,12.9,5.6,12.9,14.3
				c0,0.2,0,0.5,0,0.7c0,0.2,0,0.5,0,0.8v0.4h-20.2c0.6,4.6,3.3,7,8,7c2.9,0,5.2-1,7.5-3.1l0.3-0.3l3.4,4.1L125,192
				C122.1,195.2,118.5,196.6,113.7,196.6z M106.2,179.5h13.7c-0.6-3.9-3-6.1-6.6-6.1C109.8,173.3,107.1,175.7,106.2,179.5z"/>
		</g>
		<g>
			<polygon class="st0" points="181.1,196.5 179.6,196.5 172.7,179.8 165.7,196.5 164.1,196.5 153,168.7 159.8,168.7 165.4,184.2 
				171.9,168.5 173.5,168.5 180.2,184.2 185.6,168.7 192.4,168.7 			"/>
		</g>
		<path class="st0" d="M148,168.7h-0.2c-2.4,0-6.9,1-9.8,5.9v-6h-6V196h6.2V183c0-2.7,1.4-4.8,3.9-6.3c2.3-1.4,5.5-2,7.7-1.5
			C149.2,173.3,148,168.7,148,168.7z"/>
		<path class="st0" d="M248.9,196h-6.2v-21.8h-5.5l1.4-5.4h4.1v-1.5c0-6.4,3.7-10.2,9.8-10.2c2.6,0,4.9,0.7,7,2.2l0.3,0.2L257,164
			l-0.3-0.3c-1.1-0.9-2.3-1.4-3.8-1.4c-2.5,0-4,1.7-4,4.6v1.8h8.9v5.4h-8.9V196z"/>
		<path class="st0" d="M233.2,196H227v-38.3h6.2V196z"/>
	</g>
	<g>
		<path class="st0" d="M207.6,98.3c0.1,0-27.8-16.1-27.9-16.6c-0.6-3.4-1.4-9.1-5.3-12c-3.3-2.5-25.7-12.8-25.7-12.9
			c-6.1-8.9-10.9-19.5-10.9-19.5s-9.6,6.4-9.7,19.3c-1.9,0.4-16,1.8-29.8,13.5c21.9-5,28.2-0.4,28.2-0.4s-9.6,1.3-20.4,7.3
			c-9.3,5.1-13.5,11.3-13.5,11.3s21.2-6.1,37.4-0.2C116.7,90,110,98,109.7,98c33.7,4.2,50.3,33.4,57.3,57c2.6-42-18.4-58-18.4-58
			c6.1,0.4,13.7,5.2,18.6,12.2c14.9-1.7,23.2,2.9,23.1,2.9c-0.2,0,8.1-2.5,13.9-5.2c-0.5-0.7-2.6-3.4-3.8-4.8
			C200.7,102.1,205.2,101.8,207.6,98.3z M161,79.7c0.3-0.1,7.6-2.1,9.7-1.3c1.9,0.7,1.9,6.1,1.9,6.1S168.3,85.1,161,79.7z"/>
	</g>
</g>
</svg>
