<svg width="97" height="40" viewBox="0 0 97 40" fill="none" xmlns="http://www.w3.org/2000/svg">
<path d="M39.5656 20.9427C39.5954 20.9427 30.1589 15.3738 30.1311 15.2154C29.9325 14.0509 29.6822 12.1299 28.3812 11.1338C27.263 10.2763 19.6915 6.70165 19.6756 6.66402C17.6437 3.63402 16.0408 0 16.0408 0C15.0152 0.753911 14.1772 1.73293 13.5917 2.86135C13.0063 3.98976 12.6889 5.23733 12.6643 6.50758C8.91918 6.99975 5.39195 8.54457 2.49482 10.9615C9.94115 9.35142 12.0684 10.9357 12.0684 10.9357C9.62682 11.3421 7.26968 12.1492 5.09279 13.3241C1.90292 15.0252 0.447021 17.0987 0.447021 17.0987C0.447021 17.0987 7.67488 15.1183 13.1807 17.1839C10.6024 17.5192 8.19675 18.6596 6.30836 20.4416C17.751 21.9863 23.2925 31.9636 25.5747 40C26.6075 25.761 19.5525 20.2693 19.5525 20.2693C21.6162 20.4416 24.1982 22.0715 25.8329 24.4737C30.9097 23.9588 33.7142 25.5392 33.6904 25.5392C33.6348 25.5392 36.4413 24.7094 38.4235 23.8281C38.2547 23.5726 37.5516 22.6795 37.1563 22.1804C37.204 22.1824 38.7632 22.1032 39.5656 20.9427ZM23.807 14.4589C23.9202 14.4311 26.4109 13.7637 27.118 14.039C27.7536 14.2885 27.7496 16.1184 27.7496 16.1184C27.7496 16.1184 26.2778 16.3066 23.807 14.4589Z" fill="#CCCCCC"/>
<path d="M72.8681 25.7412C69.7478 25.7412 67.7298 23.6717 67.7298 20.4674C67.7298 17.4235 69.8511 15.2154 72.7748 15.2154C75.6985 15.2154 77.5417 17.2691 77.5417 20.4496C77.5417 20.5328 77.5417 20.6219 77.5417 20.713C77.5417 20.8041 77.5318 20.8971 77.5318 20.9902V21.1308H70.0874C70.3079 22.8043 71.3189 23.6875 73.0191 23.6875C73.5323 23.6963 74.0418 23.5981 74.5148 23.3993C74.9878 23.2005 75.414 22.9054 75.766 22.5329L75.8733 22.426L77.1346 23.945L77.0511 24.0341C75.9766 25.1946 74.6498 25.7412 72.8681 25.7412ZM70.1371 19.4317H75.1821C74.9716 17.9939 74.0956 17.174 72.7589 17.174C71.4222 17.174 70.435 18.0652 70.1371 19.4317Z" fill="#CCCCCC"/>
<path d="M65.5953 25.456H63.6448L63.5872 23.7588C62.8404 24.9589 61.6368 25.7036 59.9902 25.7036C57.0466 25.7036 55.2868 23.3964 55.2868 20.4971C55.2868 17.5602 57.2174 15.2332 60.0299 15.2332C61.6546 15.2332 62.8225 15.9402 63.5495 17.0651V11.3635H65.5953V25.456ZM63.5495 20.9011V20.0456C63.3767 18.1761 62.1591 17.075 60.5066 17.075C58.7488 17.075 57.3902 18.4098 57.3902 20.4872C57.3902 22.5646 58.6713 23.9014 60.4113 23.9014C62.038 23.8915 63.3767 22.7864 63.5495 20.8971V20.9011Z" fill="#CCCCCC"/>
<path d="M83.8087 25.7413H83.2427L83.2029 25.662L78.1818 15.5125H80.7996L83.5545 21.7092L86.3074 15.5125H88.8716L83.8087 25.7413Z" fill="#CCCCCC"/>
<path d="M53.5333 30.5417H51.7457C50.9293 30.5417 50.2997 30.314 49.8746 29.8664C49.4496 29.4188 49.243 28.7534 49.243 27.8761V22.6003C49.243 22.0696 49.1536 21.6993 48.9769 21.4953C48.8001 21.2913 48.5002 21.2002 48.0533 21.1883H47.7434V19.1743H48.0533C48.5002 19.1624 48.81 19.0594 48.9769 18.8673C49.1437 18.6752 49.243 18.293 49.243 17.7622V12.5934C49.243 11.7161 49.4555 11.0467 49.8746 10.6031C50.2937 10.1595 50.9293 9.9278 51.7457 9.9278H53.5333V11.8646H52.272C52.0237 11.8646 51.7059 11.8646 51.553 12.0191C51.4316 12.2011 51.3782 12.4197 51.402 12.637V17.6474C51.402 18.5049 51.2948 19.1228 51.0763 19.5367C50.9359 19.7938 50.7381 20.0153 50.4983 20.1843C50.7498 20.351 50.9548 20.5786 51.0942 20.8457C51.3047 21.2556 51.408 21.8656 51.408 22.7073V27.8246C51.3855 28.0418 51.4388 28.26 51.559 28.4425C51.6297 28.5018 51.7117 28.546 51.8002 28.5726C51.8887 28.5992 51.9816 28.6074 52.0734 28.597H53.5333V30.5417Z" fill="#D34037"/>
<path d="M90.6512 28.4464H92.1151C92.207 28.4567 92.3001 28.4484 92.3888 28.4222C92.4775 28.3961 92.56 28.3524 92.6315 28.2939C92.751 28.1112 92.8043 27.8932 92.7825 27.6761V22.5587C92.7825 21.7171 92.8857 21.1071 93.0963 20.6952C93.2357 20.428 93.4407 20.2005 93.6922 20.0337C93.4509 19.8664 93.2529 19.6445 93.1142 19.3861C92.8957 18.9722 92.7884 18.3543 92.7884 17.4988V12.4864C92.8103 12.2693 92.757 12.0513 92.6375 11.8685C92.566 11.8101 92.4834 11.7664 92.3947 11.7403C92.306 11.7141 92.213 11.7058 92.1211 11.7161H90.6572V9.77924H92.4448C93.2611 9.77924 93.8908 10.005 94.3138 10.4546C94.7369 10.9041 94.9475 11.5675 94.9475 12.4448V17.6038C94.9475 18.1345 95.0368 18.5068 95.2136 18.7108C95.3904 18.9148 95.6903 19.0059 96.1372 19.0158L96.4471 19.0257V21.0358H96.1372C95.6903 21.0477 95.3785 21.1507 95.2136 21.3428C95.0487 21.5349 94.9475 21.9171 94.9475 22.4478V27.7157C94.9475 28.591 94.7349 29.2604 94.3138 29.6961C93.8928 30.1317 93.2611 30.3734 92.4448 30.3734H90.6572L90.6512 28.4464Z" fill="#D34037"/>
</svg>
