<svg width="180" height="40" viewBox="0 0 180 40" fill="none" xmlns="http://www.w3.org/2000/svg">
<path d="M39.3042 20.9419C39.3339 20.9419 29.853 15.3735 29.825 15.2153C29.6246 14.0506 29.3738 12.1296 28.0666 11.1336C26.9431 10.2756 19.3359 6.70164 19.3199 6.66371C17.2779 3.63372 15.6678 0 15.6678 0C14.6403 0.750653 13.7983 1.72977 13.2075 2.86129C12.6198 3.98715 12.3007 5.23543 12.2754 6.50712C8.52148 6.99521 4.98009 8.53879 2.05725 10.9609C9.53934 9.35147 11.6767 10.9351 11.6767 10.9351C9.22646 11.3406 6.8587 12.1477 4.66749 13.3242C1.4626 15.024 0 17.0983 0 17.0983C0 17.0983 7.2625 15.1184 12.7939 17.1839C10.2106 17.5157 7.79561 18.655 5.88886 20.4415C17.3869 21.9864 22.9536 31.9634 25.2464 40C26.2843 25.7605 19.1957 20.2688 19.1957 20.2688C21.2698 20.4415 23.864 22.0711 25.5061 24.4739C30.6072 23.9582 33.4242 25.5394 33.4001 25.5394C33.3448 25.5394 36.165 24.7088 38.1566 23.8282C37.9867 23.5724 37.2806 22.6789 36.8831 22.1801C36.9312 22.1825 38.498 22.1026 39.3034 20.9419H39.3042ZM23.4697 14.459C23.5835 14.4316 26.0863 13.7649 26.7964 14.0393C27.4351 14.2895 27.4311 16.1185 27.4311 16.1185C27.4311 16.1185 25.9525 16.3074 23.4697 14.459V14.459ZM51.461 15.2153C48.8403 15.2153 46.1868 17.0249 46.1868 20.4867C46.1868 23.9493 48.8315 25.7412 51.4434 25.7412C54.056 25.7412 56.6999 23.9348 56.6999 20.4867C56.6999 17.0394 54.0632 15.2153 51.461 15.2153V15.2153ZM51.4434 23.687C49.9984 23.687 48.5374 22.5941 48.5374 20.5045C48.5374 18.3801 50.0088 17.267 51.461 17.267C53.1616 17.267 54.3485 18.5835 54.3485 20.4673C54.3485 22.582 52.8859 23.6878 51.4434 23.6878V23.687ZM108.264 15.2153C105.642 15.2153 102.988 17.0249 102.988 20.4867C102.988 23.9493 105.634 25.7412 108.244 25.7412C110.854 25.7412 113.501 23.9348 113.501 20.4867C113.501 17.0394 110.858 15.2153 108.264 15.2153ZM108.244 23.687C106.802 23.687 105.338 22.5941 105.338 20.5045C105.338 18.3801 106.811 17.267 108.264 17.267C109.964 17.267 111.149 18.5835 111.149 20.4673C111.14 22.582 109.679 23.6878 108.234 23.6878H108.244V23.687ZM62.7386 25.7412H62.1672L62.1295 25.6621L57.083 15.5123H59.7149L62.4806 21.7087L65.2487 15.5123H67.8229L62.7394 25.7412H62.7386ZM73.3527 25.7412C70.2175 25.7412 68.1899 23.6717 68.1899 20.4673C68.1899 17.4236 70.3217 15.2153 73.2589 15.2153C76.1961 15.2153 78.0482 17.2687 78.0482 20.4496V21.1308H70.5589C70.7801 22.804 71.7939 23.687 73.5025 23.687C74.0177 23.6963 74.5293 23.5985 75.0052 23.3997C75.4795 23.2017 75.9078 22.9065 76.2626 22.5328L76.3716 22.4254L77.6395 23.9445L77.5553 24.0333C76.4774 25.1939 75.1382 25.7412 73.3527 25.7412V25.7412ZM70.6086 19.431H75.6752C75.4636 17.9943 74.5821 17.1734 73.2389 17.1734C71.8957 17.1734 70.9083 18.0645 70.6086 19.431ZM155.032 25.7412C151.897 25.7412 149.869 23.6717 149.869 20.4673C149.869 17.4236 152 15.2153 154.938 15.2153C157.876 15.2153 159.728 17.2687 159.728 20.4496V20.7127C159.728 20.8039 159.718 20.8967 159.718 20.9895V21.1308H152.238C152.46 22.804 153.476 23.687 155.184 23.687C155.699 23.6959 156.21 23.5978 156.686 23.3988C157.16 23.201 157.589 22.9061 157.944 22.5328L158.051 22.4254L159.319 23.9445L159.235 24.0333C158.155 25.1939 156.822 25.7412 155.032 25.7412V25.7412ZM152.288 19.431H157.357C157.145 17.9943 156.266 17.1734 154.922 17.1734C153.579 17.1734 152.587 18.0645 152.288 19.431V19.431ZM98.3996 25.7412H97.8145L95.258 19.6013L92.6998 25.7412H92.0972L87.9779 15.5123H90.4847L92.558 21.2018L94.9751 15.4566H95.5753L98.0461 21.2018L100.066 15.5115H102.557L98.3996 25.7412ZM86.052 15.4905H85.9623C85.0703 15.4905 83.4154 15.8529 82.3463 17.669V15.4704H80.1271V25.4909H82.4216V20.7385C82.4216 19.7579 82.9329 18.9661 83.8609 18.4253C84.7185 17.9249 85.9078 17.6948 86.6964 17.8885L86.052 15.4905ZM123.406 25.4974H121.111V17.4704H119.075L119.6 15.4744H121.111V14.9239C121.111 12.5792 122.464 11.1812 124.731 11.1812C125.653 11.1656 126.556 11.4427 127.313 11.973L127.419 12.0489L126.405 13.756L126.278 13.6527C125.889 13.3176 125.393 13.1369 124.881 13.1442C123.943 13.1442 123.406 13.7576 123.406 14.8311V15.4768H126.715V17.4704H123.406V25.4974V25.4974ZM117.595 25.4974H115.3V11.4371H117.595V25.4974ZM147.725 25.4562H145.765L145.708 23.7588C144.957 24.959 143.747 25.704 142.093 25.704C139.136 25.704 137.367 23.3956 137.367 20.4972C137.367 17.56 139.307 15.2331 142.133 15.2331C143.766 15.2331 144.939 15.9401 145.669 17.0653V11.3637H147.725V25.4562V25.4562ZM145.669 20.9008V20.0452C145.496 18.1759 144.272 17.0749 142.612 17.0749C140.846 17.0749 139.481 18.4099 139.481 20.4867C139.481 22.5643 140.768 23.9009 142.516 23.9009C144.15 23.8912 145.496 22.787 145.669 20.8967V20.9008ZM166.024 25.7412H165.455L165.415 25.6621L160.37 15.5123H163.001L165.769 21.7087L168.535 15.5123H171.111L166.024 25.7412V25.7412Z" fill="#262626"/>
<path d="M135.812 30H134.018C133.198 30 132.566 29.7808 132.139 29.3492C131.713 28.9185 131.505 28.2771 131.505 27.4327V22.3503C131.505 21.8395 131.416 21.4827 131.239 21.286C131.061 21.0893 130.76 21.0014 130.311 20.9905H130V19.0491H130.311C130.76 19.0383 131.071 18.9387 131.239 18.7537C131.406 18.5687 131.505 18.2009 131.505 17.6885V12.7103C131.505 11.8652 131.719 11.2207 132.139 10.793C132.561 10.3654 133.198 10.1423 134.018 10.1423H135.812V12.0082H134.546C134.297 12.0082 133.978 12.0082 133.824 12.1567C133.702 12.3315 133.649 12.5426 133.673 12.7523V17.5789C133.673 18.4046 133.565 19.0002 133.346 19.3982C133.204 19.6468 133.006 19.8605 132.766 20.0225C133.018 20.1827 133.224 20.402 133.364 20.6601C133.575 21.0543 133.679 21.642 133.679 22.453V27.3822C133.656 27.5914 133.71 27.8021 133.83 27.977C133.902 28.0348 133.984 28.0778 134.073 28.1035C134.162 28.1292 134.255 28.1369 134.347 28.1263H135.812V29.9992V30ZM173.071 27.9824H174.541C174.727 28.0017 174.913 27.9486 175.059 27.8347C175.179 27.659 175.233 27.4491 175.211 27.2399V22.3107C175.211 21.4998 175.315 20.912 175.526 20.5155C175.665 20.2589 175.871 20.0389 176.124 19.8779C175.882 19.7177 175.684 19.504 175.544 19.2544C175.324 18.8563 175.217 18.2608 175.217 17.4366V12.6085C175.239 12.3985 175.185 12.1886 175.065 12.0129C174.993 11.9561 174.91 11.9138 174.821 11.8886C174.732 11.8634 174.639 11.8557 174.547 11.866H173.078V10H174.872C175.691 10 176.323 10.2177 176.748 10.6515C177.172 11.0838 177.384 11.7229 177.384 12.568V17.5377C177.384 18.0493 177.473 18.4077 177.651 18.6044C177.829 18.8003 178.13 18.8882 178.578 18.8983L178.889 18.9076V20.8436H178.578C178.13 20.8552 177.817 20.954 177.651 21.139C177.485 21.3241 177.384 21.6926 177.384 22.2042V27.278C177.384 28.1216 177.171 28.7661 176.748 29.186C176.325 29.6058 175.691 29.8383 174.872 29.8383H173.078L173.071 27.9824V27.9824Z" fill="#D34037"/>
</svg>
