<svg width="136" height="74" viewBox="0 0 136 74" fill="none" xmlns="http://www.w3.org/2000/svg">
<g clip-path="url(#clip0_647_6782)">
<rect width="136" height="4" fill="#4D4D4D"/>
<rect width="136" height="70" transform="translate(0 4)" fill="#333333"/>
<rect width="34" height="28" transform="translate(101 45)" fill="#D34037"/>
<path fill-rule="evenodd" clip-rule="evenodd" d="M118.001 65.6666C121.683 65.6666 124.667 62.6818 124.667 58.9999C124.667 55.318 121.683 52.3333 118.001 52.3333C114.319 52.3333 111.334 55.318 111.334 58.9999C111.334 62.6818 114.319 65.6666 118.001 65.6666ZM118.668 54.3332H117.334V55.6665C116.23 55.6665 115.334 56.562 115.334 57.6665C115.334 58.7711 116.23 59.6665 117.334 59.6665H117.668H118.668C119.036 59.6665 119.334 59.965 119.334 60.3332C119.334 60.7014 119.036 60.9999 118.668 60.9999H118.334H117.334C116.966 60.9999 116.668 60.7014 116.668 60.3332H115.334C115.334 61.4378 116.23 62.3332 117.334 62.3332V63.6665H118.668L118.668 62.3332C119.772 62.3332 120.668 61.4378 120.668 60.3332C120.668 59.2286 119.772 58.3332 118.668 58.3332H117.668H117.334C116.966 58.3332 116.668 58.0347 116.668 57.6665C116.668 57.2984 116.966 56.9999 117.334 56.9999H118.334C118.702 56.9999 119.001 57.2984 119.001 57.6665H120.334C120.334 56.6755 119.614 55.8529 118.668 55.6942V54.3332Z" fill="white"/>
<path fill-rule="evenodd" clip-rule="evenodd" d="M29 31L25 29V45H29V31ZM47 33L43 31V45H47V33ZM37 35L41 37V45H37V35ZM35 31L31 29V45H35V31Z" fill="#4D4D4D"/>
<path d="M55 45H77L74 41L71 42L68 38L61 41L55 35V45Z" fill="#4D4D4D"/>
</g>
<defs>
<clipPath id="clip0_647_6782">
<rect width="136" height="74" fill="white"/>
</clipPath>
</defs>
</svg>
