<svg width="559" height="310" viewBox="0 0 559 310" fill="none" xmlns="http://www.w3.org/2000/svg">
<path fill-rule="evenodd" clip-rule="evenodd" d="M474.814 166.65C474.566 167.558 474.384 168.439 474.262 169.293L471.91 168.956C472.047 168.003 472.248 167.025 472.522 166.023L474.814 166.65ZM474.063 171.969C474.059 172.894 474.123 173.785 474.245 174.64L471.892 174.974C471.755 174.007 471.682 173.001 471.687 171.958L474.063 171.969ZM476.807 161.58C476.374 162.43 475.999 163.261 475.678 164.073L473.468 163.198C473.818 162.315 474.224 161.415 474.691 160.5L476.807 161.58ZM481.708 125.033C482.131 125.366 482.533 125.702 482.914 126.039L481.339 127.818C480.993 127.512 480.626 127.206 480.236 126.898L481.708 125.033ZM478.912 158.01C478.649 158.403 478.399 158.792 478.161 159.178L476.139 157.93C476.392 157.52 476.658 157.106 476.936 156.69C477.216 156.271 477.496 155.854 477.774 155.44L479.747 156.764C479.468 157.179 479.19 157.594 478.912 158.01ZM483.071 151.725C482.537 152.567 481.984 153.413 481.421 154.262L479.441 152.949C479.999 152.108 480.542 151.277 481.064 150.454L483.071 151.725ZM485.143 128.304C485.878 129.174 486.489 130.057 486.983 130.955L484.901 132.101C484.489 131.351 483.97 130.597 483.328 129.837L485.143 128.304ZM486.118 146.409C485.672 147.31 485.181 148.214 484.657 149.118L482.601 147.927C483.104 147.058 483.57 146.201 483.989 145.355L486.118 146.409ZM488.21 134.006C488.494 135.092 488.625 136.183 488.627 137.276L486.251 137.279C486.25 136.377 486.141 135.487 485.911 134.607L488.21 134.006ZM488.276 140.503C488.06 141.521 487.751 142.537 487.371 143.55L485.147 142.715C485.492 141.795 485.764 140.894 485.951 140.01L488.276 140.503Z" fill="#6C5C99"/>
<ellipse cx="481.003" cy="122.366" rx="2.37597" ry="3.26696" transform="rotate(69.5944 481.003 122.366)" fill="#6C5C99"/>
<ellipse rx="2.37597" ry="3.26696" transform="matrix(0.998805 0.0488817 0.0488817 -0.998805 477.493 127.197)" fill="#6C5C99"/>
<rect x="474.234" y="122.797" width="2.96996" height="9.50389" rx="1.48498" transform="rotate(-53.8019 474.234 122.797)" fill="#403366"/>
<rect x="59" y="43.3398" width="340.264" height="197.211" rx="2.48376" fill="#332E4D"/>
<rect x="270.617" y="270.855" width="68.0551" height="27.3767" transform="rotate(180 270.617 270.855)" fill="#484266"/>
<rect x="202.562" y="270.855" width="8.94155" height="27.3767" transform="rotate(180 202.562 270.855)" fill="#201C33"/>
<path d="M145.435 278.307C145.435 274.192 148.771 270.855 152.886 270.855H306.623C310.739 270.855 314.075 274.192 314.075 278.307V279.797H145.435V278.307Z" fill="#201C33"/>
<rect x="66.4512" y="43.3398" width="340.264" height="197.211" rx="2.48376" fill="#484266"/>
<rect x="75.5986" y="51.5234" width="322.192" height="181.079" fill="#332E4D"/>
<path d="M219.831 82.5461C222.19 87.1484 227.127 87.1374 228.998 86.6444L227.396 94.0432C219.884 94.9815 217.854 91.5208 217.497 90.7398C216.31 88.1491 217.478 83.7241 218.61 82.1673C218.983 81.6534 219.541 81.9808 219.831 82.5461Z" fill="#D3CFE5"/>
<path d="M267.338 82.5461C264.978 87.1484 260.042 87.1374 258.17 86.6444L259.772 94.0432C267.284 94.9815 269.314 91.5208 269.672 90.7398C270.858 88.1491 269.69 83.7241 268.559 82.1673C268.185 81.6534 267.628 81.9808 267.338 82.5461Z" fill="#D3CFE5"/>
<path d="M261.84 94.6613C261.84 103.523 264.668 100.482 243.612 100.482C225.53 100.482 226.013 103.523 226.013 94.6613C226.013 85.8 235.231 78.1445 244.083 78.1445C252.935 78.1445 261.84 85.8 261.84 94.6613Z" fill="#8E7CBF"/>
<path d="M241.883 77.1999C241.883 75.9849 242.868 75 244.083 75C245.298 75 246.283 75.9849 246.283 77.1999V96.3932H241.883V77.1999Z" fill="#484266"/>
<rect x="222.712" y="96.0781" width="42.7411" height="6.92132" rx="3.46066" fill="#5F5980"/>
<path d="M228.156 97.6523L230.099 98.9567L229.357 101.067H226.956L226.214 98.9567L228.156 97.6523Z" fill="#201C33"/>
<path d="M236.327 97.6523L238.27 98.9567L237.528 101.067H235.126L234.384 98.9567L236.327 97.6523Z" fill="#201C33"/>
<path d="M244.498 97.6523L246.441 98.9567L245.699 101.067H243.297L242.555 98.9567L244.498 97.6523Z" fill="#201C33"/>
<path d="M252.67 97.6523L254.613 98.9567L253.871 101.067H251.47L250.727 98.9567L252.67 97.6523Z" fill="#201C33"/>
<path d="M260.841 97.6523L262.783 98.9567L262.041 101.067H259.64L258.898 98.9567L260.841 97.6523Z" fill="#201C33"/>
<path d="M314.699 43.3409C319.192 31.7167 330.487 23.4708 343.712 23.4708C346.325 23.4708 348.863 23.7928 351.288 24.3992C346.298 20.9925 340.264 19 333.763 19C318.899 19 306.472 29.4177 303.402 43.3409H314.699Z" fill="#201C33"/>
<path d="M329.535 137.723H323.566C321.918 137.723 320.582 139.057 320.582 140.703C320.582 142.349 321.918 143.684 323.566 143.684H329.535V137.723Z" fill="#251F48"/>
<path d="M358.883 123.457C365.902 119.933 370.821 111.744 370.821 102.204C370.821 92.6646 365.902 84.4755 358.883 80.9517V79.1055H351.422V79.1073C351.339 79.1061 351.256 79.1055 351.173 79.1055C340.321 79.1055 331.525 89.4472 331.525 102.204C331.525 114.962 340.321 125.303 351.173 125.303C351.256 125.303 351.339 125.303 351.422 125.302V125.303H358.883V123.457Z" fill="#201C33"/>
<path d="M339.931 143.683H328.487C326.841 143.683 325.506 142.349 325.506 140.703C325.506 139.057 326.841 137.722 328.487 137.722H339.931C348.219 137.722 355.027 131.397 355.779 123.316H361.767C361 134.693 351.517 143.683 339.931 143.683Z" fill="#403366"/>
<ellipse cx="358.634" cy="102.204" rx="19.6479" ry="23.099" fill="#403366"/>
<path d="M372.948 102.206C372.948 111.845 366.449 119.344 358.79 119.344C351.131 119.344 344.633 111.845 344.633 102.206C344.633 92.5661 351.131 85.0677 358.79 85.0677C366.449 85.0677 372.948 92.5661 372.948 102.206Z" fill="#161326" stroke="#5F5980" stroke-width="1.98701"/>
<path d="M347.116 37.6286C350.345 43.0929 351.859 51.015 351.859 54.6188V101.958C351.859 104.702 354.104 106.926 356.848 106.926C359.592 106.926 361.835 104.702 361.835 101.958V50.1353C361.835 48.1531 360.139 38.2661 359.784 36.3867L347.116 37.6286Z" fill="#161326"/>
<path d="M323.618 23.4834C321.015 23.4834 318.734 23.8562 316.318 24.4643C321.289 21.0479 327.054 19 333.53 19C350.635 19 364.503 32.9397 364.503 50.135V101.97C364.503 104.706 362.284 106.925 359.547 106.925C356.81 106.925 354.591 104.706 354.591 101.97V54.6184C354.591 37.4232 340.724 23.4834 323.618 23.4834Z" fill="#403366"/>
<path fill-rule="evenodd" clip-rule="evenodd" d="M343.48 32.7765C339.643 28.5143 333.775 24.7329 324.988 24.971C318.534 25.146 313.775 28.1454 310.411 31.9232C307.027 35.7251 305.127 39.9955 304.396 43.1H301.912C302.724 39.6527 304.859 34.4241 308.556 30.2717C312.274 26.0953 317.643 22.6854 324.92 22.4882C334.57 22.2266 341.101 26.4212 345.326 31.1146C349.521 35.7745 351.759 41.3036 352.332 43.1H349.352C348.835 41.478 347.347 37.0722 343.48 32.7765Z" fill="#161326"/>
<rect x="314.828" y="135.238" width="19.3733" height="10.4318" rx="5.2159" fill="#0D0A1A"/>
<rect x="312.896" y="135.238" width="18.3798" height="10.4318" rx="5.2159" fill="#201C33"/>
<path d="M153.021 278.307C153.021 274.192 156.357 270.855 160.472 270.855H314.209C318.325 270.855 321.661 274.192 321.661 278.307V279.797H153.021V278.307Z" fill="#332E4D"/>
<path d="M456.083 257.277H491.688V286.289H456.083V257.277Z" fill="#484266"/>
<rect x="471.468" y="211.074" width="4.39566" height="37.4122" fill="#403366"/>
<path d="M491.507 230.45C496.04 226.414 496.352 219.366 496.352 219.366C496.352 219.366 489.315 218.863 484.781 222.899C480.248 226.935 479.936 233.983 479.936 233.983C479.936 233.983 486.973 234.486 491.507 230.45Z" fill="#332E4C"/>
<path d="M479.938 233.983C480.117 233.995 487.031 234.434 491.506 230.45C495.97 226.475 496.341 219.579 496.351 219.371L479.938 233.983Z" fill="#201C33"/>
<path d="M456.208 230.45C451.675 226.414 451.363 219.366 451.363 219.366C451.363 219.366 458.4 218.863 462.933 222.899C467.467 226.935 467.779 233.983 467.779 233.983C467.779 233.983 460.741 234.486 456.208 230.45Z" fill="#5F5980"/>
<path d="M467.777 233.983C467.598 233.995 460.684 234.434 456.21 230.45C451.745 226.475 451.374 219.579 451.364 219.371L467.777 233.983Z" fill="#201C33"/>
<path fill-rule="evenodd" clip-rule="evenodd" d="M473.485 191.024C473.485 191.066 473.531 191.091 473.567 191.069C473.584 191.058 473.606 191.058 473.623 191.069C473.659 191.091 473.705 191.066 473.705 191.024V191.016C473.705 190.995 473.715 190.977 473.732 190.966L492.124 179.533C493.289 178.809 494.833 179.318 495.18 180.645C495.652 182.446 495.903 184.336 495.903 186.285C495.903 198.544 485.965 208.483 473.705 208.483C461.445 208.483 451.507 198.544 451.507 186.285C451.507 184.382 451.746 182.536 452.196 180.774C452.537 179.44 454.086 178.924 455.255 179.651L473.458 190.966C473.475 190.977 473.485 190.995 473.485 191.016V191.024Z" fill="#332E4C"/>
<mask id="mask0" mask-type="alpha" maskUnits="userSpaceOnUse" x="451" y="177" width="45" height="32">
<path fill-rule="evenodd" clip-rule="evenodd" d="M473.705 190.682L473.595 190.614L473.485 190.682V190.546L453.145 177.902C452.089 180.489 451.507 183.32 451.507 186.287C451.507 198.546 461.445 208.485 473.705 208.485C485.965 208.485 495.903 198.546 495.903 186.287C495.903 183.278 495.304 180.409 494.22 177.793L473.705 190.546V190.682Z" fill="#7360AC"/>
</mask>
<g mask="url(#mask0)">
<circle cx="482.151" cy="205.189" r="3.73631" fill="#8E7CBF"/>
<circle cx="492.701" cy="197.275" r="3.73631" fill="#8E7CBF"/>
<circle cx="456.217" cy="198.154" r="3.73631" fill="#8E7CBF"/>
<circle cx="470.942" cy="201.45" r="3.51653" fill="#8E7CBF"/>
<circle cx="464.569" cy="188.483" r="4.61544" fill="#8E7CBF"/>
<circle cx="483.69" cy="189.146" r="4.39566" fill="#8E7CBF"/>
</g>
<path d="M474.575 196.768L496.522 183.87C496.294 182.182 495.443 180.286 494.962 179.141L473.672 191.367V191.498L473.558 191.432L473.443 191.498V191.367L451.97 179.035C451.451 180.251 450.639 182.118 450.368 183.431L472.321 196.752C473.013 197.171 473.878 197.177 474.575 196.768Z" fill="#100B26"/>
<path d="M462.187 172.854L457.073 177.055L461.249 179.692L462.892 173.303C462.998 172.892 462.516 172.584 462.187 172.854Z" fill="#B2ADCC"/>
<path d="M467.462 177.706L463.667 180.88L466.948 182.99L468.17 178.151C468.274 177.738 467.789 177.433 467.462 177.706Z" fill="#B2ADCC"/>
<path d="M485.074 172.854L490.188 177.055L486.013 179.692L484.37 173.303C484.264 172.892 484.746 172.584 485.074 172.854Z" fill="#B2ADCC"/>
<path d="M479.8 177.706L483.595 180.88L480.314 182.99L479.092 178.151C478.987 177.738 479.473 177.433 479.8 177.706Z" fill="#B2ADCC"/>
<path d="M450.262 176.101C451.238 174.564 453.275 174.108 454.812 175.084L473.583 186.992L492.354 175.084C493.891 174.108 495.928 174.564 496.904 176.101C497.879 177.639 497.424 179.676 495.886 180.651L475.472 193.603C474.886 193.974 474.228 194.138 473.583 194.114C472.939 194.138 472.28 193.974 471.694 193.603L451.28 180.651C449.743 179.676 449.287 177.639 450.262 176.101Z" fill="#797399"/>
<path d="M451.687 247.164H495.204V254.637H451.687V247.164Z" fill="#484266"/>
<rect x="456.083" y="257.277" width="6.59348" height="29.0113" fill="#201C33"/>
<rect x="451.687" y="247.164" width="6.59348" height="7.47262" fill="#201C33"/>
<rect x="142.401" y="167" width="29" height="1" fill="#5F5980"/>
<rect x="142.401" y="170" width="29" height="1" fill="#5F5980"/>
<rect x="142.401" y="173" width="38" height="1" fill="#5F5980"/>
<rect x="214.25" y="92.25" width="19.5" height="19.5" fill="#201C33" stroke="#332E4C" stroke-width="0.5"/>
<path d="M221.443 97.2266L222.807 99.0923C218.21 102.288 220.321 106.487 222.512 107.746C220.436 104.978 223.468 102.096 224.816 101.532L226.6 103.696L227.614 97.2266H221.443Z" fill="#E5004C"/>
<rect x="76" y="200" width="34.4508" height="32.6036" fill="#201C33"/>
<path d="M92.4014 215V208.5L99.4014 208V215H92.4014Z" fill="#5F5980"/>
<path d="M92.4014 222.5V217H99.4014V223.5L92.4014 222.5Z" fill="#5F5980"/>
<path d="M90.4014 209L84.4014 210V215H90.4014V209Z" fill="#5F5980"/>
<path d="M84.4014 221V217H90.4014V222L84.4014 221Z" fill="#5F5980"/>
<rect x="109.386" y="131" width="74" height="101.604" fill="#B2A1E6"/>
<rect x="116.386" y="138" width="15" height="15" fill="#5F5980"/>
<rect x="135.386" y="143" width="29" height="1" fill="#5F5980"/>
<rect x="135.386" y="146" width="29" height="1" fill="#5F5980"/>
<rect x="116.386" y="187" width="15" height="15" fill="#5F5980"/>
<rect x="135.386" y="192" width="29" height="1" fill="#5F5980"/>
<rect x="135.386" y="195" width="29" height="1" fill="#5F5980"/>
<rect x="116.386" y="210" width="15" height="15" fill="#5F5980"/>
<rect x="135.386" y="215" width="29" height="1" fill="#5F5980"/>
<rect x="135.386" y="218" width="29" height="1" fill="#5F5980"/>
<g filter="url(#filter0_d)">
<rect x="105" y="156.129" width="82.4985" height="27.9426" fill="#B2A1E6"/>
</g>
<path d="M111.835 166.763C112.984 168.711 115.178 168.699 116.027 168.475L115.274 171.954C111.742 172.395 110.787 170.768 110.619 170.4C110.107 169.283 110.528 167.439 111.011 166.577C111.232 166.184 111.606 166.374 111.835 166.763Z" fill="#D3CFE5"/>
<path d="M133.936 166.763C132.787 168.711 130.593 168.699 129.743 168.475L130.496 171.954C134.029 172.395 134.983 170.768 135.151 170.4C135.663 169.283 135.243 167.439 134.759 166.577C134.538 166.184 134.165 166.374 133.936 166.763Z" fill="#D3CFE5"/>
<path d="M131.469 172.247C131.469 176.413 132.799 174.983 122.898 174.983C114.396 174.983 114.623 176.413 114.623 172.247C114.623 168.08 118.958 164.48 123.12 164.48C127.282 164.48 131.469 168.08 131.469 172.247Z" fill="#484266"/>
<path d="M122.086 164.034C122.086 163.463 122.549 163 123.12 163C123.692 163 124.155 163.463 124.155 164.034V173.059H122.086V164.034Z" fill="#797399"/>
<rect x="113.071" y="172.91" width="20.0969" height="3.25442" rx="1.62721" fill="#797399"/>
<path d="M115.631 173.652L116.544 174.266L116.196 175.258H115.066L114.717 174.266L115.631 173.652Z" fill="#201C33"/>
<path d="M119.473 173.652L120.387 174.266L120.038 175.258H118.909L118.56 174.266L119.473 173.652Z" fill="#201C33"/>
<path d="M123.315 173.652L124.229 174.266L123.88 175.258H122.75L122.402 174.266L123.315 173.652Z" fill="#201C33"/>
<path d="M127.158 173.652L128.071 174.266L127.722 175.258H126.593L126.244 174.266L127.158 173.652Z" fill="#201C33"/>
<path d="M130.999 173.652L131.913 174.266L131.564 175.258H130.435L130.086 174.266L130.999 173.652Z" fill="#201C33"/>
<rect x="142" y="167" width="29" height="1" fill="#5F5980"/>
<rect x="142" y="170" width="29" height="1" fill="#5F5980"/>
<rect x="142" y="173" width="38" height="1" fill="#5F5980"/>
<defs>
<filter id="filter0_d" x="101" y="156.129" width="90.4985" height="35.9426" filterUnits="userSpaceOnUse" color-interpolation-filters="sRGB">
<feFlood flood-opacity="0" result="BackgroundImageFix"/>
<feColorMatrix in="SourceAlpha" type="matrix" values="0 0 0 0 0 0 0 0 0 0 0 0 0 0 0 0 0 0 127 0"/>
<feOffset dy="4"/>
<feGaussianBlur stdDeviation="2"/>
<feColorMatrix type="matrix" values="0 0 0 0 0.0862745 0 0 0 0 0.0745098 0 0 0 0 0.14902 0 0 0 0.5 0"/>
<feBlend mode="normal" in2="BackgroundImageFix" result="effect1_dropShadow"/>
<feBlend mode="normal" in="SourceGraphic" in2="effect1_dropShadow" result="shape"/>
</filter>
</defs>
</svg>
