<svg width="20" height="20" viewBox="0 0 20 20" fill="none" xmlns="http://www.w3.org/2000/svg">
<path d="M19.7917 10C19.7917 15.4078 15.4078 19.7917 10 19.7917C4.59221 19.7917 0.208333 15.4078 0.208333 10C0.208333 4.59221 4.59221 0.208333 10 0.208333C15.4078 0.208333 19.7917 4.59221 19.7917 10Z" fill="#332E4D" stroke="#D3CFE5" stroke-width="0.416667"/>
<path d="M10.0833 17.1667C13.9954 17.1667 17.1667 13.9954 17.1667 10.0833C17.1667 10.0833 13.5357 15.0833 9.25 11.3333C5.91667 8.41667 10.0833 3 10.0833 3C6.17132 3 3 6.17132 3 10.0833C3 13.9954 6.17132 17.1667 10.0833 17.1667Z" fill="#B2ADCC"/>
<path d="M11.5 7L11.8368 8.03647H12.9266L12.0449 8.67705L12.3817 9.71353L11.5 9.07295L10.6183 9.71353L10.9551 8.67705L10.0734 8.03647H11.1632L11.5 7Z" fill="#D3CFE5"/>
<path d="M16.5 6L16.8368 7.03647H17.9266L17.0449 7.67705L17.3817 8.71353L16.5 8.07295L15.6183 8.71353L15.9551 7.67705L15.0734 7.03647H16.1632L16.5 6Z" fill="#D3CFE5"/>
<path d="M12.5 3L12.8368 4.03647H13.9266L13.0449 4.67705L13.3817 5.71353L12.5 5.07295L11.6183 5.71353L11.9551 4.67705L11.0734 4.03647H12.1632L12.5 3Z" fill="#D3CFE5"/>
</svg>
