<svg width="20" height="20" viewBox="0 0 20 20" fill="none" xmlns="http://www.w3.org/2000/svg">
<path d="M19.7917 10C19.7917 15.4078 15.4078 19.7917 10 19.7917C4.59221 19.7917 0.208333 15.4078 0.208333 10C0.208333 4.59221 4.59221 0.208333 10 0.208333C15.4078 0.208333 19.7917 4.59221 19.7917 10Z" fill="#F4F2FF" stroke="#958FB2" stroke-width="0.416667"/>
<circle cx="10" cy="10" r="4" fill="#F2D191"/>
<path d="M11 3.5C11 4.32843 10 5 10 5C10 5 9 4.32843 9 3.5C9 2.67157 9.17157 2 10 2C10.8284 2 11 2.67157 11 3.5Z" fill="#F2D191"/>
<path d="M15.4971 6.43566C14.9635 7.06931 13.766 6.93883 13.766 6.93883C13.766 6.93883 13.4337 5.78098 13.9673 5.14733C14.501 4.51368 15.0648 4.11052 15.6985 4.64416C16.3321 5.17781 16.0308 5.80201 15.4971 6.43566Z" fill="#F2D191"/>
<path d="M4.23068 12.9242C4.94812 12.51 6.02972 13.0402 6.02972 13.0402C6.02972 13.0402 5.94812 14.242 5.23068 14.6563C4.51324 15.0705 3.84585 15.2577 3.43164 14.5402C3.01743 13.8228 3.51324 13.3384 4.23068 12.9242Z" fill="#F2D191"/>
<path d="M14.0603 14.4746C13.4745 13.8889 13.7067 12.7069 13.7067 12.7069C13.7067 12.7069 14.8887 12.4746 15.4745 13.0604C16.0603 13.6462 16.4138 14.2424 15.828 14.8282C15.2423 15.414 14.6461 15.0604 14.0603 14.4746Z" fill="#F2D191"/>
<path d="M6.47487 5.06051C7.06066 5.64629 6.82843 6.82828 6.82843 6.82828C6.82843 6.82828 5.64645 7.06051 5.06066 6.47472C4.47487 5.88894 4.12132 5.29274 4.70711 4.70696C5.29289 4.12117 5.88909 4.47472 6.47487 5.06051Z" fill="#F2D191"/>
<path d="M9 16.5C9 15.6716 10 15 10 15C10 15 11 15.6716 11 16.5C11 17.3284 10.8284 18 10 18C9.17157 18 9 17.3284 9 16.5Z" fill="#F2D191"/>
<path d="M16.5 11C15.6716 11 15 10 15 10C15 10 15.6716 9 16.5 9C17.3284 9 18 9.17157 18 10C18 10.8284 17.3284 11 16.5 11Z" fill="#F2D191"/>
<path d="M3.5 9C4.32843 9 5 10 5 10C5 10 4.32843 11 3.5 11C2.67157 11 2 10.8284 2 10C2 9.17157 2.67157 9 3.5 9Z" fill="#F2D191"/>
</svg>
