<svg width="144" height="32" viewBox="0 0 144 32" fill="none" xmlns="http://www.w3.org/2000/svg">
<path fill-rule="evenodd" clip-rule="evenodd" d="M40.8105 16.8756C41.5261 17.2832 42.0059 17.5565 41.9999 17.5565C41.396 18.4374 40.2013 18.5067 40.1585 18.5035C40.4695 18.8755 41.0159 19.5407 41.1459 19.7323C39.9562 20.2688 38.3747 20.7823 37.7771 20.9764C37.6285 21.0246 37.5407 21.0531 37.535 21.0573C37.4995 21.0292 35.3429 19.8987 31.5074 20.3218C30.2336 18.5292 28.2424 17.3245 26.6593 17.2134C26.6593 17.2134 32.1113 21.2833 31.4415 32C29.6198 25.9749 25.2902 18.518 16.5107 17.4534C17.9439 16.0953 19.78 15.2168 21.7553 14.9441C17.5195 13.4415 12 14.986 12 14.986C12 14.986 13.096 13.4157 15.5266 12.1079C17.1845 11.2071 18.9834 10.5812 20.8502 10.2558C20.8502 10.2558 19.2079 9.07683 13.5058 10.3556C15.7045 8.51365 18.3934 7.32213 21.2583 6.92028C21.2669 5.96469 21.5001 5.02384 21.9398 4.17062C22.3796 3.31739 23.0141 2.57468 23.7943 2C24.6158 3.72674 25.5674 5.39129 26.6412 6.97987C26.6439 6.98627 26.965 7.13479 27.4665 7.36674C29.1091 8.12648 32.687 9.78127 33.3488 10.2686C34.2897 10.9676 34.5309 12.2777 34.6929 13.1581C34.7038 13.217 34.7143 13.274 34.7246 13.3287C34.7405 13.4184 38.7516 15.703 40.8105 16.8756ZM29.9104 12.8037C29.8913 12.8087 29.8787 12.812 29.8733 12.8133C31.7805 14.1823 32.9078 14.0277 32.9078 14.0277C32.9078 14.0277 32.8979 12.6523 32.4042 12.4703C31.8955 12.2817 30.1937 12.7292 29.9104 12.8037Z" fill="#CFCFCF"/>
<path d="M4.95 3.3375C4.5 3.45 4.05 3.7875 3.7125 4.125C3.375 4.4625 3.15 4.9125 2.925 5.3625C2.7 5.925 2.7 6.4875 2.7 7.05V13.2375C2.7 14.8125 1.8 15.7125 0 15.7125V17.2875C1.8 17.2875 2.7 18.075 2.7 19.7625V25.95C2.7 26.5125 2.8125 27.075 3.0375 27.6375C3.15 28.0875 3.375 28.5375 3.7125 28.875C4.05 29.2125 4.5 29.55 4.95 29.775C5.03207 29.7914 5.11175 29.8078 5.18973 29.8239C5.6462 29.9179 6.04458 30 6.525 30H7.875V28.3125H6.525C4.95 28.3125 4.1625 27.525 4.1625 25.8375V19.65C4.1625 19.3125 4.05 18.975 3.9375 18.6375C3.825 18.3 3.6 17.9625 3.375 17.625C3.15 17.2875 2.925 17.0625 2.5875 16.8375C2.25 16.6125 2.02501 16.5 1.57501 16.3875C1.91251 16.275 2.25 16.1625 2.5875 15.9375C2.925 15.7125 3.15 15.4875 3.375 15.15C3.6 14.8125 3.7125 14.475 3.825 14.1375C3.9375 13.8 4.05 13.4625 4.05 13.125V7.05C4.05 5.475 4.8375 4.575 6.4125 4.575H7.875V3H6.525C5.9625 3 5.5125 3.1125 4.95 3.3375Z" fill="#CFCFCF"/>
<path d="M51.4125 13.2375V7.05C51.4125 6.4875 51.3 5.925 51.075 5.475C50.9625 4.9125 50.625 4.4625 50.2875 4.125C49.95 3.7875 49.5 3.45 49.05 3.225C48.968 3.20861 48.8884 3.19221 48.8106 3.17617C48.3541 3.08213 47.9554 3 47.475 3H46.125V4.575H47.475C49.05 4.575 49.8375 5.3625 49.8375 7.05V13.2375C49.8375 13.575 49.95 13.9125 50.0625 14.25C50.175 14.5875 50.4 14.925 50.625 15.2625C50.85 15.6 51.075 15.825 51.4125 16.05C51.75 16.275 52.0875 16.3875 52.425 16.5C52.0875 16.6125 51.75 16.725 51.4125 16.95C51.075 17.175 50.85 17.4 50.625 17.7375C50.4 18.075 50.175 18.4125 50.0625 18.75C49.95 19.0875 49.8375 19.425 49.8375 19.7625V25.95C49.8375 27.525 49.05 28.425 47.475 28.425H46.125V30H47.475C48.0375 30 48.6 29.8875 49.05 29.6625C49.5 29.4375 49.95 29.2125 50.2875 28.7625C50.625 28.425 50.9625 27.975 51.075 27.525C51.3 27.075 51.4125 26.5125 51.4125 25.8375V19.65C51.4125 18.075 52.3125 17.175 54 17.175V15.6C52.3125 15.7125 51.4125 14.925 51.4125 13.2375Z" fill="#CFCFCF"/>
<path d="M66.8014 12.5991C64.4132 12.5991 62 14.2238 62 17.3087C62 20.3936 64.4091 22 66.7889 22C69.1687 22 71.5778 20.3895 71.5778 17.3087C71.5778 14.2279 69.1729 12.5991 66.8014 12.5991ZM66.7847 20.1661C65.4695 20.1661 64.1377 19.1913 64.1377 17.3229C64.1377 15.4241 65.4779 14.431 66.8014 14.431C68.3504 14.431 69.4317 15.6068 69.4317 17.2904C69.4317 19.1791 68.0999 20.1661 66.7847 20.1661V20.1661Z" fill="#CFCFCF"/>
<path d="M118.54 12.5991C116.152 12.5991 113.738 14.2238 113.738 17.3087C113.738 20.3936 116.147 22 118.527 22C120.907 22 123.314 20.3895 123.314 17.3087C123.314 14.2279 120.911 12.5991 118.54 12.5991ZM118.523 20.1661C117.206 20.1661 115.876 19.1913 115.876 17.3229C115.876 15.4241 117.216 14.431 118.54 14.431C120.087 14.431 121.168 15.6068 121.168 17.2904C121.168 19.1791 119.838 20.1661 118.523 20.1661Z" fill="#CFCFCF"/>
<path d="M77.074 21.9675H76.5563L76.5208 21.8985L71.9219 12.8347H74.3205L76.8402 18.3668L79.3619 12.8347H81.7063L77.074 21.9675Z" fill="#CFCFCF"/>
<path d="M86.7419 22C83.884 22 82.0386 20.1519 82.0386 17.2924C82.0386 14.5731 83.98 12.5991 86.6542 12.5991C89.3284 12.5991 91.0152 14.4269 91.0152 17.2701C91.0152 17.3432 91.0152 17.4224 91.0152 17.5037C91.0152 17.5849 91.0152 17.6682 91.0152 17.7534V17.8773H84.1971C84.4059 19.372 85.3244 20.16 86.8797 20.16C87.3478 20.1669 87.8123 20.0789 88.2436 19.9016C88.6749 19.7244 89.0635 19.4617 89.3848 19.1304L89.4829 19.0349L90.6373 20.3895L90.5621 20.4707C89.5893 21.5166 88.3723 22 86.7419 22ZM84.2368 16.3664H88.8524C88.6604 15.0829 87.8567 14.3497 86.6333 14.3497C85.41 14.3497 84.5165 15.1357 84.2368 16.3664Z" fill="#CFCFCF"/>
<path d="M109.498 21.9675H108.966L106.636 16.4862L104.306 21.9675H103.755L100.004 12.8347H102.288L104.177 17.9139L106.377 12.7839H106.926L109.177 17.9139L111.016 12.8347H113.285L109.498 21.9675Z" fill="#CFCFCF"/>
<path d="M98.3131 12.849H98.2234C97.5793 12.8306 96.9413 12.9749 96.3717 13.2679C95.8021 13.5608 95.3202 13.9923 94.973 14.5204L94.9292 12.8328H92.9126V21.7828H95.0002V17.5383C95.0002 16.663 95.4657 15.9562 96.3111 15.4729C97.094 15.0261 98.1774 14.821 98.8935 14.9936C98.7285 14.3498 98.3131 12.849 98.3131 12.849Z" fill="#CFCFCF"/>
<path d="M132.34 21.7828H130.253V14.6159H128.399L128.877 12.8328H130.253V12.3413C130.253 10.2495 131.484 9.00055 133.551 9.00055C134.392 8.98676 135.216 9.23356 135.904 9.70526L136 9.77227L135.073 11.3035L134.956 11.2101C134.604 10.9127 134.151 10.7516 133.685 10.7572C132.831 10.7572 132.34 11.3056 132.34 12.2641V12.8389H135.355V14.622H132.34V21.7828Z" fill="#CFCFCF"/>
<path d="M127.047 21.7827H124.959V9.21777H127.047V21.7827Z" fill="#CFCFCF"/>
</svg>
