<svg width="54" height="30" viewBox="0 0 54 30" fill="none" xmlns="http://www.w3.org/2000/svg">
<path fill-rule="evenodd" clip-rule="evenodd" d="M40.8105 14.8756C41.5261 15.2832 42.0059 15.5565 41.9999 15.5565C41.396 16.4374 40.2013 16.5067 40.1585 16.5035C40.4695 16.8755 41.0159 17.5407 41.1459 17.7323C39.9562 18.2688 38.3747 18.7823 37.7771 18.9764C37.6285 19.0246 37.5407 19.0531 37.535 19.0573C37.4995 19.0292 35.3429 17.8987 31.5074 18.3218C30.2336 16.5292 28.2424 15.3245 26.6593 15.2134C26.6593 15.2134 32.1113 19.2833 31.4415 30C29.6198 23.9749 25.2902 16.518 16.5107 15.4534C17.9439 14.0953 19.78 13.2168 21.7553 12.9441C17.5195 11.4415 12 12.986 12 12.986C12 12.986 13.096 11.4157 15.5266 10.1079C17.1845 9.20709 18.9834 8.58124 20.8502 8.25576C20.8502 8.25576 19.2079 7.07683 13.5058 8.35562C15.7045 6.51365 18.3934 5.32213 21.2583 4.92028C21.2669 3.96469 21.5001 3.02384 21.9398 2.17062C22.3796 1.31739 23.0141 0.574676 23.7943 0C24.6158 1.72674 25.5674 3.39129 26.6412 4.97987C26.6439 4.98627 26.965 5.13479 27.4665 5.36674C29.1091 6.12648 32.687 7.78127 33.3488 8.26864C34.2897 8.96757 34.5309 10.2777 34.6929 11.1581C34.7038 11.217 34.7143 11.274 34.7246 11.3287C34.7405 11.4184 38.7516 13.703 40.8105 14.8756ZM29.9104 10.8037C29.8913 10.8087 29.8787 10.812 29.8733 10.8133C31.7805 12.1823 32.9078 12.0277 32.9078 12.0277C32.9078 12.0277 32.8979 10.6523 32.4042 10.4703C31.8955 10.2817 30.1937 10.7292 29.9104 10.8037Z" fill="#EFEFEF"/>
<path d="M4.95 1.3375C4.5 1.45 4.05 1.7875 3.7125 2.125C3.375 2.4625 3.15 2.9125 2.925 3.3625C2.7 3.925 2.7 4.4875 2.7 5.05V11.2375C2.7 12.8125 1.8 13.7125 0 13.7125V15.2875C1.8 15.2875 2.7 16.075 2.7 17.7625V23.95C2.7 24.5125 2.8125 25.075 3.0375 25.6375C3.15 26.0875 3.375 26.5375 3.7125 26.875C4.05 27.2125 4.5 27.55 4.95 27.775C5.03207 27.7914 5.11175 27.8078 5.18973 27.8239C5.6462 27.9179 6.04458 28 6.525 28H7.875V26.3125H6.525C4.95 26.3125 4.1625 25.525 4.1625 23.8375V17.65C4.1625 17.3125 4.05 16.975 3.9375 16.6375C3.825 16.3 3.6 15.9625 3.375 15.625C3.15 15.2875 2.925 15.0625 2.5875 14.8375C2.25 14.6125 2.02501 14.5 1.57501 14.3875C1.91251 14.275 2.25 14.1625 2.5875 13.9375C2.925 13.7125 3.15 13.4875 3.375 13.15C3.6 12.8125 3.7125 12.475 3.825 12.1375C3.9375 11.8 4.05 11.4625 4.05 11.125V5.05C4.05 3.475 4.8375 2.575 6.4125 2.575H7.875V1H6.525C5.9625 1 5.5125 1.1125 4.95 1.3375Z" fill="#EFEFEF"/>
<path d="M51.4125 11.2375V5.05C51.4125 4.4875 51.3 3.925 51.075 3.475C50.9625 2.9125 50.625 2.4625 50.2875 2.125C49.95 1.7875 49.5 1.45 49.05 1.225C48.968 1.20861 48.8884 1.19221 48.8106 1.17617C48.3541 1.08213 47.9554 1 47.475 1H46.125V2.575H47.475C49.05 2.575 49.8375 3.3625 49.8375 5.05V11.2375C49.8375 11.575 49.95 11.9125 50.0625 12.25C50.175 12.5875 50.4 12.925 50.625 13.2625C50.85 13.6 51.075 13.825 51.4125 14.05C51.75 14.275 52.0875 14.3875 52.425 14.5C52.0875 14.6125 51.75 14.725 51.4125 14.95C51.075 15.175 50.85 15.4 50.625 15.7375C50.4 16.075 50.175 16.4125 50.0625 16.75C49.95 17.0875 49.8375 17.425 49.8375 17.7625V23.95C49.8375 25.525 49.05 26.425 47.475 26.425H46.125V28H47.475C48.0375 28 48.6 27.8875 49.05 27.6625C49.5 27.4375 49.95 27.2125 50.2875 26.7625C50.625 26.425 50.9625 25.975 51.075 25.525C51.3 25.075 51.4125 24.5125 51.4125 23.8375V17.65C51.4125 16.075 52.3125 15.175 54 15.175V13.6C52.3125 13.7125 51.4125 12.925 51.4125 11.2375Z" fill="#EFEFEF"/>
</svg>
