<svg xmlns="http://www.w3.org/2000/svg" viewBox="0 0 300 240">
  <title>Overwolf logo</title>
  <path d="M54.8,162.92c-7.8,0-11.9,4.3-11.9,11.15v11.55c0,6.85,4.8,11.15,11.9,11.15s11.9-4.3,11.9-11.15V174.06C66.7,167.21,61.9,162.92,54.8,162.92Zm4.65,22.55c0,2.95-1.75,4.8-4.65,4.8s-4.65-1.85-4.65-4.8V174.22c0-2.95,1.75-4.8,4.65-4.8s4.65,1.85,4.65,4.8Zm22.35.25-5.1-22.3H69l8.7,32.85h7.8l8.75-32.85H86.9Zm22.9-2.9h11.75v-6.4H104.7v-6.5H118v-6.5H97.45v32.85h21v-6.5H104.7Zm41.7-9c0-6.25-4.8-10.4-11.35-10.4H122.9v32.85h7.25V184.62h4.3l4.3,11.65h8l-5.15-13.35A10.13,10.13,0,0,0,146.4,173.82Zm-12.15,4.45h-4.1v-8.5h4.1c3,0,4.75,1.65,4.75,4.2S137.2,178.27,134.25,178.27Zm38.3,5.6-3.45-20.45h-6.7L159,183.82l-3.1-20.4h-7.3l6.7,32.85H162l3.6-20.7,3.65,20.7h6.7l6.7-32.85h-6.9Zm24.55-21c-7.8,0-11.9,4.3-11.9,11.15v11.55c0,6.85,4.8,11.15,11.9,11.15s11.9-4.3,11.9-11.15V174.06C209,167.21,204.2,162.92,197.1,162.92Zm4.65,22.55c0,2.95-1.75,4.8-4.65,4.8s-4.65-1.85-4.65-4.8V174.22c0-2.95,1.75-4.8,4.65-4.8s4.65,1.85,4.65,4.8Zm19.5-22.05H214v32.85h19.5v-6.5H221.25Zm35.85,6.5v-6.5H236.6v32.85h7.25V183.72H255.6v-6.5H243.85v-7.3Z"/>
  <path d="M135.49,60.93,112.4,43.23l3.18,36.21-9.71,13.64,4.48,13.26A43.43,43.43,0,0,1,123.16,114c.48-3.86,1.27-9.87,1.88-12.56L117.58,103C119.87,87.84,126.32,73.64,135.49,60.93Zm7.85,35.36-17.81-8.93C129.4,96.89,130.66,98.23,143.34,96.29Zm38.37-16.85,3.18-36.21c-21.75,16.67-28.83,19.15-37,39.73l11.28-2.17c-14,14.77-22.59,34.39-24.17,49.69l2.82,6.5h21.67c3.36-7.74,8.46-23.33,27.46-30.64l4.48-13.26Zm-33.07,50.18-6.88-10h13.75Zm5-33.34,17.81-8.93C167.63,96.89,166.37,98.23,153.69,96.29Z"/>
</svg>
