<svg width="144" height="145" viewBox="0 0 144 145" xmlns="http://www.w3.org/2000/svg">
<g>
	<path d="M144 75.1895C144.11 75.1895 109.181 55.3393 109.078 54.7555C108.288 50.5363 107.293 43.5693 102.474 39.9651C98.3274 36.8903 70.3332 24.2017 70.2779 24.0694C65.1235 16.3912 60.5558 8.34592 56.6125 0C52.8678 2.7776 49.822 6.36738 47.7112 10.4913C45.6004 14.6152 44.4811 19.1626 44.4401 23.7813C30.6883 25.7236 17.7814 31.4827 7.22763 40.3855C34.5979 34.2047 42.4811 39.9028 42.4811 39.9028C33.5202 41.476 24.8855 44.5009 16.9277 48.8549C5.26076 55.1758 0 62.7656 0 62.7656C0 62.7656 26.4934 55.3004 46.8256 62.5632C37.3441 63.8814 28.5306 68.1274 21.6513 74.6913C63.7928 79.8368 84.5752 115.879 93.3194 145C96.5343 93.2026 70.3648 73.5314 70.3648 73.5314C77.9637 74.0686 87.5215 79.8913 93.6354 88.5553C112.277 86.4847 122.657 92.1128 122.57 92.1128C122.364 92.1128 132.649 88.999 139.9 85.7062C139.276 84.7799 136.654 81.565 135.161 79.7668C135.366 79.7823 141.101 79.4476 144 75.1895ZM85.7916 52.2645C86.2024 52.1633 95.3337 49.6333 97.9404 50.6064C100.31 51.486 100.357 58.1339 100.357 58.1339C100.357 58.1339 94.9466 58.8812 85.7916 52.2645Z" fill="#b5b5b5"></path>
</g>
</svg>
