<?xml version="1.0"?>
<svg xmlns="http://www.w3.org/2000/svg" xmlns:xlink="http://www.w3.org/1999/xlink" width="81" height="43" viewBox="0 0 81 43" version="1.1">
<g id="Canvas" fill="none">
<g id="logo">
<g id="Vector">
<path d="M 71.4062 14.0292L 71.4062 5.55C 71.4062 4.77917 71.25 4.00833 70.9375 3.39167C 70.7812 2.62083 70.3125 2.00417 69.8438 1.54167C 69.375 1.07917 68.75 0.616667 68.125 0.308333C 67.3438 0.154167 66.7188 0 65.9375 0L 64.0625 0L 64.0625 2.15833L 65.9375 2.15833C 68.125 2.15833 69.2188 3.2375 69.2188 5.55L 69.2188 14.0292C 69.2188 14.4917 69.375 14.9542 69.5312 15.4167C 69.6875 15.8792 70 16.3417 70.3125 16.8042C 70.625 17.2667 70.9375 17.575 71.4062 17.8833C 71.875 18.1917 72.3438 18.3458 72.8125 18.5C 72.3438 18.6542 71.875 18.8083 71.4062 19.1167C 70.9375 19.425 70.625 19.7333 70.3125 20.1958C 70 20.6583 69.6875 21.1208 69.5312 21.5833C 69.375 22.0458 69.2188 22.5083 69.2188 22.9708L 69.2188 31.45C 69.2188 33.6083 68.125 34.8417 65.9375 34.8417L 64.0625 34.8417L 64.0625 37L 65.9375 37C 66.7188 37 67.5 36.8458 68.125 36.5375C 68.75 36.2292 69.375 35.9208 69.8438 35.3042C 70.3125 34.8417 70.7812 34.225 70.9375 33.6083C 71.25 32.9917 71.4062 32.2208 71.4062 31.2958L 71.4062 22.8167C 71.4062 20.6583 72.6562 19.425 75 19.425L 75 17.2667C 72.6562 17.4208 71.4062 16.3417 71.4062 14.0292ZM 6.875 0.4625C 6.25 0.616667 5.625 1.07917 5.15625 1.54167C 4.6875 2.00417 4.375 2.62083 4.0625 3.2375C 3.75 4.00833 3.75 4.77917 3.75 5.55L 3.75 14.0292C 3.75 16.1875 2.5 17.4208 0 17.4208L 0 19.5792C 2.5 19.5792 3.75 20.6583 3.75 22.9708L 3.75 31.45C 3.75 32.2208 3.90625 32.9917 4.21875 33.7625C 4.375 34.3792 4.6875 34.9958 5.15625 35.4583C 5.625 35.9208 6.25 36.3833 6.875 36.6917C 7.65625 36.8458 8.28125 37 9.0625 37L 10.9375 37L 10.9375 34.6875L 9.0625 34.6875C 6.875 34.6875 5.78125 33.6083 5.78125 31.2958L 5.78125 22.8167C 5.78125 22.3542 5.625 21.8917 5.46875 21.4292C 5.3125 20.9667 5 20.5042 4.6875 20.0417C 4.375 19.5792 4.0625 19.2708 3.59375 18.9625C 3.125 18.6542 2.8125 18.5 2.1875 18.3458C 2.65625 18.1917 3.125 18.0375 3.59375 17.7292C 4.0625 17.4208 4.375 17.1125 4.6875 16.65C 5 16.1875 5.15625 15.725 5.3125 15.2625C 5.46875 14.8 5.625 14.3375 5.625 13.875L 5.625 5.55C 5.625 3.39167 6.71875 2.15833 8.90625 2.15833L 10.9375 2.15833L 10.9375 0L 9.0625 0C 8.28125 0 7.65625 0.154167 6.875 0.4625ZM 32.1875 6.9375L 22.9688 0L 24.2188 14.3375L 20.3125 19.7333L 22.0312 24.975C 23.9062 25.7458 25.625 26.6708 27.1875 28.0583C 27.3438 26.5167 27.6562 24.2042 27.9688 23.125L 25 23.5875C 25.9375 17.575 28.5938 12.025 32.1875 6.9375ZM 52.0312 0C 43.2812 6.62917 40.4688 7.55417 37.1875 15.725L 41.7188 14.8C 36.0938 20.6583 32.6562 28.3667 32.0312 34.3792L 33.125 37L 41.875 37C 43.2812 33.9167 45.3125 27.75 52.8125 24.975L 54.5313 19.7333L 50.625 14.3375L 52.0312 0ZM 37.5 34.0708L 34.6875 30.0625L 40.1562 30.0625L 37.5 34.0708ZM 39.5312 20.9667L 46.7188 17.4208C 45.1562 21.1208 44.5312 21.7375 39.5312 20.9667ZM 35.3125 20.9667L 28.125 17.4208C 29.8438 21.1208 30.3125 21.7375 35.3125 20.9667Z" transform="translate(3 3)" fill="#D3EAED"/>
</g>
</g>
</g>
</svg>
