<svg width="224" height="50" viewBox="0 0 224 50" fill="none" xmlns="http://www.w3.org/2000/svg">
<g clip-path="url(#clip0_2443:1079)">
<path d="M49.7476 26.7125C49.7849 26.7125 37.9545 19.813 37.9196 19.6167C37.6706 18.174 37.3569 15.794 35.7258 14.5598C34.3239 13.4974 24.8317 9.06863 24.8117 9.02201C22.2644 5.26799 20.2548 0.765625 20.2548 0.765625C18.969 1.69968 17.9185 2.91264 17.1845 4.31069C16.4504 5.70874 16.0526 7.25442 16.0217 8.82819C11.3265 9.43797 6.90448 11.3519 3.27237 14.3463C12.6078 12.3516 15.2746 14.3144 15.2746 14.3144C12.2137 14.818 9.25857 15.8179 6.52942 17.2735C2.53032 19.3811 0.705078 21.9501 0.705078 21.9501C0.705078 21.9501 9.76655 19.4965 16.6691 22.0556C13.4368 22.471 10.4208 23.8839 8.05336 26.0918C22.3988 28.0056 29.3462 40.3669 32.2073 50.3236C33.5022 32.6822 24.6573 25.8783 24.6573 25.8783C27.2446 26.0918 30.4817 28.1111 32.531 31.0873C38.8957 30.4494 42.4118 32.4074 42.3819 32.4074C42.3121 32.4074 45.8307 31.3793 48.3158 30.2874C48.1041 29.9709 47.2226 28.8643 46.7271 28.246C46.7869 28.2485 48.7416 28.1503 49.7476 26.7125ZM29.9911 18.6794C30.1331 18.6451 33.2557 17.8182 34.1421 18.1593C34.939 18.4684 34.934 20.7355 34.934 20.7355C34.934 20.7355 33.0888 20.9686 29.9911 18.6794Z" fill="white"/>
<path d="M64.9173 19.6167C61.6478 19.6167 58.3359 21.8593 58.3359 26.1482C58.3359 30.4371 61.6353 32.6576 64.8949 32.6576C68.1544 32.6576 71.4538 30.4199 71.4538 26.1482C71.4538 21.8765 68.1644 19.6167 64.9173 19.6167ZM64.8949 30.1132C63.092 30.1132 61.2693 28.7588 61.2693 26.1703C61.2693 23.5376 63.1045 22.1586 64.9173 22.1586C67.0388 22.1586 68.5204 23.7903 68.5204 26.1237C68.5204 28.7441 66.6952 30.1132 64.8949 30.1132Z" fill="white"/>
<path d="M135.795 19.6167C132.523 19.6167 129.211 21.8593 129.211 26.1482C129.211 30.4371 132.513 32.6576 135.77 32.6576C139.027 32.6576 142.329 30.4199 142.329 26.1482C142.329 21.8765 139.032 19.6167 135.795 19.6167ZM135.77 30.1132C133.97 30.1132 132.144 28.7588 132.144 26.1703C132.144 23.5376 133.982 22.1586 135.795 22.1586C137.916 22.1586 139.395 23.7903 139.395 26.1237C139.383 28.7441 137.56 30.1132 135.757 30.1132H135.77Z" fill="white"/>
<path d="M78.9886 32.6578H78.2764L78.2291 32.5596L71.9316 19.9849H75.2161L78.6674 27.6622L82.1211 19.9849H85.3334L78.9886 32.6578Z" fill="white"/>
<path d="M92.2329 32.6576C88.321 32.6576 85.791 30.0936 85.791 26.1237C85.791 22.3525 88.4504 19.6167 92.1159 19.6167C95.7813 19.6167 98.0921 22.1611 98.0921 26.1016C98.0921 26.2046 98.0921 26.315 98.0921 26.4279C98.0921 26.5408 98.0921 26.6561 98.0921 26.7714V26.9456H88.7468C89.0232 29.0189 90.2881 30.1132 92.4197 30.1132C93.0632 30.1245 93.702 30.0031 94.295 29.7567C94.8881 29.5104 95.4224 29.1446 95.8635 28.6828L96.0004 28.5503L97.5816 30.4322L97.4771 30.5426C96.1324 31.9804 94.4615 32.6576 92.2329 32.6576ZM88.809 24.8404H95.1314C94.8674 23.0591 93.7668 22.0433 92.091 22.0433C90.4151 22.0433 89.1825 23.1474 88.809 24.8404Z" fill="white"/>
<path d="M194.151 32.6576C190.239 32.6576 187.709 30.0936 187.709 26.1237C187.709 22.3525 190.368 19.6167 194.034 19.6167C197.699 19.6167 200.01 22.1611 200.01 26.1016C200.01 26.2046 200.01 26.315 200.01 26.4279C200.01 26.5408 199.998 26.6561 199.998 26.7714V26.9456H190.665C190.941 29.0189 192.209 30.1132 194.34 30.1132C194.984 30.1241 195.622 30.0024 196.215 29.7561C196.808 29.5098 197.343 29.1442 197.784 28.6828L197.918 28.5503L199.5 30.4322L199.395 30.5426C198.048 31.9804 196.384 32.6576 194.151 32.6576ZM190.727 24.8404H197.052C196.788 23.0591 195.69 22.0433 194.014 22.0433C192.338 22.0433 191.1 23.1474 190.727 24.8404Z" fill="white"/>
<path d="M123.486 32.6576H122.756L119.566 25.0514L116.374 32.6576H115.622L110.482 19.9847H113.61L116.197 27.0339L119.213 19.916H119.962L123.045 27.0339L125.565 19.9847H128.673L123.486 32.6576Z" fill="white"/>
<path d="M108.079 19.9576H107.967C106.854 19.9576 104.789 20.4067 103.455 22.6566V19.9331H100.686V32.3484H103.549V26.4597C103.549 25.2452 104.187 24.2637 105.345 23.5939C106.415 22.9731 107.899 22.6885 108.883 22.929L108.079 19.9576Z" fill="white"/>
<path d="M154.689 32.356H151.825V22.4115H149.285L149.94 19.9383H151.825V19.2562C151.825 16.3511 153.513 14.6189 156.342 14.6189C157.495 14.6004 158.623 14.9442 159.564 15.6003L159.696 15.6935L158.431 17.8086L158.272 17.681C157.789 17.2665 157.169 17.042 156.529 17.0504C155.359 17.0504 154.689 17.811 154.689 19.1409V19.9407H158.817V22.4115H154.689V32.356Z" fill="white"/>
<path d="M147.438 32.3562H144.574V14.9355H147.438V32.3562Z" fill="white"/>
<path d="M185.033 32.3046H182.588L182.516 30.2019C181.579 31.6888 180.07 32.6113 178.006 32.6113C174.316 32.6113 172.109 29.7529 172.109 26.1608C172.109 22.5221 174.53 19.6391 178.056 19.6391C180.093 19.6391 181.557 20.515 182.468 21.9087V14.8447H185.033V32.3046ZM182.468 26.6613V25.6013C182.252 23.2851 180.725 21.9209 178.653 21.9209C176.45 21.9209 174.746 23.5747 174.746 26.1485C174.746 28.7223 176.353 30.3785 178.534 30.3785C180.573 30.3663 182.252 28.9971 182.468 26.6564V26.6613Z" fill="white"/>
<path d="M207.867 32.6578H207.157L207.107 32.5596L200.812 19.9849H204.094L207.548 27.6622L211 19.9849H214.214L207.867 32.6578Z" fill="white"/>
<path d="M169.911 38.605H167.67C166.646 38.605 165.857 38.3229 165.324 37.7684C164.791 37.2138 164.532 36.3894 164.532 35.3025V28.7661C164.532 28.1085 164.42 27.6497 164.199 27.397C163.977 27.1442 163.601 27.0314 163.041 27.0166H162.652V24.5213H163.041C163.601 24.5066 163.99 24.379 164.199 24.141C164.408 23.903 164.532 23.4295 164.532 22.7719V16.368C164.532 15.281 164.799 14.4517 165.324 13.9021C165.85 13.3525 166.646 13.0654 167.67 13.0654H169.911V15.4651H168.33C168.019 15.4651 167.62 15.4651 167.428 15.6564C167.276 15.8819 167.209 16.1528 167.239 16.422V22.6296C167.239 23.692 167.105 24.4575 166.831 24.9703C166.655 25.2889 166.407 25.5634 166.106 25.7727C166.421 25.9793 166.678 26.2612 166.853 26.5922C167.117 27.1001 167.247 27.8558 167.247 28.8986V35.2387C167.218 35.5077 167.285 35.7781 167.436 36.0042C167.524 36.0776 167.627 36.1325 167.738 36.1654C167.849 36.1983 167.966 36.2086 168.081 36.1956H169.911V38.605Z" fill="#D34037"/>
<path d="M216.445 36.0095H218.281C218.396 36.0222 218.512 36.012 218.624 35.9796C218.735 35.9471 218.838 35.8931 218.928 35.8206C219.078 35.5942 219.145 35.3241 219.117 35.0551V28.715C219.117 27.6722 219.247 26.9165 219.511 26.4061C219.685 26.0752 219.942 25.7932 220.258 25.5866C219.955 25.3793 219.707 25.1044 219.533 24.7843C219.259 24.2715 219.125 23.506 219.125 22.446V16.2359C219.152 15.9669 219.085 15.6968 218.935 15.4704C218.846 15.3979 218.742 15.3439 218.631 15.3114C218.52 15.279 218.403 15.2688 218.288 15.2815H216.453V12.8818H218.694C219.717 12.8818 220.507 13.1615 221.037 13.7185C221.567 14.2755 221.831 15.0974 221.831 16.1844V22.576C221.831 23.2336 221.943 23.6949 222.165 23.9476C222.387 24.2003 222.763 24.3132 223.323 24.3255L223.711 24.3377V26.8281H223.323C222.763 26.8429 222.372 26.9704 222.165 27.2084C221.958 27.4464 221.831 27.92 221.831 28.5776V35.1042C221.831 36.1887 221.565 37.018 221.037 37.5578C220.509 38.0976 219.717 38.3969 218.694 38.3969H216.453L216.445 36.0095Z" fill="#D34037"/>
</g>
<defs>
<clipPath id="clip0_2443:1079">
<rect width="224" height="50" fill="white"/>
</clipPath>
</defs>
</svg>
