<?xml version="1.0" encoding="utf-8"?>
	Generator: Adobe Illustrator 25.4.1, SVG Export Plug-In . SVG Version: 6.00 Build 0)
<svg version="1.1" id="Layer_1" xmlns="http://www.w3.org/2000/svg" xmlns:xlink="http://www.w3.org/1999/xlink" x="0px" y="0px"
	 viewBox="0 0 205 32" style="enable-background:new 0 0 205 32;" xml:space="preserve">
<style type="text/css">
	.st0{fill:#F7F7F7;}
	.st1{fill:#D34037;}
</style>
<g>
	<g>
		<path class="st0" d="M32.9,16.6c0,0-7.6-4.4-7.6-4.5c-0.2-0.9-0.4-2.5-1.4-3.3c-0.9-0.7-7-3.5-7-3.5c-1.7-2.4-3-5.3-3-5.3
			s-2.6,1.7-2.6,5.2c-0.5,0.1-4.4,0.5-8.1,3.7c6-1.4,7.7-0.1,7.7-0.1s-2.6,0.4-5.6,2c-2.5,1.4-3.7,3.1-3.7,3.1s5.8-1.6,10.2,0
			c-3.6,0.5-5.4,2.7-5.5,2.7C15.4,17.6,20,25.6,21.9,32c0.7-11.4-5-15.8-5-15.8c1.7,0.1,3.7,1.4,5.1,3.3c4.1-0.5,6.3,0.8,6.3,0.8
			c0,0,2.2-0.7,3.8-1.4c-0.1-0.2-0.7-0.9-1-1.3C31,17.6,32.3,17.5,32.9,16.6z M20.2,11.5c0.1,0,2.1-0.6,2.6-0.4
			c0.5,0.2,0.5,1.7,0.5,1.7S22.2,13,20.2,11.5z"/>
	</g>
	<path class="st0" d="M53.7,7.9v12.4h-1.7l-0.1-1.5c-0.7,1.1-1.7,1.7-3.2,1.7c-2.6,0-4.1-2-4.1-4.6c0-2.6,1.7-4.6,4.2-4.6
		c1.4,0,2.4,0.6,3.1,1.6v-5H53.7z M51.9,16.3v-0.8c-0.2-1.6-1.2-2.6-2.7-2.6c-1.5,0-2.7,1.2-2.7,3c0,1.8,1.1,3,2.6,3
		C50.5,18.9,51.7,18,51.9,16.3z"/>
	<path class="st0" d="M64.3,16.4h-6.7c0.2,1.7,1.2,2.5,2.8,2.5c1,0,1.8-0.3,2.5-1.1l1,1.2c-1,1-2.1,1.5-3.7,1.5
		c-2.7,0-4.5-1.7-4.5-4.6c0-2.8,2-4.6,4.4-4.6c2.4,0,4.1,1.7,4.1,4.6C64.4,16.1,64.3,16.2,64.3,16.4z M57.7,15.1h4.8
		c-0.2-1.4-1-2.3-2.3-2.3C58.9,12.8,57.9,13.7,57.7,15.1z"/>
	<path class="st0" d="M74.5,11.6l-4.4,8.9h-0.4l-4.4-8.9h2.1l2.6,5.8l2.5-5.8H74.5z"/>
	<g>
		<path class="st1" d="M43,24h-1.5c-0.5,0-0.9-0.2-1.2-0.6c-0.3-0.4-0.5-0.8-0.5-1.5v-3.8c0-0.6-0.1-1.2-0.4-1.6
			c-0.2-0.4-0.6-0.6-1.1-0.6l0-1.2c0.4,0,0.8-0.3,1-0.7c0.3-0.4,0.4-0.9,0.4-1.6V8.8c0-0.6,0.2-1.2,0.5-1.5c0.3-0.4,0.8-0.5,1.3-0.5
			H43V8h-0.9c-0.3,0-0.5,0.2-0.6,0.5c-0.1,0.3-0.2,0.7-0.2,1.1V13c0,0.4-0.1,0.8-0.2,1.1c-0.1,0.3-0.2,0.5-0.4,0.7
			c-0.2,0.2-0.3,0.3-0.5,0.4c-0.1,0.1-0.3,0.1-0.3,0.2v0c0.2,0,0.4,0.2,0.8,0.6c0.2,0.2,0.3,0.4,0.4,0.7c0.1,0.3,0.2,0.6,0.2,1.1
			v3.5c0,0.4,0.1,0.7,0.2,1c0.1,0.3,0.3,0.5,0.6,0.5H43V24z"/>
	</g>
	<g>
		<path class="st1" d="M76.2,22.8h0.9c0.3,0,0.5-0.2,0.6-0.5c0.1-0.3,0.2-0.6,0.2-1v-3.5c0-0.4,0.1-0.8,0.2-1.1
			c0.1-0.3,0.2-0.5,0.4-0.7c0.3-0.4,0.6-0.6,0.8-0.6v0c-0.1,0-0.2-0.1-0.3-0.2c-0.1-0.1-0.3-0.2-0.5-0.4c-0.2-0.2-0.3-0.4-0.4-0.7
			c-0.1-0.3-0.2-0.7-0.2-1.1V9.5c0-0.4-0.1-0.8-0.2-1.1C77.6,8.2,77.4,8,77.1,8h-0.9V6.8h1.5c0.5,0,0.9,0.2,1.3,0.5
			c0.3,0.4,0.5,0.9,0.5,1.5v3.7c0,0.6,0.1,1.1,0.4,1.6c0.2,0.4,0.6,0.6,1,0.7l0,1.2c-0.5,0-0.8,0.2-1.1,0.6
			c-0.3,0.4-0.4,0.9-0.4,1.6V22c0,0.6-0.2,1.1-0.5,1.5c-0.3,0.4-0.8,0.5-1.2,0.6h-1.5V22.8z"/>
	</g>
</g>
</svg>
