<svg xmlns="http://www.w3.org/2000/svg" style="display: none;">


  <symbol id="prev" viewBox="0 0 36 36">
    <path d="M20.9999 27L23.1099 24.89L16.2399 18L23.1099 11.11L20.9999 9L11.9999 18L20.9999 27Z" fill="currentColor" />
  </symbol>

  <symbol id="next" viewBox="0 0 36 36">
    <path d="M14.9999 9L12.8899 11.11L19.7599 18L12.8899 24.89L14.9999 27L23.9999 18L14.9999 9Z" fill="currentColor" />
  </symbol>

  <symbol id="closeModal" viewBox="0 0 32 32">
    <path fill-rule="evenodd" clip-rule="evenodd" d="M19.9799 12.4252L19.182 11.6273L15.9899 14.8193L12.7982 11.6276L12.0002 12.4256L15.1919 15.6173L12.0003 18.8089L12.7983 19.6069L15.9899 16.4152L19.1819 19.6072L19.9798 18.8092L16.7879 15.6173L19.9799 12.4252Z" fill="currentColor"/>
  </symbol>

  <symbol id="urlIcon" viewBox="0 0 18 18">
    <path fill-rule="evenodd" clip-rule="evenodd" d="M10.3149 1.82831C11.877 0.266214 14.4097 0.266214 15.9718 1.82831C17.5339 3.39041 17.5339 5.92307 15.9718 7.48517L12.0827 11.3743C10.7158 12.7411 8.49976 12.7411 7.13292 11.3743L8.54714 9.96004C9.13292 10.5458 10.0827 10.5458 10.6685 9.96004L14.5575 6.07095C15.3386 5.2899 15.3386 4.02357 14.5575 3.24252C13.7765 2.46148 12.5102 2.46148 11.7291 3.24253L10.6522 4.31942L10.0824 4.07524C9.49595 3.82388 8.8493 3.76787 8.23599 3.90722L10.3149 1.82831ZM7.48663 15.9705C5.92453 17.5326 3.39187 17.5326 1.82978 15.9705C0.267678 14.4084 0.267679 11.8758 1.82978 10.3137L5.71886 6.42459C7.0857 5.05775 9.30177 5.05775 10.6686 6.42459L9.2544 7.8388C8.66861 7.25301 7.71886 7.25301 7.13308 7.8388L3.24399 11.7279C2.46294 12.5089 2.46294 13.7753 3.24399 14.5563C4.02504 15.3374 5.29137 15.3374 6.07242 14.5563L7.14932 13.4794L7.71909 13.7236C8.30559 13.975 8.95224 14.031 9.56554 13.8916L7.48663 15.9705Z" fill="currentColor"/>
  </symbol>

  <symbol id="arrowDown" viewBox="0 0 20 20">
    <path fill-rule="evenodd" clip-rule="evenodd" d="M10.6247 12.7809C10.2594 13.073 9.74049 13.073 9.37527 12.7809L4.37527 8.78087C3.94401 8.43586 3.87408 7.80657 4.21909 7.37531C4.5641 6.94404 5.1934 6.87412 5.62466 7.21913L9.99996 10.7194L14.3753 7.21913C14.8065 6.87412 15.4358 6.94404 15.7808 7.37531C16.1258 7.80657 16.0559 8.43586 15.6247 8.78087L10.6247 12.7809Z" fill="currentColor"/>
  </symbol>

  <symbol id="gamesIcon" viewBox="0 0 20 20">
    <path fill-rule="evenodd" clip-rule="evenodd" d="M9.39798 13C8.61991 14.7934 7.16564 16 5.5 16C3.01472 16 1 13.3137 1 10C1 6.68629 3.01472 4 5.5 4C5.65678 4 5.81168 4.01069 5.96432 4.03155C6.13998 4.01072 6.31874 4 6.5 4H13.5C13.6813 4 13.86 4.01072 14.0357 4.03155C14.1883 4.01069 14.3432 4 14.5 4C16.9853 4 19 6.68629 19 10C19 13.3137 16.9853 16 14.5 16C12.8344 16 11.3801 14.7934 10.602 13H9.39798ZM7 6H5V8L3 8V10H5V12H7V10H9V8H7V6ZM14 11C15.1046 11 16 10.1046 16 9C16 7.89543 15.1046 7 14 7C12.8954 7 12 7.89543 12 9C12 10.1046 12.8954 11 14 11Z" fill="currentColor"/>
  </symbol>

  <symbol id="searchIcon" viewBox="0 0 20 20">
    <path fill-rule="evenodd" clip-rule="evenodd" d="M11.4764 12.8908C10.4956 13.5892 9.29579 14 8 14C4.68629 14 2 11.3137 2 8C2 4.68629 4.68629 2 8 2C11.3137 2 14 4.68629 14 8C14 9.29587 13.5892 10.4958 12.8907 11.4766L16.707 15.2929C17.0975 15.6834 17.0975 16.3166 16.707 16.7071C16.3164 17.0976 15.6833 17.0976 15.2927 16.7071L11.4764 12.8908ZM12 8C12 10.2091 10.2091 12 8 12C5.79086 12 4 10.2091 4 8C4 5.79086 5.79086 4 8 4C10.2091 4 12 5.79086 12 8Z" fill="currentColor"/>
  </symbol>

  <symbol id="monetization" viewBox="0 0 24 24">
    <path fill-rule="evenodd" clip-rule="evenodd" d="M12 22C17.5228 22 22 17.5228 22 12C22 6.47715 17.5228 2 12 2C6.47715 2 2 6.47715 2 12C2 17.5228 6.47715 22 12 22ZM13 7.04148V5H11V7C9.34315 7 8 8.34315 8 10C8 11.6569 9.34315 13 11 13H11.5H13C13.5523 13 14 13.4477 14 14C14 14.5523 13.5523 15 13 15H12.5H11C10.4477 15 10 14.5523 10 14H8C8 15.6569 9.34314 17 11 17V19H13V17C14.6569 17 16 15.6569 16 14C16 12.3431 14.6569 11 13 11H11.5H11C10.4477 11 10 10.5523 10 10C10 9.44772 10.4477 9 11 9H12.5C13.0523 9 13.5 9.44772 13.5 10H15.5C15.5 8.5135 14.4189 7.27952 13 7.04148Z" fill="currentColor"/>
  </symbol>

  <symbol id="in-game-overlay" viewBox="0 0 24 24">
    <path fill-rule="evenodd" clip-rule="evenodd" d="M2 4H22V17H2V4ZM20 6H11V7V9V13V15H13H18H20V13V9V7V6ZM18 9H13V13H18V9ZM16 19H8L7 21H17L16 19Z" fill="currentColor"/>
  </symbol>

  <symbol id="real-time-game-events" viewBox="0 0 24 24">
    <path fill-rule="evenodd" clip-rule="evenodd" d="M11.9997 8.89679L9.75521 6.8597L11.7731 4.84776L9.64775 2.72239L7.12835 5.24776L3.88059 2L2 3.88059L5.24776 7.12835L2.72239 9.64775L4.84776 11.7731L6.8597 9.75521L8.75334 11.8424L2 17.9701L2.37015 21.6298L6.02985 22L11.9997 15.4206L12 15.4209L15.2477 11.8448L15.2459 11.843L17.1403 9.75521L19.1522 11.7731L21.2776 9.64775L18.7582 7.12835L22 3.88059L20.1194 2L16.8776 5.24776L14.3522 2.72239L12.2269 4.84776L14.2448 6.8597L11.9997 8.89679ZM15.7012 12.2567L14.9907 18.7164L17.9698 22L21.6295 21.6299L21.9997 17.9702L15.7012 12.2567Z" fill="currentColor"/>
  </symbol>

  <symbol id="discord-big" viewBox="0 0 64 48">
    <path d="M54.2141 4.01993C50.0092 2.11491 45.5702 0.763426 41.0104 0C40.3864 1.1038 39.8219 2.23947 39.319 3.40224C34.462 2.67797 29.5227 2.67797 24.6656 3.40224C24.1625 2.23959 23.598 1.10394 22.9743 0C18.4116 0.769873 13.9696 2.12456 9.76051 4.02989C1.40438 16.264 -0.86083 28.1943 0.271777 39.9552C5.16533 43.533 10.6426 46.2541 16.4655 48C17.7767 46.2549 18.9369 44.4036 19.9338 42.4658C18.0403 41.7659 16.2127 40.9025 14.4722 39.8854C14.9302 39.5567 15.3782 39.2179 15.8112 38.8892C20.8757 41.246 26.4033 42.4681 31.9999 42.4681C37.5965 42.4681 43.1241 41.246 48.1886 38.8892C48.6266 39.2428 49.0746 39.5816 49.5276 39.8854C47.7837 40.9041 45.9528 41.7692 44.0559 42.4707C45.0516 44.4077 46.2119 46.2575 47.5242 48C53.3521 46.2611 58.8335 43.5413 63.728 39.9601C65.0569 26.3213 61.4577 14.5006 54.2141 4.01993ZM21.3685 32.7223C18.2123 32.7223 15.6048 29.8879 15.6048 26.401C15.6048 22.9141 18.1217 20.0548 21.3584 20.0548C24.5952 20.0548 27.1825 22.9141 27.1272 26.401C27.0718 29.8879 24.5851 32.7223 21.3685 32.7223ZM42.6313 32.7223C39.4701 32.7223 36.8726 29.8879 36.8726 26.401C36.8726 22.9141 39.3895 20.0548 42.6313 20.0548C45.8731 20.0548 48.4403 22.9141 48.3849 26.401C48.3296 29.8879 45.8479 32.7223 42.6313 32.7223Z" fill="currentColor"/>
  </symbol>

  <symbol id="arrow-up-big" viewBox="0 0 24 24">
    <path fill-rule="evenodd" clip-rule="evenodd" d="M3.42857 17.4286L2 16L12 6L13.4286 7.42857L22.0001 16.0001L20.5715 17.4287L12 8.85716L3.42857 17.4286Z" fill="currentColor"/>
  </symbol>

  <symbol id="discord-icon" viewBox="0 0 24 24">
    <path d="M18.9419 5.26946C17.6279 4.66787 16.2407 4.24108 14.8158 4C14.6208 4.34857 14.4443 4.70721 14.2872 5.0744C12.7694 4.84568 11.2258 4.84568 9.70801 5.0744C9.55079 4.70725 9.37437 4.34861 9.17946 4C7.75361 4.24312 6.3655 4.67092 5.05016 5.27261C2.43887 9.13606 1.73099 12.9036 2.08493 16.6176C3.61417 17.7474 5.32582 18.6067 7.14548 19.1581C7.55522 18.607 7.91778 18.0224 8.22933 17.4104C7.63759 17.1894 7.06646 16.9167 6.52255 16.5955C6.6657 16.4917 6.8057 16.3847 6.94098 16.2809C8.52364 17.0252 10.251 17.4111 12 17.4111C13.7489 17.4111 15.4763 17.0252 17.0589 16.2809C17.1958 16.3926 17.3358 16.4996 17.4774 16.5955C16.9324 16.9172 16.3602 17.1904 15.7675 17.412C16.0786 18.0236 16.4412 18.6078 16.8513 19.1581C18.6725 18.6089 20.3855 17.75 21.915 16.6191C22.3303 12.3121 21.2055 8.57919 18.9419 5.26946ZM8.67765 14.3335C7.69134 14.3335 6.87649 13.4384 6.87649 12.3372C6.87649 11.2361 7.66302 10.3332 8.6745 10.3332C9.68598 10.3332 10.4945 11.2361 10.4772 12.3372C10.4599 13.4384 9.68284 14.3335 8.67765 14.3335ZM15.3223 14.3335C14.3344 14.3335 13.5227 13.4384 13.5227 12.3372C13.5227 11.2361 14.3092 10.3332 15.3223 10.3332C16.3353 10.3332 17.1376 11.2361 17.1203 12.3372C17.103 13.4384 16.3275 14.3335 15.3223 14.3335Z" fill="currentColor"/>
  </symbol>

  <symbol id="slack-icon" viewBox="0 0 24 24">
    <path fill-rule="evenodd" clip-rule="evenodd" d="M9.36152 6.20195C8.20517 6.20195 7.26055 5.25732 7.26055 4.10097C7.26055 2.94462 8.20517 2 9.36152 2C10.5179 2 11.4625 2.94462 11.4625 4.10097V6.20195H9.36152ZM4.10097 16.7394C5.25732 16.7394 6.20195 15.7948 6.20195 14.6384V12.5374H4.10097C2.94462 12.5374 2 13.4821 2 14.6384C2 15.7948 2.94462 16.7394 4.10097 16.7394ZM9.36152 12.5374C8.20517 12.5374 7.26055 13.4821 7.26055 14.6384V19.899C7.26055 21.0553 8.20517 22 9.36152 22C10.5179 22 11.4625 21.0553 11.4625 19.899V14.6384C11.4625 13.4821 10.5179 12.5374 9.36152 12.5374ZM11.4625 9.36155C11.4625 8.2052 10.5179 7.26058 9.36155 7.26058H4.10097C2.94462 7.26058 2 8.2052 2 9.36155C2 10.5179 2.94462 11.4625 4.10097 11.4625H9.36155C10.5179 11.4625 11.4625 10.5179 11.4625 9.36155ZM17.798 9.36155C17.798 8.2052 18.7426 7.26058 19.899 7.26058C21.0553 7.26058 22 8.2052 22 9.36155C22 10.5179 21.0553 11.4625 19.899 11.4625H17.798V9.36155ZM14.6384 11.4625C15.7948 11.4625 16.7394 10.5179 16.7394 9.36155V4.10097C16.7394 2.94462 15.7948 2 14.6384 2C13.4821 2 12.5375 2.94462 12.5375 4.10097V9.36155C12.5375 10.5179 13.4821 11.4625 14.6384 11.4625ZM14.6384 17.798C15.7948 17.798 16.7394 18.7426 16.7394 19.899C16.7394 21.0553 15.7948 22 14.6384 22C13.4821 22 12.5375 21.0553 12.5375 19.899V17.798H14.6384ZM13 15.101C13 16.2573 13.9446 17.2019 15.101 17.2019H20.3616C21.5179 17.2019 22.4625 16.2573 22.4625 15.101C22.4625 13.9446 21.5179 13 20.3616 13H15.101C13.9446 13 13 13.9446 13 15.101Z" fill="currentColor"/>
  </symbol>

  <symbol id="facebook-icon" viewBox="0 0 24 24">
    <path d="M14.0924 22V13.25H17.01L17.5652 9.63041H14.0924V7.28162C14.0924 6.29137 14.5776 5.32608 16.133 5.32608H17.7119V2.24456C17.7119 2.24456 16.279 2 14.909 2C12.0488 2 10.1793 3.73347 10.1793 6.87173V9.63041H7V13.25H10.1793V22H14.0924Z" fill="currentColor"/>
  </symbol>

  <symbol id="twitter-icon" viewBox="0 0 24 24">
    <path d="M19.8185 8.01553C19.8306 8.19053 19.8306 8.36553 19.8306 8.54215C19.8306 13.9236 15.7339 20.13 8.24274 20.13V20.1268C6.02984 20.1301 3.8629 19.4962 2 18.301C2.32177 18.3397 2.64516 18.3591 2.96935 18.3599C4.80323 18.3615 6.58468 17.7462 8.02742 16.6131C6.28468 16.58 4.75645 15.4438 4.22258 13.7849C4.83306 13.9026 5.4621 13.8784 6.06129 13.7147C4.16129 13.3309 2.79435 11.6615 2.79435 9.72279C2.79435 9.70505 2.79435 9.68811 2.79435 9.67118C3.36048 9.9865 3.99435 10.1615 4.64274 10.1809C2.85323 8.98489 2.30161 6.60424 3.38226 4.74295C5.45 7.28731 8.50081 8.83408 11.7758 8.99779C11.4476 7.58328 11.896 6.10102 12.954 5.10666C14.5944 3.56473 17.1742 3.64376 18.7161 5.28328C19.6282 5.10344 20.5024 4.76876 21.3024 4.29457C20.9984 5.23731 20.3621 6.03812 19.5121 6.54699C20.3194 6.45182 21.1081 6.2357 21.8508 5.90586C21.304 6.72521 20.6153 7.43892 19.8185 8.01553Z" fill="currentColor"/>
  </symbol>

</svg>
