<svg width="100" height="100" viewBox="0 0 100 100" fill="none" xmlns="http://www.w3.org/2000/svg">
<path d="M49.6472 25.2364V7H51.2563V25.2364H49.6472Z" fill="#6C5C99"/>
<path d="M50.1836 93.3545V60.1H51.2563V93.3545C51.2563 93.6508 51.0162 93.8909 50.7199 93.8909C50.4237 93.8909 50.1836 93.6508 50.1836 93.3545Z" fill="#6C5C99"/>
<path d="M29.8018 7H49.6472M69.4927 7H51.2563M49.6472 7V25.2364H51.2563V7M49.6472 7H51.2563M50.1836 60.1V93.3545C50.1836 93.6508 50.4237 93.8909 50.7199 93.8909V93.8909C51.0162 93.8909 51.2563 93.6508 51.2563 93.3545V60.1H50.1836Z" stroke="#6C5C99" stroke-width="3.21818" stroke-linecap="round"/>
<path d="M50.5 69.7594L21 85.2191V15.5818H50.5H80V85.2191L50.5 69.7594Z" fill="#403366"/>
<path d="M69.4918 15.5859L44.7408 15.586C36.4079 28.366 31.7274 39.6935 29.4507 54.4692L38.0795 52.7347C36.6677 56.0888 33.5877 69.7836 32.1891 79.33L50.4826 69.7162C52.2024 60.3116 57.055 50.901 69.1761 32.6476L59.1497 34.3928C61.0493 29.3268 65.9524 21.1539 69.4918 15.5859Z" fill="url(#paint0_linear)"/>
<defs>
<linearGradient id="paint0_linear" x1="49.4712" y1="15.5859" x2="49.4712" y2="79.33" gradientUnits="userSpaceOnUse">
<stop stop-color="#958FB2"/>
<stop offset="1" stop-color="#958FB2" stop-opacity="0"/>
</linearGradient>
</defs>
</svg>
