<svg width="136" height="74" viewBox="0 0 136 74" fill="none" xmlns="http://www.w3.org/2000/svg">
<g clip-path="url(#clip0_647_6767)">
<rect width="136" height="4" fill="#4D4D4D"/>
<rect width="136" height="70" transform="translate(0 4)" fill="#333333"/>
<rect width="46" height="68" transform="translate(89 5)" fill="#D34037"/>
<path fill-rule="evenodd" clip-rule="evenodd" d="M112.001 45.6666C115.683 45.6666 118.667 42.6818 118.667 38.9999C118.667 35.318 115.683 32.3333 112.001 32.3333C108.319 32.3333 105.334 35.318 105.334 38.9999C105.334 42.6818 108.319 45.6666 112.001 45.6666ZM112.668 34.3332H111.334V35.6665C110.23 35.6665 109.334 36.562 109.334 37.6665C109.334 38.7711 110.23 39.6665 111.334 39.6665H111.668H112.668C113.036 39.6665 113.334 39.965 113.334 40.3332C113.334 40.7014 113.036 40.9999 112.668 40.9999H112.334H111.334C110.966 40.9999 110.668 40.7014 110.668 40.3332H109.334C109.334 41.4378 110.23 42.3332 111.334 42.3332L111.334 43.6665H112.668V42.3332C113.772 42.3332 114.668 41.4378 114.668 40.3332C114.668 39.2286 113.772 38.3332 112.668 38.3332H111.668H111.334C110.966 38.3332 110.668 38.0347 110.668 37.6665C110.668 37.2984 110.966 36.9999 111.334 36.9999H112.334C112.703 36.9999 113.001 37.2984 113.001 37.6665H114.334C114.334 36.6755 113.614 35.8529 112.668 35.6942V34.3332Z" fill="white"/>
<path fill-rule="evenodd" clip-rule="evenodd" d="M22 31L18 29V45H22V31ZM40 33L36 31V45H40V33ZM30 35L34 37V45H30V35ZM28 31L24 29V45H28V31Z" fill="#4D4D4D"/>
<path d="M48 45H70L67 41L64 42L61 38L54 41L48 35V45Z" fill="#4D4D4D"/>
</g>
<defs>
<clipPath id="clip0_647_6767">
<rect width="136" height="74" fill="white"/>
</clipPath>
</defs>
</svg>
