<svg width="48" height="48" viewBox="0 0 48 48" fill="none" xmlns="http://www.w3.org/2000/svg">
<g clip-path="url(#clip0_499_4370)">
<path fill-rule="evenodd" clip-rule="evenodd" d="M36.3753 16.4294C37.1602 20.5731 34.457 26.193 30.8119 27.755C37.5088 19.3487 34.9954 3.66965 25.6556 0C28.8406 4.71387 27.4845 8.46922 24.6736 11.5214C25.7359 8.93449 25.8016 6.09742 23.9234 3.09244C23.6003 13.0432 9.29387 15.2628 9.03833 29.9116C9.02008 30.1303 9.0073 30.3472 9 30.5693C9 31.234 9.04381 31.8899 9.13324 32.5318C10.1755 40.1282 17.1754 46 25.6556 46C17.2758 43.9081 11.6229 36.9956 13.2985 28.278C13.0904 33.2192 16.2153 39.6577 21.0267 41.8021C33.3253 47.2786 48.9058 32.7452 36.3753 16.4294Z" fill="url(#paint0_linear_499_4370)"/>
<path fill-rule="evenodd" clip-rule="evenodd" d="M38.622 44.0809L38.8 47L35.8772 46.8223L17.7491 28.1547L12.1915 33.702L4.79999 26.3241L10.2407 20.8934L10.2163 20.8743L8.38757 21.6668L8.37535 21.6546L9.83412 20.1985H8.64582V16.8945H11.9542V18.0806L13.4496 16.5879L13.4618 16.6001L12.7324 18.2757L12.7499 18.2582L12.8075 18.3314L18.1487 13L25.5402 20.3779L20.0175 25.8887L30.0583 35.7069L27.2835 37.8578L29.5519 40.2962L30.1732 35.8193L38.622 44.0809Z" fill="url(#paint1_linear_499_4370)"/>
<path d="M13.8 22V25H16.8V22H13.8Z" fill="#1A1A1A"/>
<path fill-rule="evenodd" clip-rule="evenodd" d="M28.1611 22.9839C27.4844 24.1906 26.765 25.7039 26.4875 27.0322C26.1586 26.1655 26.0627 25.2335 26.1518 24.2769C24.7232 25.1825 23.2466 26.3276 21.7169 27.7739C20.9495 28.498 20.2763 29.2097 19.6888 29.9038C19.3582 31.3449 19.2023 32.7824 19.3325 34.2165C18.7946 33.5294 18.2379 32.039 18.0375 31.1564C16.1738 33.1594 16.0898 37.1514 16.972 39.7077C20.7885 33.436 25.0794 29.3066 32.0769 26.2148C18.106 36.7744 14.8188 47.741 14.8188 47.741L14.8 47.7956C14.8 47.7956 14.8103 47.7798 14.8308 47.7498L15.11 48L19.8721 41.531C19.8721 41.531 28.5276 40.5233 30.2971 35.9412C29.3807 35.8936 28.5122 35.6663 27.7345 35.2171C29.1323 35.1132 31.1947 34.4508 32.524 33.88C32.7638 33.5787 39.6087 21.9409 42.8 18C33.0276 19.7177 28.6047 22.3232 28.1645 22.9839H28.1611Z" fill="white"/>
<path opacity="0.2" d="M6.5 36C7.32843 36 8 35.3284 8 34.5C8 33.6716 7.32843 33 6.5 33C5.67157 33 5 33.6716 5 34.5C5 35.3284 5.67157 36 6.5 36Z" fill="#EA483B"/>
<path d="M6.5 35C6.77614 35 7 34.7761 7 34.5C7 34.2239 6.77614 34 6.5 34C6.22386 34 6 34.2239 6 34.5C6 34.7761 6.22386 35 6.5 35Z" fill="#EA483B"/>
<path opacity="0.2" d="M39 13C40.1046 13 41 12.1046 41 11C41 9.89543 40.1046 9 39 9C37.8954 9 37 9.89543 37 11C37 12.1046 37.8954 13 39 13Z" fill="#EA483B"/>
<path d="M39 11.7C39.3866 11.7 39.7 11.3866 39.7 11C39.7 10.6134 39.3866 10.3 39 10.3C38.6134 10.3 38.3 10.6134 38.3 11C38.3 11.3866 38.6134 11.7 39 11.7Z" fill="#EA483B"/>
<path opacity="0.2" d="M16 10C17.6569 10 19 8.65685 19 7C19 5.34315 17.6569 4 16 4C14.3431 4 13 5.34315 13 7C13 8.65685 14.3431 10 16 10Z" fill="#EA483B"/>
<path d="M16 8C16.5523 8 17 7.55228 17 7C17 6.44772 16.5523 6 16 6C15.4477 6 15 6.44772 15 7C15 7.55228 15.4477 8 16 8Z" fill="#EA483B"/>
</g>
<defs>
<linearGradient id="paint0_linear_499_4370" x1="25.0003" y1="2.49904e-08" x2="26.7037" y2="53.8205" gradientUnits="userSpaceOnUse">
<stop stop-color="#EA483B"/>
<stop offset="0.880208" stop-color="#1A1A1A" stop-opacity="0"/>
</linearGradient>
<linearGradient id="paint1_linear_499_4370" x1="20.1143" y1="56.4852" x2="22.509" y2="21.8158" gradientUnits="userSpaceOnUse">
<stop stop-color="#EA483B" stop-opacity="0"/>
<stop offset="1" stop-color="#EA483B"/>
</linearGradient>
<clipPath id="clip0_499_4370">
<rect width="48" height="48" fill="white"/>
</clipPath>
</defs>
</svg>
