<svg width="30" height="27" viewBox="0 0 30 27" fill="none" xmlns="http://www.w3.org/2000/svg">
<path fill-rule="evenodd" clip-rule="evenodd" d="M18.3681 1.93259L29.485 21.2632C30.9587 23.8199 29.0896 27 26.1175 27H3.88187C0.909838 27 -0.959266 23.8199 0.514339 21.2632L11.6313 1.93259C13.1107 -0.645424 16.8878 -0.642967 18.3681 1.93259ZM27.6631 22.2872L16.5461 2.95658C15.8668 1.7753 14.1326 1.7753 13.4533 2.95658L2.33628 22.2872C1.6545 23.4725 2.50176 24.9192 3.88187 24.9192H26.1175C27.4976 24.9192 28.3449 23.4725 27.6631 22.2872ZM13.9487 9.49167C13.9487 8.91741 14.4195 8.45129 14.9995 8.45129C15.5795 8.45129 16.0503 8.91741 16.0503 9.49167V16.9799C16.0503 17.5542 15.5795 18.0203 14.9995 18.0203C14.4195 18.0203 13.9487 17.5542 13.9487 16.9799V9.49167ZM14.9994 22.407C15.7324 22.407 16.3282 21.8172 16.3282 21.0864C16.3282 20.3557 15.7324 19.7659 14.9994 19.7659C14.2663 19.7659 13.6714 20.3557 13.6714 21.0914C13.6714 21.8172 14.2663 22.407 14.9994 22.407Z" fill="#303030"/>
</svg>
