<svg width="46" height="52" viewBox="0 0 46 52" fill="none" xmlns="http://www.w3.org/2000/svg">
<path d="M33.8696 18.9915C33.0677 19.7939 32.2627 20.5994 31.4609 21.4018C31.0489 21.8141 30.6337 22.2296 30.2217 22.6419C29.217 23.6473 28.2092 24.6558 27.2045 25.6612C26.146 26.7205 25.0906 27.7766 24.0321 28.8359C23.6581 29.2101 23.281 29.5875 22.907 29.9618C22.7327 30.1362 22.5457 30.3011 22.384 30.4851C22.3809 30.4914 22.3745 30.4946 22.3714 30.4977C22.3587 30.5168 22.6281 30.3265 22.5267 30.3741C22.6027 30.3423 22.6788 30.3106 22.7549 30.2789C22.6693 30.3138 22.571 30.3265 22.4791 30.3392C22.5647 30.3265 22.6471 30.317 22.7327 30.3043C21.9689 30.4026 21.186 30.3931 20.4159 30.3899C20.7328 30.7071 21.0498 31.0242 21.3667 31.3414C21.3604 30.5612 21.3477 29.7651 21.4428 28.9913C21.4301 29.0769 21.4206 29.1594 21.4079 29.245C21.4301 29.0769 21.4966 28.912 21.4966 28.7439C21.4523 28.9025 21.4111 29.0642 21.3667 29.2228C21.2399 29.4353 21.2114 29.4067 21.2938 29.3243C21.3413 29.2767 21.3889 29.2291 21.4364 29.1816C21.6044 29.0135 21.7724 28.8454 21.9435 28.6741C22.4601 28.1572 22.9735 27.6434 23.4901 27.1264C24.2539 26.3621 25.0177 25.5977 25.7784 24.8366C26.5675 24.0469 27.3567 23.254 28.149 22.4643C28.7353 21.8776 29.3248 21.2877 29.9111 20.7009C30.8334 19.778 31.7588 18.8519 32.6811 17.929C32.7033 17.9068 32.7255 17.8846 32.7476 17.8624C32.3008 17.8624 31.8507 17.8624 31.4039 17.8624C32.1233 18.5823 32.8427 19.3023 33.559 20.019C33.6636 20.1237 33.7682 20.2284 33.8727 20.333C34.2245 20.6851 34.8711 20.7104 35.2165 20.333C35.5651 19.9524 35.5937 19.3625 35.2165 18.9883C34.4939 18.2652 33.7682 17.5389 33.0456 16.8158C32.9441 16.7143 32.8459 16.616 32.7445 16.5145C32.38 16.1498 31.7652 16.1498 31.4007 16.5145C30.5545 17.3613 29.7083 18.2081 28.8621 19.0549C28.2884 19.6289 27.718 20.1998 27.1475 20.7739C26.2538 21.6682 25.3568 22.5658 24.4631 23.4601C23.7944 24.1293 23.1257 24.7985 22.4569 25.4677C21.6139 26.3113 20.7582 27.1454 19.9278 28.0018C19.7313 28.2047 19.5982 28.4553 19.5982 28.7439C19.6109 28.6583 19.6204 28.5758 19.6331 28.4902C19.538 28.7566 19.5317 29.061 19.5127 29.3401C19.4905 29.6383 19.4841 29.9396 19.4778 30.2377C19.4715 30.6056 19.4683 30.9735 19.4715 31.3414C19.4746 31.8583 19.9025 32.2897 20.4222 32.2928C21.129 32.296 21.8389 32.2928 22.5425 32.2294C22.9735 32.1882 23.3982 32.1533 23.7278 31.8393C23.7944 31.7759 23.8578 31.7093 23.9212 31.6458C24.8117 30.7546 25.7055 29.8603 26.596 28.9691C27.8574 27.7068 29.1188 26.4445 30.3802 25.1823C31.1535 24.4084 31.9268 23.6346 32.7001 22.8607C33.5051 22.0552 34.3069 21.2528 35.1119 20.4472C35.1468 20.4123 35.1848 20.3743 35.2197 20.3394C35.5715 19.9873 35.5968 19.3403 35.2197 18.9946C34.8362 18.6426 34.2467 18.6172 33.8696 18.9915Z" fill="#303030"/>
<path d="M36.2559 16.6034C35.5618 17.2979 34.8646 17.9957 34.1705 18.6902C34.0691 18.7917 33.9708 18.89 33.8694 18.9915C34.3163 18.9915 34.7663 18.9915 35.2132 18.9915C34.4906 18.2684 33.7648 17.5422 33.0422 16.819C32.9408 16.7176 32.8426 16.6192 32.7412 16.5178C32.7412 16.9649 32.7412 17.4153 32.7412 17.8625C33.4479 17.1552 34.1547 16.448 34.8646 15.7376C34.9311 15.671 34.9977 15.6044 35.0643 15.5378C35.0801 15.5219 35.1023 15.506 35.115 15.487C35.115 15.4838 35.1245 15.4807 35.1245 15.4775C35.1213 15.5219 34.9058 15.6075 35.0833 15.5251C35.0072 15.5568 34.9311 15.5885 34.8551 15.6202C34.8994 15.6044 34.9375 15.5948 34.985 15.5885C34.8994 15.6012 34.817 15.6107 34.7315 15.6234C34.76 15.6202 34.7917 15.6202 34.8202 15.6234C34.7346 15.6107 34.6522 15.6012 34.5667 15.5885C34.6174 15.598 34.6618 15.6075 34.7093 15.6266C34.6332 15.5948 34.5572 15.5631 34.4811 15.5314C34.6459 15.617 34.8202 15.6868 35.0104 15.6868C34.8519 15.6424 34.6903 15.6012 34.5318 15.5568C34.6047 15.6044 34.6554 15.6868 34.4209 15.4711C34.329 15.246 34.2339 15.024 34.142 14.7988C34.142 15.3253 34.6649 15.7154 35.0072 16.0579C35.3495 16.4004 35.6949 16.7461 36.0372 17.0886C36.0911 17.1425 36.1482 17.1996 36.202 17.2535C36.2147 17.2662 36.2274 17.2821 36.2401 17.2916L36.2464 17.2979C36.2654 17.317 36.2496 17.2948 36.1989 17.2345C36.1006 17.1013 36.1767 17.2091 36.1925 17.2472C36.1608 17.1711 36.1291 17.095 36.0974 17.0189C36.1133 17.0601 36.1228 17.095 36.1291 17.1394C36.1165 17.0537 36.1069 16.9713 36.0943 16.8856C36.0974 16.9269 36.0974 16.9649 36.0943 17.0093C36.1069 16.9237 36.1165 16.8412 36.1291 16.7556C36.1228 16.7968 36.1101 16.8349 36.0974 16.8761C36.1291 16.8 36.1608 16.7239 36.1925 16.6478C36.1608 16.7429 36.0911 16.7873 36.2559 16.6034C35.92 16.9713 35.8661 17.5897 36.2559 17.9481C36.6204 18.2843 37.2447 18.3414 37.5997 17.9481C38.1321 17.3645 38.1385 16.5241 37.5902 15.9469C37.4824 15.8327 37.3683 15.7249 37.2606 15.617C36.8707 15.2269 36.4809 14.8368 36.0911 14.4467C35.9865 14.3421 35.8819 14.2374 35.7742 14.1296C35.8661 14.3548 35.9612 14.5768 36.0531 14.802C36.0531 14.266 35.5523 13.7871 35.0199 13.7871C35.1783 13.8315 35.34 13.8727 35.4984 13.9171C34.8963 13.5651 34.1959 13.7205 33.7205 14.193C33.5525 14.3611 33.3845 14.5292 33.2166 14.6973C32.7285 15.1857 32.2404 15.6741 31.7523 16.1625C31.6351 16.2799 31.5146 16.4004 31.3974 16.5178C31.0329 16.8825 31.0329 17.4978 31.3974 17.8625C32.1168 18.5824 32.8362 19.3023 33.5525 20.0191C33.6571 20.1238 33.7617 20.2284 33.8663 20.3331C34.2307 20.6978 34.8456 20.6978 35.21 20.3331C35.9041 19.6385 36.6014 18.9408 37.2954 18.2462C37.3969 18.1447 37.4951 18.0464 37.5965 17.9449C37.9483 17.5929 37.9737 16.9459 37.5965 16.6002C37.2225 16.2577 36.6331 16.2291 36.2559 16.6034Z" fill="#303030"/>
<path d="M36.2559 16.6034C35.5618 17.2979 34.8646 17.9957 34.1705 18.6902C34.0691 18.7917 33.9708 18.89 33.8694 18.9915C34.3163 18.9915 34.7663 18.9915 35.2132 18.9915C34.4906 18.2684 33.7648 17.5422 33.0422 16.819C32.9408 16.7176 32.8426 16.6192 32.7412 16.5177C32.7412 16.9649 32.7412 17.4153 32.7412 17.8625C33.4479 17.1552 34.1547 16.448 34.8646 15.7376C34.9311 15.671 34.9977 15.6044 35.0643 15.5377C35.0801 15.5219 35.1023 15.506 35.115 15.487C35.115 15.4838 35.1245 15.4807 35.1245 15.4775C35.1213 15.5219 34.9058 15.6075 35.0833 15.5251C35.0072 15.5568 34.9311 15.5885 34.8551 15.6202C34.8994 15.6044 34.9375 15.5948 34.985 15.5885C34.8994 15.6012 34.817 15.6107 34.7315 15.6234C34.76 15.6202 34.7917 15.6202 34.8202 15.6234C34.7346 15.6107 34.6522 15.6012 34.5667 15.5885C34.6174 15.598 34.6618 15.6075 34.7093 15.6266C34.6332 15.5948 34.5572 15.5631 34.4811 15.5314C34.6459 15.617 34.8202 15.6868 35.0104 15.6868C34.8519 15.6424 34.6903 15.6012 34.5318 15.5568C34.6839 15.6583 34.3385 15.3823 34.4526 15.5029C34.4906 15.5441 34.535 15.5853 34.5762 15.6266C34.7251 15.7756 34.8709 15.9215 35.0199 16.0706C35.3622 16.4131 35.7044 16.7556 36.0467 17.0981C36.1006 17.1521 36.1513 17.2028 36.2052 17.2567C36.2179 17.2694 36.2306 17.2853 36.2432 17.2948L36.2496 17.3011C36.2686 17.3201 36.2527 17.2979 36.202 17.2377C36.1038 17.1045 36.1798 17.2123 36.1957 17.2504C36.164 17.1743 36.1323 17.0981 36.1006 17.022C36.1165 17.0633 36.126 17.0981 36.1323 17.1425C36.1196 17.0569 36.1101 16.9744 36.0974 16.8888C36.1006 16.93 36.1006 16.9681 36.0974 17.0125C36.1101 16.9269 36.1196 16.8444 36.1323 16.7588C36.126 16.8 36.1133 16.8381 36.1006 16.8793C36.1323 16.8032 36.164 16.7271 36.1957 16.651C36.1608 16.7429 36.0911 16.7873 36.2559 16.6034C35.92 16.9713 35.8661 17.5897 36.2559 17.9481C36.6204 18.2843 37.2447 18.3414 37.5997 17.9481C38.1321 17.3645 38.1385 16.5146 37.5838 15.9405C37.4602 15.8105 37.3303 15.6868 37.2035 15.5599C36.7979 15.154 36.389 14.7449 35.9833 14.3389C35.7108 14.0662 35.4446 13.7839 35.0199 13.7839C35.1783 13.8283 35.34 13.8695 35.4984 13.9139C34.8963 13.5619 34.1959 13.7173 33.7205 14.1899C33.5525 14.3579 33.3845 14.526 33.2166 14.6941C32.7285 15.1825 32.2404 15.671 31.7523 16.1594C31.6351 16.2767 31.5146 16.3972 31.3974 16.5146C31.0329 16.8793 31.0329 17.4946 31.3974 17.8593C32.1168 18.5792 32.8362 19.2992 33.5525 20.0159C33.6571 20.1206 33.7617 20.2253 33.8663 20.3299C34.2307 20.6946 34.8456 20.6946 35.21 20.3299C35.9041 19.6354 36.6014 18.9376 37.2954 18.2431C37.3969 18.1416 37.4951 18.0433 37.5965 17.9418C37.9483 17.5897 37.9737 16.9427 37.5965 16.597C37.2225 16.2577 36.6331 16.2291 36.2559 16.6034Z" fill="#303030"/>
<path d="M19.6268 28.4934C19.6237 28.5029 19.6205 28.5156 19.6141 28.5251C19.5729 28.652 19.5698 28.7788 19.5983 28.9057C19.6046 29.0325 19.6427 29.1499 19.7124 29.2609C19.7726 29.3719 19.855 29.4607 19.9564 29.5273C20.0483 29.6129 20.1561 29.6669 20.2797 29.6986C20.3653 29.7113 20.4477 29.7208 20.5332 29.7335C20.7044 29.7335 20.866 29.6891 21.0118 29.6034C21.0752 29.5527 21.1386 29.5051 21.2051 29.4544C21.3224 29.337 21.4048 29.1943 21.4492 29.0357C21.4523 29.0262 21.4555 29.0135 21.4618 29.004C21.503 28.8771 21.5062 28.7503 21.4777 28.6234C21.4714 28.4966 21.4333 28.3792 21.3636 28.2682C21.3034 28.1572 21.221 28.0684 21.1196 28.0018C21.0277 27.9162 20.9199 27.8623 20.7963 27.8305C20.7107 27.8179 20.6283 27.8083 20.5428 27.7957C20.3716 27.7957 20.21 27.8401 20.0642 27.9257C20.0008 27.9764 19.9374 28.024 19.8709 28.0747C19.7536 28.1921 19.6712 28.3316 19.6268 28.4934Z" fill="#303030"/>
<path d="M21.3634 29.226C21.3697 29.2133 21.376 29.2006 21.3824 29.1911C21.3317 29.2545 21.2841 29.318 21.2334 29.3846C21.2366 29.3814 21.2366 29.3814 21.2398 29.3782C20.7929 29.3782 20.3429 29.3782 19.896 29.3782C19.9816 29.4702 20.083 29.5368 20.2034 29.5749C20.3175 29.6351 20.4379 29.6605 20.571 29.6573C20.701 29.6637 20.8246 29.6351 20.9387 29.5749C21.0559 29.5368 21.1574 29.4702 21.2461 29.3782C21.2968 29.3148 21.3444 29.2514 21.3951 29.1848C21.4806 29.0357 21.525 28.8771 21.525 28.7059C21.5123 28.6202 21.5028 28.5378 21.4901 28.4521C21.4458 28.2904 21.3634 28.1509 21.2461 28.0335C21.1605 27.9415 21.0591 27.8749 20.9387 27.8369C20.8246 27.7766 20.7042 27.7512 20.571 27.7544C20.4855 27.7671 20.4031 27.7766 20.3175 27.7893C20.1559 27.8337 20.0164 27.9162 19.8992 28.0335C19.8389 28.0969 19.7851 28.1667 19.7407 28.2397C19.7344 28.2492 19.7312 28.2555 19.728 28.265C19.6583 28.3729 19.6203 28.4934 19.6139 28.6202C19.5854 28.7471 19.5917 28.874 19.6298 29.0008C19.6583 29.1245 19.7153 29.2323 19.8009 29.3243C19.8675 29.429 19.9562 29.5083 20.0671 29.5685C20.1432 29.6002 20.2193 29.632 20.2953 29.6637C20.4633 29.7081 20.6313 29.7081 20.8024 29.6637C20.8785 29.632 20.9545 29.6002 21.0306 29.5685C21.1637 29.4829 21.2778 29.3687 21.3634 29.226Z" fill="#303030"/>
<path d="M31.0953 12.9421C31.0953 14.4218 31.0953 15.9046 31.0953 17.3843C31.0953 17.5917 31.0953 17.8022 31.0953 18.0096C31.6363 17.7898 32.1742 17.5731 32.7152 17.3533C32.7089 17.3471 32.7058 17.344 32.6994 17.3378C32.3356 16.9818 31.7218 16.9818 31.3579 17.3378C30.5131 18.1643 29.6683 18.9908 28.8235 19.8174C28.2509 20.3776 27.6814 20.9348 27.1118 21.4951C26.2196 22.3681 25.3242 23.2441 24.4319 24.1171C23.7643 24.7702 23.0967 25.4234 22.4291 26.0765C21.5875 26.9 20.7333 27.7141 19.9043 28.5499C19.7081 28.748 19.5752 28.9925 19.5752 29.2742C19.5879 29.1907 19.5974 29.1102 19.61 29.0266C19.5151 29.2866 19.5088 29.5838 19.4898 29.8562C19.4677 30.1472 19.4613 30.4413 19.455 30.7322C19.4487 31.0913 19.4455 31.4504 19.4487 31.8095C19.4518 32.3141 19.879 32.7351 20.3979 32.7382C20.9484 32.7413 21.4958 32.732 22.0463 32.7072C22.6253 32.6793 23.2834 32.6886 23.7264 32.2707C24.2611 31.7631 24.7831 31.2368 25.3084 30.723C26.2892 29.7633 27.27 28.8037 28.2509 27.8441C29.2285 26.8876 30.2062 25.9311 31.1839 24.9745C31.6901 24.4792 32.209 23.9963 32.6994 23.4918C32.7058 23.4856 32.7152 23.4763 32.7216 23.4701C32.1805 23.2503 31.6427 23.0336 31.1016 22.8138C31.1016 23.2286 31.1016 23.6404 31.1016 24.0552C31.1016 25.0457 31.1016 26.0363 31.1016 27.0269C31.1016 28.2187 31.1016 29.4104 31.1016 30.5991C31.1016 31.6114 31.1016 32.6236 31.1016 33.6359C31.1016 34.1033 31.1048 34.5707 31.1016 35.0412C31.1016 35.1279 31.0953 35.2177 31.0858 35.3044C31.0984 35.2208 31.1079 35.1403 31.1206 35.0567C31.0953 35.2363 31.0478 35.4065 30.9782 35.5737C31.0099 35.4994 31.0415 35.4251 31.0731 35.3508C31.0225 35.4622 30.9687 35.5706 30.8991 35.6727C30.8801 35.7006 30.858 35.7285 30.8422 35.7563C30.7979 35.8337 31.0067 35.5675 30.9023 35.6789C30.8612 35.7223 30.82 35.7687 30.7789 35.812C30.7346 35.8554 30.6871 35.8925 30.6428 35.9328C30.5448 36.0194 30.7378 35.8585 30.7378 35.8616C30.7409 35.8678 30.6587 35.9142 30.6523 35.9204C30.5416 35.9916 30.4277 36.0504 30.3075 36.103C30.3834 36.0721 30.4593 36.0411 30.5353 36.0102C30.3644 36.0783 30.1872 36.1247 30.0069 36.1495C30.0923 36.1371 30.1746 36.1278 30.26 36.1154C30.0227 36.1433 29.7791 36.1309 29.5386 36.1309C29.083 36.1309 28.6305 36.1309 28.1749 36.1309C26.6499 36.1309 25.1249 36.1309 23.5967 36.1309C21.7457 36.1309 19.898 36.1309 18.047 36.1309C16.4556 36.1309 14.8641 36.1309 13.2726 36.1309C12.5259 36.1309 11.776 36.1371 11.0293 36.1309C10.9344 36.1309 10.8427 36.1247 10.7509 36.1154C10.8363 36.1278 10.9186 36.1371 11.004 36.1495C10.8205 36.1247 10.6465 36.0783 10.4756 36.0102C10.5516 36.0411 10.6275 36.0721 10.7034 36.103C10.5895 36.0566 10.4788 36.0009 10.3744 35.9328C10.3459 35.9142 10.3174 35.8925 10.289 35.877C10.2099 35.8337 10.482 36.038 10.3681 35.9359C10.3238 35.8956 10.2763 35.8554 10.232 35.8151C10.1877 35.7718 10.1497 35.7254 10.1086 35.682C10.02 35.5861 10.1846 35.7749 10.1814 35.7749C10.1751 35.778 10.1276 35.6975 10.1213 35.6913C10.0485 35.583 9.98838 35.4715 9.9346 35.3539C9.96624 35.4282 9.99788 35.5025 10.0295 35.5768C9.95991 35.4096 9.91245 35.2363 9.88714 35.0598C9.89979 35.1434 9.90929 35.2239 9.92194 35.3075C9.8903 35.0443 9.90612 34.775 9.90612 34.5088C9.90612 33.9795 9.90612 33.4501 9.90612 32.9208C9.90612 32.1283 9.90612 31.3328 9.90612 30.5403C9.90612 29.5621 9.90612 28.5839 9.90612 27.6057C9.90612 26.5378 9.90612 25.4698 9.90612 24.3988C9.90612 23.3153 9.90612 22.2319 9.90612 21.1453C9.90612 20.1424 9.90612 19.1363 9.90612 18.1334C9.90612 17.2883 9.90612 16.4432 9.90612 15.5981C9.90612 14.9945 9.90612 14.3909 9.90612 13.7872C9.90612 13.5148 9.90612 13.2424 9.90612 12.97C9.90612 12.8771 9.91245 12.7843 9.92194 12.6914C9.90929 12.775 9.89979 12.8555 9.88714 12.939C9.91245 12.7595 9.95991 12.5893 10.0295 12.4221C9.99788 12.4964 9.96624 12.5707 9.9346 12.645C9.98522 12.5335 10.039 12.4252 10.1086 12.323C10.1276 12.2952 10.1497 12.2673 10.1656 12.2395C10.2099 12.1621 10.001 12.4283 10.1055 12.3168C10.1466 12.2735 10.1877 12.2271 10.2288 12.1837C10.2731 12.1404 10.3206 12.1033 10.3649 12.063C10.463 11.9763 10.27 12.1373 10.27 12.1342C10.2668 12.128 10.3491 12.0816 10.3554 12.0754C10.4661 12.0042 10.58 11.9454 10.7003 11.8928C10.6243 11.9237 10.5484 11.9547 10.4725 11.9856C10.6433 11.9175 10.8205 11.8711 11.0009 11.8463C10.9154 11.8587 10.8332 11.868 10.7477 11.8804C10.985 11.8525 11.2287 11.8649 11.4691 11.8649C11.9247 11.8649 12.3772 11.8649 12.8328 11.8649C14.3578 11.8649 15.8829 11.8649 17.4111 11.8649C19.262 11.8649 21.1098 11.8649 22.9607 11.8649C24.5522 11.8649 26.1437 11.8649 27.7351 11.8649C28.4818 11.8649 29.2317 11.8587 29.9784 11.8649C30.0733 11.8649 30.1651 11.8711 30.2568 11.8804C30.1714 11.868 30.0891 11.8587 30.0037 11.8463C30.1872 11.8711 30.3612 11.9175 30.5321 11.9856C30.4562 11.9547 30.3802 11.9237 30.3043 11.8928C30.4182 11.9392 30.5289 11.9949 30.6333 12.063C30.6618 12.0816 30.6903 12.1033 30.7188 12.1187C30.7979 12.1621 30.5258 11.9578 30.6397 12.0599C30.684 12.1002 30.7314 12.1404 30.7757 12.1806C30.82 12.224 30.858 12.2704 30.8991 12.3137C30.9877 12.4097 30.8232 12.2209 30.8263 12.2209C30.8327 12.2178 30.8801 12.2983 30.8865 12.3045C30.9592 12.4128 31.0194 12.5242 31.0731 12.6419C31.0415 12.5676 31.0099 12.4933 30.9782 12.419C31.0478 12.5862 31.0953 12.7595 31.1206 12.936C31.1079 12.8524 31.0984 12.7719 31.0858 12.6883C31.089 12.7719 31.0953 12.8555 31.0953 12.9421C31.1016 13.4281 31.5288 13.8925 32.0445 13.8708C32.5539 13.8491 33 13.4622 32.9937 12.9421C32.9842 12.1033 32.6172 11.252 31.9464 10.7164C31.3832 10.2645 30.7156 10.0076 29.9816 10.0014C29.7538 9.99828 29.5291 10.0014 29.3013 10.0014C28.0041 10.0014 26.7068 10.0014 25.4096 10.0014C23.5239 10.0014 21.6382 10.0014 19.7556 10.0014C17.9648 10.0014 16.1708 10.0014 14.38 10.0014C13.3295 10.0014 12.2759 10.0014 11.2255 10.0014C11.1559 10.0014 11.0831 10.0014 11.0135 10.0014C10.2795 10.0076 9.61187 10.2645 9.04868 10.7164C8.33046 11.2891 8.00141 12.1744 8.00141 13.0629C8.00141 13.9049 8.00141 14.7438 8.00141 15.5857C8.00141 17.1861 8.00141 18.7865 8.00141 20.3869C8.00141 22.2721 8.00141 24.1573 8.00141 26.0425C8.00141 27.7667 8.00141 29.494 8.00141 31.2182C8.00141 32.3203 8.00141 33.4223 8.00141 34.5243C8.00141 34.6976 7.99824 34.871 8.00141 35.0443C8.00773 35.8151 8.31464 36.5612 8.86834 37.1122C9.42836 37.6725 10.213 37.982 11.0103 37.9882C11.7349 37.9944 12.4595 37.9882 13.1872 37.9882C14.8388 37.9882 16.4872 37.9882 18.1388 37.9882C20.0625 37.9882 21.9862 37.9882 23.9099 37.9882C25.4413 37.9882 26.9726 37.9882 28.5008 37.9882C29.5323 37.9882 30.684 38.1151 31.592 37.5363C32.3957 37.0255 32.8766 36.2268 32.981 35.3013C32.9968 35.162 32.9968 35.0258 32.9968 34.8865C32.9968 34.4159 32.9968 33.9454 32.9968 33.4749C32.9968 31.7383 32.9968 30.0017 32.9968 28.2651C32.9968 26.6988 32.9968 25.1324 32.9968 23.563C32.9968 23.3122 32.9968 23.0615 32.9968 22.8107C32.9968 22.4393 32.7595 22.105 32.4147 21.9626C32.0666 21.8202 31.649 21.8883 31.3769 22.1545C31.0731 22.4517 30.7726 22.7457 30.4688 23.0429C29.7443 23.7518 29.0166 24.4638 28.292 25.1726C27.4156 26.0301 26.5423 26.8845 25.6659 27.7419C24.916 28.4756 24.163 29.2123 23.4131 29.946C23.1695 30.1843 22.9227 30.4258 22.6791 30.6641C22.5715 30.7694 22.4513 30.8685 22.3532 30.983C22.2963 31.0511 22.619 30.8127 22.5019 30.8685C22.5779 30.8375 22.6538 30.8065 22.7297 30.7756C22.6443 30.8096 22.5462 30.822 22.4545 30.8344C22.5399 30.822 22.6222 30.8127 22.7076 30.8004C21.9451 30.8963 21.1636 30.887 20.3947 30.8839C20.7111 31.1935 21.0275 31.503 21.3439 31.8126C21.3376 31.0511 21.3249 30.2741 21.4198 29.5188C21.4072 29.6024 21.3977 29.6829 21.385 29.7664C21.4072 29.6024 21.4736 29.4414 21.4736 29.2773C21.4293 29.4321 21.3882 29.59 21.3439 29.7448C21.2173 29.9522 21.1889 29.9243 21.2711 29.8438C21.3186 29.7974 21.3661 29.751 21.4135 29.7045C21.5812 29.5405 21.7489 29.3764 21.9197 29.2092C22.4355 28.7047 22.948 28.2032 23.4638 27.6986C24.2263 26.9526 24.9888 26.2066 25.7482 25.4636C26.536 24.6928 27.3238 23.919 28.1148 23.1482C28.7002 22.5755 29.2887 21.9997 29.874 21.427C30.7947 20.5262 31.7186 19.6223 32.6393 18.7215C32.6615 18.6999 32.6836 18.6782 32.7058 18.6565C32.2596 18.6565 31.8103 18.6565 31.3642 18.6565C31.3706 18.6627 31.3737 18.6658 31.38 18.672C31.6521 18.9382 32.0698 19.0063 32.4178 18.8639C32.7627 18.7215 33 18.3872 33 18.0157C33 16.5361 33 15.0533 33 13.5736C33 13.3662 33 13.1557 33 12.9483C33 12.4623 32.5634 11.998 32.0508 12.0197C31.5319 12.0351 31.0953 12.4221 31.0953 12.9421Z" fill="#303030"/>
<path d="M13.39 17.2311C13.8622 17.2311 14.3313 17.2311 14.8035 17.2311C15.935 17.2311 17.0664 17.2311 18.201 17.2311C19.5765 17.2311 20.952 17.2311 22.3274 17.2311C23.5064 17.2311 24.6886 17.2311 25.8675 17.2311C26.4443 17.2311 27.0243 17.2436 27.6011 17.2311C27.6075 17.2311 27.617 17.2311 27.6233 17.2311C28.1209 17.2311 28.5963 16.801 28.5741 16.2962C28.5519 15.7882 28.1558 15.3613 27.6233 15.3613C27.1511 15.3613 26.682 15.3613 26.2098 15.3613C25.0784 15.3613 23.9469 15.3613 22.8123 15.3613C21.4369 15.3613 20.0614 15.3613 18.6859 15.3613C17.5069 15.3613 16.3248 15.3613 15.1458 15.3613C14.569 15.3613 13.989 15.3488 13.4122 15.3613C13.4059 15.3613 13.3964 15.3613 13.39 15.3613C12.8924 15.3613 12.417 15.7913 12.4392 16.2962C12.4614 16.8041 12.8576 17.2311 13.39 17.2311Z" fill="#303030"/>
<path d="M23.8229 19.2366C22.6439 19.2366 21.4681 19.2366 20.2891 19.2366C18.416 19.2366 16.543 19.2366 14.6668 19.2366C14.2421 19.2366 13.8142 19.2366 13.3895 19.2366C12.8919 19.2366 12.4166 19.6666 12.4387 20.1715C12.4609 20.6795 12.8571 21.1064 13.3895 21.1064C14.5685 21.1064 15.7443 21.1064 16.9233 21.1064C18.7963 21.1064 20.6694 21.1064 22.5456 21.1064C22.9703 21.1064 23.3982 21.1064 23.8229 21.1064C24.3204 21.1064 24.7958 20.6763 24.7736 20.1715C24.7483 19.6635 24.3553 19.2366 23.8229 19.2366Z" fill="#303030"/>
<path d="M18.7522 23.1064C17.1866 23.1064 15.6241 23.1064 14.0585 23.1064C13.8366 23.1064 13.6148 23.1064 13.3929 23.1064C12.8954 23.1064 12.42 23.5365 12.4422 24.0414C12.4643 24.5493 12.8605 24.9763 13.3929 24.9763C14.9586 24.9763 16.521 24.9763 18.0867 24.9763C18.3085 24.9763 18.5304 24.9763 18.7522 24.9763C19.2498 24.9763 19.7252 24.5462 19.703 24.0414C19.6777 23.5365 19.2847 23.1064 18.7522 23.1064Z" fill="#303030"/>
<path d="M17.4845 26.9763C16.2928 26.9763 15.098 26.9763 13.9064 26.9763C13.7352 26.9763 13.5641 26.9763 13.3929 26.9763C12.8954 26.9763 12.42 27.4064 12.4422 27.9112C12.4643 28.4192 12.8605 28.8462 13.3929 28.8462C14.5846 28.8462 15.7794 28.8462 16.9711 28.8462C17.1422 28.8462 17.3134 28.8462 17.4845 28.8462C17.9821 28.8462 18.4575 28.4161 18.4353 27.9112C18.4099 27.4033 18.0169 26.9763 17.4845 26.9763Z" fill="#303030"/>
</svg>
