<svg width="25" height="38" viewBox="0 0 25 38" fill="none" xmlns="http://www.w3.org/2000/svg">
<path d="M16.0655 1.3164C15.9998 1.21899 15.9113 1.13922 15.8079 1.08407C15.7044 1.02891 15.589 1.00005 15.4719 1L4.19318 1C4.02029 1.00001 3.85323 1.06278 3.72278 1.17675C3.59234 1.29071 3.5073 1.44819 3.48333 1.62016L1.00692 19.3579C0.992709 19.4599 1.00044 19.5637 1.0296 19.6625C1.05876 19.7612 1.10866 19.8525 1.17594 19.9302C1.24322 20.0079 1.32631 20.0702 1.41961 20.1129C1.5129 20.1556 1.61424 20.1777 1.71676 20.1777L9 20.1129L4.19318 36.0993C4.15147 36.2607 4.16687 36.4317 4.23673 36.583C4.30659 36.7343 4.42659 36.8565 4.57622 36.9288C4.72586 37.0011 4.89584 37.019 5.05714 36.9794C5.21844 36.9398 5.36105 36.8452 5.46061 36.7117L23.8568 13.5044C23.9366 13.3974 23.9852 13.2702 23.9971 13.1371C24.009 13.0039 23.9838 12.87 23.9242 12.7505C23.8647 12.6309 23.7732 12.5304 23.6599 12.4601C23.5467 12.3898 23.4162 12.3526 23.2831 12.3527L12.5 12.2878L16.1373 1.98789C16.1808 1.8786 16.1971 1.76024 16.1846 1.64318C16.1721 1.52612 16.1312 1.41392 16.0655 1.3164ZM10.7747 12.7399C10.7311 12.8492 10.7149 12.9675 10.7274 13.0846C10.7398 13.2016 10.7807 13.3138 10.8464 13.4113C10.912 13.5088 11.0005 13.5886 11.104 13.6438C11.2075 13.699 11.3229 13.7278 11.4401 13.7278L21.8501 13.7927L6.49598 32.9219L10.6206 19.5736C10.648 19.4672 10.6509 19.3559 10.6289 19.2482C10.6068 19.1405 10.5606 19.0393 10.4936 18.9524C10.4266 18.8654 10.3408 18.7951 10.2425 18.7466C10.1443 18.6982 10.0363 18.6729 9.92684 18.6729L2.54107 18.7377L4.81657 2.44L14.412 2.44L10.7747 12.7399Z" fill="#303030" stroke="#303030" stroke-width="0.5"/>
</svg>
