<svg width="201" height="123" viewBox="0 0 201 123" fill="none" xmlns="http://www.w3.org/2000/svg"><mask id="a" fill="#fff"><rect x="104" y="27" width="97" height="56" rx="2"/></mask><rect x="104" y="27" width="97" height="56" rx="2" fill="#332E4D" stroke="#8E7CBF" stroke-width="8" mask="url(#a)"/><path fill="#403366" d="M142 85h20v8h-20z"/><path d="M125 94.11c0-.613.497-1.11 1.111-1.11h51.778A1.11 1.11 0 01179 94.11V96h-54v-1.89z" fill="#8E7CBF"/><path d="M154.938 63.23C139.333 52.396 117.144 52.267 108 53.557V80h89v-8.385c-7.518 1.72-26.456 2.451-42.062-8.384z" fill="#484266"/><rect x="120" y="38" width="65" height="34" rx="1" fill="#F4F2FF"/><path d="M124 43.422V54.5a.5.5 0 00.5.5h39a.5.5 0 00.5-.5v-6.698a.5.5 0 00-.72-.449l-7.789 3.82a.501.501 0 01-.512-.043l-5.472-3.923a.5.5 0 00-.58-.002l-5.467 3.866a.5.5 0 01-.627-.04l-6.816-6.275a.5.5 0 00-.6-.059l-5.824 3.573a.5.5 0 01-.651-.114l-4.052-5.047a.5.5 0 00-.89.313zM152 58a1 1 0 011-1h10a1 1 0 011 1v9a1 1 0 01-1 1h-10a1 1 0 01-1-1v-9z" fill="#E6004C"/><path fill="#F4F2FF" d="M160 62h2v4h-2zm-3-3h2v7h-2zm-3 2h2v5h-2z"/><path d="M138 58a1 1 0 011-1h10a1 1 0 011 1v9a1 1 0 01-1 1h-10a1 1 0 01-1-1v-9z" fill="#E6004C"/><path fill="#F4F2FF" d="M146 60h2v6h-2zm-3 2h2v4h-2zm-3-3h2v7h-2z"/><path d="M124 58a1 1 0 011-1h10a1 1 0 011 1v9a1 1 0 01-1 1h-10a1 1 0 01-1-1v-9z" fill="#E6004C"/><path fill="#F4F2FF" d="M132 60h2v6h-2zm-3 2h2v4h-2zm-3-3h2v7h-2z"/><rect x="166" y="44" width="15.086" height="24.114" rx="1" fill="#E6004C"/><path fill="#F4F2FF" d="M168 63h11v2h-11zm0-4h11v2h-11zm0-4h11v2h-11zm0-4h11v2h-11zm0-4h11v2h-11z"/><mask id="b" fill="#fff"><rect y="27" width="97" height="56" rx="2"/></mask><rect y="27" width="97" height="56" rx="2" fill="#332E4D" stroke="#8E7CBF" stroke-width="8" mask="url(#b)"/><path d="M8 75h81" stroke="#E6004C"/><path fill="#403366" d="M38 85h20v8H38z"/><path d="M21 94.11c0-.613.497-1.11 1.11-1.11h51.78c.613 0 1.11.497 1.11 1.11V96H21v-1.89z" fill="#8E7CBF"/><path fill-rule="evenodd" clip-rule="evenodd" d="M74 47h1v1h-1v-1zm6 0h1v1h-1v-1zm-5 7h-1v-1.993h-1V54h-1v-3h1v-1h1v-1h1v-1h1v1h3v-1h1v1h1v1h1v1h1v3h-.979v-1.993h-1.02V54h-1v-1h-5v1H77v1h-2v-1zm3 1v-1h2v1h-2zm-2-5h-1v1h1v-1zm3-.002h1v1h-1v-1zM60 47h1v1h-1v-1zm6 0h1v1h-1v-1zm-5 7h-1v-1.993h-1V54h-1v-3h1v-1h1v-1h1v-1h1v1h3v-1h1v1h1v1h1v1h1v3h-.979v-1.993h-1.02V54h-1v-1h-5v1H63v1h-2v-1zm3 1v-1h2v1h-2zm-2-5h-1v1h1v-1zm3-.002h1v1h-1v-1zM46 47h1v1h-1v-1zm6 0h1v1h-1v-1zm-5 7h-1v-1.993h-1V54h-1v-3h1v-1h1v-1h1v-1h1v1h3v-1h1v1h1v1h1v1h1v3h-.979v-1.993h-1.02V54h-1v-1h-5v1H49v1h-2v-1zm3 1v-1h2v1h-2zm-2-5h-1v1h1v-1zm3-.002h1v1h-1v-1zM32 47h1v1h-1v-1zm6 0h1v1h-1v-1zm-5 7h-1v-1.993h-1V54h-1v-3h1v-1h1v-1h1v-1h1v1h3v-1h1v1h1v1h1v1h1v3h-.979v-1.993h-1.02V54h-1v-1h-5v1H35v1h-2v-1zm3 1v-1h2v1h-2zm-2-5h-1v1h1v-1zm3-.002h1v1h-1v-1zM18 47h1v1h-1v-1zm6 0h1v1h-1v-1zm-5 7h-1v-1.993h-1V54h-1v-3h1v-1h1v-1h1v-1h1v1h3v-1h1v1h1v1h1v1h1v3h-.979v-1.993h-1.02V54h-1v-1h-5v1H21v1h-2v-1zm3 1v-1h2v1h-2zm-2-5h-1v1h1v-1zm3-.002h1v1h-1v-1zM74 36h1v1h-1v-1zm6 0h1v1h-1v-1zm-5 7h-1v-1.993h-1V43h-1v-3h1v-1h1v-1h1v-1h1v1h3v-1h1v1h1v1h1v1h1v3h-.979v-1.993h-1.02V43h-1v-1h-5v1H77v1h-2v-1zm3 1v-1h2v1h-2zm-2-5h-1v1h1v-1zm3-.002h1v1h-1v-1zM60 36h1v1h-1v-1zm6 0h1v1h-1v-1zm-5 7h-1v-1.993h-1V43h-1v-3h1v-1h1v-1h1v-1h1v1h3v-1h1v1h1v1h1v1h1v3h-.979v-1.993h-1.02V43h-1v-1h-5v1H63v1h-2v-1zm3 1v-1h2v1h-2zm-2-5h-1v1h1v-1zm3-.002h1v1h-1v-1zM46 36h1v1h-1v-1zm6 0h1v1h-1v-1zm-5 7h-1v-1.993h-1V43h-1v-3h1v-1h1v-1h1v-1h1v1h3v-1h1v1h1v1h1v1h1v3h-.979v-1.993h-1.02V43h-1v-1h-5v1H49v1h-2v-1zm3 1v-1h2v1h-2zm-2-5h-1v1h1v-1zm3-.002h1v1h-1v-1zM32 36h1v1h-1v-1zm6 0h1v1h-1v-1zm-5 7h-1v-1.993h-1V43h-1v-3h1v-1h1v-1h1v-1h1v1h3v-1h1v1h1v1h1v1h1v3h-.979v-1.993h-1.02V43h-1v-1h-5v1H35v1h-2v-1zm3 1v-1h2v1h-2zm-2-5h-1v1h1v-1zm3-.002h1v1h-1v-1zM18 36h1v1h-1v-1zm6 0h1v1h-1v-1zm-5 7h-1v-1.993h-1V43h-1v-3h1v-1h1v-1h1v-1h1v1h3v-1h1v1h1v1h1v1h1v3h-.979v-1.993h-1.02V43h-1v-1h-5v1H21v1h-2v-1zm3 1v-1h2v1h-2zm-2-5h-1v1h1v-1zm3-.002h1v1h-1v-1z" fill="#B2A1E6"/><path fill="#B2A1E6" d="M44 68h11v3H44zm4-3h3v3h-3z"/><path fill="#E6004C" d="M49 57h1v2h-1zm0 4h1v2h-1z"/></svg>