<svg width="201" height="123" viewBox="0 0 201 123" fill="none" xmlns="http://www.w3.org/2000/svg"><mask id="a" fill="#fff"><rect x="13" width="175" height="100" rx="3"/></mask><rect x="13" width="175" height="100" rx="3" fill="#332E4D" stroke="#8E7CBF" stroke-width="12" mask="url(#a)"/><path fill="#403366" d="M82 104h36v14H82z"/><path d="M55 120a2 2 0 012-2h87a2 2 0 012 2v3H55v-3z" fill="#8E7CBF"/><path d="M104.966 64.188C76.385 44.925 35.746 44.696 19 46.99V94h163V79.094c-13.769 3.058-48.453 4.357-77.034-14.906zM166 13h9v9h-9zm0 14h9v9h-9zm0 14h9v9h-9z" fill="#484266"/><circle cx="170.5" cy="60.5" r="5.5" fill="#484266"/><path d="M29.203 89.209L33 90v-4.219h-3.797v3.428zm0-4.99H33V80l-3.797.791v3.428zm-1.406-3.135v3.135H24v-2.344l3.797-.791zm0 4.697v3.135L24 88.125v-2.344h3.797z" fill="#B2A1E6"/><rect x="44" y="15" width="112" height="62" rx="2" fill="#F4F2FF"/><circle cx="148.5" cy="20.5" r="1.5" fill="#E6004C"/><circle cx="143.5" cy="20.5" r="1.5" fill="#E6004C"/><circle cx="138.5" cy="20.5" r="1.5" fill="#E6004C"/><path d="M50 27.356V47a1 1 0 001 1h69a1 1 0 001-1V28.108a1 1 0 00-1.632-.775L106 38.25a1 1 0 01-1.314-.043l-10.296-9.59a1 1 0 00-1.254-.088l-11.062 7.722a1 1 0 01-1.314-.15l-6.91-7.66a1 1 0 00-1.53.055l-7.344 9.427a1 1 0 01-1.484.105L51.695 26.636c-.635-.613-1.695-.163-1.695.72z" fill="#E6004C"/><rect x="100" y="52" width="21" height="19" rx="2" fill="#E6004C"/><path fill="#F4F2FF" d="M104 60h3v7h-3zm5-4h3v11h-3zm5 6h3v5h-3z"/><rect x="75" y="52" width="21" height="19" rx="2" fill="#E6004C"/><path fill="#F4F2FF" d="M79 57h3v10h-3zm5 3h3v7h-3zm5-4h3v11h-3z"/><rect x="50" y="52" width="21" height="19" rx="2" fill="#E6004C"/><path fill="#F4F2FF" d="M54 56h3v11h-3zm5 4h3v7h-3zm5 2h3v5h-3z"/><rect x="125" y="27" width="25" height="44" rx="2" fill="#E6004C"/><path fill="#F4F2FF" d="M129 33h17v3h-17zm0 6h17v3h-17zm0 6h17v3h-17zm0 6h17v3h-17zm0 6h17v3h-17zm0 6h17v3h-17z"/></svg>