<svg width="201" height="123" viewBox="0 0 201 123" fill="none" xmlns="http://www.w3.org/2000/svg"><mask id="a" fill="#fff"><rect x="11" width="175" height="100" rx="3"/></mask><rect x="11" width="175" height="100" rx="3" fill="#332E4D" stroke="#8E7CBF" stroke-width="12" mask="url(#a)"/><path fill-rule="evenodd" clip-rule="evenodd" d="M112 19h1v1h-1v-1zm6 0h1v1h-1v-1zm-5 7h-1v-1.993h-1V26h-1v-3h1v-1h1v-1h1v-1h1v1h3v-1h1v1h1v1h1v1h1v3h-.979v-1.993H119V26h-1v-1h-5v1h2v1h-2v-1zm3 1v-1h2v1h-2zm-2-5h-1v1h1v-1zm3-.002h1v1h-1v-1zM95 19h1v1h-1v-1zm6 0h1v1h-1v-1zm-5 7h-1v-1.993h-1V26h-1v-3h1v-1h1v-1h1v-1h1v1h3v-1h1v1h1v1h1v1h1v3h-.979v-1.993H102V26h-1v-1h-5v1h2v1h-2v-1zm3 1v-1h2v1h-2zm-2-5h-1v1h1v-1zm3-.002h1v1h-1v-1zM78 19h1v1h-1v-1zm6 0h1v1h-1v-1zm-5 7h-1v-1.993h-1V26h-1v-3h1v-1h1v-1h1v-1h1v1h3v-1h1v1h1v1h1v1h1v3h-.979v-1.993h-1.02V26h-1v-1h-5v1H81v1h-2v-1zm3 1v-1h2v1h-2zm-2-5h-1v1h1v-1zm3-.002h1v1h-1v-1zM61 19h1v1h-1v-1zm6 0h1v1h-1v-1zm-5 7h-1v-1.993h-1V26h-1v-3h1v-1h1v-1h1v-1h1v1h3v-1h1v1h1v1h1v1h1v3h-.979v-1.993h-1.02V26h-1v-1h-5v1H64v1h-2v-1zm3 1v-1h2v1h-2zm-2-5h-1v1h1v-1zm3-.002h1v1h-1v-1zM44 19h1v1h-1v-1zm6 0h1v1h-1v-1zm-5 7h-1v-1.993h-1V26h-1v-3h1v-1h1v-1h1v-1h1v1h3v-1h1v1h1v1h1v1h1v3h-.979v-1.993h-1.02V26h-1v-1h-5v1H47v1h-2v-1zm3 1v-1h2v1h-2zm-2-5h-1v1h1v-1zm3-.002h1v1h-1v-1zM146 19h1v1h-1v-1zm6 0h1v1h-1v-1zm-5 7h-1v-1.993h-1V26h-1v-3h1v-1h1v-1h1v-1h1v1h3v-1h1v1h1v1h1v1h1v3h-.979v-1.993H153V26h-1v-1h-5v1h2v1h-2v-1zm3 1v-1h2v1h-2zm-2-5h-1v1h1v-1zm3-.002h1v1h-1v-1zM129 19h1v1h-1v-1zm6 0h1v1h-1v-1zm-5 7h-1v-1.993h-1V26h-1v-3h1v-1h1v-1h1v-1h1v1h3v-1h1v1h1v1h1v1h1v3h-.979v-1.993H136V26h-1v-1h-5v1h2v1h-2v-1zm3 1v-1h2v1h-2zm-2-5h-1v1h1v-1zm3-.002h1v1h-1v-1zM112 31h1v1h-1v-1zm6 0h1v1h-1v-1zm-5 7h-1v-1.993h-1V38h-1v-3h1v-1h1v-1h1v-1h1v1h3v-1h1v1h1v1h1v1h1v3h-.979v-1.993H119V38h-1v-1h-5v1h2v1h-2v-1zm3 1v-1h2v1h-2zm-2-5h-1v1h1v-1zm3-.002h1v1h-1v-1zM95 31h1v1h-1v-1zm6 0h1v1h-1v-1zm-5 7h-1v-1.993h-1V38h-1v-3h1v-1h1v-1h1v-1h1v1h3v-1h1v1h1v1h1v1h1v3h-.979v-1.993H102V38h-1v-1h-5v1h2v1h-2v-1zm3 1v-1h2v1h-2zm-2-5h-1v1h1v-1zm3-.002h1v1h-1v-1zM78 31h1v1h-1v-1zm6 0h1v1h-1v-1zm-5 7h-1v-1.993h-1V38h-1v-3h1v-1h1v-1h1v-1h1v1h3v-1h1v1h1v1h1v1h1v3h-.979v-1.993h-1.02V38h-1v-1h-5v1H81v1h-2v-1zm3 1v-1h2v1h-2zm-2-5h-1v1h1v-1zm3-.002h1v1h-1v-1zM61 31h1v1h-1v-1zm6 0h1v1h-1v-1zm-5 7h-1v-1.993h-1V38h-1v-3h1v-1h1v-1h1v-1h1v1h3v-1h1v1h1v1h1v1h1v3h-.979v-1.993h-1.02V38h-1v-1h-5v1H64v1h-2v-1zm3 1v-1h2v1h-2zm-2-5h-1v1h1v-1zm3-.002h1v1h-1v-1zM44 31h1v1h-1v-1zm6 0h1v1h-1v-1zm-5 7h-1v-1.993h-1V38h-1v-3h1v-1h1v-1h1v-1h1v1h3v-1h1v1h1v1h1v1h1v3h-.979v-1.993h-1.02V38h-1v-1h-5v1H47v1h-2v-1zm3 1v-1h2v1h-2zm-2-5h-1v1h1v-1zm3-.002h1v1h-1v-1zM146 31h1v1h-1v-1zm6 0h1v1h-1v-1zm-5 7h-1v-1.993h-1V38h-1v-3h1v-1h1v-1h1v-1h1v1h3v-1h1v1h1v1h1v1h1v3h-.979v-1.993H153V38h-1v-1h-5v1h2v1h-2v-1zm3 1v-1h2v1h-2zm-2-5h-1v1h1v-1zm3-.002h1v1h-1v-1zM129 31h1v1h-1v-1zm6 0h1v1h-1v-1zm-5 7h-1v-1.993h-1V38h-1v-3h1v-1h1v-1h1v-1h1v1h3v-1h1v1h1v1h1v1h1v3h-.979v-1.993H136V38h-1v-1h-5v1h2v1h-2v-1zm3 1v-1h2v1h-2zm-2-5h-1v1h1v-1zm3-.002h1v1h-1v-1zM112 43h1v1h-1v-1zm6 0h1v1h-1v-1zm-5 7h-1v-1.993h-1V50h-1v-3h1v-1h1v-1h1v-1h1v1h3v-1h1v1h1v1h1v1h1v3h-.979v-1.993H119V50h-1v-1h-5v1h2v1h-2v-1zm3 1v-1h2v1h-2zm-2-5h-1v1h1v-1zm3-.002h1v1h-1v-1zM95 43h1v1h-1v-1zm6 0h1v1h-1v-1zm-5 7h-1v-1.993h-1V50h-1v-3h1v-1h1v-1h1v-1h1v1h3v-1h1v1h1v1h1v1h1v3h-.979v-1.993H102V50h-1v-1h-5v1h2v1h-2v-1zm3 1v-1h2v1h-2zm-2-5h-1v1h1v-1zm3-.002h1v1h-1v-1zM78 43h1v1h-1v-1zm6 0h1v1h-1v-1zm-5 7h-1v-1.993h-1V50h-1v-3h1v-1h1v-1h1v-1h1v1h3v-1h1v1h1v1h1v1h1v3h-.979v-1.993h-1.02V50h-1v-1h-5v1H81v1h-2v-1zm3 1v-1h2v1h-2zm-2-5h-1v1h1v-1zm3-.002h1v1h-1v-1zM61 43h1v1h-1v-1zm6 0h1v1h-1v-1zm-5 7h-1v-1.993h-1V50h-1v-3h1v-1h1v-1h1v-1h1v1h3v-1h1v1h1v1h1v1h1v3h-.979v-1.993h-1.02V50h-1v-1h-5v1H64v1h-2v-1zm3 1v-1h2v1h-2zm-2-5h-1v1h1v-1zm3-.002h1v1h-1v-1zM44 43h1v1h-1v-1zm6 0h1v1h-1v-1zm-5 7h-1v-1.993h-1V50h-1v-3h1v-1h1v-1h1v-1h1v1h3v-1h1v1h1v1h1v1h1v3h-.979v-1.993h-1.02V50h-1v-1h-5v1H47v1h-2v-1zm3 1v-1h2v1h-2zm-2-5h-1v1h1v-1zm3-.002h1v1h-1v-1zM146 43h1v1h-1v-1zm6 0h1v1h-1v-1zm-5 7h-1v-1.993h-1V50h-1v-3h1v-1h1v-1h1v-1h1v1h3v-1h1v1h1v1h1v1h1v3h-.979v-1.993H153V50h-1v-1h-5v1h2v1h-2v-1zm3 1v-1h2v1h-2zm-2-5h-1v1h1v-1zm3-.002h1v1h-1v-1zM163 19h1v1h-1v-1zm6 0h1v1h-1v-1zm-5 7h-1v-1.993h-1V26h-1v-3h1v-1h1v-1h1v-1h1v1h3v-1h1v1h1v1h1v1h1v3h-.979v-1.993H170V26h-1v-1h-5v1h2v1h-2v-1zm3 1v-1h2v1h-2zm-2-5h-1v1h1v-1zm3-.002h1v1h-1v-1zM163 31h1v1h-1v-1zm6 0h1v1h-1v-1zm-5 7h-1v-1.993h-1V38h-1v-3h1v-1h1v-1h1v-1h1v1h3v-1h1v1h1v1h1v1h1v3h-.979v-1.993H170V38h-1v-1h-5v1h2v1h-2v-1zm3 1v-1h2v1h-2zm-2-5h-1v1h1v-1zm3-.002h1v1h-1v-1zM163 43h1v1h-1v-1zm6 0h1v1h-1v-1zm-5 7h-1v-1.993h-1V50h-1v-3h1v-1h1v-1h1v-1h1v1h3v-1h1v1h1v1h1v1h1v3h-.979v-1.993H170V50h-1v-1h-5v1h2v1h-2v-1zm3 1v-1h2v1h-2zm-2-5h-1v1h1v-1zm3-.002h1v1h-1v-1zM129 43h1v1h-1v-1zm6 0h1v1h-1v-1zm-5 7h-1v-1.993h-1V50h-1v-3h1v-1h1v-1h1v-1h1v1h3v-1h1v1h1v1h1v1h1v3h-.979v-1.993H136V50h-1v-1h-5v1h2v1h-2v-1zm3 1v-1h2v1h-2zm-2-5h-1v1h1v-1zm3-.002h1v1h-1v-1z" fill="#B2A1E6"/><path fill="#403366" d="M82 104h36v14H82z"/><path d="M53 120a2 2 0 012-2h87a2 2 0 012 2v3H53v-3z" fill="#8E7CBF"/><path d="M22 88h153" stroke="#E6004C" stroke-width="2"/><path fill="#B2A1E6" d="M127 79h12v4h-12zm4-4h4v4h-4z"/><path fill-rule="evenodd" clip-rule="evenodd" d="M132 60v-3h2v3h-2zm0 6v-3h2v3h-2zm0 6v-3h2v3h-2z" fill="#E5004C"/><rect x="24" y="13" width="50" height="64" rx="2" fill="#F4F2FF"/><circle cx="68.5" cy="18.5" r="1.5" fill="#E6004C"/><circle cx="63.5" cy="18.5" r="1.5" fill="#E6004C"/><circle cx="58.5" cy="18.5" r="1.5" fill="#E6004C"/><rect x="43" y="51" width="27" height="21" rx="1" fill="#E6004C"/><path d="M28 24.207V35.5a.5.5 0 00.5.5h41a.5.5 0 00.5-.5v-9.59a.5.5 0 00-.768-.422l-9.435 5.99a.5.5 0 01-.575-.027l-5.49-4.27a.5.5 0 00-.503-.065l-6.4 2.743a.5.5 0 01-.569-.125l-3.984-4.428a.5.5 0 00-.63-.094l-6.811 4.087a.5.5 0 01-.611-.075l-5.37-5.37a.5.5 0 00-.854.353z" fill="#E6004C"/><rect x="28" y="39" width="13" height="9" rx=".5" fill="#E6004C"/><rect x="43" y="39" width="13" height="9" rx=".5" fill="#E6004C"/><rect x="58" y="39" width="12" height="9" rx=".5" fill="#E6004C"/><rect x="28" y="51" width="13" height="21" rx="1" fill="#E6004C"/><path fill="#F4F2FF" d="M48 60h3v9h-3zm5-2h3v11h-3zm5 5h3v6h-3zm5-7h3v13h-3zm-32 3h7v2h-7zm0-4h7v2h-7zm0 8h7v2h-7zm0 4h7v2h-7z"/></svg>