<svg width="201" height="123" viewBox="0 0 201 123" fill="none" xmlns="http://www.w3.org/2000/svg">
<mask id="path-2-inside-1" fill="white">
<rect x="13" width="175" height="100" rx="3"/>
</mask>
<rect x="13" width="175" height="100" rx="3" fill="#332E4D" stroke="#8E7CBF" stroke-width="12" mask="url(#path-2-inside-1)"/>
<path fill-rule="evenodd" clip-rule="evenodd" d="M148 29H149V30H148V29ZM154 29H155V30H154V29ZM149 36.0002H148V34.0069H147V36.0002H146V33.0002H147V32.0002H148V31.0002H149L149 30.0002H150V31.0002H153V30.0002H154V31.0002H155L155 32.0002H156V33.0002H157V36.0002H156.021V34.0069H155V36.0002H154V35.0002H149V36H151V37H149V36.0002ZM152 37V36H154V37H152ZM150 32.0002H149V33.0002H150V32.0002ZM153 31.9982H154V32.9982H153V31.9982Z" fill="#B2A1E6"/>
<path fill-rule="evenodd" clip-rule="evenodd" d="M114 19H115V20H114V19ZM120 19H121V20H120V19ZM115 26.0002H114V24.0069H113V26.0002H112V23.0002H113V22.0002H114V21.0002H115L115 20.0002H116V21.0002H119V20.0002H120V21.0002H121L121 22.0002H122V23.0002H123V26.0002H122.021V24.0069H121V26.0002H120V25.0002H115V26H117V27H115V26.0002ZM118 27V26H120V27H118ZM116 22.0002H115V23.0002H116V22.0002ZM119 21.9982H120V22.9982H119V21.9982Z" fill="#B2A1E6"/>
<path fill-rule="evenodd" clip-rule="evenodd" d="M97 19H98V20H97V19ZM103 19H104V20H103V19ZM98 26.0002H97.0001V24.0069H96.0001V26.0002H95V23.0002H96.0001V22.0002H97.0001V21.0002H98.0001L98 20.0002H99V21.0002H102V20.0002H103V21.0002H104L104 22.0002H105V23.0002H106V26.0002H105.021V24.0069H104V26.0002H103V25.0002H98.0001V26H100V27H98V26.0002ZM101 27V26H103V27H101ZM99 22.0002H98V23.0002H99V22.0002ZM102 21.9982H103V22.9982H102V21.9982Z" fill="#B2A1E6"/>
<path fill-rule="evenodd" clip-rule="evenodd" d="M80 19H81V20H80V19ZM86 19H87V20H86V19ZM81 26.0002H80.0001V24.0069H79.0001V26.0002H78V23.0002H79.0001V22.0002H80.0001V21.0002H81.0001L81 20.0002H82V21.0002H85V20.0002H86.0001V21.0002H87L87.0001 22.0002H88.0001V23.0002H89.0001V26.0002H88.0213V24.0069H87.0001V26.0002H86.0001V25.0002H81.0001V26H83V27H81V26.0002ZM84 27V26H86V27H84ZM82 22.0002H81V23.0002H82V22.0002ZM85 21.9982H86V22.9982H85V21.9982Z" fill="#B2A1E6"/>
<path fill-rule="evenodd" clip-rule="evenodd" d="M63 19H64V20H63V19ZM69 19H70V20H69V19ZM64 26.0002H63.0001V24.0069H62.0001V26.0002H61V23.0002H62.0001V22.0002H63.0001V21.0002H64.0001L64 20.0002H65V21.0002H68V20.0002H69.0001V21.0002H70L70.0001 22.0002H71.0001V23.0002H72.0001V26.0002H71.0213V24.0069H70.0001V26.0002H69.0001V25.0002H64.0001V26H66V27H64V26.0002ZM67 27V26H69V27H67ZM65 22.0002H64V23.0002H65V22.0002ZM68 21.9982H69V22.9982H68V21.9982Z" fill="#B2A1E6"/>
<path fill-rule="evenodd" clip-rule="evenodd" d="M46 19H47V20H46V19ZM52 19H53V20H52V19ZM47 26.0002H46.0001V24.0069H45.0001V26.0002H44V23.0002H45.0001V22.0002H46.0001V21.0002H47.0001L47 20.0002H48V21.0002H51V20.0002H52.0001V21.0002H53L53.0001 22.0002H54.0001V23.0002H55.0001V26.0002H54.0213V24.0069H53.0001V26.0002H52.0001V25.0002H47.0001V26H49V27H47V26.0002ZM50 27V26H52V27H50ZM48 22.0002H47V23.0002H48V22.0002ZM51 21.9982H52V22.9982H51V21.9982Z" fill="#B2A1E6"/>
<path fill-rule="evenodd" clip-rule="evenodd" d="M148 19H149V20H148V19ZM154 19H155V20H154V19ZM149 26.0002H148V24.0069H147V26.0002H146V23.0002H147V22.0002H148V21.0002H149L149 20.0002H150V21.0002H153V20.0002H154V21.0002H155L155 22.0002H156V23.0002H157V26.0002H156.021V24.0069H155V26.0002H154V25.0002H149V26H151V27H149V26.0002ZM152 27V26H154V27H152ZM150 22.0002H149V23.0002H150V22.0002ZM153 21.9982H154V22.9982H153V21.9982Z" fill="#B2A1E6"/>
<path fill-rule="evenodd" clip-rule="evenodd" d="M131 19H132V20H131V19ZM137 19H138V20H137V19ZM132 26.0002H131V24.0069H130V26.0002H129V23.0002H130V22.0002H131V21.0002H132L132 20.0002H133V21.0002H136V20.0002H137V21.0002H138L138 22.0002H139V23.0002H140V26.0002H139.021V24.0069H138V26.0002H137V25.0002H132V26H134V27H132V26.0002ZM135 27V26H137V27H135ZM133 22.0002H132V23.0002H133V22.0002ZM136 21.9982H137V22.9982H136V21.9982Z" fill="#B2A1E6"/>
<path fill-rule="evenodd" clip-rule="evenodd" d="M114 31H115V32H114V31ZM120 31H121V32H120V31ZM115 38.0002H114V36.0069H113V38.0002H112V35.0002H113V34.0002H114V33.0002H115L115 32.0002H116V33.0002H119V32.0002H120V33.0002H121L121 34.0002H122V35.0002H123V38.0002H122.021V36.0069H121V38.0002H120V37.0002H115V38H117V39H115V38.0002ZM118 39V38H120V39H118ZM116 34.0002H115V35.0002H116V34.0002ZM119 33.9982H120V34.9982H119V33.9982Z" fill="#B2A1E6"/>
<path fill-rule="evenodd" clip-rule="evenodd" d="M97 31H98V32H97V31ZM103 31H104V32H103V31ZM98 38.0002H97.0001V36.0069H96.0001V38.0002H95V35.0002H96.0001V34.0002H97.0001V33.0002H98.0001L98 32.0002H99V33.0002H102V32.0002H103V33.0002H104L104 34.0002H105V35.0002H106V38.0002H105.021V36.0069H104V38.0002H103V37.0002H98.0001V38H100V39H98V38.0002ZM101 39V38H103V39H101ZM99 34.0002H98V35.0002H99V34.0002ZM102 33.9982H103V34.9982H102V33.9982Z" fill="#B2A1E6"/>
<path fill-rule="evenodd" clip-rule="evenodd" d="M80 31H81V32H80V31ZM86 31H87V32H86V31ZM81 38.0002H80.0001V36.0069H79.0001V38.0002H78V35.0002H79.0001V34.0002H80.0001V33.0002H81.0001L81 32.0002H82V33.0002H85V32.0002H86.0001V33.0002H87L87.0001 34.0002H88.0001V35.0002H89.0001V38.0002H88.0213V36.0069H87.0001V38.0002H86.0001V37.0002H81.0001V38H83V39H81V38.0002ZM84 39V38H86V39H84ZM82 34.0002H81V35.0002H82V34.0002ZM85 33.9982H86V34.9982H85V33.9982Z" fill="#B2A1E6"/>
<path fill-rule="evenodd" clip-rule="evenodd" d="M63 31H64V32H63V31ZM69 31H70V32H69V31ZM64 38.0002H63.0001V36.0069H62.0001V38.0002H61V35.0002H62.0001V34.0002H63.0001V33.0002H64.0001L64 32.0002H65V33.0002H68V32.0002H69.0001V33.0002H70L70.0001 34.0002H71.0001V35.0002H72.0001V38.0002H71.0213V36.0069H70.0001V38.0002H69.0001V37.0002H64.0001V38H66V39H64V38.0002ZM67 39V38H69V39H67ZM65 34.0002H64V35.0002H65V34.0002ZM68 33.9982H69V34.9982H68V33.9982Z" fill="#B2A1E6"/>
<path fill-rule="evenodd" clip-rule="evenodd" d="M46 31H47V32H46V31ZM52 31H53V32H52V31ZM47 38.0002H46.0001V36.0069H45.0001V38.0002H44V35.0002H45.0001V34.0002H46.0001V33.0002H47.0001L47 32.0002H48V33.0002H51V32.0002H52.0001V33.0002H53L53.0001 34.0002H54.0001V35.0002H55.0001V38.0002H54.0213V36.0069H53.0001V38.0002H52.0001V37.0002H47.0001V38H49V39H47V38.0002ZM50 39V38H52V39H50ZM48 34.0002H47V35.0002H48V34.0002ZM51 33.9982H52V34.9982H51V33.9982Z" fill="#B2A1E6"/>
<path fill-rule="evenodd" clip-rule="evenodd" d="M148 31H149V32H148V31ZM154 31H155V32H154V31ZM149 38.0002H148V36.0069H147V38.0002H146V35.0002H147V34.0002H148V33.0002H149L149 32.0002H150V33.0002H153V32.0002H154V33.0002H155L155 34.0002H156V35.0002H157V38.0002H156.021V36.0069H155V38.0002H154V37.0002H149V38H151V39H149V38.0002ZM152 39V38H154V39H152ZM150 34.0002H149V35.0002H150V34.0002ZM153 33.9982H154V34.9982H153V33.9982Z" fill="#B2A1E6"/>
<path fill-rule="evenodd" clip-rule="evenodd" d="M131 31H132V32H131V31ZM137 31H138V32H137V31ZM132 38.0002H131V36.0069H130V38.0002H129V35.0002H130V34.0002H131V33.0002H132L132 32.0002H133V33.0002H136V32.0002H137V33.0002H138L138 34.0002H139V35.0002H140V38.0002H139.021V36.0069H138V38.0002H137V37.0002H132V38H134V39H132V38.0002ZM135 39V38H137V39H135ZM133 34.0002H132V35.0002H133V34.0002ZM136 33.9982H137V34.9982H136V33.9982Z" fill="#B2A1E6"/>
<path fill-rule="evenodd" clip-rule="evenodd" d="M114 43H115V44H114V43ZM120 43H121V44H120V43ZM115 50.0002H114V48.0069H113V50.0002H112V47.0002H113V46.0002H114V45.0002H115L115 44.0002H116V45.0002H119V44.0002H120V45.0002H121L121 46.0002H122V47.0002H123V50.0002H122.021V48.0069H121V50.0002H120V49.0002H115V50H117V51H115V50.0002ZM118 51V50H120V51H118ZM116 46.0002H115V47.0002H116V46.0002ZM119 45.9982H120V46.9982H119V45.9982Z" fill="#B2A1E6"/>
<path fill-rule="evenodd" clip-rule="evenodd" d="M97 43H98V44H97V43ZM103 43H104V44H103V43ZM98 50.0002H97.0001V48.0069H96.0001V50.0002H95V47.0002H96.0001V46.0002H97.0001V45.0002H98.0001L98 44.0002H99V45.0002H102V44.0002H103V45.0002H104L104 46.0002H105V47.0002H106V50.0002H105.021V48.0069H104V50.0002H103V49.0002H98.0001V50H100V51H98V50.0002ZM101 51V50H103V51H101ZM99 46.0002H98V47.0002H99V46.0002ZM102 45.9982H103V46.9982H102V45.9982Z" fill="#B2A1E6"/>
<path fill-rule="evenodd" clip-rule="evenodd" d="M80 43H81V44H80V43ZM86 43H87V44H86V43ZM81 50.0002H80.0001V48.0069H79.0001V50.0002H78V47.0002H79.0001V46.0002H80.0001V45.0002H81.0001L81 44.0002H82V45.0002H85V44.0002H86.0001V45.0002H87L87.0001 46.0002H88.0001V47.0002H89.0001V50.0002H88.0213V48.0069H87.0001V50.0002H86.0001V49.0002H81.0001V50H83V51H81V50.0002ZM84 51V50H86V51H84ZM82 46.0002H81V47.0002H82V46.0002ZM85 45.9982H86V46.9982H85V45.9982Z" fill="#B2A1E6"/>
<path fill-rule="evenodd" clip-rule="evenodd" d="M63 43H64V44H63V43ZM69 43H70V44H69V43ZM64 50.0002H63.0001V48.0069H62.0001V50.0002H61V47.0002H62.0001V46.0002H63.0001V45.0002H64.0001L64 44.0002H65V45.0002H68V44.0002H69.0001V45.0002H70L70.0001 46.0002H71.0001V47.0002H72.0001V50.0002H71.0213V48.0069H70.0001V50.0002H69.0001V49.0002H64.0001V50H66V51H64V50.0002ZM67 51V50H69V51H67ZM65 46.0002H64V47.0002H65V46.0002ZM68 45.9982H69V46.9982H68V45.9982Z" fill="#B2A1E6"/>
<path fill-rule="evenodd" clip-rule="evenodd" d="M46 43H47V44H46V43ZM52 43H53V44H52V43ZM47 50.0002H46.0001V48.0069H45.0001V50.0002H44V47.0002H45.0001V46.0002H46.0001V45.0002H47.0001L47 44.0002H48V45.0002H51V44.0002H52.0001V45.0002H53L53.0001 46.0002H54.0001V47.0002H55.0001V50.0002H54.0213V48.0069H53.0001V50.0002H52.0001V49.0002H47.0001V50H49V51H47V50.0002ZM50 51V50H52V51H50ZM48 46.0002H47V47.0002H48V46.0002ZM51 45.9982H52V46.9982H51V45.9982Z" fill="#B2A1E6"/>
<path fill-rule="evenodd" clip-rule="evenodd" d="M148 43H149V44H148V43ZM154 43H155V44H154V43ZM149 50.0002H148V48.0069H147V50.0002H146V47.0002H147V46.0002H148V45.0002H149L149 44.0002H150V45.0002H153V44.0002H154V45.0002H155L155 46.0002H156V47.0002H157V50.0002H156.021V48.0069H155V50.0002H154V49.0002H149V50H151V51H149V50.0002ZM152 51V50H154V51H152ZM150 46.0002H149V47.0002H150V46.0002ZM153 45.9982H154V46.9982H153V45.9982Z" fill="#B2A1E6"/>
<path fill-rule="evenodd" clip-rule="evenodd" d="M131 43H132V44H131V43ZM137 43H138V44H137V43ZM132 50.0002H131V48.0069H130V50.0002H129V47.0002H130V46.0002H131V45.0002H132L132 44.0002H133V45.0002H136V44.0002H137V45.0002H138L138 46.0002H139V47.0002H140V50.0002H139.021V48.0069H138V50.0002H137V49.0002H132V50H134V51H132V50.0002ZM135 51V50H137V51H135ZM133 46.0002H132V47.0002H133V46.0002ZM136 45.9982H137V46.9982H136V45.9982Z" fill="#B2A1E6"/>
<rect x="84" y="104" width="36" height="14" fill="#403366"/>
<path d="M55 120C55 118.895 55.8954 118 57 118H144C145.105 118 146 118.895 146 120V123H55V120Z" fill="#8E7CBF"/>
<path d="M24 88L177 88" stroke="#E6004C" stroke-width="2"/>
<rect x="94" y="79" width="12" height="4" fill="#B2A1E6"/>
<rect x="98" y="75" width="4" height="4" fill="#B2A1E6"/>
<path fill-rule="evenodd" clip-rule="evenodd" d="M99 60V57H101L101 60H99ZM99 66V63H101V66H99ZM99 72V69H101L101 72H99Z" fill="#E5004C"/>
<path d="M31 89.6066C31 85.4056 34.4056 82 38.6066 82H49.3934C53.5944 82 57 85.4056 57 89.6066V94H31V89.6066Z" fill="#F4F2FF"/>
<path d="M44 65C39.03 65 35 69.03 35 74V76C35 77.66 36.34 78 38 78H40L39 74H37C37 70.13 40.13 67 44 67C47.87 67 51 70.13 51 74H49L48 78H51V81H47.5H44V83H50C51.66 83 53 81.66 53 80V74C53 69.03 48.97 65 44 65Z" fill="#E6004C"/>
<path fill-rule="evenodd" clip-rule="evenodd" d="M38 74C38 70.688 40.682 68 43.994 68C47.312 68 50 70.688 50 74C50 77.312 47.312 80 43.994 80C40.682 80 38 77.312 38 74ZM42.5 72.5C42.5 72.9142 42.1642 73.25 41.75 73.25C41.3358 73.25 41 72.9142 41 72.5C41 72.0858 41.3358 71.75 41.75 71.75C42.1642 71.75 42.5 72.0858 42.5 72.5ZM46.25 73.25C46.6642 73.25 47 72.9142 47 72.5C47 72.0858 46.6642 71.75 46.25 71.75C45.8358 71.75 45.5 72.0858 45.5 72.5C45.5 72.9142 45.8358 73.25 46.25 73.25Z" fill="#F4F2FF"/>
<rect x="158" y="11" width="19" height="9" rx="1" fill="#E6004C"/>
<path d="M163.267 17.0734V18H160V13H161.258V17.0734H163.267Z" fill="white"/>
<path d="M165.174 18H163.909V13H165.174V18Z" fill="white"/>
<path d="M171.083 13L168.91 18H167.772L165.599 13H166.611C166.72 13 166.808 13.024 166.875 13.0721C166.942 13.1178 166.993 13.1773 167.028 13.2505L168.077 15.9272C168.126 16.0439 168.175 16.172 168.222 16.3116C168.269 16.4489 168.314 16.593 168.356 16.744C168.39 16.593 168.429 16.4489 168.471 16.3116C168.516 16.172 168.563 16.0439 168.612 15.9272L169.654 13.2505C169.681 13.1865 169.73 13.1293 169.799 13.0789C169.871 13.0263 169.959 13 170.063 13H171.083Z" fill="white"/>
<path d="M172.775 13.8922V15.059H174.479V15.917H172.775V17.1078H175V18H171.51V13H175V13.8922H172.775Z" fill="white"/>
<rect width="48" height="19" rx="1" transform="matrix(-1 0 0 1 177 25)" fill="white"/>
<rect x="132" y="28" width="17" height="13" rx="1" fill="#E6004C"/>
<rect width="11" height="2" transform="matrix(-1 0 0 1 146 31)" fill="#F4F2FF"/>
<rect width="11" height="2" transform="matrix(-1 0 0 1 146 36)" fill="#F4F2FF"/>
<path d="M170.724 34.4472L173.638 40.2764C173.804 40.6088 173.563 41 173.191 41H152.5C152.224 41 152 40.7761 152 40.5V30.865C152 30.3992 152.581 30.1864 152.882 30.542L157.19 35.6337C157.363 35.8384 157.667 35.87 157.879 35.7054L161.627 32.7897C161.837 32.6271 162.136 32.6558 162.311 32.8551L165.246 36.2093C165.395 36.3805 165.642 36.429 165.846 36.3272L170.053 34.2236C170.3 34.1001 170.6 34.2002 170.724 34.4472Z" fill="#E6004C"/>
</svg>
