<svg width="201" height="123" viewBox="0 0 201 123" fill="none" xmlns="http://www.w3.org/2000/svg"><mask id="a" fill="#fff"><rect x="13" width="175" height="100" rx="3"/></mask><rect x="13" width="175" height="100" rx="3" fill="#332E4D" stroke="#8E7CBF" stroke-width="12" mask="url(#a)"/><path fill-rule="evenodd" clip-rule="evenodd" d="M148 29h1v1h-1v-1zm6 0h1v1h-1v-1zm-5 7h-1v-1.993h-1V36h-1v-3h1v-1h1v-1h1v-1h1v1h3v-1h1v1h1v1h1v1h1v3h-.979v-1.993H155V36h-1v-1h-5v1h2v1h-2v-1zm3 1v-1h2v1h-2zm-2-5h-1v1h1v-1zm3-.002h1v1h-1v-1zM114 19h1v1h-1v-1zm6 0h1v1h-1v-1zm-5 7h-1v-1.993h-1V26h-1v-3h1v-1h1v-1h1v-1h1v1h3v-1h1v1h1v1h1v1h1v3h-.979v-1.993H121V26h-1v-1h-5v1h2v1h-2v-1zm3 1v-1h2v1h-2zm-2-5h-1v1h1v-1zm3-.002h1v1h-1v-1zM97 19h1v1h-1v-1zm6 0h1v1h-1v-1zm-5 7h-1v-1.993h-1V26h-1v-3h1v-1h1v-1h1v-1h1v1h3v-1h1v1h1v1h1v1h1v3h-.979v-1.993H104V26h-1v-1h-5v1h2v1h-2v-1zm3 1v-1h2v1h-2zm-2-5h-1v1h1v-1zm3-.002h1v1h-1v-1zM80 19h1v1h-1v-1zm6 0h1v1h-1v-1zm-5 7h-1v-1.993h-1V26h-1v-3h1v-1h1v-1h1v-1h1v1h3v-1h1v1h1v1h1v1h1v3h-.979v-1.993h-1.02V26h-1v-1h-5v1H83v1h-2v-1zm3 1v-1h2v1h-2zm-2-5h-1v1h1v-1zm3-.002h1v1h-1v-1zM63 19h1v1h-1v-1zm6 0h1v1h-1v-1zm-5 7h-1v-1.993h-1V26h-1v-3h1v-1h1v-1h1v-1h1v1h3v-1h1v1h1v1h1v1h1v3h-.979v-1.993h-1.02V26h-1v-1h-5v1H66v1h-2v-1zm3 1v-1h2v1h-2zm-2-5h-1v1h1v-1zm3-.002h1v1h-1v-1zM46 19h1v1h-1v-1zm6 0h1v1h-1v-1zm-5 7h-1v-1.993h-1V26h-1v-3h1v-1h1v-1h1v-1h1v1h3v-1h1v1h1v1h1v1h1v3h-.979v-1.993h-1.02V26h-1v-1h-5v1H49v1h-2v-1zm3 1v-1h2v1h-2zm-2-5h-1v1h1v-1zm3-.002h1v1h-1v-1zM148 19h1v1h-1v-1zm6 0h1v1h-1v-1zm-5 7h-1v-1.993h-1V26h-1v-3h1v-1h1v-1h1v-1h1v1h3v-1h1v1h1v1h1v1h1v3h-.979v-1.993H155V26h-1v-1h-5v1h2v1h-2v-1zm3 1v-1h2v1h-2zm-2-5h-1v1h1v-1zm3-.002h1v1h-1v-1zM131 19h1v1h-1v-1zm6 0h1v1h-1v-1zm-5 7h-1v-1.993h-1V26h-1v-3h1v-1h1v-1h1v-1h1v1h3v-1h1v1h1v1h1v1h1v3h-.979v-1.993H138V26h-1v-1h-5v1h2v1h-2v-1zm3 1v-1h2v1h-2zm-2-5h-1v1h1v-1zm3-.002h1v1h-1v-1zM114 31h1v1h-1v-1zm6 0h1v1h-1v-1zm-5 7h-1v-1.993h-1V38h-1v-3h1v-1h1v-1h1v-1h1v1h3v-1h1v1h1v1h1v1h1v3h-.979v-1.993H121V38h-1v-1h-5v1h2v1h-2v-1zm3 1v-1h2v1h-2zm-2-5h-1v1h1v-1zm3-.002h1v1h-1v-1zM97 31h1v1h-1v-1zm6 0h1v1h-1v-1zm-5 7h-1v-1.993h-1V38h-1v-3h1v-1h1v-1h1v-1h1v1h3v-1h1v1h1v1h1v1h1v3h-.979v-1.993H104V38h-1v-1h-5v1h2v1h-2v-1zm3 1v-1h2v1h-2zm-2-5h-1v1h1v-1zm3-.002h1v1h-1v-1zM80 31h1v1h-1v-1zm6 0h1v1h-1v-1zm-5 7h-1v-1.993h-1V38h-1v-3h1v-1h1v-1h1v-1h1v1h3v-1h1v1h1v1h1v1h1v3h-.979v-1.993h-1.02V38h-1v-1h-5v1H83v1h-2v-1zm3 1v-1h2v1h-2zm-2-5h-1v1h1v-1zm3-.002h1v1h-1v-1zM63 31h1v1h-1v-1zm6 0h1v1h-1v-1zm-5 7h-1v-1.993h-1V38h-1v-3h1v-1h1v-1h1v-1h1v1h3v-1h1v1h1v1h1v1h1v3h-.979v-1.993h-1.02V38h-1v-1h-5v1H66v1h-2v-1zm3 1v-1h2v1h-2zm-2-5h-1v1h1v-1zm3-.002h1v1h-1v-1zM46 31h1v1h-1v-1zm6 0h1v1h-1v-1zm-5 7h-1v-1.993h-1V38h-1v-3h1v-1h1v-1h1v-1h1v1h3v-1h1v1h1v1h1v1h1v3h-.979v-1.993h-1.02V38h-1v-1h-5v1H49v1h-2v-1zm3 1v-1h2v1h-2zm-2-5h-1v1h1v-1zm3-.002h1v1h-1v-1z" fill="#B2A1E6"/><path fill-rule="evenodd" clip-rule="evenodd" d="M148 31h1v1h-1v-1zm6 0h1v1h-1v-1zm-5 7h-1v-1.993h-1V38h-1v-3h1v-1h1v-1h1v-1h1v1h3v-1h1v1h1v1h1v1h1v3h-.979v-1.993H155V38h-1v-1h-5v1h2v1h-2v-1zm3 1v-1h2v1h-2zm-2-5h-1v1h1v-1zm3-.002h1v1h-1v-1zM131 31h1v1h-1v-1zm6 0h1v1h-1v-1zm-5 7h-1v-1.993h-1V38h-1v-3h1v-1h1v-1h1v-1h1v1h3v-1h1v1h1v1h1v1h1v3h-.979v-1.993H138V38h-1v-1h-5v1h2v1h-2v-1zm3 1v-1h2v1h-2zm-2-5h-1v1h1v-1zm3-.002h1v1h-1v-1zM114 43h1v1h-1v-1zm6 0h1v1h-1v-1zm-5 7h-1v-1.993h-1V50h-1v-3h1v-1h1v-1h1v-1h1v1h3v-1h1v1h1v1h1v1h1v3h-.979v-1.993H121V50h-1v-1h-5v1h2v1h-2v-1zm3 1v-1h2v1h-2zm-2-5h-1v1h1v-1zm3-.002h1v1h-1v-1zM97 43h1v1h-1v-1zm6 0h1v1h-1v-1zm-5 7h-1v-1.993h-1V50h-1v-3h1v-1h1v-1h1v-1h1v1h3v-1h1v1h1v1h1v1h1v3h-.979v-1.993H104V50h-1v-1h-5v1h2v1h-2v-1zm3 1v-1h2v1h-2zm-2-5h-1v1h1v-1zm3-.002h1v1h-1v-1zM80 43h1v1h-1v-1zm6 0h1v1h-1v-1zm-5 7h-1v-1.993h-1V50h-1v-3h1v-1h1v-1h1v-1h1v1h3v-1h1v1h1v1h1v1h1v3h-.979v-1.993h-1.02V50h-1v-1h-5v1H83v1h-2v-1zm3 1v-1h2v1h-2zm-2-5h-1v1h1v-1zm3-.002h1v1h-1v-1zM63 43h1v1h-1v-1zm6 0h1v1h-1v-1zm-5 7h-1v-1.993h-1V50h-1v-3h1v-1h1v-1h1v-1h1v1h3v-1h1v1h1v1h1v1h1v3h-.979v-1.993h-1.02V50h-1v-1h-5v1H66v1h-2v-1zm3 1v-1h2v1h-2zm-2-5h-1v1h1v-1zm3-.002h1v1h-1v-1zM46 43h1v1h-1v-1zm6 0h1v1h-1v-1zm-5 7h-1v-1.993h-1V50h-1v-3h1v-1h1v-1h1v-1h1v1h3v-1h1v1h1v1h1v1h1v3h-.979v-1.993h-1.02V50h-1v-1h-5v1H49v1h-2v-1zm3 1v-1h2v1h-2zm-2-5h-1v1h1v-1zm3-.002h1v1h-1v-1zM148 43h1v1h-1v-1zm6 0h1v1h-1v-1zm-5 7h-1v-1.993h-1V50h-1v-3h1v-1h1v-1h1v-1h1v1h3v-1h1v1h1v1h1v1h1v3h-.979v-1.993H155V50h-1v-1h-5v1h2v1h-2v-1zm3 1v-1h2v1h-2zm-2-5h-1v1h1v-1zm3-.002h1v1h-1v-1zM131 43h1v1h-1v-1zm6 0h1v1h-1v-1zm-5 7h-1v-1.993h-1V50h-1v-3h1v-1h1v-1h1v-1h1v1h3v-1h1v1h1v1h1v1h1v3h-.979v-1.993H138V50h-1v-1h-5v1h2v1h-2v-1zm3 1v-1h2v1h-2zm-2-5h-1v1h1v-1zm3-.002h1v1h-1v-1z" fill="#B2A1E6"/><path fill="#403366" d="M84 104h36v14H84z"/><path d="M55 120a2 2 0 012-2h87a2 2 0 012 2v3H55v-3z" fill="#8E7CBF"/><path d="M24 88h153" stroke="#E6004C" stroke-width="2"/><path fill="#B2A1E6" d="M94 79h12v4H94zm4-4h4v4h-4z"/><path fill-rule="evenodd" clip-rule="evenodd" d="M99 60v-3h2v3h-2zm0 6v-3h2v3h-2zm0 6v-3h2v3h-2z" fill="#E5004C"/><path d="M31 89.607A7.607 7.607 0 0138.607 82h10.786A7.607 7.607 0 0157 89.607V94H31v-4.393z" fill="#F4F2FF"/><path d="M44 65a9 9 0 00-9 9v2c0 1.66 1.34 2 3 2h2l-1-4h-2c0-3.87 3.13-7 7-7s7 3.13 7 7h-2l-1 4h3v3h-7v2h6c1.66 0 3-1.34 3-3v-6a9 9 0 00-9-9z" fill="#E6004C"/><path fill-rule="evenodd" clip-rule="evenodd" d="M38 74c0-3.312 2.682-6 5.994-6A6.003 6.003 0 0150 74c0 3.312-2.688 6-6.006 6A5.997 5.997 0 0138 74zm4.5-1.5a.75.75 0 11-1.5 0 .75.75 0 011.5 0zm3.75.75a.75.75 0 100-1.5.75.75 0 000 1.5z" fill="#F4F2FF"/><rect x="158" y="11" width="19" height="9" rx="1" fill="#E6004C"/><path d="M163.267 17.073V18H160v-5h1.258v4.073h2.009zm1.907.927h-1.265v-5h1.265v5zm5.909-5l-2.173 5h-1.138l-2.173-5h1.012c.109 0 .197.024.264.072a.444.444 0 01.153.179l1.049 2.676a7.734 7.734 0 01.279.817 4.796 4.796 0 01.256-.817l1.042-2.677a.435.435 0 01.409-.25h1.02zm1.692.892v1.167h1.704v.858h-1.704v1.19H175V18h-3.49v-5H175v.892h-2.225z" fill="#fff"/><rect width="48" height="19" rx="1" transform="matrix(-1 0 0 1 177 25)" fill="#fff"/><rect x="132" y="28" width="17" height="13" rx="1" fill="#E6004C"/><path fill="#F4F2FF" d="M146 31h-11v2h11zm0 5h-11v2h11z"/><path d="M170.724 34.447l2.914 5.83a.5.5 0 01-.447.723H152.5a.5.5 0 01-.5-.5v-9.635a.5.5 0 01.882-.323l4.308 5.092a.5.5 0 00.689.071l3.748-2.915a.501.501 0 01.684.065l2.935 3.354a.5.5 0 00.6.118l4.207-2.103a.5.5 0 01.671.223z" fill="#E6004C"/></svg>