<svg width="242" height="104" viewBox="0 0 242 104" fill="none" xmlns="http://www.w3.org/2000/svg">
<path d="M137 98V94L105 88V98H100V104H142V98H137Z" fill="#1A1A1A"/>
<path d="M69 84L173 84L173 28L69 28L69 84Z" fill="url(#paint0_linear_524_5261)"/>
<path fill-rule="evenodd" clip-rule="evenodd" d="M79 40.5L77 40V43H81V41L79 40.5ZM79 47.5L77 47V50H81V48L79 47.5ZM77 54L79 54.5L81 55V57H77V54ZM87 40.5L85 40V43H89V41L87 40.5ZM85 47L87 47.5L89 48V50H85V47ZM87 54.5L85 54V57H89V55L87 54.5Z" fill="white"/>
<path d="M165 36H97V76H165V36Z" fill="white"/>
<path opacity="0.2" d="M160 39.5C160 40.3284 160.672 41 161.5 41C162.328 41 163 40.3284 163 39.5C163 38.6716 162.328 38 161.5 38C160.672 38 160 38.6716 160 39.5Z" fill="#EA483B"/>
<path d="M161 39.5C161 39.7761 161.224 40 161.5 40C161.776 40 162 39.7761 162 39.5C162 39.2239 161.776 39 161.5 39C161.224 39 161 39.2239 161 39.5Z" fill="#EA483B"/>
<path opacity="0.2" d="M156 39.5C156 40.3284 156.672 41 157.5 41C158.328 41 159 40.3284 159 39.5C159 38.6716 158.328 38 157.5 38C156.672 38 156 38.6716 156 39.5Z" fill="#EA483B"/>
<path d="M157 39.5C157 39.7761 157.224 40 157.5 40C157.776 40 158 39.7761 158 39.5C158 39.2239 157.776 39 157.5 39C157.224 39 157 39.2239 157 39.5Z" fill="#EA483B"/>
<path opacity="0.2" d="M152 39.5C152 40.3284 152.672 41 153.5 41C154.328 41 155 40.3284 155 39.5C155 38.6716 154.328 38 153.5 38C152.672 38 152 38.6716 152 39.5Z" fill="#EA483B"/>
<path d="M153 39.5C153 39.7761 153.224 40 153.5 40C153.776 40 154 39.7761 154 39.5C154 39.2239 153.776 39 153.5 39C153.224 39 153 39.2239 153 39.5Z" fill="#EA483B"/>
<path fill-rule="evenodd" clip-rule="evenodd" d="M109 50L105 48V64H109V50ZM127 52L123 50V64H127V52ZM117 54L121 56V64H117V54ZM115 50L111 48V64H115V50Z" fill="black"/>
<path d="M135 64H157L154 60L151 61L148 57L141 60L135 54V64Z" fill="url(#paint1_linear_524_5261)"/>
<path d="M67 26H175V86H67V26Z" stroke="#1A1A1A" stroke-width="4"/>
<defs>
<linearGradient id="paint0_linear_524_5261" x1="121" y1="46.5" x2="121.035" y2="84.3942" gradientUnits="userSpaceOnUse">
<stop stop-color="#1A1A1A"/>
<stop offset="1" stop-color="#EA483B"/>
</linearGradient>
<linearGradient id="paint1_linear_524_5261" x1="146" y1="68.2565" x2="146" y2="58.2565" gradientUnits="userSpaceOnUse">
<stop/>
<stop offset="1" stop-color="#EA483B"/>
</linearGradient>
</defs>
</svg>
