<svg width="241" height="104" viewBox="0 0 241 104" fill="none" xmlns="http://www.w3.org/2000/svg">
<path d="M136.5 98V94L104.5 88V98H99.5V104H141.5V98H136.5Z" fill="white"/>
<path d="M68.5 84L172.5 84L172.5 28L68.5 28L68.5 84Z" fill="url(#paint0_linear_524_4804)"/>
<path fill-rule="evenodd" clip-rule="evenodd" d="M78.5 40.5L76.5 40V43H80.5V41L78.5 40.5ZM78.5 47.5L76.5 47V50H80.5V48L78.5 47.5ZM76.5 54L78.5 54.5L80.5 55V57H76.5V54ZM86.5 40.5L84.5 40V43H88.5V41L86.5 40.5ZM84.5 47L86.5 47.5L88.5 48V50H84.5V47ZM86.5 54.5L84.5 54V57H88.5V55L86.5 54.5Z" fill="white"/>
<path d="M164.5 36H96.5V76H164.5V36Z" fill="white"/>
<path opacity="0.2" d="M159.5 39.5C159.5 40.3284 160.172 41 161 41C161.828 41 162.5 40.3284 162.5 39.5C162.5 38.6716 161.828 38 161 38C160.172 38 159.5 38.6716 159.5 39.5Z" fill="#EA483B"/>
<path d="M160.5 39.5C160.5 39.7761 160.724 40 161 40C161.276 40 161.5 39.7761 161.5 39.5C161.5 39.2239 161.276 39 161 39C160.724 39 160.5 39.2239 160.5 39.5Z" fill="#EA483B"/>
<path opacity="0.2" d="M155.5 39.5C155.5 40.3284 156.172 41 157 41C157.828 41 158.5 40.3284 158.5 39.5C158.5 38.6716 157.828 38 157 38C156.172 38 155.5 38.6716 155.5 39.5Z" fill="#EA483B"/>
<path d="M156.5 39.5C156.5 39.7761 156.724 40 157 40C157.276 40 157.5 39.7761 157.5 39.5C157.5 39.2239 157.276 39 157 39C156.724 39 156.5 39.2239 156.5 39.5Z" fill="#EA483B"/>
<path opacity="0.2" d="M151.5 39.5C151.5 40.3284 152.172 41 153 41C153.828 41 154.5 40.3284 154.5 39.5C154.5 38.6716 153.828 38 153 38C152.172 38 151.5 38.6716 151.5 39.5Z" fill="#EA483B"/>
<path d="M152.5 39.5C152.5 39.7761 152.724 40 153 40C153.276 40 153.5 39.7761 153.5 39.5C153.5 39.2239 153.276 39 153 39C152.724 39 152.5 39.2239 152.5 39.5Z" fill="#EA483B"/>
<path fill-rule="evenodd" clip-rule="evenodd" d="M108.5 50L104.5 48V64H108.5V50ZM126.5 52L122.5 50V64H126.5V52ZM116.5 54L120.5 56V64H116.5V54ZM114.5 50L110.5 48V64H114.5V50Z" fill="black"/>
<path d="M134.5 64H156.5L153.5 60L150.5 61L147.5 57L140.5 60L134.5 54V64Z" fill="url(#paint1_linear_524_4804)"/>
<path d="M66.5 26H174.5V86H66.5V26Z" stroke="white" stroke-width="4"/>
<defs>
<linearGradient id="paint0_linear_524_4804" x1="120.5" y1="46.5" x2="120.535" y2="84.3942" gradientUnits="userSpaceOnUse">
<stop stop-opacity="0"/>
<stop offset="1" stop-color="#EA483B"/>
</linearGradient>
<linearGradient id="paint1_linear_524_4804" x1="145.5" y1="68.2565" x2="145.5" y2="58.2565" gradientUnits="userSpaceOnUse">
<stop/>
<stop offset="1" stop-color="#EA483B"/>
</linearGradient>
</defs>
</svg>
