<svg width="242" height="104" viewBox="0 0 242 104" fill="none" xmlns="http://www.w3.org/2000/svg">
<path d="M197 98V94L165 88V98H160V104H202V98H197Z" fill="#1A1A1A"/>
<path d="M233 28H129V84H233V28Z" fill="url(#paint0_linear_524_5267)"/>
<path d="M176 72H180V69H183V72H187L186 76H177L176 72Z" fill="#EA483B"/>
<path opacity="0.2" d="M181.5 66C182.328 66 183 65.3284 183 64.5C183 63.6716 182.328 63 181.5 63C180.672 63 180 63.6716 180 64.5C180 65.3284 180.672 66 181.5 66Z" fill="#EA483B"/>
<path d="M181.5 65C181.776 65 182 64.7761 182 64.5C182 64.2239 181.776 64 181.5 64C181.224 64 181 64.2239 181 64.5C181 64.7761 181.224 65 181.5 65Z" fill="#D34037"/>
<path opacity="0.2" d="M181.5 62C182.328 62 183 61.3284 183 60.5C183 59.6716 182.328 59 181.5 59C180.672 59 180 59.6716 180 60.5C180 61.3284 180.672 62 181.5 62Z" fill="#EA483B"/>
<path d="M181.5 61C181.776 61 182 60.7761 182 60.5C182 60.2239 181.776 60 181.5 60C181.224 60 181 60.2239 181 60.5C181 60.7761 181.224 61 181.5 61Z" fill="#D34037"/>
<path opacity="0.2" d="M181.5 58C182.328 58 183 57.3284 183 56.5C183 55.6716 182.328 55 181.5 55C180.672 55 180 55.6716 180 56.5C180 57.3284 180.672 58 181.5 58Z" fill="#EA483B"/>
<path d="M181.5 57C181.776 57 182 56.7761 182 56.5C182 56.2239 181.776 56 181.5 56C181.224 56 181 56.2239 181 56.5C181 56.7761 181.224 57 181.5 57Z" fill="#D34037"/>
<path fill-rule="evenodd" clip-rule="evenodd" d="M174.5 50L178 53V52L177 50L179 48H181.5H184L186 50L185 52V53L188.5 50L187.484 47.4627L189 46L191 47V50L193 46L191 44L188 40L186 39L184 40.0597L185.452 37.194L185 36L182.5 39H181.5H180.5L178 36L177.548 37.194L179 40.0597L177 39L175 40L172 44L170 46L172 50V47L174 46L175.516 47.4627L174.5 50Z" fill="white"/>
<circle cx="184.5" cy="43.5" r="1.5" fill="black"/>
<circle cx="178.5" cy="43.5" r="1.5" fill="black"/>
<path d="M127 26H235V86H127V26Z" stroke="#1A1A1A" stroke-width="4"/>
<path d="M77 98V94L45 88V98H40V104H82V98H77Z" fill="#1A1A1A"/>
<path d="M9 84L113 84L113 28L9 28L9 84Z" fill="url(#paint1_linear_524_5267)"/>
<path fill-rule="evenodd" clip-rule="evenodd" d="M19 40.5L17 40V43H21V41L19 40.5ZM19 47.5L17 47V50H21V48L19 47.5ZM17 54L19 54.5L21 55V57H17V54ZM27 40.5L25 40V43H29V41L27 40.5ZM25 47L27 47.5L29 48V50H25V47ZM27 54.5L25 54V57H29V55L27 54.5Z" fill="white"/>
<path d="M105 36H37V76H105V36Z" fill="white"/>
<path opacity="0.2" d="M100 39.5C100 40.3284 100.672 41 101.5 41C102.328 41 103 40.3284 103 39.5C103 38.6716 102.328 38 101.5 38C100.672 38 100 38.6716 100 39.5Z" fill="#EA483B"/>
<path d="M101 39.5C101 39.7761 101.224 40 101.5 40C101.776 40 102 39.7761 102 39.5C102 39.2239 101.776 39 101.5 39C101.224 39 101 39.2239 101 39.5Z" fill="#EA483B"/>
<path opacity="0.2" d="M96 39.5C96 40.3284 96.6716 41 97.5 41C98.3284 41 99 40.3284 99 39.5C99 38.6716 98.3284 38 97.5 38C96.6716 38 96 38.6716 96 39.5Z" fill="#EA483B"/>
<path d="M97 39.5C97 39.7761 97.2239 40 97.5 40C97.7761 40 98 39.7761 98 39.5C98 39.2239 97.7761 39 97.5 39C97.2239 39 97 39.2239 97 39.5Z" fill="#EA483B"/>
<path opacity="0.2" d="M92 39.5C92 40.3284 92.6716 41 93.5 41C94.3284 41 95 40.3284 95 39.5C95 38.6716 94.3284 38 93.5 38C92.6716 38 92 38.6716 92 39.5Z" fill="#EA483B"/>
<path d="M93 39.5C93 39.7761 93.2239 40 93.5 40C93.7761 40 94 39.7761 94 39.5C94 39.2239 93.7761 39 93.5 39C93.2239 39 93 39.2239 93 39.5Z" fill="#EA483B"/>
<path fill-rule="evenodd" clip-rule="evenodd" d="M49 50L45 48V64H49V50ZM67 52L63 50V64H67V52ZM57 54L61 56V64H57V54ZM55 50L51 48V64H55V50Z" fill="black"/>
<path d="M75 64H97L94 60L91 61L88 57L81 60L75 54V64Z" fill="url(#paint2_linear_524_5267)"/>
<path d="M7 26H115V86H7V26Z" stroke="#1A1A1A" stroke-width="4"/>
<defs>
<linearGradient id="paint0_linear_524_5267" x1="181" y1="84" x2="180.965" y2="27.6058" gradientUnits="userSpaceOnUse">
<stop stop-color="#1A1A1A"/>
<stop offset="1" stop-color="#EA483B"/>
</linearGradient>
<linearGradient id="paint1_linear_524_5267" x1="61" y1="46.5" x2="61.0352" y2="84.3942" gradientUnits="userSpaceOnUse">
<stop stop-color="#1A1A1A"/>
<stop offset="1" stop-color="#EA483B"/>
</linearGradient>
<linearGradient id="paint2_linear_524_5267" x1="86" y1="68.2565" x2="86" y2="58.2565" gradientUnits="userSpaceOnUse">
<stop/>
<stop offset="1" stop-color="#EA483B"/>
</linearGradient>
</defs>
</svg>
