<svg width="104" height="104" viewBox="0 0 104 104" fill="none" xmlns="http://www.w3.org/2000/svg">
<g clip-path="url(#clip0_125_2128)">
<g clip-path="url(#clip1_125_2128)">
<path fill-rule="evenodd" clip-rule="evenodd" d="M75.401 46.6835C77.008 55.7834 71.4783 68.1244 64.0309 71.5573C77.7168 53.0952 72.5825 18.6618 53.4911 10.6028C60.0037 20.9523 57.2303 29.2003 51.4832 35.9081C53.6521 30.227 53.7877 23.9959 49.9496 17.3981C49.2916 39.2508 20.0502 44.1251 19.5277 76.2962C19.491 76.7758 19.4656 77.2553 19.4486 77.7377C19.4486 79.196 19.5362 80.6374 19.7197 82.0478C21.8492 98.73 36.1592 111.627 53.4911 111.627C36.3626 107.034 24.8089 91.8529 28.2374 72.7054C27.8138 83.557 34.1992 97.6976 44.0302 102.406C69.1653 114.433 101.011 82.5161 75.401 46.6835Z" fill="url(#paint0_linear_125_2128)"/>
<path opacity="0.2" d="M27.5851 37.688C30.7779 37.688 33.3662 35.1028 33.3662 31.9138C33.3662 28.7248 30.7779 26.1396 27.5851 26.1396C24.3923 26.1396 21.804 28.7248 21.804 31.9138C21.804 35.1028 24.3923 37.688 27.5851 37.688Z" fill="#EA483B"/>
<path d="M27.5851 33.6599C28.5506 33.6599 29.3332 32.8781 29.3332 31.9138C29.3332 30.9495 28.5506 30.1677 27.5851 30.1677C26.6196 30.1677 25.8369 30.9495 25.8369 31.9138C25.8369 32.8781 26.6196 33.6599 27.5851 33.6599Z" fill="#EA483B"/>
<path opacity="0.2" d="M82.2751 35.1381C86.0544 35.1381 89.118 32.078 89.118 28.3033C89.118 24.5285 86.0544 21.4685 82.2751 21.4685C78.4958 21.4685 75.4321 24.5285 75.4321 28.3033C75.4321 32.078 78.4958 35.1381 82.2751 35.1381Z" fill="#EA483B"/>
<path d="M82.2751 30.3709C83.4184 30.3709 84.3452 29.4452 84.3452 28.3032C84.3452 27.1613 83.4184 26.2356 82.2751 26.2356C81.1318 26.2356 80.205 27.1613 80.205 28.3032C80.205 29.4452 81.1318 30.3709 82.2751 30.3709Z" fill="#EA483B"/>
<path opacity="0.2" d="M65.8921 8.21359C67.9712 8.21359 69.6567 6.53013 69.6567 4.45348C69.6567 2.37682 67.9712 0.693359 65.8921 0.693359C63.8129 0.693359 62.1274 2.37682 62.1274 4.45348C62.1274 6.53013 63.8129 8.21359 65.8921 8.21359Z" fill="#EA483B"/>
<path d="M65.8921 5.59021C66.5207 5.59021 67.0302 5.08126 67.0302 4.45343C67.0302 3.8256 66.5207 3.31665 65.8921 3.31665C65.2635 3.31665 64.754 3.8256 64.754 4.45343C64.754 5.08126 65.2635 5.59021 65.8921 5.59021Z" fill="#EA483B"/>
<path d="M66.8099 95.723L41.6466 91.5651V98.5776H37.608V103.568H70.8513V98.5776H66.8099V95.723ZM84.1249 75.0889H14.56V80.6148C14.56 80.6148 30.4714 81.0915 37.2522 91.4861H71.2072C71.2072 91.4861 73.17 87.1619 77.2481 84.4595C80.1908 82.5104 84.1249 84.6147 84.1249 88.1379H88.878V75.0889H84.1249Z" fill="white"/>
<path fill-rule="evenodd" clip-rule="evenodd" d="M62.2799 56.8891L89.44 42.2041L87.4037 38.4468L57.3179 54.7143L51.8898 44.6977L40.1893 51.0247L53.0816 74.8125L64.7822 68.4854L57.3179 54.7143L62.2771 56.8891H62.2799ZM40.1865 63.9778L42.2227 67.7323L47.2356 65.0215L42.2735 62.8466L40.1837 63.9778H40.1865Z" fill="url(#paint1_linear_125_2128)"/>
</g>
</g>
<defs>
<linearGradient id="paint0_linear_125_2128" x1="52.1525" y1="111.627" x2="52.1525" y2="10.6" gradientUnits="userSpaceOnUse">
<stop offset="0.18" stop-color="#EA483B" stop-opacity="0"/>
<stop offset="1" stop-color="#EA483B"/>
</linearGradient>
<linearGradient id="paint1_linear_125_2128" x1="40.1893" y1="56.6296" x2="89.44" y2="56.6296" gradientUnits="userSpaceOnUse">
<stop stop-color="#EA483B"/>
<stop offset="0.82"/>
</linearGradient>
<clipPath id="clip0_125_2128">
<rect width="104" height="104" fill="white"/>
</clipPath>
<clipPath id="clip1_125_2128">
<rect width="74.88" height="110.933" fill="white" transform="translate(14.56 -3.46655)"/>
</clipPath>
</defs>
</svg>
