<svg width="104" height="104" viewBox="0 0 104 104" fill="none" xmlns="http://www.w3.org/2000/svg">
<g clip-path="url(#clip0_125_2133)">
<path d="M34.058 103.114L29.2343 104L16.7926 36.058L18.7449 33.2213L18.7927 33.2139L21.6163 35.1752L34.058 103.114Z" fill="white"/>
<path d="M22.9459 27.6503L16.6959 23.4182L12.4834 29.6972L18.7334 33.9293L22.9459 27.6503Z" fill="white"/>
<path d="M70.1036 38.2853C71.8243 31.271 74.3281 24.7664 77.6995 18.8269C65.2027 21.1724 56.4818 29.1397 52.0073 30.8573L51.3933 48.0774L49.1763 30.4288C48.9814 30.1112 48.8859 29.7418 48.8932 29.3687C49.0587 19.1889 39.0766 25.8819 27.2085 36.3683L27.9475 69.3088C39.8156 58.8224 54.5515 49.444 54.3861 59.6239C54.3787 60.0413 54.489 60.4624 54.7354 60.7985C57.3347 64.3518 67.1587 52.0887 83.1887 49.0821C78.8209 44.3541 74.4568 40.472 70.1 38.2853H70.1036Z" fill="url(#paint0_linear_125_2133)"/>
<path opacity="0.2" d="M60.5187 17.8997C65.4387 17.8997 69.4271 13.8927 69.4271 8.94985C69.4271 4.00698 65.4387 0 60.5187 0C55.5987 0 51.6102 4.00698 51.6102 8.94985C51.6102 13.8927 55.5987 17.8997 60.5187 17.8997Z" fill="#EA483B"/>
<path d="M60.5187 11.6574C62.0071 11.6574 63.2137 10.4452 63.2137 8.94992C63.2137 7.45461 62.0071 6.24243 60.5187 6.24243C59.0303 6.24243 57.8237 7.45461 57.8237 8.94992C57.8237 10.4452 59.0303 11.6574 60.5187 11.6574Z" fill="#EA483B"/>
<path opacity="0.2" d="M46.9116 80.5264C49.6183 80.5264 51.8125 78.322 51.8125 75.6027C51.8125 72.8834 49.6183 70.679 46.9116 70.679C44.2048 70.679 42.0106 72.8834 42.0106 75.6027C42.0106 78.322 44.2048 80.5264 46.9116 80.5264Z" fill="#EA483B"/>
<path d="M46.9115 77.0914C47.7298 77.0914 48.3932 76.4249 48.3932 75.6028C48.3932 74.7807 47.7298 74.1143 46.9115 74.1143C46.0932 74.1143 45.4298 74.7807 45.4298 75.6028C45.4298 76.4249 46.0932 77.0914 46.9115 77.0914Z" fill="#EA483B"/>
<path opacity="0.2" d="M86.6191 36.5713C89.3258 36.5713 91.52 34.3669 91.52 31.6476C91.52 28.9283 89.3258 26.7239 86.6191 26.7239C83.9124 26.7239 81.7181 28.9283 81.7181 31.6476C81.7181 34.3669 83.9124 36.5713 86.6191 36.5713Z" fill="#EA483B"/>
<path d="M86.619 33.1363C87.4373 33.1363 88.1007 32.4699 88.1007 31.6477C88.1007 30.8256 87.4373 30.1592 86.619 30.1592C85.8007 30.1592 85.1373 30.8256 85.1373 31.6477C85.1373 32.4699 85.8007 33.1363 86.619 33.1363Z" fill="#EA483B"/>
</g>
<defs>
<linearGradient id="paint0_linear_125_2133" x1="10.1049" y1="52.7831" x2="64.749" y2="40.5656" gradientUnits="userSpaceOnUse">
<stop stop-color="#EA483B" stop-opacity="0"/>
<stop offset="1" stop-color="#EA483B"/>
</linearGradient>
<clipPath id="clip0_125_2133">
<rect width="79.04" height="104" fill="white" transform="translate(12.48)"/>
</clipPath>
</defs>
</svg>
