<svg width="128" height="40" viewBox="0 0 128 40" fill="none" xmlns="http://www.w3.org/2000/svg">
<g clip-path="url(#clip0_2022_3795)">
<path fill-rule="evenodd" clip-rule="evenodd" d="M38.8836 19.8343C36.1384 18.2708 30.7899 15.2245 30.7687 15.105C30.755 15.0326 30.7412 14.9573 30.7268 14.8794L30.7266 14.8779C30.5105 13.7041 30.1889 11.9568 28.9344 11.0249C28.0518 10.375 23.2814 8.16864 21.0913 7.15566C20.4226 6.84639 19.9945 6.64836 19.9909 6.63982C18.5591 4.52172 17.2903 2.30232 16.1949 0C15.1547 0.766234 14.3087 1.75652 13.7224 2.89415C13.136 4.03179 12.8251 5.28625 12.8137 6.56037C8.99377 7.09617 5.40853 8.68487 2.47691 11.1408C10.0798 9.43577 12.2695 11.0077 12.2695 11.0077C9.7804 11.4416 7.38188 12.2761 5.17137 13.4772C1.93056 15.2209 0.469238 17.3147 0.469238 17.3147C0.469238 17.3147 7.82852 15.2553 13.4763 17.2588C10.8426 17.6224 8.3944 18.7938 6.48349 20.6045C18.1894 22.0239 23.9623 31.9665 26.3913 40C27.2843 25.7111 20.015 20.2845 20.015 20.2845C22.1258 20.4327 24.7808 22.039 26.4791 24.4291C31.5931 23.8649 34.4686 25.3722 34.5159 25.4097C34.5235 25.4042 34.6404 25.3662 34.8385 25.3019C35.6352 25.0432 37.7442 24.3584 39.3304 23.6431C39.157 23.3876 38.4286 22.5007 38.0139 22.0046C38.0709 22.0089 39.6639 21.9166 40.4692 20.7419C40.4771 20.7419 39.8376 20.3777 38.8836 19.8343ZM24.3496 14.4049C24.7274 14.3056 26.9966 13.7089 27.6749 13.9604C28.3331 14.203 28.3463 16.0369 28.3463 16.0369C28.3463 16.0369 26.8433 16.2431 24.3002 14.4178L24.3133 14.4145L24.3484 14.4052L24.3496 14.4049Z" fill="white"/>
<path fill-rule="evenodd" clip-rule="evenodd" d="M53.5991 5.36128C51.0475 5.36128 48.4692 7.11923 48.4692 10.4571C48.4692 13.795 51.0431 15.5332 53.5857 15.5332C56.1283 15.5332 58.7021 13.7906 58.7021 10.4571C58.7021 7.12362 56.1327 5.36128 53.5991 5.36128ZM53.5812 13.5489C52.1761 13.5489 50.7531 12.4942 50.7531 10.4725C50.7531 8.41791 52.185 7.34336 53.5991 7.34336C55.254 7.34336 56.4093 8.61568 56.4093 10.4374C56.4093 12.481 54.9863 13.5489 53.5812 13.5489Z" fill="white"/>
<path fill-rule="evenodd" clip-rule="evenodd" d="M103.747 10.4571C103.747 7.11923 106.325 5.36128 108.876 5.36128C111.41 5.36128 113.977 7.12362 113.977 10.4571C113.977 13.7906 111.406 15.5332 108.863 15.5332C106.32 15.5332 103.747 13.795 103.747 10.4571ZM106.03 10.4725C106.03 12.4942 107.451 13.5489 108.859 13.5489C110.264 13.5489 111.684 12.481 111.684 10.4374C111.684 8.61568 110.529 7.34336 108.876 7.34336C107.462 7.34336 106.03 8.41791 106.03 10.4725Z" fill="white"/>
<path d="M64.5741 15.4981H64.021L63.9831 15.4234L59.0696 5.61626H61.6323L64.3243 11.6021L67.0186 5.61626H69.5233L64.5741 15.4981Z" fill="white"/>
<path fill-rule="evenodd" clip-rule="evenodd" d="M69.8782 10.4395C69.8782 13.5335 71.8499 15.5332 74.9032 15.5332C76.6451 15.5332 77.9454 15.0102 78.9848 13.8785L79.0651 13.7906L77.8317 12.3249L77.7268 12.4282C77.3836 12.7867 76.9684 13.071 76.5076 13.2628C76.0468 13.4546 75.5506 13.5498 75.0504 13.5423C73.3888 13.5423 72.4074 12.6897 72.1844 11.0724H79.4688V10.4154C79.4688 7.33897 77.6666 5.36128 74.8095 5.36128C71.9524 5.36128 69.8782 7.49718 69.8782 10.4395ZM77.1581 9.43752H72.2268C72.5257 8.10587 73.4802 7.25547 74.7872 7.25547C76.0942 7.25547 76.9529 8.04874 77.1581 9.43752Z" fill="white"/>
<path d="M99.2164 15.4982H98.6476L96.1586 9.56735L93.6695 15.4982H93.0807L89.0727 5.61636H91.5127L93.5312 11.1121L95.882 5.56143H96.4686L98.8729 11.1121L100.838 5.61636H103.262L99.2164 15.4982Z" fill="white"/>
<path d="M87.1706 5.63179H87.2665C87.2665 5.63179 87.7103 7.2557 87.8865 7.95228C87.1215 7.7655 85.964 7.98744 85.1276 8.47087C84.2243 8.99386 83.7269 9.75857 83.7269 10.7057V15.2983H81.4966V5.61421H83.6511L83.6979 7.44028C84.0688 6.86889 84.5837 6.40195 85.1923 6.085C85.8009 5.76805 86.4825 5.6119 87.1706 5.63179Z" fill="white"/>
<path d="M123.621 15.2983H121.391V7.54353H119.41L119.921 5.61419H121.391V5.08241C121.391 2.81905 122.707 1.46763 124.915 1.46763C125.814 1.45272 126.694 1.71975 127.428 2.23014L127.531 2.30266L126.541 3.95952L126.416 3.85844C126.039 3.53665 125.556 3.36227 125.058 3.36841C124.145 3.36841 123.621 3.96172 123.621 4.99891V5.62078H126.842V7.55013H123.621V15.2983Z" fill="white"/>
<path d="M115.735 15.2982H117.965V1.70269H115.735V15.2982Z" fill="white"/>
<path d="M55.7292 23.8132C57.9292 23.8132 59.4892 25.3532 59.4892 28.3532V34.5332H57.3492V28.6132C57.3492 26.6932 56.4692 25.8132 54.9692 25.8132C53.5292 25.8132 52.2692 26.7332 52.2692 29.0132V34.5332H50.1292V24.0932H52.1892L52.2492 25.6932C53.0292 24.4332 54.2092 23.8132 55.7292 23.8132ZM68.9306 34.5332C68.8506 34.0132 68.7706 33.5332 68.7106 33.0332C68.0306 34.1332 66.8706 34.7532 65.3906 34.7532C63.2306 34.7532 61.7106 33.5932 61.7106 31.5332C61.7106 29.5132 63.3906 28.2132 66.2706 28.2132C67.2506 28.2132 68.0106 28.3532 68.6306 28.5132V27.9932C68.6306 26.5132 67.6706 25.6532 66.0906 25.6532C64.8706 25.6532 63.9706 26.0532 63.1506 26.6332L62.3106 25.0332C63.3706 24.3132 64.6506 23.8332 66.2306 23.8332C68.9706 23.8332 70.6706 25.3532 70.6706 27.9732V31.5332C70.6706 32.6732 70.7706 33.7132 70.8906 34.5332H68.9306ZM65.8506 33.0532C67.4706 33.0532 68.6106 32.0932 68.6306 30.4532V29.9932C68.0306 29.8132 67.3506 29.7132 66.5106 29.7132C64.6306 29.7132 63.8106 30.4332 63.8106 31.4932C63.8106 32.4132 64.5506 33.0532 65.8506 33.0532ZM80.2514 33.8532C79.4514 34.4532 78.5514 34.7932 77.4914 34.7932C75.5514 34.7932 74.0714 33.8132 74.0714 31.3132V25.9332H71.9514L72.4314 24.0932H74.0714V21.2132H76.2114V24.0932H80.0514V25.9332H76.2114V31.2932C76.2114 32.3532 76.8314 32.8532 77.7114 32.8532C78.3714 32.8532 78.8514 32.6532 79.4114 32.2332L80.2514 33.8532ZM83.5335 22.1332C82.7135 22.1332 82.1335 21.5932 82.1335 20.8332C82.1335 20.0732 82.7135 19.5332 83.5335 19.5332C84.3335 19.5332 84.9335 20.0732 84.9335 20.8332C84.9335 21.5932 84.3335 22.1332 83.5335 22.1332ZM82.4535 24.0932H84.5935V34.5332H82.4535V24.0932ZM97.2817 24.0932L92.0017 34.7532H91.5817L86.3217 24.0932H88.7817L91.8417 30.9532L94.8617 24.0932H97.2817ZM108.261 29.2732C108.261 29.4732 108.241 29.6532 108.241 29.8532H100.281C100.481 31.8532 101.681 32.8932 103.581 32.8932C104.741 32.8932 105.681 32.5332 106.621 31.6132L107.781 33.0132C106.641 34.2532 105.241 34.7932 103.421 34.7932C100.241 34.7932 98.0806 32.7332 98.0806 29.2932C98.0806 25.9332 100.461 23.8132 103.321 23.8132C106.221 23.8132 108.261 25.8132 108.261 29.2732ZM103.301 25.6132C101.761 25.6132 100.601 26.6932 100.321 28.3332H106.041C105.861 26.6932 104.901 25.6132 103.301 25.6132Z" fill="#D34037"/>
</g>
<defs>
<clipPath id="clip0_2022_3795">
<rect width="127.062" height="40" fill="white" transform="translate(0.469238)"/>
</clipPath>
</defs>
</svg>
