<svg width="193" height="40" viewBox="0 0 193 40" fill="none" xmlns="http://www.w3.org/2000/svg">
<g clip-path="url(#clip0_1887_21662)">
<path fill-rule="evenodd" clip-rule="evenodd" d="M38.4143 19.8343L38.4136 19.8339C35.6684 18.2704 30.3206 15.2245 30.2994 15.105C30.2858 15.0326 30.2719 14.9573 30.2576 14.8794L30.2573 14.8779C30.0413 13.7041 29.7196 11.9568 28.4651 11.0249C27.5826 10.375 22.8122 8.16864 20.622 7.15566C19.9534 6.84639 19.5252 6.64836 19.5216 6.63982C18.0899 4.52172 16.821 2.30232 15.7257 0C14.6855 0.766234 13.8395 1.75652 13.2531 2.89415C12.6668 4.03179 12.3559 5.28625 12.3445 6.56037C8.52453 7.09617 4.93929 8.68487 2.00767 11.1408C9.61051 9.43577 11.8003 11.0077 11.8003 11.0077C9.31116 11.4416 6.91264 12.2761 4.70213 13.4772C1.46132 15.2209 0 17.3147 0 17.3147C0 17.3147 7.35928 15.2553 13.0071 17.2588C10.3734 17.6224 7.92517 18.7938 6.01425 20.6045C17.7202 22.0239 23.4931 31.9665 25.9221 40C26.8151 25.7111 19.5458 20.2845 19.5458 20.2845C21.6566 20.4327 24.3115 22.039 26.0098 24.4291C31.1238 23.8649 33.9993 25.3722 34.0467 25.4097C34.046 25.4102 34.0462 25.4104 34.0471 25.4104C34.0474 25.4104 34.0473 25.4102 34.0467 25.4097C34.0543 25.4042 34.1712 25.3662 34.3692 25.3019C35.166 25.0432 37.275 24.3584 38.8611 23.6431C38.6878 23.3876 37.9593 22.5007 37.5446 22.0046C37.6017 22.0089 39.1947 21.9166 39.9999 20.7419C40.0079 20.7419 39.3683 20.3777 38.4143 19.8343ZM23.8804 14.4049C24.2582 14.3056 26.5273 13.7089 27.2057 13.9604C27.8639 14.203 27.8771 16.0369 27.8771 16.0369C27.8771 16.0369 26.3741 16.2431 23.831 14.4178L23.844 14.4145L23.8792 14.4052L23.8804 14.4049Z" fill="white"/>
<path fill-rule="evenodd" clip-rule="evenodd" d="M54.0704 15.793C51.5189 15.793 48.9406 17.551 48.9406 20.8889C48.9406 24.2268 51.5145 25.9649 54.0571 25.9649C56.5997 25.9649 59.1735 24.2224 59.1735 20.8889C59.1735 17.5554 56.6041 15.793 54.0704 15.793ZM54.0526 23.9807C52.6475 23.9807 51.2245 22.9259 51.2245 20.9043C51.2245 18.8496 52.6564 17.7751 54.0704 17.7751C55.7254 17.7751 56.8807 19.0474 56.8807 20.8691C56.8807 22.9127 55.4577 23.9807 54.0526 23.9807Z" fill="white"/>
<path fill-rule="evenodd" clip-rule="evenodd" d="M104.218 20.8889C104.218 17.551 106.796 15.793 109.348 15.793C111.881 15.793 114.449 17.5554 114.449 20.8889C114.449 24.2224 111.877 25.9649 109.334 25.9649C106.792 25.9649 104.218 24.2268 104.218 20.8889ZM106.502 20.9043C106.502 22.9259 107.923 23.9807 109.33 23.9807C110.735 23.9807 112.156 22.9127 112.156 20.8691C112.156 19.0474 111 17.7751 109.348 17.7751C107.934 17.7751 106.502 18.8496 106.502 20.9043Z" fill="white"/>
<path d="M65.0455 25.9299H64.4924L64.4545 25.8552L59.541 16.048H62.1037L64.7957 22.0338L67.49 16.048H69.9947L65.0455 25.9299Z" fill="white"/>
<path fill-rule="evenodd" clip-rule="evenodd" d="M70.3496 20.8713C70.3496 23.9653 72.3212 25.9649 75.3746 25.9649C77.1165 25.9649 78.4168 25.442 79.4561 24.3103L79.5364 24.2224L78.3031 22.7567L78.1982 22.86C77.855 23.2185 77.4398 23.5027 76.979 23.6945C76.5182 23.8863 76.022 23.9815 75.5218 23.9741C73.8602 23.9741 72.8788 23.1215 72.6558 21.5041H79.9401V20.8471C79.9401 17.7707 78.138 15.793 75.2809 15.793C72.4238 15.793 70.3496 17.9289 70.3496 20.8713ZM77.6295 19.8693H72.6982C72.997 18.5376 73.9516 17.6872 75.2586 17.6872C76.5656 17.6872 77.4243 18.4805 77.6295 19.8693Z" fill="white"/>
<path d="M99.6878 25.93H99.119L96.63 19.9991L94.1409 25.93H93.5521L89.5441 16.0481H91.9841L94.0026 21.5439L96.3534 15.9932H96.94L99.3443 21.5439L101.309 16.0481H103.734L99.6878 25.93Z" fill="white"/>
<path d="M87.642 16.0635H87.7379C87.7379 16.0635 88.1817 17.6874 88.3579 18.384C87.5929 18.1972 86.4353 18.4192 85.599 18.9026C84.6957 19.4256 84.1983 20.1903 84.1983 21.1374V25.73H81.968V16.0459H84.1225L84.1693 17.872C84.5402 17.3006 85.0551 16.8337 85.6637 16.5167C86.2723 16.1998 86.9539 16.0436 87.642 16.0635Z" fill="white"/>
<path d="M124.093 25.73H121.862V17.9753H119.882L120.392 16.0459H121.862V15.5141C121.862 13.2508 123.178 11.8994 125.386 11.8994C126.285 11.8845 127.165 12.1515 127.9 12.6619L128.002 12.7344L127.012 14.3913L126.887 14.2902C126.511 13.9684 126.027 13.794 125.529 13.8001C124.617 13.8001 124.093 14.3935 124.093 15.4306V16.0525H127.313V17.9819H124.093V25.73Z" fill="white"/>
<path d="M116.206 25.7299H118.437V12.1344H116.206V25.7299Z" fill="white"/>
</g>
<path d="M139.262 15.28C141.462 15.28 143.022 16.82 143.022 19.82V26H140.882V20.08C140.882 18.16 140.002 17.28 138.502 17.28C137.062 17.28 135.802 18.2 135.802 20.48V26H133.662V15.56H135.722L135.782 17.16C136.562 15.9 137.742 15.28 139.262 15.28ZM152.464 26C152.384 25.48 152.304 25 152.244 24.5C151.564 25.6 150.404 26.22 148.924 26.22C146.764 26.22 145.244 25.06 145.244 23C145.244 20.98 146.924 19.68 149.804 19.68C150.784 19.68 151.544 19.82 152.164 19.98V19.46C152.164 17.98 151.204 17.12 149.624 17.12C148.404 17.12 147.504 17.52 146.684 18.1L145.844 16.5C146.904 15.78 148.184 15.3 149.764 15.3C152.504 15.3 154.204 16.82 154.204 19.44V23C154.204 24.14 154.304 25.18 154.424 26H152.464ZM149.384 24.52C151.004 24.52 152.144 23.56 152.164 21.92V21.46C151.564 21.28 150.884 21.18 150.044 21.18C148.164 21.18 147.344 21.9 147.344 22.96C147.344 23.88 148.084 24.52 149.384 24.52ZM163.785 25.32C162.985 25.92 162.085 26.26 161.025 26.26C159.085 26.26 157.605 25.28 157.605 22.78V17.4H155.485L155.965 15.56H157.605V12.68H159.745V15.56H163.585V17.4H159.745V22.76C159.745 23.82 160.365 24.32 161.245 24.32C161.905 24.32 162.385 24.12 162.945 23.7L163.785 25.32ZM167.067 13.6C166.247 13.6 165.667 13.06 165.667 12.3C165.667 11.54 166.247 11 167.067 11C167.867 11 168.467 11.54 168.467 12.3C168.467 13.06 167.867 13.6 167.067 13.6ZM165.987 15.56H168.127V26H165.987V15.56ZM180.815 15.56L175.535 26.22H175.115L169.855 15.56H172.315L175.375 22.42L178.395 15.56H180.815ZM191.794 20.74C191.794 20.94 191.774 21.12 191.774 21.32H183.814C184.014 23.32 185.214 24.36 187.114 24.36C188.274 24.36 189.214 24 190.154 23.08L191.314 24.48C190.174 25.72 188.774 26.26 186.954 26.26C183.774 26.26 181.614 24.2 181.614 20.76C181.614 17.4 183.994 15.28 186.854 15.28C189.754 15.28 191.794 17.28 191.794 20.74ZM186.834 17.08C185.294 17.08 184.134 18.16 183.854 19.8H189.574C189.394 18.16 188.434 17.08 186.834 17.08Z" fill="#D34037"/>
<defs>
<clipPath id="clip0_1887_21662">
<rect width="128.002" height="40" fill="white"/>
</clipPath>
</defs>
</svg>
