<svg width="48" height="48" viewBox="0 0 48 48" fill="none" xmlns="http://www.w3.org/2000/svg">
<path fill-rule="evenodd" clip-rule="evenodd" d="M36.3753 16.4294C37.1602 20.5731 34.457 26.193 30.8119 27.755C37.5088 19.3487 34.9954 3.66965 25.6556 0C28.8406 4.71387 27.4845 8.46922 24.6736 11.5214C25.7359 8.93449 25.8016 6.09742 23.9234 3.09244C23.6003 13.0432 9.29387 15.2628 9.03833 29.9116C9.02008 30.1303 9.0073 30.3472 9 30.5693C9 31.234 9.04381 31.8899 9.13324 32.5318C10.1755 40.1282 17.1754 46 25.6556 46C17.2758 43.9081 11.6229 36.9956 13.2985 28.278C13.0904 33.2192 16.2153 39.6577 21.0267 41.8021C33.3253 47.2786 48.9058 32.7452 36.3753 16.4294Z" fill="url(#paint0_linear_521_4050)"/>
<path d="M5 23.3683C7.51685 23.1038 9.62775 22.3087 11.2846 21.0355L9.80516 19.8721L8.19643 20.5711L8.1859 20.5606L9.43531 19.3115H8.41744V16.4782H11.2515V17.4958L12.5325 16.2151L12.543 16.2256L11.9191 17.6626L11.9627 17.619L13.167 19.1552C14.3833 17.5378 15.0914 15.4275 15.3726 13C19.4952 14.3378 22.636 18.9417 22.6119 23.3804L20.5356 23.663C19.6861 19.9248 17.1031 19.806 15.0418 21.0882L38.8466 44.4958L39 47L36.4952 46.8467L13.1324 22.8964C11.6755 24.9737 11.65 27.7078 15.5831 28.6126L15.2914 30.6974C10.8516 30.6734 6.29601 27.5034 5 23.3683Z" fill="url(#paint1_linear_521_4050)"/>
<path d="M42.1922 17.4896L39.9358 19.8923C39.8287 20.0056 39.6679 20.0556 39.5146 20.0203L37.7122 19.6128C37.5589 19.5775 37.4354 19.4656 37.3892 19.317L36.8445 17.5706C36.7983 17.422 36.8355 17.2601 36.9427 17.1468L39.2006 14.7427C39.4506 14.4764 39.2809 14.0409 38.9148 14.0129C37.6169 13.9143 36.2863 14.3807 35.3308 15.396C34.1356 16.6672 33.8618 18.4504 34.4601 19.9659C35.048 21.0841 35.6612 22.2597 35.6538 22.27C35.0301 21.7462 34.3916 21.3357 33.7442 21.0149L16.4835 40.9602C15.5205 40.8189 14.5129 41.1294 13.8059 41.8797C12.6598 43.098 12.7462 45.021 14.0009 46.1731C15.2556 47.3236 17.2009 47.2663 18.3469 46.0465C19.0509 45.2976 19.2891 44.2824 19.0762 43.3437C19.0762 43.3437 19.1164 43.0259 17.9451 40.276C18.8053 40.7027 19.6091 41.2412 20.3622 41.8577L37.1109 22.5039C38.7213 23.0601 40.5833 22.6672 41.8186 21.3533C42.7727 20.3352 43.1448 18.9904 42.9498 17.7162C42.8947 17.3572 42.4423 17.2219 42.1922 17.4882V17.4896ZM17.6474 43.8955C17.6786 44.7474 17.0074 45.4624 16.1456 45.4933C15.2838 45.5242 14.5605 44.8606 14.5292 44.0088C14.498 43.1569 15.1692 42.4418 16.031 42.4109C16.8928 42.38 17.6161 43.0436 17.6474 43.8955Z" fill="white"/>
<path d="M21.5052 37.6321L21.1837 38.0146L21.8476 37.2657L33.6921 24.2828L34.5866 24.1136L34.475 22.9954L33.3929 23.0307L33.2798 23.8517L26.4005 32.0263" fill="black"/>
<path opacity="0.2" d="M4.5 35C5.32843 35 6 34.3284 6 33.5C6 32.6716 5.32843 32 4.5 32C3.67157 32 3 32.6716 3 33.5C3 34.3284 3.67157 35 4.5 35Z" fill="#EA483B"/>
<path d="M4.5 34C4.77614 34 5 33.7761 5 33.5C5 33.2239 4.77614 33 4.5 33C4.22386 33 4 33.2239 4 33.5C4 33.7761 4.22386 34 4.5 34Z" fill="#EA483B"/>
<path opacity="0.2" d="M41 11C42.1046 11 43 10.1046 43 9C43 7.89543 42.1046 7 41 7C39.8954 7 39 7.89543 39 9C39 10.1046 39.8954 11 41 11Z" fill="#EA483B"/>
<path d="M41 9.69999C41.3866 9.69999 41.7 9.38659 41.7 8.99999C41.7 8.61339 41.3866 8.29999 41 8.29999C40.6134 8.29999 40.3 8.61339 40.3 8.99999C40.3 9.38659 40.6134 9.69999 41 9.69999Z" fill="#EA483B"/>
<path opacity="0.2" d="M16 7C17.6569 7 19 5.65685 19 4C19 2.34315 17.6569 1 16 1C14.3431 1 13 2.34315 13 4C13 5.65685 14.3431 7 16 7Z" fill="#EA483B"/>
<path d="M16 5C16.5523 5 17 4.55228 17 4C17 3.44772 16.5523 3 16 3C15.4477 3 15 3.44772 15 4C15 4.55228 15.4477 5 16 5Z" fill="#EA483B"/>
<defs>
<linearGradient id="paint0_linear_521_4050" x1="25.0003" y1="2.49904e-08" x2="26.7037" y2="53.8205" gradientUnits="userSpaceOnUse">
<stop stop-color="#EA483B"/>
<stop offset="0.880208" stop-color="#1A1A1A" stop-opacity="0"/>
</linearGradient>
<linearGradient id="paint1_linear_521_4050" x1="15.2478" y1="23.2045" x2="39.7455" y2="46.772" gradientUnits="userSpaceOnUse">
<stop stop-color="#EA483B"/>
<stop offset="0.11" stop-color="#D74236"/>
<stop offset="0.34" stop-color="#A7332A"/>
<stop offset="0.65" stop-color="#5A1B16"/>
<stop offset="1"/>
</linearGradient>
</defs>
</svg>
