<svg width="48" height="48" viewBox="0 0 48 48" fill="none" xmlns="http://www.w3.org/2000/svg"><path d="M39 37l-11 4-1-10 5.565-4.082a3.848 3.848 0 001.048-2.654c0-2.096-1.646-3.796-3.676-3.796a3.61 3.61 0 00-2.657 1.174L24 25.14V4.117C42.614 12.278 38.839 24.29 36.74 30.97c-.065.203-.127.402-.187.595L39 37z" fill="#6C5C99"/><path d="M24 25.14V4.117l3.28 17.525L24 25.14z" fill="#B2A1E6"/><circle r="1.5" transform="matrix(-1 0 0 1 29.5 16.215)" fill="#F4F2FF"/><circle r="1.5" transform="matrix(-1 0 0 1 33.5 16.215)" fill="#F4F2FF"/><path d="M9 37l11 4 1-10-5.565-4.082a3.848 3.848 0 01-1.048-2.654c0-2.096 1.646-3.796 3.676-3.796a3.61 3.61 0 012.657 1.174L24 25.14V4.117C5.386 12.278 9.161 24.29 11.26 30.97c.065.203.127.402.187.595L9 37z" fill="#6C5C99"/><path d="M24 25.14V4.117l-3.28 17.525L24 25.14z" fill="#B2A1E6"/><circle cx="18.5" cy="16.215" r="1.5" fill="#F4F2FF"/><circle cx="14.5" cy="16.215" r="1.5" fill="#F4F2FF"/></svg>