<svg width="48" height="48" viewBox="0 0 48 48" fill="none" xmlns="http://www.w3.org/2000/svg">
<path d="M39 37L28 41L27 31L32.5652 26.9177C33.2132 26.2334 33.6127 25.2969 33.6127 24.264C33.6127 22.1677 31.9671 20.4683 29.9372 20.4683C28.8921 20.4683 27.9488 20.9188 27.2796 21.642L24 25.14V4.11719C42.6142 12.2782 38.8389 24.2894 36.7392 30.9694C36.6754 31.1724 36.613 31.3708 36.553 31.5636L39 37Z" fill="#6C5C99"/>
<path d="M24 25.14V4.11719L27.2797 21.642L24 25.14Z" fill="#B2A1E6"/>
<circle r="1.5" transform="matrix(-1 0 0 1 29.5 16.2148)" fill="#F4F2FF"/>
<circle r="1.5" transform="matrix(-1 0 0 1 33.5 16.2148)" fill="#F4F2FF"/>
<path d="M9 37L20 41L21 31L15.4348 26.9177C14.7868 26.2334 14.3873 25.2969 14.3873 24.264C14.3873 22.1677 16.0329 20.4683 18.0628 20.4683C19.1079 20.4683 20.0512 20.9188 20.7204 21.642L24 25.14V4.11719C5.38578 12.2782 9.16113 24.2894 11.2608 30.9694C11.3246 31.1724 11.387 31.3708 11.447 31.5636L9 37Z" fill="#6C5C99"/>
<path d="M24 25.14V4.11719L20.7203 21.642L24 25.14Z" fill="#B2A1E6"/>
<circle cx="18.5" cy="16.2148" r="1.5" fill="#F4F2FF"/>
<circle cx="14.5" cy="16.2148" r="1.5" fill="#F4F2FF"/>
</svg>
