<svg width="136" height="74" viewBox="0 0 136 74" fill="none" xmlns="http://www.w3.org/2000/svg">
<g clip-path="url(#clip0_749_8331)">
<rect width="136" height="4" fill="#B2B2B2"/>
<rect width="136" height="70" transform="translate(0 4)" fill="white"/>
<rect width="18" height="68" transform="translate(1 5)" fill="#D34037"/>
<path fill-rule="evenodd" clip-rule="evenodd" d="M10.0007 45.6666C13.6826 45.6666 16.6673 42.6818 16.6673 38.9999C16.6673 35.318 13.6826 32.3333 10.0007 32.3333C6.31875 32.3333 3.33398 35.318 3.33398 38.9999C3.33398 42.6818 6.31875 45.6666 10.0007 45.6666ZM10.6676 34.3332H9.33431V35.6665C8.22974 35.6665 7.33431 36.562 7.33431 37.6665C7.33431 38.7711 8.22974 39.6665 9.33431 39.6665H9.66764H10.6676C11.0358 39.6665 11.3343 39.965 11.3343 40.3332C11.3343 40.7014 11.0358 40.9999 10.6676 40.9999H10.3343H9.33431C8.96612 40.9999 8.66764 40.7014 8.66764 40.3332H7.33431C7.33431 41.4378 8.22974 42.3332 9.33431 42.3332V43.6665H10.6676L10.6676 42.3332C11.7722 42.3332 12.6676 41.4378 12.6676 40.3332C12.6676 39.2286 11.7722 38.3332 10.6676 38.3332H9.66764H9.33431C8.96612 38.3332 8.66764 38.0347 8.66764 37.6665C8.66764 37.2984 8.96612 36.9999 9.33431 36.9999H10.3343C10.7025 36.9999 11.001 37.2984 11.001 37.6665H12.3343C12.3343 36.6755 11.6135 35.8529 10.6676 35.6942V34.3332Z" fill="white"/>
<rect width="34" height="28" transform="translate(101 45)" fill="#D34037"/>
<path fill-rule="evenodd" clip-rule="evenodd" d="M118.001 65.6666C121.683 65.6666 124.667 62.6818 124.667 58.9999C124.667 55.318 121.683 52.3333 118.001 52.3333C114.319 52.3333 111.334 55.318 111.334 58.9999C111.334 62.6818 114.319 65.6666 118.001 65.6666ZM118.668 54.3332H117.334V55.6665C116.23 55.6665 115.334 56.562 115.334 57.6665C115.334 58.7711 116.23 59.6665 117.334 59.6665H117.668H118.668C119.036 59.6665 119.334 59.965 119.334 60.3332C119.334 60.7014 119.036 60.9999 118.668 60.9999H118.334H117.334C116.966 60.9999 116.668 60.7014 116.668 60.3332H115.334C115.334 61.4378 116.23 62.3332 117.334 62.3332V63.6665H118.668L118.668 62.3332C119.772 62.3332 120.668 61.4378 120.668 60.3332C120.668 59.2286 119.772 58.3332 118.668 58.3332H117.668H117.334C116.966 58.3332 116.668 58.0347 116.668 57.6665C116.668 57.2984 116.966 56.9999 117.334 56.9999H118.334C118.702 56.9999 119.001 57.2984 119.001 57.6665H120.334C120.334 56.6755 119.614 55.8529 118.668 55.6942V54.3332Z" fill="white"/>
<path fill-rule="evenodd" clip-rule="evenodd" d="M53 22L49 20V36H53V22ZM71 24L67 22V36H71V24ZM61 26L65 28V36H61V26ZM59 22L55 20V36H59V22Z" fill="#B2B2B2"/>
<path d="M49 54H71L68 50L65 51L62 47L55 50L49 44V54Z" fill="#B2B2B2"/>
</g>
<defs>
<clipPath id="clip0_749_8331">
<rect width="136" height="74" fill="white"/>
</clipPath>
</defs>
</svg>
