<svg width="80" height="15" viewBox="0 0 80 15" fill="none" xmlns="http://www.w3.org/2000/svg">
<g id="Vector">
<path fill-rule="evenodd" clip-rule="evenodd" d="M6.06927 4.4958C3.51774 4.4958 0.939453 6.25375 0.939453 9.59165C0.939453 12.9296 3.51328 14.6677 6.05589 14.6677C8.59849 14.6677 11.1723 12.9252 11.1723 9.59165C11.1723 6.25814 8.60295 4.4958 6.06927 4.4958ZM6.05142 12.6834C4.6463 12.6834 3.22333 11.6287 3.22333 9.60703C3.22333 7.55243 4.65522 6.47788 6.06927 6.47788C7.72419 6.47788 8.8795 7.7502 8.8795 9.57187C8.8795 11.6155 7.45654 12.6834 6.05142 12.6834Z" fill="white"/>
<path fill-rule="evenodd" clip-rule="evenodd" d="M56.2168 9.59165C56.2168 6.25375 58.7951 4.4958 61.3466 4.4958C63.8803 4.4958 66.4474 6.25814 66.4474 9.59165C66.4474 12.9252 63.8758 14.6677 61.3332 14.6677C58.7906 14.6677 56.2168 12.9296 56.2168 9.59165ZM58.5007 9.60703C58.5007 11.6287 59.9214 12.6834 61.3288 12.6834C62.7339 12.6834 64.1546 11.6155 64.1546 9.57187C64.1546 7.7502 62.9993 6.47788 61.3466 6.47788C59.9326 6.47788 58.5007 7.55243 58.5007 9.60703Z" fill="white"/>
<path d="M17.0444 14.6326H16.4912L16.4533 14.5579L11.5398 4.75078H14.1025L16.7945 10.7366L19.4888 4.75078H21.9935L17.0444 14.6326Z" fill="white"/>
<path fill-rule="evenodd" clip-rule="evenodd" d="M22.3484 9.57407C22.3484 12.6681 24.3201 14.6677 27.3734 14.6677C29.1153 14.6677 30.4156 14.1447 31.455 13.0131L31.5353 12.9252L30.3019 11.4595L30.1971 11.5627C29.8538 11.9213 29.4386 12.2055 28.9778 12.3973C28.5171 12.5891 28.0208 12.6843 27.5206 12.6768C25.859 12.6768 24.8777 11.8242 24.6546 10.2069H31.939V9.5499C31.939 6.47349 30.1368 4.4958 27.2797 4.4958C24.4227 4.4958 22.3484 6.6317 22.3484 9.57407ZM29.6283 8.57204H24.697C24.9959 7.24039 25.9505 6.38999 27.2574 6.38999C28.5644 6.38999 29.4231 7.18326 29.6283 8.57204Z" fill="white"/>
<path d="M51.6866 14.6327H51.1179L48.6288 8.70187L46.1397 14.6327H45.5509L41.543 4.75088H43.983L46.0014 10.2467L48.3522 4.69595H48.9388L51.3431 10.2467L53.3081 4.75088H55.7324L51.6866 14.6327Z" fill="white"/>
<path d="M39.6408 4.76631H39.7367C39.7367 4.76631 40.1805 6.39022 40.3567 7.0868C39.5917 6.90002 38.4342 7.12196 37.5978 7.6054C36.6945 8.12839 36.1971 8.8931 36.1971 9.84019V14.4328H33.9668V4.74873H36.1213L36.1681 6.5748C36.539 6.00341 37.0539 5.53647 37.6625 5.21952C38.2711 4.90257 38.9527 4.74642 39.6408 4.76631Z" fill="white"/>
<path d="M76.0914 14.4328H73.861V6.67806H71.8805L72.3912 4.74871H73.861V4.21693C73.861 1.95357 75.1769 0.602155 77.385 0.602155C78.2837 0.58724 79.164 0.854276 79.8986 1.36466L80.0012 1.43718L79.0109 3.09404L78.886 2.99296C78.5095 2.67117 78.0261 2.49679 77.5277 2.50293C76.6155 2.50293 76.0914 3.09624 76.0914 4.13343V4.7553H79.312V6.68465H76.0914V14.4328Z" fill="white"/>
<path d="M68.2051 14.4327H70.4354V0.837208H68.2051V14.4327Z" fill="white"/>
</g>
</svg>
