<svg width="201" height="123" viewBox="0 0 201 123" fill="none" xmlns="http://www.w3.org/2000/svg">
<mask id="path-2-inside-1" fill="white">
<rect x="104" y="27" width="97" height="56" rx="2"/>
</mask>
<rect x="104" y="27" width="97" height="56" rx="2" fill="#332E4D" stroke="#8E7CBF" stroke-width="8" mask="url(#path-2-inside-1)"/>
<rect x="142" y="85" width="20" height="8" fill="#403366"/>
<path d="M125 94.1107C125 93.4973 125.497 93 126.111 93H177.889C178.503 93 179 93.4973 179 94.1107V96H125V94.1107Z" fill="#8E7CBF"/>
<path d="M154.938 63.2309C139.333 52.3953 117.144 52.2663 108 53.5563V80H197V71.6154C189.482 73.3353 170.544 74.0664 154.938 63.2309Z" fill="#484266"/>
<rect x="120" y="38" width="65" height="34" rx="1" fill="#F4F2FF"/>
<path d="M124 43.4217V54.5C124 54.7761 124.224 55 124.5 55H163.5C163.776 55 164 54.7761 164 54.5V47.802C164 47.432 163.612 47.1902 163.28 47.3531L155.491 51.1723C155.325 51.2534 155.129 51.237 154.979 51.1298L149.507 47.2074C149.334 47.0832 149.101 47.0825 148.927 47.2055L143.46 51.0706C143.268 51.2067 143.007 51.1899 142.833 51.0302L136.017 44.7559C135.853 44.6045 135.608 44.5807 135.417 44.6975L129.593 48.2697C129.378 48.4013 129.099 48.3528 128.942 48.1564L124.89 43.1087C124.594 42.7404 124 42.9495 124 43.4217Z" fill="#E6004C"/>
<path d="M152 58C152 57.4477 152.448 57 153 57H163C163.552 57 164 57.4477 164 58V67C164 67.5523 163.552 68 163 68H153C152.448 68 152 67.5523 152 67V58Z" fill="#E6004C"/>
<rect x="160" y="62" width="2" height="4" fill="#F4F2FF"/>
<rect x="157" y="59" width="2" height="7" fill="#F4F2FF"/>
<rect x="154" y="61" width="2" height="5" fill="#F4F2FF"/>
<path d="M138 58C138 57.4477 138.448 57 139 57H149C149.552 57 150 57.4477 150 58V67C150 67.5523 149.552 68 149 68H139C138.448 68 138 67.5523 138 67V58Z" fill="#E6004C"/>
<rect x="146" y="60" width="2" height="6" fill="#F4F2FF"/>
<rect x="143" y="62" width="2" height="4" fill="#F4F2FF"/>
<rect x="140" y="59" width="2" height="7" fill="#F4F2FF"/>
<path d="M124 58C124 57.4477 124.448 57 125 57H135C135.552 57 136 57.4477 136 58V67C136 67.5523 135.552 68 135 68H125C124.448 68 124 67.5523 124 67V58Z" fill="#E6004C"/>
<rect x="132" y="60" width="2" height="6" fill="#F4F2FF"/>
<rect x="129" y="62" width="2" height="4" fill="#F4F2FF"/>
<rect x="126" y="59" width="2" height="7" fill="#F4F2FF"/>
<rect x="166" y="44" width="15.0856" height="24.1141" rx="1" fill="#E6004C"/>
<rect x="168" y="63" width="11" height="2" fill="#F4F2FF"/>
<rect x="168" y="59" width="11" height="2" fill="#F4F2FF"/>
<rect x="168" y="55" width="11" height="2" fill="#F4F2FF"/>
<rect x="168" y="51" width="11" height="2" fill="#F4F2FF"/>
<rect x="168" y="47" width="11" height="2" fill="#F4F2FF"/>
<mask id="path-26-inside-2" fill="white">
<rect y="27" width="97" height="56" rx="2"/>
</mask>
<rect y="27" width="97" height="56" rx="2" fill="#332E4D" stroke="#8E7CBF" stroke-width="8" mask="url(#path-26-inside-2)"/>
<path d="M8 75L89 75" stroke="#E6004C"/>
<rect x="38" y="85" width="20" height="8" fill="#403366"/>
<path d="M21 94.1107C21 93.4973 21.4973 93 22.1107 93H73.8893C74.5027 93 75 93.4973 75 94.1107V96H21V94.1107Z" fill="#8E7CBF"/>
<path fill-rule="evenodd" clip-rule="evenodd" d="M74 47H75V48H74V47ZM80 47H81V48H80V47ZM75 54.0002H74.0001V52.0069H73.0001V54.0002H72V51.0002H73.0001V50.0002H74.0001V49.0002H75.0001L75 48.0002H76V49.0002H79V48.0002H80.0001V49.0002H81L81.0001 50.0002H82.0001V51.0002H83.0001V54.0002H82.0213V52.0069H81.0001V54.0002H80.0001V53.0002H75.0001V54H77V55H75V54.0002ZM78 55V54H80V55H78ZM76 50.0002H75V51.0002H76V50.0002ZM79 49.9982H80V50.9982H79V49.9982Z" fill="#B2A1E6"/>
<path fill-rule="evenodd" clip-rule="evenodd" d="M60 47H61V48H60V47ZM66 47H67V48H66V47ZM61 54.0002H60.0001V52.0069H59.0001V54.0002H58V51.0002H59.0001V50.0002H60.0001V49.0002H61.0001L61 48.0002H62V49.0002H65V48.0002H66.0001V49.0002H67L67.0001 50.0002H68.0001V51.0002H69.0001V54.0002H68.0213V52.0069H67.0001V54.0002H66.0001V53.0002H61.0001V54H63V55H61V54.0002ZM64 55V54H66V55H64ZM62 50.0002H61V51.0002H62V50.0002ZM65 49.9982H66V50.9982H65V49.9982Z" fill="#B2A1E6"/>
<path fill-rule="evenodd" clip-rule="evenodd" d="M46 47H47V48H46V47ZM52 47H53V48H52V47ZM47 54.0002H46.0001V52.0069H45.0001V54.0002H44V51.0002H45.0001V50.0002H46.0001V49.0002H47.0001L47 48.0002H48V49.0002H51V48.0002H52.0001V49.0002H53L53.0001 50.0002H54.0001V51.0002H55.0001V54.0002H54.0213V52.0069H53.0001V54.0002H52.0001V53.0002H47.0001V54H49V55H47V54.0002ZM50 55V54H52V55H50ZM48 50.0002H47V51.0002H48V50.0002ZM51 49.9982H52V50.9982H51V49.9982Z" fill="#B2A1E6"/>
<path fill-rule="evenodd" clip-rule="evenodd" d="M32 47H33V48H32V47ZM38 47H39V48H38V47ZM33 54.0002H32.0001V52.0069H31.0001V54.0002H30V51.0002H31.0001V50.0002H32.0001V49.0002H33.0001L33 48.0002H34V49.0002H37V48.0002H38.0001V49.0002H39L39.0001 50.0002H40.0001V51.0002H41.0001V54.0002H40.0213V52.0069H39.0001V54.0002H38.0001V53.0002H33.0001V54H35V55H33V54.0002ZM36 55V54H38V55H36ZM34 50.0002H33V51.0002H34V50.0002ZM37 49.9982H38V50.9982H37V49.9982Z" fill="#B2A1E6"/>
<path fill-rule="evenodd" clip-rule="evenodd" d="M18 47H19V48H18V47ZM24 47H25V48H24V47ZM19 54.0002H18.0001V52.0069H17.0001V54.0002H16V51.0002H17.0001V50.0002H18.0001V49.0002H19.0001L19 48.0002H20V49.0002H23V48.0002H24.0001V49.0002H25L25.0001 50.0002H26.0001V51.0002H27.0001V54.0002H26.0213V52.0069H25.0001V54.0002H24.0001V53.0002H19.0001V54H21V55H19V54.0002ZM22 55V54H24V55H22ZM20 50.0002H19V51.0002H20V50.0002ZM23 49.9982H24V50.9982H23V49.9982Z" fill="#B2A1E6"/>
<path fill-rule="evenodd" clip-rule="evenodd" d="M74 36H75V37H74V36ZM80 36H81V37H80V36ZM75 43.0002H74.0001V41.0069H73.0001V43.0002H72V40.0002H73.0001V39.0002H74.0001V38.0002H75.0001L75 37.0002H76V38.0002H79V37.0002H80.0001V38.0002H81L81.0001 39.0002H82.0001V40.0002H83.0001V43.0002H82.0213V41.0069H81.0001V43.0002H80.0001V42.0002H75.0001V43H77V44H75V43.0002ZM78 44V43H80V44H78ZM76 39.0002H75V40.0002H76V39.0002ZM79 38.9982H80V39.9982H79V38.9982Z" fill="#B2A1E6"/>
<path fill-rule="evenodd" clip-rule="evenodd" d="M60 36H61V37H60V36ZM66 36H67V37H66V36ZM61 43.0002H60.0001V41.0069H59.0001V43.0002H58V40.0002H59.0001V39.0002H60.0001V38.0002H61.0001L61 37.0002H62V38.0002H65V37.0002H66.0001V38.0002H67L67.0001 39.0002H68.0001V40.0002H69.0001V43.0002H68.0213V41.0069H67.0001V43.0002H66.0001V42.0002H61.0001V43H63V44H61V43.0002ZM64 44V43H66V44H64ZM62 39.0002H61V40.0002H62V39.0002ZM65 38.9982H66V39.9982H65V38.9982Z" fill="#B2A1E6"/>
<path fill-rule="evenodd" clip-rule="evenodd" d="M46 36H47V37H46V36ZM52 36H53V37H52V36ZM47 43.0002H46.0001V41.0069H45.0001V43.0002H44V40.0002H45.0001V39.0002H46.0001V38.0002H47.0001L47 37.0002H48V38.0002H51V37.0002H52.0001V38.0002H53L53.0001 39.0002H54.0001V40.0002H55.0001V43.0002H54.0213V41.0069H53.0001V43.0002H52.0001V42.0002H47.0001V43H49V44H47V43.0002ZM50 44V43H52V44H50ZM48 39.0002H47V40.0002H48V39.0002ZM51 38.9982H52V39.9982H51V38.9982Z" fill="#B2A1E6"/>
<path fill-rule="evenodd" clip-rule="evenodd" d="M32 36H33V37H32V36ZM38 36H39V37H38V36ZM33 43.0002H32.0001V41.0069H31.0001V43.0002H30V40.0002H31.0001V39.0002H32.0001V38.0002H33.0001L33 37.0002H34V38.0002H37V37.0002H38.0001V38.0002H39L39.0001 39.0002H40.0001V40.0002H41.0001V43.0002H40.0213V41.0069H39.0001V43.0002H38.0001V42.0002H33.0001V43H35V44H33V43.0002ZM36 44V43H38V44H36ZM34 39.0002H33V40.0002H34V39.0002ZM37 38.9982H38V39.9982H37V38.9982Z" fill="#B2A1E6"/>
<path fill-rule="evenodd" clip-rule="evenodd" d="M18 36H19V37H18V36ZM24 36H25V37H24V36ZM19 43.0002H18.0001V41.0069H17.0001V43.0002H16V40.0002H17.0001V39.0002H18.0001V38.0002H19.0001L19 37.0002H20V38.0002H23V37.0002H24.0001V38.0002H25L25.0001 39.0002H26.0001V40.0002H27.0001V43.0002H26.0213V41.0069H25.0001V43.0002H24.0001V42.0002H19.0001V43H21V44H19V43.0002ZM22 44V43H24V44H22ZM20 39.0002H19V40.0002H20V39.0002ZM23 38.9982H24V39.9982H23V38.9982Z" fill="#B2A1E6"/>
<rect x="44" y="68" width="11" height="3" fill="#B2A1E6"/>
<rect x="48" y="65" width="3" height="3" fill="#B2A1E6"/>
<rect x="49" y="57" width="1" height="2" fill="#E6004C"/>
<rect x="49" y="61" width="1" height="2" fill="#E6004C"/>
</svg>
