<svg width="241" height="104" viewBox="0 0 241 104" fill="none" xmlns="http://www.w3.org/2000/svg">
<path d="M136.5 98V94L104.5 88V98H99.5V104H141.5V98H136.5Z" fill="white"/>
<path d="M172.5 28H68.5V84H172.5V28Z" fill="url(#paint0_linear_443_4771)"/>
<path d="M106.5 36H76.5V76H106.5V36Z" fill="white"/>
<path opacity="0.2" d="M101.5 39.5C101.5 40.3284 102.172 41 103 41C103.828 41 104.5 40.3284 104.5 39.5C104.5 38.6716 103.828 38 103 38C102.172 38 101.5 38.6716 101.5 39.5Z" fill="#EA483B"/>
<path d="M102.5 39.5C102.5 39.7761 102.724 40 103 40C103.276 40 103.5 39.7761 103.5 39.5C103.5 39.2239 103.276 39 103 39C102.724 39 102.5 39.2239 102.5 39.5Z" fill="#EA483B"/>
<path opacity="0.2" d="M97.5 39.5C97.5 40.3284 98.1716 41 99 41C99.8284 41 100.5 40.3284 100.5 39.5C100.5 38.6716 99.8284 38 99 38C98.1716 38 97.5 38.6716 97.5 39.5Z" fill="#EA483B"/>
<path d="M98.5 39.5C98.5 39.7761 98.7239 40 99 40C99.2761 40 99.5 39.7761 99.5 39.5C99.5 39.2239 99.2761 39 99 39C98.7239 39 98.5 39.2239 98.5 39.5Z" fill="#EA483B"/>
<path opacity="0.2" d="M93.5 39.5C93.5 40.3284 94.1716 41 95 41C95.8284 41 96.5 40.3284 96.5 39.5C96.5 38.6716 95.8284 38 95 38C94.1716 38 93.5 38.6716 93.5 39.5Z" fill="#EA483B"/>
<path d="M94.5 39.5C94.5 39.7761 94.7239 40 95 40C95.2761 40 95.5 39.7761 95.5 39.5C95.5 39.2239 95.2761 39 95 39C94.7239 39 94.5 39.2239 94.5 39.5Z" fill="#EA483B"/>
<path fill-rule="evenodd" clip-rule="evenodd" d="M84.5 58L80.5 56V72H84.5V58ZM102.5 60L98.5 58V72H102.5V60ZM92.5 62L96.5 64V72H92.5V62ZM90.5 58L86.5 56V72H90.5V58Z" fill="black"/>
<path d="M80.5 52H102.5L99.5 48L96.5 49L93.5 45L86.5 48L80.5 42V52Z" fill="url(#paint1_linear_443_4771)"/>
<path d="M133.5 72H137.5V69H140.5V72H144.5L143.5 76H134.5L133.5 72Z" fill="#EA483B"/>
<path opacity="0.2" d="M139 66C139.828 66 140.5 65.3284 140.5 64.5C140.5 63.6716 139.828 63 139 63C138.172 63 137.5 63.6716 137.5 64.5C137.5 65.3284 138.172 66 139 66Z" fill="#EA483B"/>
<path d="M139 65C139.276 65 139.5 64.7761 139.5 64.5C139.5 64.2239 139.276 64 139 64C138.724 64 138.5 64.2239 138.5 64.5C138.5 64.7761 138.724 65 139 65Z" fill="#D34037"/>
<path opacity="0.2" d="M139 62C139.828 62 140.5 61.3284 140.5 60.5C140.5 59.6716 139.828 59 139 59C138.172 59 137.5 59.6716 137.5 60.5C137.5 61.3284 138.172 62 139 62Z" fill="#EA483B"/>
<path d="M139 61C139.276 61 139.5 60.7761 139.5 60.5C139.5 60.2239 139.276 60 139 60C138.724 60 138.5 60.2239 138.5 60.5C138.5 60.7761 138.724 61 139 61Z" fill="#D34037"/>
<path opacity="0.2" d="M139 58C139.828 58 140.5 57.3284 140.5 56.5C140.5 55.6716 139.828 55 139 55C138.172 55 137.5 55.6716 137.5 56.5C137.5 57.3284 138.172 58 139 58Z" fill="#EA483B"/>
<path d="M139 57C139.276 57 139.5 56.7761 139.5 56.5C139.5 56.2239 139.276 56 139 56C138.724 56 138.5 56.2239 138.5 56.5C138.5 56.7761 138.724 57 139 57Z" fill="#D34037"/>
<path fill-rule="evenodd" clip-rule="evenodd" d="M132 50L135.5 53V52L134.5 50L136.5 48H139H141.5L143.5 50L142.5 52V53L146 50L144.984 47.4627L146.5 46L148.5 47V50L150.5 46L148.5 44L145.5 40L143.5 39L141.5 40.0597L142.952 37.194L142.5 36L140 39H139H138L135.5 36L135.048 37.194L136.5 40.0597L134.5 39L132.5 40L129.5 44L127.5 46L129.5 50V47L131.5 46L133.016 47.4627L132 50Z" fill="white"/>
<circle cx="142" cy="43.5" r="1.5" fill="black"/>
<circle cx="136" cy="43.5" r="1.5" fill="black"/>
<path d="M66.5 26H174.5V86H66.5V26Z" stroke="white" stroke-width="4"/>
<defs>
<linearGradient id="paint0_linear_443_4771" x1="120.5" y1="84" x2="120.465" y2="27.6058" gradientUnits="userSpaceOnUse">
<stop stop-opacity="0"/>
<stop offset="1" stop-color="#EA483B"/>
</linearGradient>
<linearGradient id="paint1_linear_443_4771" x1="91.5" y1="56.2565" x2="91.5" y2="46.2565" gradientUnits="userSpaceOnUse">
<stop/>
<stop offset="1" stop-color="#EA483B"/>
</linearGradient>
</defs>
</svg>
