<svg width="242" height="104" viewBox="0 0 242 104" fill="none" xmlns="http://www.w3.org/2000/svg">
<path d="M137 98V94L105 88V98H100V104H142V98H137Z" fill="#1A1A1A"/>
<path d="M173 28H69V84H173V28Z" fill="url(#paint0_linear_524_5255)"/>
<path d="M107 36H77V76H107V36Z" fill="white"/>
<path opacity="0.2" d="M102 39.5C102 40.3284 102.672 41 103.5 41C104.328 41 105 40.3284 105 39.5C105 38.6716 104.328 38 103.5 38C102.672 38 102 38.6716 102 39.5Z" fill="#EA483B"/>
<path d="M103 39.5C103 39.7761 103.224 40 103.5 40C103.776 40 104 39.7761 104 39.5C104 39.2239 103.776 39 103.5 39C103.224 39 103 39.2239 103 39.5Z" fill="#EA483B"/>
<path opacity="0.2" d="M98 39.5C98 40.3284 98.6716 41 99.5 41C100.328 41 101 40.3284 101 39.5C101 38.6716 100.328 38 99.5 38C98.6716 38 98 38.6716 98 39.5Z" fill="#EA483B"/>
<path d="M99 39.5C99 39.7761 99.2239 40 99.5 40C99.7761 40 100 39.7761 100 39.5C100 39.2239 99.7761 39 99.5 39C99.2239 39 99 39.2239 99 39.5Z" fill="#EA483B"/>
<path opacity="0.2" d="M94 39.5C94 40.3284 94.6716 41 95.5 41C96.3284 41 97 40.3284 97 39.5C97 38.6716 96.3284 38 95.5 38C94.6716 38 94 38.6716 94 39.5Z" fill="#EA483B"/>
<path d="M95 39.5C95 39.7761 95.2239 40 95.5 40C95.7761 40 96 39.7761 96 39.5C96 39.2239 95.7761 39 95.5 39C95.2239 39 95 39.2239 95 39.5Z" fill="#EA483B"/>
<path fill-rule="evenodd" clip-rule="evenodd" d="M85 58L81 56V72H85V58ZM103 60L99 58V72H103V60ZM93 62L97 64V72H93V62ZM91 58L87 56V72H91V58Z" fill="black"/>
<path d="M81 52H103L100 48L97 49L94 45L87 48L81 42V52Z" fill="url(#paint1_linear_524_5255)"/>
<path d="M134 72H138V69H141V72H145L144 76H135L134 72Z" fill="#EA483B"/>
<path opacity="0.2" d="M139.5 66C140.328 66 141 65.3284 141 64.5C141 63.6716 140.328 63 139.5 63C138.672 63 138 63.6716 138 64.5C138 65.3284 138.672 66 139.5 66Z" fill="#EA483B"/>
<path d="M139.5 65C139.776 65 140 64.7761 140 64.5C140 64.2239 139.776 64 139.5 64C139.224 64 139 64.2239 139 64.5C139 64.7761 139.224 65 139.5 65Z" fill="#D34037"/>
<path opacity="0.2" d="M139.5 62C140.328 62 141 61.3284 141 60.5C141 59.6716 140.328 59 139.5 59C138.672 59 138 59.6716 138 60.5C138 61.3284 138.672 62 139.5 62Z" fill="#EA483B"/>
<path d="M139.5 61C139.776 61 140 60.7761 140 60.5C140 60.2239 139.776 60 139.5 60C139.224 60 139 60.2239 139 60.5C139 60.7761 139.224 61 139.5 61Z" fill="#D34037"/>
<path opacity="0.2" d="M139.5 58C140.328 58 141 57.3284 141 56.5C141 55.6716 140.328 55 139.5 55C138.672 55 138 55.6716 138 56.5C138 57.3284 138.672 58 139.5 58Z" fill="#EA483B"/>
<path d="M139.5 57C139.776 57 140 56.7761 140 56.5C140 56.2239 139.776 56 139.5 56C139.224 56 139 56.2239 139 56.5C139 56.7761 139.224 57 139.5 57Z" fill="#D34037"/>
<path fill-rule="evenodd" clip-rule="evenodd" d="M132.5 50L136 53V52L135 50L137 48H139.5H142L144 50L143 52V53L146.5 50L145.484 47.4627L147 46L149 47V50L151 46L149 44L146 40L144 39L142 40.0597L143.452 37.194L143 36L140.5 39H139.5H138.5L136 36L135.548 37.194L137 40.0597L135 39L133 40L130 44L128 46L130 50V47L132 46L133.516 47.4627L132.5 50Z" fill="white"/>
<circle cx="142.5" cy="43.5" r="1.5" fill="black"/>
<circle cx="136.5" cy="43.5" r="1.5" fill="black"/>
<path d="M67 26H175V86H67V26Z" stroke="#1A1A1A" stroke-width="4"/>
<defs>
<linearGradient id="paint0_linear_524_5255" x1="121" y1="84" x2="120.965" y2="27.6058" gradientUnits="userSpaceOnUse">
<stop stop-color="#1A1A1A"/>
<stop offset="1" stop-color="#EA483B"/>
</linearGradient>
<linearGradient id="paint1_linear_524_5255" x1="92" y1="56.2565" x2="92" y2="46.2565" gradientUnits="userSpaceOnUse">
<stop/>
<stop offset="1" stop-color="#EA483B"/>
</linearGradient>
</defs>
</svg>
