<svg width="201" height="123" viewBox="0 0 201 123" fill="none" xmlns="http://www.w3.org/2000/svg">
<mask id="path-2-inside-1" fill="white">
<rect x="11" width="175" height="100" rx="3"/>
</mask>
<rect x="11" width="175" height="100" rx="3" fill="#332E4D" stroke="#8E7CBF" stroke-width="12" mask="url(#path-2-inside-1)"/>
<path fill-rule="evenodd" clip-rule="evenodd" d="M112 19H113V20H112V19ZM118 19H119V20H118V19ZM113 26.0002H112V24.0069H111V26.0002H110V23.0002H111V22.0002H112V21.0002H113L113 20.0002H114V21.0002H117V20.0002H118V21.0002H119L119 22.0002H120V23.0002H121V26.0002H120.021V24.0069H119V26.0002H118V25.0002H113V26H115V27H113V26.0002ZM116 27V26H118V27H116ZM114 22.0002H113V23.0002H114V22.0002ZM117 21.9982H118V22.9982H117V21.9982Z" fill="#B2A1E6"/>
<path fill-rule="evenodd" clip-rule="evenodd" d="M95 19H96V20H95V19ZM101 19H102V20H101V19ZM96 26.0002H95.0001V24.0069H94.0001V26.0002H93V23.0002H94.0001V22.0002H95.0001V21.0002H96.0001L96 20.0002H97V21.0002H100V20.0002H101V21.0002H102L102 22.0002H103V23.0002H104V26.0002H103.021V24.0069H102V26.0002H101V25.0002H96.0001V26H98V27H96V26.0002ZM99 27V26H101V27H99ZM97 22.0002H96V23.0002H97V22.0002ZM100 21.9982H101V22.9982H100V21.9982Z" fill="#B2A1E6"/>
<path fill-rule="evenodd" clip-rule="evenodd" d="M78 19H79V20H78V19ZM84 19H85V20H84V19ZM79 26.0002H78.0001V24.0069H77.0001V26.0002H76V23.0002H77.0001V22.0002H78.0001V21.0002H79.0001L79 20.0002H80V21.0002H83V20.0002H84.0001V21.0002H85L85.0001 22.0002H86.0001V23.0002H87.0001V26.0002H86.0213V24.0069H85.0001V26.0002H84.0001V25.0002H79.0001V26H81V27H79V26.0002ZM82 27V26H84V27H82ZM80 22.0002H79V23.0002H80V22.0002ZM83 21.9982H84V22.9982H83V21.9982Z" fill="#B2A1E6"/>
<path fill-rule="evenodd" clip-rule="evenodd" d="M61 19H62V20H61V19ZM67 19H68V20H67V19ZM62 26.0002H61.0001V24.0069H60.0001V26.0002H59V23.0002H60.0001V22.0002H61.0001V21.0002H62.0001L62 20.0002H63V21.0002H66V20.0002H67.0001V21.0002H68L68.0001 22.0002H69.0001V23.0002H70.0001V26.0002H69.0213V24.0069H68.0001V26.0002H67.0001V25.0002H62.0001V26H64V27H62V26.0002ZM65 27V26H67V27H65ZM63 22.0002H62V23.0002H63V22.0002ZM66 21.9982H67V22.9982H66V21.9982Z" fill="#B2A1E6"/>
<path fill-rule="evenodd" clip-rule="evenodd" d="M44 19H45V20H44V19ZM50 19H51V20H50V19ZM45 26.0002H44.0001V24.0069H43.0001V26.0002H42V23.0002H43.0001V22.0002H44.0001V21.0002H45.0001L45 20.0002H46V21.0002H49V20.0002H50.0001V21.0002H51L51.0001 22.0002H52.0001V23.0002H53.0001V26.0002H52.0213V24.0069H51.0001V26.0002H50.0001V25.0002H45.0001V26H47V27H45V26.0002ZM48 27V26H50V27H48ZM46 22.0002H45V23.0002H46V22.0002ZM49 21.9982H50V22.9982H49V21.9982Z" fill="#B2A1E6"/>
<path fill-rule="evenodd" clip-rule="evenodd" d="M146 19H147V20H146V19ZM152 19H153V20H152V19ZM147 26.0002H146V24.0069H145V26.0002H144V23.0002H145V22.0002H146V21.0002H147L147 20.0002H148V21.0002H151V20.0002H152V21.0002H153L153 22.0002H154V23.0002H155V26.0002H154.021V24.0069H153V26.0002H152V25.0002H147V26H149V27H147V26.0002ZM150 27V26H152V27H150ZM148 22.0002H147V23.0002H148V22.0002ZM151 21.9982H152V22.9982H151V21.9982Z" fill="#B2A1E6"/>
<path fill-rule="evenodd" clip-rule="evenodd" d="M129 19H130V20H129V19ZM135 19H136V20H135V19ZM130 26.0002H129V24.0069H128V26.0002H127V23.0002H128V22.0002H129V21.0002H130L130 20.0002H131V21.0002H134V20.0002H135V21.0002H136L136 22.0002H137V23.0002H138V26.0002H137.021V24.0069H136V26.0002H135V25.0002H130V26H132V27H130V26.0002ZM133 27V26H135V27H133ZM131 22.0002H130V23.0002H131V22.0002ZM134 21.9982H135V22.9982H134V21.9982Z" fill="#B2A1E6"/>
<path fill-rule="evenodd" clip-rule="evenodd" d="M112 31H113V32H112V31ZM118 31H119V32H118V31ZM113 38.0002H112V36.0069H111V38.0002H110V35.0002H111V34.0002H112V33.0002H113L113 32.0002H114V33.0002H117V32.0002H118V33.0002H119L119 34.0002H120V35.0002H121V38.0002H120.021V36.0069H119V38.0002H118V37.0002H113V38H115V39H113V38.0002ZM116 39V38H118V39H116ZM114 34.0002H113V35.0002H114V34.0002ZM117 33.9982H118V34.9982H117V33.9982Z" fill="#B2A1E6"/>
<path fill-rule="evenodd" clip-rule="evenodd" d="M95 31H96V32H95V31ZM101 31H102V32H101V31ZM96 38.0002H95.0001V36.0069H94.0001V38.0002H93V35.0002H94.0001V34.0002H95.0001V33.0002H96.0001L96 32.0002H97V33.0002H100V32.0002H101V33.0002H102L102 34.0002H103V35.0002H104V38.0002H103.021V36.0069H102V38.0002H101V37.0002H96.0001V38H98V39H96V38.0002ZM99 39V38H101V39H99ZM97 34.0002H96V35.0002H97V34.0002ZM100 33.9982H101V34.9982H100V33.9982Z" fill="#B2A1E6"/>
<path fill-rule="evenodd" clip-rule="evenodd" d="M78 31H79V32H78V31ZM84 31H85V32H84V31ZM79 38.0002H78.0001V36.0069H77.0001V38.0002H76V35.0002H77.0001V34.0002H78.0001V33.0002H79.0001L79 32.0002H80V33.0002H83V32.0002H84.0001V33.0002H85L85.0001 34.0002H86.0001V35.0002H87.0001V38.0002H86.0213V36.0069H85.0001V38.0002H84.0001V37.0002H79.0001V38H81V39H79V38.0002ZM82 39V38H84V39H82ZM80 34.0002H79V35.0002H80V34.0002ZM83 33.9982H84V34.9982H83V33.9982Z" fill="#B2A1E6"/>
<path fill-rule="evenodd" clip-rule="evenodd" d="M61 31H62V32H61V31ZM67 31H68V32H67V31ZM62 38.0002H61.0001V36.0069H60.0001V38.0002H59V35.0002H60.0001V34.0002H61.0001V33.0002H62.0001L62 32.0002H63V33.0002H66V32.0002H67.0001V33.0002H68L68.0001 34.0002H69.0001V35.0002H70.0001V38.0002H69.0213V36.0069H68.0001V38.0002H67.0001V37.0002H62.0001V38H64V39H62V38.0002ZM65 39V38H67V39H65ZM63 34.0002H62V35.0002H63V34.0002ZM66 33.9982H67V34.9982H66V33.9982Z" fill="#B2A1E6"/>
<path fill-rule="evenodd" clip-rule="evenodd" d="M44 31H45V32H44V31ZM50 31H51V32H50V31ZM45 38.0002H44.0001V36.0069H43.0001V38.0002H42V35.0002H43.0001V34.0002H44.0001V33.0002H45.0001L45 32.0002H46V33.0002H49V32.0002H50.0001V33.0002H51L51.0001 34.0002H52.0001V35.0002H53.0001V38.0002H52.0213V36.0069H51.0001V38.0002H50.0001V37.0002H45.0001V38H47V39H45V38.0002ZM48 39V38H50V39H48ZM46 34.0002H45V35.0002H46V34.0002ZM49 33.9982H50V34.9982H49V33.9982Z" fill="#B2A1E6"/>
<path fill-rule="evenodd" clip-rule="evenodd" d="M146 31H147V32H146V31ZM152 31H153V32H152V31ZM147 38.0002H146V36.0069H145V38.0002H144V35.0002H145V34.0002H146V33.0002H147L147 32.0002H148V33.0002H151V32.0002H152V33.0002H153L153 34.0002H154V35.0002H155V38.0002H154.021V36.0069H153V38.0002H152V37.0002H147V38H149V39H147V38.0002ZM150 39V38H152V39H150ZM148 34.0002H147V35.0002H148V34.0002ZM151 33.9982H152V34.9982H151V33.9982Z" fill="#B2A1E6"/>
<path fill-rule="evenodd" clip-rule="evenodd" d="M129 31H130V32H129V31ZM135 31H136V32H135V31ZM130 38.0002H129V36.0069H128V38.0002H127V35.0002H128V34.0002H129V33.0002H130L130 32.0002H131V33.0002H134V32.0002H135V33.0002H136L136 34.0002H137V35.0002H138V38.0002H137.021V36.0069H136V38.0002H135V37.0002H130V38H132V39H130V38.0002ZM133 39V38H135V39H133ZM131 34.0002H130V35.0002H131V34.0002ZM134 33.9982H135V34.9982H134V33.9982Z" fill="#B2A1E6"/>
<path fill-rule="evenodd" clip-rule="evenodd" d="M112 43H113V44H112V43ZM118 43H119V44H118V43ZM113 50.0002H112V48.0069H111V50.0002H110V47.0002H111V46.0002H112V45.0002H113L113 44.0002H114V45.0002H117V44.0002H118V45.0002H119L119 46.0002H120V47.0002H121V50.0002H120.021V48.0069H119V50.0002H118V49.0002H113V50H115V51H113V50.0002ZM116 51V50H118V51H116ZM114 46.0002H113V47.0002H114V46.0002ZM117 45.9982H118V46.9982H117V45.9982Z" fill="#B2A1E6"/>
<path fill-rule="evenodd" clip-rule="evenodd" d="M95 43H96V44H95V43ZM101 43H102V44H101V43ZM96 50.0002H95.0001V48.0069H94.0001V50.0002H93V47.0002H94.0001V46.0002H95.0001V45.0002H96.0001L96 44.0002H97V45.0002H100V44.0002H101V45.0002H102L102 46.0002H103V47.0002H104V50.0002H103.021V48.0069H102V50.0002H101V49.0002H96.0001V50H98V51H96V50.0002ZM99 51V50H101V51H99ZM97 46.0002H96V47.0002H97V46.0002ZM100 45.9982H101V46.9982H100V45.9982Z" fill="#B2A1E6"/>
<path fill-rule="evenodd" clip-rule="evenodd" d="M78 43H79V44H78V43ZM84 43H85V44H84V43ZM79 50.0002H78.0001V48.0069H77.0001V50.0002H76V47.0002H77.0001V46.0002H78.0001V45.0002H79.0001L79 44.0002H80V45.0002H83V44.0002H84.0001V45.0002H85L85.0001 46.0002H86.0001V47.0002H87.0001V50.0002H86.0213V48.0069H85.0001V50.0002H84.0001V49.0002H79.0001V50H81V51H79V50.0002ZM82 51V50H84V51H82ZM80 46.0002H79V47.0002H80V46.0002ZM83 45.9982H84V46.9982H83V45.9982Z" fill="#B2A1E6"/>
<path fill-rule="evenodd" clip-rule="evenodd" d="M61 43H62V44H61V43ZM67 43H68V44H67V43ZM62 50.0002H61.0001V48.0069H60.0001V50.0002H59V47.0002H60.0001V46.0002H61.0001V45.0002H62.0001L62 44.0002H63V45.0002H66V44.0002H67.0001V45.0002H68L68.0001 46.0002H69.0001V47.0002H70.0001V50.0002H69.0213V48.0069H68.0001V50.0002H67.0001V49.0002H62.0001V50H64V51H62V50.0002ZM65 51V50H67V51H65ZM63 46.0002H62V47.0002H63V46.0002ZM66 45.9982H67V46.9982H66V45.9982Z" fill="#B2A1E6"/>
<path fill-rule="evenodd" clip-rule="evenodd" d="M44 43H45V44H44V43ZM50 43H51V44H50V43ZM45 50.0002H44.0001V48.0069H43.0001V50.0002H42V47.0002H43.0001V46.0002H44.0001V45.0002H45.0001L45 44.0002H46V45.0002H49V44.0002H50.0001V45.0002H51L51.0001 46.0002H52.0001V47.0002H53.0001V50.0002H52.0213V48.0069H51.0001V50.0002H50.0001V49.0002H45.0001V50H47V51H45V50.0002ZM48 51V50H50V51H48ZM46 46.0002H45V47.0002H46V46.0002ZM49 45.9982H50V46.9982H49V45.9982Z" fill="#B2A1E6"/>
<path fill-rule="evenodd" clip-rule="evenodd" d="M146 43H147V44H146V43ZM152 43H153V44H152V43ZM147 50.0002H146V48.0069H145V50.0002H144V47.0002H145V46.0002H146V45.0002H147L147 44.0002H148V45.0002H151V44.0002H152V45.0002H153L153 46.0002H154V47.0002H155V50.0002H154.021V48.0069H153V50.0002H152V49.0002H147V50H149V51H147V50.0002ZM150 51V50H152V51H150ZM148 46.0002H147V47.0002H148V46.0002ZM151 45.9982H152V46.9982H151V45.9982Z" fill="#B2A1E6"/>
<path fill-rule="evenodd" clip-rule="evenodd" d="M163 19H164V20H163V19ZM169 19H170V20H169V19ZM164 26.0002H163V24.0069H162V26.0002H161V23.0002H162V22.0002H163V21.0002H164L164 20.0002H165V21.0002H168V20.0002H169V21.0002H170L170 22.0002H171V23.0002H172V26.0002H171.021V24.0069H170V26.0002H169V25.0002H164V26H166V27H164V26.0002ZM167 27V26H169V27H167ZM165 22.0002H164V23.0002H165V22.0002ZM168 21.9982H169V22.9982H168V21.9982Z" fill="#B2A1E6"/>
<path fill-rule="evenodd" clip-rule="evenodd" d="M163 31H164V32H163V31ZM169 31H170V32H169V31ZM164 38.0002H163V36.0069H162V38.0002H161V35.0002H162V34.0002H163V33.0002H164L164 32.0002H165V33.0002H168V32.0002H169V33.0002H170L170 34.0002H171V35.0002H172V38.0002H171.021V36.0069H170V38.0002H169V37.0002H164V38H166V39H164V38.0002ZM167 39V38H169V39H167ZM165 34.0002H164V35.0002H165V34.0002ZM168 33.9982H169V34.9982H168V33.9982Z" fill="#B2A1E6"/>
<path fill-rule="evenodd" clip-rule="evenodd" d="M163 43H164V44H163V43ZM169 43H170V44H169V43ZM164 50.0002H163V48.0069H162V50.0002H161V47.0002H162V46.0002H163V45.0002H164L164 44.0002H165V45.0002H168V44.0002H169V45.0002H170L170 46.0002H171V47.0002H172V50.0002H171.021V48.0069H170V50.0002H169V49.0002H164V50H166V51H164V50.0002ZM167 51V50H169V51H167ZM165 46.0002H164V47.0002H165V46.0002ZM168 45.9982H169V46.9982H168V45.9982Z" fill="#B2A1E6"/>
<path fill-rule="evenodd" clip-rule="evenodd" d="M129 43H130V44H129V43ZM135 43H136V44H135V43ZM130 50.0002H129V48.0069H128V50.0002H127V47.0002H128V46.0002H129V45.0002H130L130 44.0002H131V45.0002H134V44.0002H135V45.0002H136L136 46.0002H137V47.0002H138V50.0002H137.021V48.0069H136V50.0002H135V49.0002H130V50H132V51H130V50.0002ZM133 51V50H135V51H133ZM131 46.0002H130V47.0002H131V46.0002ZM134 45.9982H135V46.9982H134V45.9982Z" fill="#B2A1E6"/>
<rect x="82" y="104" width="36" height="14" fill="#403366"/>
<path d="M53 120C53 118.895 53.8954 118 55 118H142C143.105 118 144 118.895 144 120V123H53V120Z" fill="#8E7CBF"/>
<path d="M22 88L175 88" stroke="#E6004C" stroke-width="2"/>
<rect x="127" y="79" width="12" height="4" fill="#B2A1E6"/>
<rect x="131" y="75" width="4" height="4" fill="#B2A1E6"/>
<path fill-rule="evenodd" clip-rule="evenodd" d="M132 60V57H134L134 60H132ZM132 66V63H134V66H132ZM132 72V69H134L134 72H132Z" fill="#E5004C"/>
<rect x="24" y="13" width="50" height="64" rx="2" fill="#F4F2FF"/>
<circle cx="68.5" cy="18.5" r="1.5" fill="#E6004C"/>
<circle cx="63.5" cy="18.5" r="1.5" fill="#E6004C"/>
<circle cx="58.5" cy="18.5" r="1.5" fill="#E6004C"/>
<rect x="43" y="51" width="27" height="21" rx="1" fill="#E6004C"/>
<path d="M28 24.2071V35.5C28 35.7761 28.2239 36 28.5 36H69.5C69.7761 36 70 35.7761 70 35.5V25.9097C70 25.5154 69.5649 25.2763 69.232 25.4876L59.7971 31.478C59.6189 31.5912 59.3888 31.5802 59.2222 31.4506L53.7328 27.1811C53.5892 27.0694 53.3962 27.0445 53.2289 27.1162L46.8291 29.859C46.6323 29.9433 46.4037 29.893 46.2605 29.7339L42.2756 25.3062C42.1155 25.1284 41.8519 25.0889 41.6467 25.212L34.8348 29.2991C34.638 29.4172 34.3862 29.3862 34.224 29.224L28.8536 23.8536C28.5386 23.5386 28 23.7617 28 24.2071Z" fill="#E6004C"/>
<rect x="28" y="39" width="13" height="9" rx="0.5" fill="#E6004C"/>
<rect x="43" y="39" width="13" height="9" rx="0.5" fill="#E6004C"/>
<rect x="58" y="39" width="12" height="9" rx="0.5" fill="#E6004C"/>
<rect x="28" y="51" width="13" height="21" rx="1" fill="#E6004C"/>
<rect x="48" y="60" width="3" height="9" fill="#F4F2FF"/>
<rect x="53" y="58" width="3" height="11" fill="#F4F2FF"/>
<rect x="58" y="63" width="3" height="6" fill="#F4F2FF"/>
<rect x="63" y="56" width="3" height="13" fill="#F4F2FF"/>
<rect x="31" y="59" width="7" height="2" fill="#F4F2FF"/>
<rect x="31" y="55" width="7" height="2" fill="#F4F2FF"/>
<rect x="31" y="63" width="7" height="2" fill="#F4F2FF"/>
<rect x="31" y="67" width="7" height="2" fill="#F4F2FF"/>
</svg>
