<svg width="242" height="128" viewBox="0 0 242 128" fill="none" xmlns="http://www.w3.org/2000/svg">
<path d="M197 122V118L165 112V122H160V128H202V122H197Z" fill="#1A1A1A"/>
<path d="M233 52H129V108H233V52Z" fill="url(#paint0_linear_524_5267)"/>
<path d="M176 96H180V93H183V96H187L186 100H177L176 96Z" fill="#EA483B"/>
<path opacity="0.2" d="M181.5 90C182.328 90 183 89.3284 183 88.5C183 87.6716 182.328 87 181.5 87C180.672 87 180 87.6716 180 88.5C180 89.3284 180.672 90 181.5 90Z" fill="#EA483B"/>
<path d="M181.5 89C181.776 89 182 88.7761 182 88.5C182 88.2239 181.776 88 181.5 88C181.224 88 181 88.2239 181 88.5C181 88.7761 181.224 89 181.5 89Z" fill="#D34037"/>
<path opacity="0.2" d="M181.5 86C182.328 86 183 85.3284 183 84.5C183 83.6716 182.328 83 181.5 83C180.672 83 180 83.6716 180 84.5C180 85.3284 180.672 86 181.5 86Z" fill="#EA483B"/>
<path d="M181.5 85C181.776 85 182 84.7761 182 84.5C182 84.2239 181.776 84 181.5 84C181.224 84 181 84.2239 181 84.5C181 84.7761 181.224 85 181.5 85Z" fill="#D34037"/>
<path opacity="0.2" d="M181.5 82C182.328 82 183 81.3284 183 80.5C183 79.6716 182.328 79 181.5 79C180.672 79 180 79.6716 180 80.5C180 81.3284 180.672 82 181.5 82Z" fill="#EA483B"/>
<path d="M181.5 81C181.776 81 182 80.7761 182 80.5C182 80.2239 181.776 80 181.5 80C181.224 80 181 80.2239 181 80.5C181 80.7761 181.224 81 181.5 81Z" fill="#D34037"/>
<path fill-rule="evenodd" clip-rule="evenodd" d="M174.5 74L178 77V76L177 74L179 72H181.5H184L186 74L185 76V77L188.5 74L187.484 71.4627L189 70L191 71V74L193 70L191 68L188 64L186 63L184 64.0597L185.452 61.194L185 60L182.5 63H181.5H180.5L178 60L177.548 61.194L179 64.0597L177 63L175 64L172 68L170 70L172 74V71L174 70L175.516 71.4627L174.5 74Z" fill="white"/>
<circle cx="184.5" cy="67.5" r="1.5" fill="black"/>
<circle cx="178.5" cy="67.5" r="1.5" fill="black"/>
<path d="M127 50H235V110H127V50Z" stroke="#1A1A1A" stroke-width="4"/>
<path d="M77 122V118L45 112V122H40V128H82V122H77Z" fill="#1A1A1A"/>
<path d="M9 108L113 108L113 52L9 52L9 108Z" fill="url(#paint1_linear_524_5267)"/>
<path fill-rule="evenodd" clip-rule="evenodd" d="M19 64.5L17 64V67H21V65L19 64.5ZM19 71.5L17 71V74H21V72L19 71.5ZM17 78L19 78.5L21 79V81H17V78ZM27 64.5L25 64V67H29V65L27 64.5ZM25 71L27 71.5L29 72V74H25V71ZM27 78.5L25 78V81H29V79L27 78.5Z" fill="white"/>
<path d="M105 60H37V100H105V60Z" fill="white"/>
<path opacity="0.2" d="M100 63.5C100 64.3284 100.672 65 101.5 65C102.328 65 103 64.3284 103 63.5C103 62.6716 102.328 62 101.5 62C100.672 62 100 62.6716 100 63.5Z" fill="#EA483B"/>
<path d="M101 63.5C101 63.7761 101.224 64 101.5 64C101.776 64 102 63.7761 102 63.5C102 63.2239 101.776 63 101.5 63C101.224 63 101 63.2239 101 63.5Z" fill="#EA483B"/>
<path opacity="0.2" d="M96 63.5C96 64.3284 96.6716 65 97.5 65C98.3284 65 99 64.3284 99 63.5C99 62.6716 98.3284 62 97.5 62C96.6716 62 96 62.6716 96 63.5Z" fill="#EA483B"/>
<path d="M97 63.5C97 63.7761 97.2239 64 97.5 64C97.7761 64 98 63.7761 98 63.5C98 63.2239 97.7761 63 97.5 63C97.2239 63 97 63.2239 97 63.5Z" fill="#EA483B"/>
<path opacity="0.2" d="M92 63.5C92 64.3284 92.6716 65 93.5 65C94.3284 65 95 64.3284 95 63.5C95 62.6716 94.3284 62 93.5 62C92.6716 62 92 62.6716 92 63.5Z" fill="#EA483B"/>
<path d="M93 63.5C93 63.7761 93.2239 64 93.5 64C93.7761 64 94 63.7761 94 63.5C94 63.2239 93.7761 63 93.5 63C93.2239 63 93 63.2239 93 63.5Z" fill="#EA483B"/>
<path fill-rule="evenodd" clip-rule="evenodd" d="M49 74L45 72V88H49V74ZM67 76L63 74V88H67V76ZM57 78L61 80V88H57V78ZM55 74L51 72V88H55V74Z" fill="black"/>
<path d="M75 88H97L94 84L91 85L88 81L81 84L75 78V88Z" fill="url(#paint2_linear_524_5267)"/>
<path d="M7 50H115V110H7V50Z" stroke="#1A1A1A" stroke-width="4"/>
<defs>
<linearGradient id="paint0_linear_524_5267" x1="181" y1="108" x2="180.965" y2="51.6058" gradientUnits="userSpaceOnUse">
<stop stop-color="#1A1A1A"/>
<stop offset="1" stop-color="#EA483B"/>
</linearGradient>
<linearGradient id="paint1_linear_524_5267" x1="61" y1="70.5" x2="61.0352" y2="108.394" gradientUnits="userSpaceOnUse">
<stop stop-color="#1A1A1A"/>
<stop offset="1" stop-color="#EA483B"/>
</linearGradient>
<linearGradient id="paint2_linear_524_5267" x1="86" y1="92.2565" x2="86" y2="82.2565" gradientUnits="userSpaceOnUse">
<stop/>
<stop offset="1" stop-color="#EA483B"/>
</linearGradient>
</defs>
</svg>
