<svg width="241" height="104" viewBox="0 0 241 104" fill="none" xmlns="http://www.w3.org/2000/svg">
<path d="M196.5 98V94L164.5 88V98H159.5V104H201.5V98H196.5Z" fill="white"/>
<path d="M232.5 28H128.5V84H232.5V28Z" fill="url(#paint0_linear_524_4849)"/>
<path d="M175.5 72H179.5V69H182.5V72H186.5L185.5 76H176.5L175.5 72Z" fill="#EA483B"/>
<path opacity="0.2" d="M181 66C181.828 66 182.5 65.3284 182.5 64.5C182.5 63.6716 181.828 63 181 63C180.172 63 179.5 63.6716 179.5 64.5C179.5 65.3284 180.172 66 181 66Z" fill="#EA483B"/>
<path d="M181 65C181.276 65 181.5 64.7761 181.5 64.5C181.5 64.2239 181.276 64 181 64C180.724 64 180.5 64.2239 180.5 64.5C180.5 64.7761 180.724 65 181 65Z" fill="#D34037"/>
<path opacity="0.2" d="M181 62C181.828 62 182.5 61.3284 182.5 60.5C182.5 59.6716 181.828 59 181 59C180.172 59 179.5 59.6716 179.5 60.5C179.5 61.3284 180.172 62 181 62Z" fill="#EA483B"/>
<path d="M181 61C181.276 61 181.5 60.7761 181.5 60.5C181.5 60.2239 181.276 60 181 60C180.724 60 180.5 60.2239 180.5 60.5C180.5 60.7761 180.724 61 181 61Z" fill="#D34037"/>
<path opacity="0.2" d="M181 58C181.828 58 182.5 57.3284 182.5 56.5C182.5 55.6716 181.828 55 181 55C180.172 55 179.5 55.6716 179.5 56.5C179.5 57.3284 180.172 58 181 58Z" fill="#EA483B"/>
<path d="M181 57C181.276 57 181.5 56.7761 181.5 56.5C181.5 56.2239 181.276 56 181 56C180.724 56 180.5 56.2239 180.5 56.5C180.5 56.7761 180.724 57 181 57Z" fill="#D34037"/>
<path fill-rule="evenodd" clip-rule="evenodd" d="M174 50L177.5 53V52L176.5 50L178.5 48H181H183.5L185.5 50L184.5 52V53L188 50L186.984 47.4627L188.5 46L190.5 47V50L192.5 46L190.5 44L187.5 40L185.5 39L183.5 40.0597L184.952 37.194L184.5 36L182 39H181H180L177.5 36L177.048 37.194L178.5 40.0597L176.5 39L174.5 40L171.5 44L169.5 46L171.5 50V47L173.5 46L175.016 47.4627L174 50Z" fill="white"/>
<circle cx="184" cy="43.5" r="1.5" fill="black"/>
<circle cx="178" cy="43.5" r="1.5" fill="black"/>
<path d="M126.5 26H234.5V86H126.5V26Z" stroke="white" stroke-width="4"/>
<path d="M76.5 98V94L44.5 88V98H39.5V104H81.5V98H76.5Z" fill="white"/>
<path d="M8.5 84L112.5 84L112.5 28L8.5 28L8.5 84Z" fill="url(#paint1_linear_524_4849)"/>
<path fill-rule="evenodd" clip-rule="evenodd" d="M18.5 40.5L16.5 40V43H20.5V41L18.5 40.5ZM18.5 47.5L16.5 47V50H20.5V48L18.5 47.5ZM16.5 54L18.5 54.5L20.5 55V57H16.5V54ZM26.5 40.5L24.5 40V43H28.5V41L26.5 40.5ZM24.5 47L26.5 47.5L28.5 48V50H24.5V47ZM26.5 54.5L24.5 54V57H28.5V55L26.5 54.5Z" fill="white"/>
<path d="M104.5 36H36.5V76H104.5V36Z" fill="white"/>
<path opacity="0.2" d="M99.5 39.5C99.5 40.3284 100.172 41 101 41C101.828 41 102.5 40.3284 102.5 39.5C102.5 38.6716 101.828 38 101 38C100.172 38 99.5 38.6716 99.5 39.5Z" fill="#EA483B"/>
<path d="M100.5 39.5C100.5 39.7761 100.724 40 101 40C101.276 40 101.5 39.7761 101.5 39.5C101.5 39.2239 101.276 39 101 39C100.724 39 100.5 39.2239 100.5 39.5Z" fill="#EA483B"/>
<path opacity="0.2" d="M95.5 39.5C95.5 40.3284 96.1716 41 97 41C97.8284 41 98.5 40.3284 98.5 39.5C98.5 38.6716 97.8284 38 97 38C96.1716 38 95.5 38.6716 95.5 39.5Z" fill="#EA483B"/>
<path d="M96.5 39.5C96.5 39.7761 96.7239 40 97 40C97.2761 40 97.5 39.7761 97.5 39.5C97.5 39.2239 97.2761 39 97 39C96.7239 39 96.5 39.2239 96.5 39.5Z" fill="#EA483B"/>
<path opacity="0.2" d="M91.5 39.5C91.5 40.3284 92.1716 41 93 41C93.8284 41 94.5 40.3284 94.5 39.5C94.5 38.6716 93.8284 38 93 38C92.1716 38 91.5 38.6716 91.5 39.5Z" fill="#EA483B"/>
<path d="M92.5 39.5C92.5 39.7761 92.7239 40 93 40C93.2761 40 93.5 39.7761 93.5 39.5C93.5 39.2239 93.2761 39 93 39C92.7239 39 92.5 39.2239 92.5 39.5Z" fill="#EA483B"/>
<path fill-rule="evenodd" clip-rule="evenodd" d="M48.5 50L44.5 48V64H48.5V50ZM66.5 52L62.5 50V64H66.5V52ZM56.5 54L60.5 56V64H56.5V54ZM54.5 50L50.5 48V64H54.5V50Z" fill="black"/>
<path d="M74.5 64H96.5L93.5 60L90.5 61L87.5 57L80.5 60L74.5 54V64Z" fill="url(#paint2_linear_524_4849)"/>
<path d="M6.5 26H114.5V86H6.5V26Z" stroke="white" stroke-width="4"/>
<defs>
<linearGradient id="paint0_linear_524_4849" x1="180.5" y1="84" x2="180.465" y2="27.6058" gradientUnits="userSpaceOnUse">
<stop stop-opacity="0"/>
<stop offset="1" stop-color="#EA483B"/>
</linearGradient>
<linearGradient id="paint1_linear_524_4849" x1="60.5" y1="46.5" x2="60.5352" y2="84.3942" gradientUnits="userSpaceOnUse">
<stop stop-opacity="0"/>
<stop offset="1" stop-color="#EA483B"/>
</linearGradient>
<linearGradient id="paint2_linear_524_4849" x1="85.5" y1="68.2565" x2="85.5" y2="58.2565" gradientUnits="userSpaceOnUse">
<stop/>
<stop offset="1" stop-color="#EA483B"/>
</linearGradient>
</defs>
</svg>
