<svg width="241" height="128" viewBox="0 0 241 128" fill="none" xmlns="http://www.w3.org/2000/svg">
<path d="M196.5 122V118L164.5 112V122H159.5V128H201.5V122H196.5Z" fill="white"/>
<path d="M232.5 52H128.5V108H232.5V52Z" fill="url(#paint0_linear_524_4849)"/>
<path d="M175.5 96H179.5V93H182.5V96H186.5L185.5 100H176.5L175.5 96Z" fill="#EA483B"/>
<path opacity="0.2" d="M181 90C181.828 90 182.5 89.3284 182.5 88.5C182.5 87.6716 181.828 87 181 87C180.172 87 179.5 87.6716 179.5 88.5C179.5 89.3284 180.172 90 181 90Z" fill="#EA483B"/>
<path d="M181 89C181.276 89 181.5 88.7761 181.5 88.5C181.5 88.2239 181.276 88 181 88C180.724 88 180.5 88.2239 180.5 88.5C180.5 88.7761 180.724 89 181 89Z" fill="#D34037"/>
<path opacity="0.2" d="M181 86C181.828 86 182.5 85.3284 182.5 84.5C182.5 83.6716 181.828 83 181 83C180.172 83 179.5 83.6716 179.5 84.5C179.5 85.3284 180.172 86 181 86Z" fill="#EA483B"/>
<path d="M181 85C181.276 85 181.5 84.7761 181.5 84.5C181.5 84.2239 181.276 84 181 84C180.724 84 180.5 84.2239 180.5 84.5C180.5 84.7761 180.724 85 181 85Z" fill="#D34037"/>
<path opacity="0.2" d="M181 82C181.828 82 182.5 81.3284 182.5 80.5C182.5 79.6716 181.828 79 181 79C180.172 79 179.5 79.6716 179.5 80.5C179.5 81.3284 180.172 82 181 82Z" fill="#EA483B"/>
<path d="M181 81C181.276 81 181.5 80.7761 181.5 80.5C181.5 80.2239 181.276 80 181 80C180.724 80 180.5 80.2239 180.5 80.5C180.5 80.7761 180.724 81 181 81Z" fill="#D34037"/>
<path fill-rule="evenodd" clip-rule="evenodd" d="M174 74L177.5 77V76L176.5 74L178.5 72H181H183.5L185.5 74L184.5 76V77L188 74L186.984 71.4627L188.5 70L190.5 71V74L192.5 70L190.5 68L187.5 64L185.5 63L183.5 64.0597L184.952 61.194L184.5 60L182 63H181H180L177.5 60L177.048 61.194L178.5 64.0597L176.5 63L174.5 64L171.5 68L169.5 70L171.5 74V71L173.5 70L175.016 71.4627L174 74Z" fill="white"/>
<circle cx="184" cy="67.5" r="1.5" fill="black"/>
<circle cx="178" cy="67.5" r="1.5" fill="black"/>
<path d="M126.5 50H234.5V110H126.5V50Z" stroke="white" stroke-width="4"/>
<path d="M76.5 122V118L44.5 112V122H39.5V128H81.5V122H76.5Z" fill="white"/>
<path d="M8.5 108L112.5 108L112.5 52L8.5 52L8.5 108Z" fill="url(#paint1_linear_524_4849)"/>
<path fill-rule="evenodd" clip-rule="evenodd" d="M18.5 64.5L16.5 64V67H20.5V65L18.5 64.5ZM18.5 71.5L16.5 71V74H20.5V72L18.5 71.5ZM16.5 78L18.5 78.5L20.5 79V81H16.5V78ZM26.5 64.5L24.5 64V67H28.5V65L26.5 64.5ZM24.5 71L26.5 71.5L28.5 72V74H24.5V71ZM26.5 78.5L24.5 78V81H28.5V79L26.5 78.5Z" fill="white"/>
<path d="M104.5 60H36.5V100H104.5V60Z" fill="white"/>
<path opacity="0.2" d="M99.5 63.5C99.5 64.3284 100.172 65 101 65C101.828 65 102.5 64.3284 102.5 63.5C102.5 62.6716 101.828 62 101 62C100.172 62 99.5 62.6716 99.5 63.5Z" fill="#EA483B"/>
<path d="M100.5 63.5C100.5 63.7761 100.724 64 101 64C101.276 64 101.5 63.7761 101.5 63.5C101.5 63.2239 101.276 63 101 63C100.724 63 100.5 63.2239 100.5 63.5Z" fill="#EA483B"/>
<path opacity="0.2" d="M95.5 63.5C95.5 64.3284 96.1716 65 97 65C97.8284 65 98.5 64.3284 98.5 63.5C98.5 62.6716 97.8284 62 97 62C96.1716 62 95.5 62.6716 95.5 63.5Z" fill="#EA483B"/>
<path d="M96.5 63.5C96.5 63.7761 96.7239 64 97 64C97.2761 64 97.5 63.7761 97.5 63.5C97.5 63.2239 97.2761 63 97 63C96.7239 63 96.5 63.2239 96.5 63.5Z" fill="#EA483B"/>
<path opacity="0.2" d="M91.5 63.5C91.5 64.3284 92.1716 65 93 65C93.8284 65 94.5 64.3284 94.5 63.5C94.5 62.6716 93.8284 62 93 62C92.1716 62 91.5 62.6716 91.5 63.5Z" fill="#EA483B"/>
<path d="M92.5 63.5C92.5 63.7761 92.7239 64 93 64C93.2761 64 93.5 63.7761 93.5 63.5C93.5 63.2239 93.2761 63 93 63C92.7239 63 92.5 63.2239 92.5 63.5Z" fill="#EA483B"/>
<path fill-rule="evenodd" clip-rule="evenodd" d="M48.5 74L44.5 72V88H48.5V74ZM66.5 76L62.5 74V88H66.5V76ZM56.5 78L60.5 80V88H56.5V78ZM54.5 74L50.5 72V88H54.5V74Z" fill="black"/>
<path d="M74.5 88H96.5L93.5 84L90.5 85L87.5 81L80.5 84L74.5 78V88Z" fill="url(#paint2_linear_524_4849)"/>
<path d="M6.5 50H114.5V110H6.5V50Z" stroke="white" stroke-width="4"/>
<defs>
<linearGradient id="paint0_linear_524_4849" x1="180.5" y1="108" x2="180.465" y2="51.6058" gradientUnits="userSpaceOnUse">
<stop stop-opacity="0"/>
<stop offset="1" stop-color="#EA483B"/>
</linearGradient>
<linearGradient id="paint1_linear_524_4849" x1="60.5" y1="70.5" x2="60.5352" y2="108.394" gradientUnits="userSpaceOnUse">
<stop stop-opacity="0"/>
<stop offset="1" stop-color="#EA483B"/>
</linearGradient>
<linearGradient id="paint2_linear_524_4849" x1="85.5" y1="92.2565" x2="85.5" y2="82.2565" gradientUnits="userSpaceOnUse">
<stop/>
<stop offset="1" stop-color="#EA483B"/>
</linearGradient>
</defs>
</svg>
