<svg width="32" height="32" viewBox="0 0 32 32" fill="none" xmlns="http://www.w3.org/2000/svg">
<g clip-path="url(#clip0_590_3751)">
<path d="M16 32C24.8366 32 32 24.8366 32 16C32 7.16344 24.8366 0 16 0C7.16344 0 0 7.16344 0 16C0 24.8366 7.16344 32 16 32Z" fill="#2B2E3A"/>
<path d="M12.5629 8.96125C9.31229 8.36925 6.74204 8.98887 5.71766 10.7631C4.95329 12.0871 5.17179 13.8425 6.24766 15.7189C6.26891 15.7578 6.29772 15.7922 6.33241 15.8199C6.3671 15.8476 6.40697 15.868 6.44969 15.8801C6.4924 15.8922 6.53709 15.8956 6.58114 15.8902C6.6252 15.8847 6.66772 15.8706 6.70622 15.8485C6.74473 15.8264 6.77843 15.7969 6.80536 15.7616C6.8323 15.7263 6.85191 15.686 6.86306 15.643C6.87421 15.6001 6.87666 15.5553 6.87029 15.5114C6.86391 15.4675 6.84882 15.4253 6.82591 15.3872C5.85691 13.697 5.66829 12.1821 6.29504 11.0965C7.14604 9.62262 9.43854 9.06987 12.4434 9.61712C12.5298 9.6315 12.6183 9.61133 12.6899 9.56099C12.7615 9.51064 12.8105 9.43415 12.8261 9.34803C12.8418 9.26191 12.823 9.17308 12.7738 9.10071C12.7245 9.02834 12.6488 8.97825 12.5629 8.96125ZM7.93804 17.9996C9.25241 19.444 10.96 20.7989 12.9075 21.9231C17.6229 24.6456 22.6429 25.3732 25.1169 23.6864C25.1539 23.6621 25.1857 23.6306 25.2104 23.5939C25.2352 23.5572 25.2523 23.5159 25.2609 23.4725C25.2695 23.4291 25.2694 23.3844 25.2605 23.341C25.2517 23.2976 25.2343 23.2564 25.2093 23.2199C25.1844 23.1833 25.1524 23.1521 25.1153 23.128C25.0781 23.1039 25.0365 23.0875 24.993 23.0796C24.9494 23.0718 24.9047 23.0727 24.8615 23.0823C24.8183 23.0919 24.7774 23.11 24.7413 23.1356C22.527 24.6454 17.7585 23.9541 13.2409 21.3459C11.3517 20.2551 9.69804 18.9431 8.43116 17.5509C8.40175 17.5183 8.3662 17.4918 8.32654 17.473C8.28688 17.4542 8.2439 17.4435 8.20007 17.4413C8.15623 17.4392 8.1124 17.4457 8.07109 17.4605C8.02979 17.4753 7.99181 17.4982 7.95935 17.5277C7.92689 17.5573 7.90058 17.5929 7.88194 17.6326C7.86329 17.6724 7.85267 17.7154 7.85069 17.7592C7.84871 17.8031 7.85541 17.8469 7.8704 17.8881C7.88539 17.9294 7.90837 17.9673 7.93804 17.9996Z" fill="#9FEAF9"/>
<path d="M24.3277 17.5941C26.4562 15.0796 27.1993 12.5506 26.1771 10.7801C25.4249 9.47725 23.8348 8.78937 21.7214 8.76187C21.6339 8.762 21.5498 8.79659 21.4876 8.85817C21.4253 8.91974 21.3897 9.00336 21.3886 9.09093C21.3875 9.17851 21.4208 9.26302 21.4815 9.32618C21.5422 9.38935 21.6253 9.4261 21.7128 9.4285C23.6134 9.45325 24.9834 10.0459 25.5998 11.1135C26.4488 12.5841 25.7861 14.8394 23.8188 17.1634C23.79 17.1967 23.768 17.2354 23.7542 17.2773C23.7404 17.3192 23.7351 17.3634 23.7385 17.4074C23.7419 17.4513 23.754 17.4942 23.774 17.5334C23.7941 17.5727 23.8218 17.6076 23.8554 17.6361C23.8891 17.6645 23.9281 17.6861 23.9701 17.6994C24.0121 17.7127 24.0564 17.7176 24.1003 17.7137C24.1442 17.7098 24.187 17.6972 24.226 17.6767C24.265 17.6562 24.2996 17.6281 24.3277 17.5941ZM18.8576 9.07225C16.9331 9.48462 14.8846 10.2909 12.9173 11.4266C8.04957 14.237 4.87419 18.3811 5.31519 21.386C5.32107 21.4297 5.33558 21.4718 5.35786 21.5099C5.38014 21.548 5.40976 21.5813 5.445 21.6078C5.48024 21.6344 5.52039 21.6537 5.56314 21.6646C5.60589 21.6755 5.65038 21.6778 5.69404 21.6714C5.73769 21.665 5.77963 21.65 5.81744 21.6272C5.85525 21.6045 5.88816 21.5745 5.91428 21.5389C5.9404 21.5034 5.9592 21.463 5.96959 21.4201C5.97998 21.3772 5.98176 21.3327 5.97482 21.2891C5.58319 18.6211 8.59319 14.693 13.2507 12.004C15.1591 10.9021 17.1426 10.1215 18.9972 9.72412C19.0406 9.71557 19.0819 9.69846 19.1186 9.67379C19.1553 9.64913 19.1868 9.6174 19.2111 9.58046C19.2354 9.54352 19.2522 9.5021 19.2604 9.45862C19.2685 9.41515 19.268 9.37048 19.2587 9.32722C19.2494 9.28396 19.2317 9.24298 19.2064 9.20666C19.1811 9.17035 19.1489 9.13942 19.1116 9.11569C19.0742 9.09196 19.0325 9.0759 18.9889 9.06844C18.9453 9.06098 18.9007 9.06227 18.8576 9.07225Z" fill="#9FEAF9"/>
<path d="M10.9713 23.4691C12.0843 26.5766 13.9049 28.49 15.9522 28.49C17.4453 28.49 18.8267 27.4721 19.9039 25.6802C19.9272 25.6427 19.9429 25.6009 19.9499 25.5573C19.9569 25.5136 19.9552 25.4691 19.9448 25.4261C19.9344 25.3832 19.9156 25.3427 19.8895 25.3071C19.8633 25.2714 19.8304 25.2414 19.7925 25.2186C19.7546 25.1958 19.7126 25.1808 19.6689 25.1744C19.6252 25.1681 19.5806 25.1704 19.5378 25.1814C19.495 25.1924 19.4548 25.2118 19.4196 25.2385C19.3843 25.2651 19.3548 25.2985 19.3325 25.3367C18.3644 26.9471 17.1753 27.8232 15.9522 27.8232C14.2515 27.8232 12.6277 26.1167 11.599 23.2445C11.585 23.2024 11.5626 23.1636 11.5333 23.1303C11.5041 23.097 11.4684 23.0698 11.4285 23.0505C11.3886 23.0311 11.3453 23.0199 11.301 23.0175C11.2567 23.0151 11.2124 23.0215 11.1706 23.0365C11.1288 23.0514 11.0905 23.0746 11.0578 23.1045C11.0251 23.1345 10.9987 23.1707 10.9801 23.2109C10.9616 23.2512 10.9512 23.2948 10.9497 23.3391C10.9483 23.3835 10.9556 23.4277 10.9714 23.4691H10.9713ZM21.1365 22.8612C21.7128 21.0202 22.0222 18.8965 22.0222 16.6834C22.0222 11.161 20.0893 6.40048 17.3363 5.1781C17.2559 5.14442 17.1655 5.14358 17.0844 5.17578C17.0034 5.20797 16.9382 5.27062 16.9028 5.35032C16.8674 5.43001 16.8647 5.52039 16.8951 5.60209C16.9256 5.68378 16.9869 5.75029 17.0658 5.78735C19.5212 6.87773 21.3554 11.3956 21.3554 16.6834C21.3554 18.8305 21.0558 20.8871 20.5004 22.6621C20.4866 22.7041 20.4813 22.7484 20.4848 22.7924C20.4883 22.8365 20.5004 22.8794 20.5206 22.9187C20.5409 22.958 20.5687 22.9928 20.6025 23.0213C20.6363 23.0497 20.6754 23.0712 20.7176 23.0844C20.7597 23.0976 20.8041 23.1022 20.8481 23.0981C20.8921 23.094 20.9348 23.0812 20.9738 23.0605C21.0128 23.0397 21.0473 23.0114 21.0752 22.9772C21.1032 22.943 21.1241 22.9036 21.1367 22.8612H21.1365ZM27.4145 22.5347C27.4145 21.6536 26.7003 20.9394 25.8192 20.9394C24.938 20.9394 24.2238 21.6536 24.2238 22.5347C24.2238 23.4159 24.938 24.1301 25.8192 24.1301C26.7003 24.1301 27.4145 23.4159 27.4145 22.5347ZM26.7479 22.5347C26.7479 22.6567 26.7239 22.7775 26.6772 22.8901C26.6305 23.0028 26.5621 23.1052 26.4759 23.1915C26.3897 23.2777 26.2873 23.3461 26.1746 23.3928C26.0619 23.4395 25.9411 23.4635 25.8192 23.4635C25.6972 23.4635 25.5764 23.4395 25.4638 23.3928C25.3511 23.3461 25.2487 23.2777 25.1624 23.1915C25.0762 23.1052 25.0078 23.0028 24.9611 22.8901C24.9144 22.7775 24.8904 22.6567 24.8904 22.5347C24.8904 22.2884 24.9883 22.0522 25.1624 21.878C25.3366 21.7038 25.5729 21.606 25.8192 21.606C26.0655 21.606 26.3017 21.7038 26.4759 21.878C26.6501 22.0522 26.7479 22.2884 26.7479 22.5347ZM6.06217 24.1301C6.94342 24.1301 7.65767 23.4159 7.65767 22.5347C7.65767 21.6536 6.9433 20.9394 6.06217 20.9394C5.18117 20.9394 4.4668 21.6536 4.4668 22.5347C4.4668 23.4159 5.18117 24.1301 6.06217 24.1301ZM6.06217 23.4635C5.81585 23.4635 5.57962 23.3656 5.40545 23.1915C5.23127 23.0173 5.13342 22.781 5.13342 22.5347C5.13342 22.2884 5.23127 22.0522 5.40545 21.878C5.57962 21.7038 5.81585 21.606 6.06217 21.606C6.30849 21.606 6.54472 21.7038 6.7189 21.878C6.89307 22.0522 6.99092 22.2884 6.99092 22.5347C6.99092 22.781 6.89307 23.0173 6.7189 23.1915C6.54472 23.3656 6.30849 23.4635 6.06217 23.4635Z" fill="#9FEAF9"/>
<path d="M15.9523 6.8055C16.8334 6.8055 17.5477 6.09125 17.5477 5.21012C17.5477 4.329 16.8334 3.61475 15.9523 3.61475C15.0712 3.61475 14.3569 4.329 14.3569 5.21012C14.3569 6.09125 15.0712 6.8055 15.9523 6.8055ZM15.9523 6.13887C15.706 6.13887 15.4698 6.04102 15.2956 5.86685C15.1214 5.69267 15.0236 5.45644 15.0236 5.21012C15.0236 4.9638 15.1214 4.72757 15.2956 4.5534C15.4698 4.37922 15.706 4.28137 15.9523 4.28137C16.1986 4.28137 16.4349 4.37922 16.609 4.5534C16.7832 4.72757 16.8811 4.9638 16.8811 5.21012C16.8811 5.45644 16.7832 5.69267 16.609 5.86685C16.4349 6.04102 16.1986 6.13887 15.9523 6.13887ZM16.1959 17.8116C15.5728 17.9462 14.9589 17.5502 14.8241 16.9271C14.7595 16.6279 14.8164 16.3153 14.9822 16.058C15.1481 15.8007 15.4094 15.6198 15.7086 15.5551C16.3317 15.4205 16.9456 15.8165 17.0806 16.4396C17.2152 17.0627 16.8192 17.6767 16.1959 17.8116Z" fill="#9FEAF9"/>
</g>
<defs>
<clipPath id="clip0_590_3751">
<rect width="32" height="32" fill="white"/>
</clipPath>
</defs>
</svg>
