<svg width="33" height="32" viewBox="0 0 33 32" fill="none" xmlns="http://www.w3.org/2000/svg">
<g clip-path="url(#clip0_590_3744)">
<path d="M32.4999 16.5935C32.5245 16.5935 24.7624 12.2128 24.7396 12.084C24.564 11.1528 24.3429 9.61529 23.2721 8.81989C22.3505 8.1413 16.1296 5.34106 16.1173 5.31186C14.9719 3.61738 13.9568 1.84186 13.0806 0C12.2484 0.612987 11.5716 1.40522 11.1025 2.31532C10.6334 3.22543 10.3847 4.229 10.3756 5.2483C7.31962 5.67694 4.45143 6.9479 2.10614 8.91266C8.18841 7.54862 9.94025 8.80614 9.94025 8.80614C7.94893 9.15332 6.03011 9.8209 4.2617 10.7818C1.66906 12.1767 0.5 13.8517 0.5 13.8517C0.5 13.8517 6.38743 12.2042 10.9057 13.8071C8.79869 14.098 6.84013 15.035 5.3114 16.4836C14.6762 17.6192 19.2945 25.5732 21.2376 32C21.9521 20.5689 16.1366 16.2276 16.1366 16.2276C17.8253 16.3462 19.9492 17.6312 21.3079 19.5432C25.4505 19.0863 27.757 20.3283 27.7377 20.3283C27.6921 20.3283 29.9775 19.6412 31.5889 18.9145C31.4502 18.71 30.8675 18.0005 30.5357 17.6037C30.5813 17.6071 31.8557 17.5333 32.4999 16.5935ZM19.5648 11.5342C19.6561 11.5119 21.6853 10.9536 22.2645 11.1683C22.7911 11.3624 22.8017 12.8296 22.8017 12.8296C22.8017 12.8296 21.5992 12.9945 19.5648 11.5342Z" fill="#262626"/>
</g>
<defs>
<clipPath id="clip0_590_3744">
<rect width="32" height="32" fill="white" transform="translate(0.5)"/>
</clipPath>
</defs>
</svg>
