<svg width="32" height="32" viewBox="0 0 32 32" fill="none" xmlns="http://www.w3.org/2000/svg">
<g clip-path="url(#clip0_590_3445)">
<path d="M31.9999 16.5935C32.0245 16.5935 24.2624 12.2128 24.2396 12.084C24.064 11.1528 23.8429 9.61529 22.7721 8.81989C21.8505 8.1413 15.6296 5.34106 15.6173 5.31186C14.4719 3.61738 13.4568 1.84186 12.5806 0C11.7484 0.612987 11.0716 1.40522 10.6025 2.31532C10.1334 3.22543 9.88469 4.229 9.87557 5.2483C6.81962 5.67694 3.95143 6.9479 1.60614 8.91266C7.68841 7.54862 9.44025 8.80614 9.44025 8.80614C7.44893 9.15332 5.53011 9.8209 3.7617 10.7818C1.16906 12.1767 0 13.8517 0 13.8517C0 13.8517 5.88743 12.2042 10.4057 13.8071C8.29869 14.098 6.34013 15.035 4.8114 16.4836C14.1762 17.6192 18.7945 25.5732 20.7376 32C21.4521 20.5689 15.6366 16.2276 15.6366 16.2276C17.3253 16.3462 19.4492 17.6312 20.8079 19.5432C24.9505 19.0863 27.257 20.3283 27.2377 20.3283C27.1921 20.3283 29.4775 19.6412 31.0889 18.9145C30.9502 18.71 30.3675 18.0005 30.0357 17.6037C30.0813 17.6071 31.3557 17.5333 31.9999 16.5935ZM19.0648 11.5342C19.1561 11.5119 21.1853 10.9536 21.7645 11.1683C22.2911 11.3624 22.3017 12.8296 22.3017 12.8296C22.3017 12.8296 21.0992 12.9945 19.0648 11.5342Z" fill="#CCCCCC"/>
</g>
<defs>
<clipPath id="clip0_590_3445">
<rect width="32" height="32" fill="white"/>
</clipPath>
</defs>
</svg>
