<svg width="216" height="40" viewBox="0 0 216 40" fill="none" xmlns="http://www.w3.org/2000/svg">
<g clip-path="url(#clip0_2025_21199)">
<g clip-path="url(#clip1_2025_21199)">
<path fill-rule="evenodd" clip-rule="evenodd" d="M22.1271 3.7409C21.6994 4.56591 20.836 5.12983 19.8406 5.12983C18.4199 5.12983 17.2682 3.98129 17.2682 2.56442C17.2682 1.14755 18.4199 -0.000976562 19.8406 -0.000976562C21.2612 -0.000976562 22.4129 1.14755 22.4129 2.56442C22.4129 2.60144 22.4121 2.63828 22.4105 2.67492C26.6687 4.87103 29.6278 12.3607 29.6278 21.0137C29.6278 24.5724 29.129 27.9875 28.1999 30.9479C28.1796 31.016 28.1461 31.0794 28.101 31.1344C28.0559 31.1894 28.0003 31.2349 27.9375 31.2683C27.8746 31.3016 27.8057 31.3222 27.7348 31.3288C27.6638 31.3354 27.5923 31.3279 27.5243 31.3067C27.4563 31.2855 27.3933 31.251 27.3387 31.2052C27.2842 31.1595 27.2394 31.1034 27.2068 31.0402C27.1743 30.977 27.1546 30.908 27.149 30.8372C27.1434 30.7664 27.152 30.6952 27.1742 30.6277C28.0697 27.7734 28.5528 24.4663 28.5528 21.0137C28.5528 12.866 25.8372 5.85505 22.1271 3.7409ZM18.7817 3.62045C19.0625 3.90053 19.4434 4.05788 19.8406 4.05788C20.2377 4.05788 20.6186 3.90053 20.8994 3.62045C21.1803 3.34038 21.338 2.96051 21.338 2.56442C21.338 2.16834 21.1803 1.78847 20.8994 1.50839C20.6186 1.22832 20.2377 1.07097 19.8406 1.07097C19.4434 1.07097 19.0625 1.22832 18.7817 1.50839C18.5008 1.78847 18.3431 2.16834 18.3431 2.56442C18.3431 2.96051 18.5008 3.34038 18.7817 3.62045Z" fill="#9FEAF9"/>
<path d="M18.0214 21.4056C18.2389 22.4076 19.2287 23.0444 20.2334 22.8279C21.2383 22.6111 21.8768 21.6237 21.6597 20.6217C21.442 19.6197 20.4522 18.9829 19.4475 19.1994C18.9651 19.3035 18.5439 19.5943 18.2764 20.008C18.009 20.4218 17.9173 20.9245 18.0214 21.4056Z" fill="#9FEAF9"/>
<path d="M11.8099 31.9253C13.6044 36.9223 16.5399 39.999 19.8408 39.999C22.2483 39.999 24.4755 38.3623 26.2124 35.4809C26.25 35.4205 26.2752 35.3533 26.2865 35.2832C26.2978 35.213 26.2951 35.1413 26.2784 35.0722C26.2616 35.0032 26.2313 34.9381 26.1892 34.8808C26.147 34.8235 26.0939 34.7752 26.0328 34.7386C25.9717 34.702 25.904 34.6778 25.8335 34.6676C25.763 34.6573 25.6911 34.6611 25.6221 34.6788C25.5531 34.6965 25.4883 34.7276 25.4315 34.7705C25.3747 34.8134 25.327 34.8671 25.2912 34.9285C23.7302 37.518 21.8129 38.9269 19.8408 38.9269C17.0988 38.9269 14.4805 36.1828 12.822 31.5641C12.7993 31.4965 12.7633 31.4341 12.7161 31.3805C12.6689 31.3269 12.6114 31.2833 12.5471 31.2522C12.4827 31.221 12.4128 31.203 12.3414 31.1991C12.27 31.1953 12.1985 31.2057 12.1312 31.2297C12.0639 31.2537 12.002 31.2909 11.9493 31.3391C11.8965 31.3873 11.854 31.4454 11.8241 31.5102C11.7942 31.575 11.7775 31.6451 11.7751 31.7164C11.7727 31.7877 11.7844 31.8587 11.8099 31.9253Z" fill="#9FEAF9"/>
<path fill-rule="evenodd" clip-rule="evenodd" d="M38.3223 30.4228C38.3223 29.006 37.1706 27.8574 35.7499 27.8574C34.3293 27.8574 33.1776 29.006 33.1776 30.4228C33.1776 30.8841 33.2997 31.3169 33.5134 31.691C29.7611 33.7122 22.4304 32.5193 15.4691 28.5111C12.423 26.7571 9.75675 24.6474 7.71409 22.4086C7.66667 22.3562 7.60934 22.3137 7.5454 22.2835C7.48145 22.2533 7.41216 22.2359 7.34148 22.2324C7.2708 22.229 7.20013 22.2395 7.13353 22.2633C7.06692 22.2872 7.0057 22.3239 6.95336 22.3714C6.90102 22.4189 6.8586 22.4762 6.82854 22.5401C6.79847 22.604 6.78135 22.6732 6.77816 22.7437C6.77497 22.8142 6.78577 22.8846 6.80993 22.951C6.8341 23.0173 6.87116 23.0782 6.919 23.1302C9.03824 25.4528 11.7915 27.6315 14.9316 29.4393C22.3077 33.6866 30.1461 34.9145 34.2497 32.507C34.672 32.8099 35.1901 32.9882 35.7499 32.9882C37.1706 32.9882 38.3223 31.8397 38.3223 30.4228ZM34.7665 31.5245C34.7776 31.5408 34.7878 31.5576 34.797 31.5749C34.9114 31.669 35.0394 31.7458 35.1769 31.8026C35.3586 31.8777 35.5533 31.9163 35.7499 31.9163C35.9466 31.9163 36.1413 31.8777 36.323 31.8026C36.5047 31.7276 36.6698 31.6176 36.8088 31.4789C36.9479 31.3402 37.0582 31.1756 37.1334 30.9944C37.2087 30.8132 37.2474 30.619 37.2474 30.4228C37.2474 30.0268 37.0897 29.6469 36.8088 29.3668C36.528 29.0867 36.1471 28.9294 35.7499 28.9294C35.3528 28.9294 34.9719 29.0867 34.6911 29.3668C34.4102 29.6469 34.2525 30.0268 34.2525 30.4228C34.2525 30.619 34.2912 30.8132 34.3665 30.9944C34.4207 31.125 34.4931 31.247 34.5814 31.3568C34.5928 31.3631 34.6039 31.3697 34.6148 31.3767C34.6747 31.4155 34.7263 31.4657 34.7665 31.5245Z" fill="#9FEAF9"/>
<path fill-rule="evenodd" clip-rule="evenodd" d="M3.89458 32.9882C5.31547 32.9882 6.4671 31.8397 6.4671 30.4228C6.4671 29.006 5.31527 27.8574 3.89458 27.8574C3.82997 27.8574 3.76592 27.8598 3.70251 27.8645C3.53757 23.5985 8.29303 17.6301 15.4847 13.4891C18.5617 11.7173 21.7598 10.462 24.7502 9.82303C24.8201 9.80928 24.8867 9.78177 24.9459 9.7421C25.0051 9.70244 25.0558 9.65142 25.0951 9.59202C25.1343 9.53262 25.1613 9.46602 25.1745 9.39611C25.1877 9.32619 25.1867 9.25436 25.1718 9.1848C25.1569 9.11524 25.1282 9.04935 25.0875 8.99095C25.0467 8.93255 24.9948 8.88282 24.9346 8.84466C24.8744 8.8065 24.8071 8.78067 24.7368 8.76868C24.6665 8.75668 24.5945 8.75877 24.525 8.7748C21.422 9.43791 18.1191 10.7344 14.9472 12.5607C7.31072 16.9577 2.25748 23.3852 2.64495 28.18C1.85603 28.6182 1.32227 29.4583 1.32227 30.4228C1.32227 31.8397 2.47409 32.9882 3.89458 32.9882ZM3.89458 31.9163C3.49743 31.9163 3.11654 31.7589 2.83571 31.4789C2.55487 31.1988 2.3971 30.8189 2.3971 30.4228C2.3971 30.0268 2.55487 29.6469 2.83571 29.3668C3.11654 29.0867 3.49743 28.9294 3.89458 28.9294C4.29174 28.9294 4.67263 29.0867 4.95346 29.3668C5.23429 29.6469 5.39206 30.0268 5.39206 30.4228C5.39206 30.8189 5.23429 31.1988 4.95346 31.4789C4.67263 31.7589 4.29174 31.9163 3.89458 31.9163Z" fill="#9FEAF9"/>
<path d="M3.33896 11.4938C4.99062 8.64072 9.13478 7.64435 14.376 8.5963C14.5144 8.62364 14.6365 8.70419 14.7159 8.82056C14.7953 8.93693 14.8257 9.07978 14.8004 9.21826C14.7751 9.35674 14.6962 9.47974 14.5807 9.5607C14.4653 9.64166 14.3225 9.67408 14.1833 9.65096C9.33834 8.77097 5.64201 9.65981 4.26989 12.0298C3.25935 13.7755 3.56348 16.2115 5.12585 18.9295C5.16279 18.9906 5.18711 19.0585 5.19739 19.1291C5.20768 19.1997 5.20372 19.2717 5.18574 19.3408C5.16777 19.4099 5.13614 19.4747 5.09272 19.5314C5.04929 19.5881 4.99495 19.6357 4.93287 19.6712C4.87078 19.7067 4.80222 19.7295 4.73119 19.7382C4.66016 19.7469 4.5881 19.7414 4.51924 19.722C4.45037 19.7026 4.38608 19.6696 4.33015 19.6251C4.27422 19.5806 4.22776 19.5254 4.19351 19.4627C2.45881 16.4455 2.10651 13.6228 3.33896 11.4938Z" fill="#9FEAF9"/>
<path d="M36.3267 11.5211C37.9749 14.3681 36.7767 18.4348 33.3448 22.4782C33.2995 22.5328 33.2438 22.5779 33.1808 22.6109C33.1179 22.6439 33.0491 22.6642 32.9782 22.6704C32.9074 22.6767 32.8361 22.6689 32.7683 22.6475C32.7005 22.6261 32.6377 22.5914 32.5834 22.5456C32.5291 22.4998 32.4845 22.4437 32.4521 22.3806C32.4198 22.3175 32.4003 22.2486 32.3948 22.1779C32.3893 22.1072 32.3979 22.0361 32.4201 21.9687C32.4424 21.9014 32.4778 21.8391 32.5243 21.7855C35.6963 18.0485 36.7648 14.422 35.396 12.0572C34.4021 10.3404 32.1932 9.38746 29.1287 9.34766C28.9876 9.34381 28.8536 9.28471 28.7558 9.18314C28.6579 9.08156 28.6041 8.94568 28.6059 8.80485C28.6078 8.66402 28.6651 8.52957 28.7655 8.43056C28.8659 8.33154 29.0014 8.27592 29.1426 8.27571C32.5501 8.31993 35.114 9.42605 36.3267 11.5211Z" fill="#9FEAF9"/>
</g>
<path d="M125.06 26.2971H122.812V18.5423H120.816L121.331 16.613H122.812V16.0812C122.812 13.8178 124.138 12.4664 126.363 12.4664C127.269 12.4515 128.156 12.7185 128.897 13.2289L129 13.3014L128.002 14.9583L127.876 14.8572C127.497 14.5354 127.01 14.3611 126.507 14.3672C125.588 14.3672 125.06 14.9605 125.06 15.9977V16.6196H128.305V18.5489H125.06V26.2971Z" fill="white"/>
<path fill-rule="evenodd" clip-rule="evenodd" d="M49.3223 21.4562C49.3223 18.1183 51.9207 16.3604 54.4921 16.3604C57.0455 16.3604 59.6349 18.1227 59.6349 21.4562C59.6349 24.7897 57.041 26.5323 54.4786 26.5323C51.9162 26.5323 49.3223 24.7941 49.3223 21.4562ZM51.6239 21.4716C51.6239 23.4932 53.058 24.548 54.4741 24.548C55.8901 24.548 57.3242 23.48 57.3242 21.4364C57.3242 19.6148 56.1599 18.3424 54.4921 18.3424C53.067 18.3424 51.6239 19.417 51.6239 21.4716Z" fill="white"/>
<path fill-rule="evenodd" clip-rule="evenodd" d="M105.029 21.4562C105.029 18.1183 107.627 16.3604 110.199 16.3604C112.752 16.3604 115.339 18.1227 115.339 21.4562C115.339 24.7897 112.748 26.5323 110.185 26.5323C107.623 26.5323 105.029 24.7941 105.029 21.4562ZM107.331 21.4716C107.331 23.4932 108.762 24.548 110.181 24.548C111.597 24.548 113.029 23.48 113.029 21.4364C113.029 19.6148 111.864 18.3424 110.199 18.3424C108.774 18.3424 107.331 19.417 107.331 21.4716Z" fill="white"/>
<path d="M65.5533 26.4971H64.9958L64.9576 26.4224L60.0059 16.6152H62.5885L65.3015 22.601L68.0168 16.6152H70.541L65.5533 26.4971Z" fill="white"/>
<path fill-rule="evenodd" clip-rule="evenodd" d="M70.8984 21.4386C70.8984 24.5326 72.8854 26.5323 75.9626 26.5323C77.7181 26.5323 79.0285 26.0093 80.076 24.8776L80.1569 24.7897L78.9139 23.324L78.8082 23.4273C78.4623 23.7858 78.0439 24.07 77.5795 24.2618C77.1151 24.4536 76.615 24.5488 76.1109 24.5414C74.4364 24.5414 73.4474 23.6888 73.2226 22.0715H80.5637V21.4144C80.5637 18.338 78.7475 16.3604 75.8682 16.3604C72.9888 16.3604 70.8984 18.4963 70.8984 21.4386ZM78.2351 20.4366H73.2653C73.5665 19.1049 74.5285 18.2545 75.8457 18.2545C77.1629 18.2545 78.0283 19.0478 78.2351 20.4366Z" fill="white"/>
<path d="M100.465 26.4973H99.8914L97.3829 20.5665L94.8745 26.4973H94.2811L90.2419 16.6155H92.7009L94.7351 22.1113L97.1042 16.5605H97.6954L100.118 22.1113L102.099 16.6155H104.542L100.465 26.4973Z" fill="white"/>
<path d="M88.3254 16.6309H88.422C88.422 16.6309 88.8693 18.2548 89.0469 18.9514C88.2759 18.7646 87.1094 18.9865 86.2665 19.4699C85.3561 19.9929 84.8549 20.7576 84.8549 21.7047V26.2974H82.6071V16.6133H84.7785L84.8257 18.4393C85.1994 17.868 85.7183 17.401 86.3317 17.0841C86.945 16.7671 87.6319 16.611 88.3254 16.6309Z" fill="white"/>
<path d="M117.111 26.2977H119.359V12.7021H117.111V26.2977Z" fill="white"/>
<path d="M144.1 20.239C144.1 20.439 144.08 20.619 144.08 20.819H136.12C136.32 22.819 137.52 23.859 139.42 23.859C140.58 23.859 141.52 23.499 142.46 22.579L143.62 23.979C142.48 25.219 141.08 25.759 139.26 25.759C136.08 25.759 133.92 23.699 133.92 20.259C133.92 16.899 136.3 14.779 139.16 14.779C142.06 14.779 144.1 16.779 144.1 20.239ZM139.14 16.579C137.6 16.579 136.44 17.659 136.16 19.299H141.88C141.7 17.659 140.74 16.579 139.14 16.579ZM146.613 10.719H148.753V25.499H146.613V10.719ZM161.541 20.239C161.541 20.439 161.521 20.619 161.521 20.819H153.561C153.761 22.819 154.961 23.859 156.861 23.859C158.021 23.859 158.961 23.499 159.901 22.579L161.061 23.979C159.921 25.219 158.521 25.759 156.701 25.759C153.521 25.759 151.361 23.699 151.361 20.259C151.361 16.899 153.741 14.779 156.601 14.779C159.501 14.779 161.541 16.779 161.541 20.239ZM156.581 16.579C155.041 16.579 153.881 17.659 153.601 19.299H159.321C159.141 17.659 158.181 16.579 156.581 16.579ZM168.555 25.739C165.575 25.739 163.315 23.699 163.315 20.279C163.315 17.059 165.635 14.839 168.735 14.839C170.255 14.839 171.495 15.319 172.455 16.259L171.295 17.819C170.615 17.119 169.815 16.779 168.815 16.779C166.955 16.779 165.515 18.159 165.515 20.299C165.515 22.599 166.975 23.779 168.695 23.779C169.695 23.779 170.515 23.479 171.355 22.659L172.515 24.159C171.455 25.199 170.235 25.739 168.555 25.739ZM181.833 24.819C181.033 25.419 180.133 25.759 179.073 25.759C177.133 25.759 175.653 24.779 175.653 22.279V16.899H173.533L174.013 15.059H175.653V12.179H177.793V15.059H181.633V16.899H177.793V22.259C177.793 23.319 178.413 23.819 179.293 23.819C179.953 23.819 180.433 23.619 180.993 23.199L181.833 24.819ZM186.155 17.159C187.115 15.299 188.715 14.899 190.075 14.899V17.079C188.295 16.959 186.175 17.619 186.175 20.459V25.499H184.035V15.059H186.095L186.155 17.159ZM196.762 25.759C193.882 25.759 191.322 23.719 191.322 20.279C191.322 16.819 193.862 14.779 196.782 14.779C199.662 14.779 202.202 16.799 202.202 20.279C202.202 23.699 199.682 25.759 196.762 25.759ZM196.762 23.859C198.462 23.859 200.002 22.519 200.002 20.259C200.002 18.019 198.522 16.679 196.782 16.679C195.062 16.679 193.522 18.019 193.522 20.279C193.522 22.519 195.022 23.859 196.762 23.859ZM210.377 14.779C212.577 14.779 214.137 16.319 214.137 19.319V25.499H211.997V19.579C211.997 17.659 211.117 16.779 209.617 16.779C208.177 16.779 206.917 17.699 206.917 19.979V25.499H204.777V15.059H206.837L206.897 16.659C207.677 15.399 208.857 14.779 210.377 14.779Z" fill="#9FEAF9"/>
</g>
<defs>
<clipPath id="clip0_2025_21199">
<rect width="215.678" height="40" fill="white" transform="translate(0.322266 -0.000976562)"/>
</clipPath>
<clipPath id="clip1_2025_21199">
<rect width="40" height="40" fill="white" transform="translate(0.322266 -0.000976562)"/>
</clipPath>
</defs>
</svg>
