<svg width="112" height="80" viewBox="0 0 112 80" fill="none" xmlns="http://www.w3.org/2000/svg">
<path d="M72 74V70L40 64V74H35V80H77V74H72Z" fill="white"/>
<path d="M108 4H4V60H108V4Z" fill="url(#paint0_linear_687_8591)"/>
<path d="M42 12H12V52H42V12Z" fill="white"/>
<path opacity="0.2" d="M37 15.5C37 16.3284 37.6716 17 38.5 17C39.3284 17 40 16.3284 40 15.5C40 14.6716 39.3284 14 38.5 14C37.6716 14 37 14.6716 37 15.5Z" fill="#EA483B"/>
<path d="M38 15.5C38 15.7761 38.2239 16 38.5 16C38.7761 16 39 15.7761 39 15.5C39 15.2239 38.7761 15 38.5 15C38.2239 15 38 15.2239 38 15.5Z" fill="#EA483B"/>
<path opacity="0.2" d="M33 15.5C33 16.3284 33.6716 17 34.5 17C35.3284 17 36 16.3284 36 15.5C36 14.6716 35.3284 14 34.5 14C33.6716 14 33 14.6716 33 15.5Z" fill="#EA483B"/>
<path d="M34 15.5C34 15.7761 34.2239 16 34.5 16C34.7761 16 35 15.7761 35 15.5C35 15.2239 34.7761 15 34.5 15C34.2239 15 34 15.2239 34 15.5Z" fill="#EA483B"/>
<path opacity="0.2" d="M29 15.5C29 16.3284 29.6716 17 30.5 17C31.3284 17 32 16.3284 32 15.5C32 14.6716 31.3284 14 30.5 14C29.6716 14 29 14.6716 29 15.5Z" fill="#EA483B"/>
<path d="M30 15.5C30 15.7761 30.2239 16 30.5 16C30.7761 16 31 15.7761 31 15.5C31 15.2239 30.7761 15 30.5 15C30.2239 15 30 15.2239 30 15.5Z" fill="#EA483B"/>
<path fill-rule="evenodd" clip-rule="evenodd" d="M20 34L16 32V48H20V34ZM38 36L34 34V48H38V36ZM28 38L32 40V48H28V38ZM26 34L22 32V48H26V34Z" fill="black"/>
<path d="M16 28H38L35 24L32 25L29 21L22 24L16 18V28Z" fill="url(#paint1_linear_687_8591)"/>
<path d="M69 48H73V45H76V48H80L79 52H70L69 48Z" fill="#EA483B"/>
<path opacity="0.2" d="M74.5 42C75.3284 42 76 41.3284 76 40.5C76 39.6716 75.3284 39 74.5 39C73.6716 39 73 39.6716 73 40.5C73 41.3284 73.6716 42 74.5 42Z" fill="#EA483B"/>
<path d="M74.5 41C74.7761 41 75 40.7761 75 40.5C75 40.2239 74.7761 40 74.5 40C74.2239 40 74 40.2239 74 40.5C74 40.7761 74.2239 41 74.5 41Z" fill="#D34037"/>
<path opacity="0.2" d="M74.5 38C75.3284 38 76 37.3284 76 36.5C76 35.6716 75.3284 35 74.5 35C73.6716 35 73 35.6716 73 36.5C73 37.3284 73.6716 38 74.5 38Z" fill="#EA483B"/>
<path d="M74.5 37C74.7761 37 75 36.7761 75 36.5C75 36.2239 74.7761 36 74.5 36C74.2239 36 74 36.2239 74 36.5C74 36.7761 74.2239 37 74.5 37Z" fill="#D34037"/>
<path opacity="0.2" d="M74.5 34C75.3284 34 76 33.3284 76 32.5C76 31.6716 75.3284 31 74.5 31C73.6716 31 73 31.6716 73 32.5C73 33.3284 73.6716 34 74.5 34Z" fill="#EA483B"/>
<path d="M74.5 33C74.7761 33 75 32.7761 75 32.5C75 32.2239 74.7761 32 74.5 32C74.2239 32 74 32.2239 74 32.5C74 32.7761 74.2239 33 74.5 33Z" fill="#D34037"/>
<path fill-rule="evenodd" clip-rule="evenodd" d="M67.5 26L71 29V28L70 26L72 24H74.5H77L79 26L78 28V29L81.5 26L80.4838 23.4627L82 22L84 23V26L86 22L84 20L81 16L79 15L77 16.0597L78.4515 13.194L78 12L75.5 15H74.5H73.5L71 12L70.5485 13.194L72 16.0597L70 15L68 16L65 20L63 22L65 26V23L67 22L68.5162 23.4627L67.5 26Z" fill="white"/>
<circle cx="77.5" cy="19.5" r="1.5" fill="black"/>
<circle cx="71.5" cy="19.5" r="1.5" fill="black"/>
<path d="M2 2H110V62H2V2Z" stroke="white" stroke-width="4"/>
<defs>
<linearGradient id="paint0_linear_687_8591" x1="56" y1="60" x2="55.9648" y2="3.60577" gradientUnits="userSpaceOnUse">
<stop stop-opacity="0"/>
<stop offset="1" stop-color="#EA483B"/>
</linearGradient>
<linearGradient id="paint1_linear_687_8591" x1="27" y1="32.2565" x2="27" y2="22.2565" gradientUnits="userSpaceOnUse">
<stop/>
<stop offset="1" stop-color="#EA483B"/>
</linearGradient>
</defs>
</svg>
