<svg width="136" height="74" viewBox="0 0 136 74" fill="none" xmlns="http://www.w3.org/2000/svg">
<g clip-path="url(#clip0_647_6860)">
<rect width="136" height="4" fill="#4D4D4D"/>
<rect width="136" height="70" transform="translate(0 4)" fill="#333333"/>
<rect width="18" height="68" transform="translate(117 5)" fill="#D34037"/>
<path fill-rule="evenodd" clip-rule="evenodd" d="M126.001 45.6666C129.683 45.6666 132.667 42.6818 132.667 38.9999C132.667 35.318 129.683 32.3333 126.001 32.3333C122.319 32.3333 119.334 35.318 119.334 38.9999C119.334 42.6818 122.319 45.6666 126.001 45.6666ZM126.668 34.3332H125.334V35.6665C124.23 35.6665 123.334 36.562 123.334 37.6665C123.334 38.7711 124.23 39.6665 125.334 39.6665H125.668H126.668C127.036 39.6665 127.334 39.965 127.334 40.3332C127.334 40.7014 127.036 40.9999 126.668 40.9999H126.334H125.334C124.966 40.9999 124.668 40.7014 124.668 40.3332H123.334C123.334 41.4378 124.23 42.3332 125.334 42.3332V43.6665H126.668L126.668 42.3332C127.772 42.3332 128.668 41.4378 128.668 40.3332C128.668 39.2286 127.772 38.3332 126.668 38.3332H125.668H125.334C124.966 38.3332 124.668 38.0347 124.668 37.6665C124.668 37.2984 124.966 36.9999 125.334 36.9999H126.334C126.702 36.9999 127.001 37.2984 127.001 37.6665H128.334C128.334 36.6755 127.614 35.8529 126.668 35.6942V34.3332Z" fill="white"/>
<path fill-rule="evenodd" clip-rule="evenodd" d="M36 31L32 29V45H36V31ZM54 33L50 31V45H54V33ZM44 35L48 37V45H44V35ZM42 31L38 29V45H42V31Z" fill="#4D4D4D"/>
<path d="M62 45H84L81 41L78 42L75 38L68 41L62 35V45Z" fill="#4D4D4D"/>
</g>
<defs>
<clipPath id="clip0_647_6860">
<rect width="136" height="74" fill="white"/>
</clipPath>
</defs>
</svg>
