<svg width="48" height="48" viewBox="0 0 48 48" fill="none" xmlns="http://www.w3.org/2000/svg">
<path d="M19.5846 21.6298C19.5846 20.628 20.0073 18.9273 21.1973 17.4298C22.2358 16.125 24.1931 14.5689 27.6232 14.5689C30.0947 14.5689 32.3215 15.5208 34.0641 17.3213C36.4773 19.8138 37.3361 23.1841 37.3361 25.5061C37.3361 28.8093 35.9447 32.1418 33.5165 34.6498C30.8852 37.3694 27.3636 38.867 23.6022 38.867C19.325 38.867 15.3955 37.2403 12.5379 34.2866C9.70192 31.3552 8.13914 27.2653 8.13914 22.771C8.13914 17.6002 10.1363 12.7547 13.7628 9.12959C17.3461 5.54754 22.0894 3.5732 27.1173 3.5732C27.9328 3.5732 28.7316 3.61279 29.5222 3.69369C27.8645 3.24098 26.1153 3 24.3212 3C13.0988 3 4 12.4018 4 24C4 35.5982 13.0988 45 24.3212 45C35.5436 45 44 36.8961 44 25.2979C44 20.1339 42.3906 15.7411 39.3449 12.5946C36.3076 9.45492 31.9654 7.72672 27.1189 7.72672C23.0447 7.72672 19.2318 9.3482 16.3841 12.2934C13.6596 15.1077 12.1601 18.8292 12.1601 22.771C12.1601 26.205 13.2735 29.1725 15.3822 31.35C17.4809 33.5189 20.4001 34.7134 23.6039 34.7134C26.2385 34.7134 28.715 33.6841 30.5773 31.813C32.3199 30.0642 33.3185 27.7645 33.3185 25.5061C33.3185 23.9707 32.671 21.7537 31.2231 20.2579C30.2362 19.2389 29.0262 18.7207 27.6232 18.7207C25.2732 18.7207 24.3229 19.8689 23.8868 20.7089C23.8519 20.776 23.8352 20.8534 23.8352 20.9343C23.8352 21.1461 23.97 21.3268 24.1548 21.3888C25.2166 21.7451 25.9489 22.8312 25.9489 24.0516C25.9489 25.6198 24.719 26.5785 23.2011 26.5785C21.6833 26.5785 19.5846 25.0552 19.5846 21.628V21.6298Z" fill="url(#paint0_linear_521_4079)"/>
<path d="M42 41.5332L31.6613 37.415V32.7328L42 27.8582V41.5332Z" fill="white"/>
<path d="M26.1978 28.5253C30.678 28.5253 34.3099 24.826 34.3099 20.2626C34.3099 15.6993 30.678 12 26.1978 12C21.7176 12 18.0857 15.6993 18.0857 20.2626C18.0857 24.826 21.7176 28.5253 26.1978 28.5253Z" fill="white"/>
<path d="M12.4013 28.5253C15.9367 28.5253 18.8027 25.6061 18.8027 22.0051C18.8027 18.4042 15.9367 15.485 12.4013 15.485C8.86598 15.485 6 18.4042 6 22.0051C6 25.6061 8.86598 28.5253 12.4013 28.5253Z" fill="white"/>
<path d="M28.1483 20.2636L26.1974 18.2765L24.2465 20.2636L26.1974 22.2507L28.1483 20.2636Z" fill="black"/>
<path d="M14.3514 22.0049L12.4005 20.0178L10.4496 22.0049L12.4005 23.992L14.3514 22.0049Z" fill="black"/>
<path d="M29.8326 30.4788H8.30368V34.8436C10.6074 34.5678 12.8717 34.6695 14.9985 35.2888C14.1771 35.7017 13.3618 36.1331 12.5556 36.583L12.5949 42H24.3691C23.5916 40.8476 22.9563 39.6274 22.5055 38.3363C24.8591 39.6181 27.3035 40.7675 29.8326 41.7304V30.4773V30.4788Z" fill="white"/>
<path d="M27.7982 32.2906H18.417V36.2255H27.7982V32.2906Z" fill="url(#paint1_linear_521_4079)"/>
<path opacity="0.2" d="M36 4C37.1046 4 38 3.10457 38 2C38 0.895431 37.1046 0 36 0C34.8954 0 34 0.895431 34 2C34 3.10457 34.8954 4 36 4Z" fill="#EA483B"/>
<path d="M36 2.69999C36.3866 2.69999 36.7 2.38659 36.7 1.99999C36.7 1.61339 36.3866 1.29999 36 1.29999C35.6134 1.29999 35.3 1.61339 35.3 1.99999C35.3 2.38659 35.6134 2.69999 36 2.69999Z" fill="#EA483B"/>
<path opacity="0.2" d="M3 41C4.65685 41 6 39.6569 6 38C6 36.3431 4.65685 35 3 35C1.34315 35 0 36.3431 0 38C0 39.6569 1.34315 41 3 41Z" fill="#EA483B"/>
<path d="M3 39C3.55228 39 4 38.5523 4 38C4 37.4477 3.55228 37 3 37C2.44772 37 2 37.4477 2 38C2 38.5523 2.44772 39 3 39Z" fill="#EA483B"/>
<defs>
<linearGradient id="paint0_linear_521_4079" x1="22.5" y1="57.5" x2="24" y2="3.00153" gradientUnits="userSpaceOnUse">
<stop offset="0.18" stop-color="#1A1A1A" stop-opacity="0"/>
<stop offset="1" stop-color="#EA483B"/>
</linearGradient>
<linearGradient id="paint1_linear_521_4079" x1="18.417" y1="34.2581" x2="27.7982" y2="34.2581" gradientUnits="userSpaceOnUse">
<stop stop-color="#1A1A1A"/>
<stop offset="1" stop-color="#EA483B"/>
</linearGradient>
</defs>
</svg>
