<svg width="48" height="48" viewBox="0 0 48 48" fill="none" xmlns="http://www.w3.org/2000/svg">
<path d="M41.6051 9.49165L46 25.8968L37.5087 40.6049L21.1042 45L6.39488 36.5101L2 20.1049L10.4913 5.39505L26.8958 1L41.6034 9.49165H41.6051Z" fill="url(#paint0_linear_510_4403)"/>
<path fill-rule="evenodd" clip-rule="evenodd" d="M24 36L16.2726 20.2535L19.8474 31.9128L7.99997 20.2535L14.3528 14H33.6472L40 20.2535L28.1543 31.9128L31.729 20.2535L24 36Z" fill="white"/>
<path d="M45.4953 9.09149C39.6739 9.09149 38.946 8.30972 38.946 2.05386C38.946 8.30972 38.2181 9.09149 32.3966 9.09149C38.2181 9.09149 38.946 9.87325 38.946 16.1291C38.946 9.87325 39.6739 9.09149 45.4953 9.09149Z" fill="#EA483B"/>
<path opacity="0.2" d="M36.5 3C37.3284 3 38 2.32843 38 1.5C38 0.671573 37.3284 0 36.5 0C35.6716 0 35 0.671573 35 1.5C35 2.32843 35.6716 3 36.5 3Z" fill="#EA483B"/>
<path d="M36.5 2C36.7761 2 37 1.77614 37 1.5C37 1.22386 36.7761 1 36.5 1C36.2239 1 36 1.22386 36 1.5C36 1.77614 36.2239 2 36.5 2Z" fill="#EA483B"/>
<path opacity="0.2" d="M33 42C34.1046 42 35 41.1046 35 40C35 38.8954 34.1046 38 33 38C31.8954 38 31 38.8954 31 40C31 41.1046 31.8954 42 33 42Z" fill="#EA483B"/>
<path d="M33 40.7C33.3866 40.7 33.7 40.3866 33.7 40C33.7 39.6134 33.3866 39.3 33 39.3C32.6134 39.3 32.3 39.6134 32.3 40C32.3 40.3866 32.6134 40.7 33 40.7Z" fill="#EA483B"/>
<path opacity="0.2" d="M7 36C8.65685 36 10 34.6569 10 33C10 31.3431 8.65685 30 7 30C5.34315 30 4 31.3431 4 33C4 34.6569 5.34315 36 7 36Z" fill="#EA483B"/>
<path d="M7 34C7.55228 34 8 33.5523 8 33C8 32.4477 7.55228 32 7 32C6.44772 32 6 32.4477 6 33C6 33.5523 6.44772 34 7 34Z" fill="#EA483B"/>
<defs>
<linearGradient id="paint0_linear_510_4403" x1="24" y1="1" x2="24" y2="54" gradientUnits="userSpaceOnUse">
<stop stop-color="#EA483B"/>
<stop offset="0.82" stop-color="#1A1A1A" stop-opacity="0"/>
</linearGradient>
</defs>
</svg>
