<svg width="104" height="104" viewBox="0 0 104 104" fill="none" xmlns="http://www.w3.org/2000/svg">
<path opacity="0.2" d="M10.9851 24.748C14.3715 24.748 17.1168 22.0017 17.1168 18.614C17.1168 15.2263 14.3715 12.48 10.9851 12.48C7.59861 12.48 4.85333 15.2263 4.85333 18.614C4.85333 22.0017 7.59861 24.748 10.9851 24.748Z" fill="#EA483B"/>
<path d="M10.9851 20.4692C12.0092 20.4692 12.8395 19.6386 12.8395 18.6141C12.8395 17.5896 12.0092 16.759 10.9851 16.759C9.96092 16.759 9.13068 17.5896 9.13068 18.6141C9.13068 19.6386 9.96092 20.4692 10.9851 20.4692Z" fill="#EA483B"/>
<path opacity="0.2" d="M75.4783 15.0658C77.3404 15.0658 78.85 13.5557 78.85 11.6929C78.85 9.83016 77.3404 8.32007 75.4783 8.32007C73.6162 8.32007 72.1067 9.83016 72.1067 11.6929C72.1067 13.5557 73.6162 15.0658 75.4783 15.0658Z" fill="#EA483B"/>
<path d="M75.4783 12.7147C76.0424 12.7147 76.4997 12.2572 76.4997 11.6929C76.4997 11.1286 76.0424 10.6711 75.4783 10.6711C74.9142 10.6711 74.4569 11.1286 74.4569 11.6929C74.4569 12.2572 74.9142 12.7147 75.4783 12.7147Z" fill="#EA483B"/>
<path d="M43.1765 46.5887C43.1765 44.4195 44.1219 40.7325 46.7862 37.4919C49.11 34.6647 53.4931 31.2951 61.1784 31.2951C66.7119 31.2951 71.6999 33.3552 75.6037 37.2571C81.0082 42.657 82.9321 49.955 82.9321 54.9845C82.9321 62.1403 79.8149 69.3589 74.3807 74.7885C68.4869 80.6778 60.6033 83.9217 52.1808 83.9217C42.6014 83.9217 33.8054 80.4001 27.4059 74.0015C21.056 67.6526 17.5554 58.7939 17.5554 49.0589C17.5554 37.859 22.0278 27.3634 30.1495 19.5099C38.172 11.7556 48.7926 7.48001 60.0512 7.48001C61.8792 7.48001 63.6642 7.56599 65.4359 7.74125C61.7238 6.76245 57.8068 6.23999 53.7873 6.23999C28.6587 6.23999 8.28345 26.6061 8.28345 51.7241C8.28345 76.842 28.6587 97.2082 53.7906 97.2082C78.9225 97.2082 97.8565 79.656 97.8565 54.5348C97.8565 43.3514 94.2535 33.8347 87.4309 27.0195C80.6281 20.2208 70.9066 16.4776 60.0512 16.4776C50.928 16.4776 42.3898 19.9894 36.0102 26.3681C29.9115 32.4657 26.5498 40.5242 26.5498 49.0622C26.5498 56.5023 29.0454 62.9273 33.7624 67.6427C38.4629 72.3382 45.0012 74.9274 52.1742 74.9274C58.0745 74.9274 63.6212 72.6954 67.7895 68.6479C71.69 64.8584 73.9278 59.8785 73.9278 54.9845C73.9278 51.6613 72.4767 46.8566 69.2373 43.6193C67.0292 41.4104 64.3154 40.2927 61.1784 40.2927C55.916 40.2927 53.7873 42.7794 52.8121 44.5981C52.7361 44.7436 52.6964 44.9122 52.6964 45.0875C52.6964 45.5471 52.9972 45.9373 53.4137 46.0696C55.7904 46.8433 57.43 49.1944 57.43 51.8398C57.43 55.2358 54.6765 57.3158 51.2784 57.3158C47.8803 57.3158 43.1765 54.0156 43.1765 46.592V46.5887Z" fill="url(#paint0_linear_125_2123)"/>
<path opacity="0.2" d="M95.68 24.9601C98.3604 24.9601 100.533 22.7872 100.533 20.1068C100.533 17.4263 98.3604 15.2534 95.68 15.2534C92.9996 15.2534 90.8267 17.4263 90.8267 20.1068C90.8267 22.7872 92.9996 24.9601 95.68 24.9601Z" fill="#EA483B"/>
<path d="M95.8601 21.8548C96.7255 21.8548 97.427 21.153 97.427 20.2874C97.427 19.4217 96.7255 18.72 95.8601 18.72C94.9948 18.72 94.2933 19.4217 94.2933 20.2874C94.2933 21.153 94.9948 21.8548 95.8601 21.8548Z" fill="#EA483B"/>
<g clip-path="url(#clip0_125_2123)">
<path d="M75.0186 60.472C74.7315 49.7086 65.2371 41.0642 53.5687 41.0642C41.8968 41.0642 32.4024 49.7086 32.1188 60.472H32.1118V97.0668H75.0256V60.472H75.0186Z" fill="url(#paint1_linear_125_2123)"/>
<path d="M75.3232 64.4182C77.7493 62.728 80.7601 61.8881 83.8898 61.6L83.7708 49.4099H77.2417L77.0771 49.5751L76.9301 49.7227L76.9511 49.6946C75.2182 46.3879 72.8131 43.4889 69.9213 41.1907C68.759 40.2665 67.5197 39.4407 66.2139 38.7204C64.1729 39.6586 62.2054 40.7725 60.3114 41.9989C61.0676 39.7113 62.4645 37.638 64.2149 35.8037L64.7645 34.1486L64.8696 33.8289L66.4275 29.1201H40.3914L41.9528 33.8289L42.0578 34.1486L42.737 36.1973C44.3124 37.9332 45.5692 39.873 46.2729 41.9989C44.4209 40.7971 42.4954 39.7078 40.4999 38.7801C39.2326 39.4864 38.0283 40.2911 36.8975 41.1907C34.0163 43.4783 31.6252 46.3598 29.8923 49.6489L29.8222 49.5786L29.6577 49.4135H22.88L22.9955 61.5508C26.3634 61.7757 29.6367 62.612 32.2379 64.4253C29.7557 64.6045 27.2806 64.9488 24.8685 65.5216V97.0703H36.2919V62.2395C36.2919 62.2395 35.3676 47.6529 46.2204 46.7006L49.0631 55.2924H57.7523L60.595 46.7006C71.1361 46.8201 70.4255 62.2395 70.4255 62.2395V97.0668H81.8488V65.3248C79.7028 64.8645 77.5182 64.5764 75.3232 64.4182Z" fill="white"/>
</g>
<defs>
<linearGradient id="paint0_linear_125_2123" x1="53.07" y1="97.2115" x2="53.07" y2="6.23999" gradientUnits="userSpaceOnUse">
<stop offset="0.18" stop-color="#EA483B" stop-opacity="0"/>
<stop offset="1" stop-color="#EA483B"/>
</linearGradient>
<linearGradient id="paint1_linear_125_2123" x1="53.5687" y1="97.0668" x2="53.5687" y2="41.0607" gradientUnits="userSpaceOnUse">
<stop stop-color="#EA483B"/>
<stop offset="0.82"/>
</linearGradient>
<clipPath id="clip0_125_2123">
<rect width="61.0133" height="67.9467" fill="white" transform="translate(22.88 29.1201)"/>
</clipPath>
</defs>
</svg>
