<svg width="136" height="74" viewBox="0 0 136 74" fill="none" xmlns="http://www.w3.org/2000/svg">
<g clip-path="url(#clip0_647_6719)">
<rect width="136" height="4" fill="#4D4D4D"/>
<rect width="136" height="70" transform="translate(0 4)" fill="#333333"/>
<rect width="18" height="68" transform="translate(1 5)" fill="#D34037"/>
<rect width="46" height="68" transform="translate(89 5)" fill="#D34037"/>
<path fill-rule="evenodd" clip-rule="evenodd" d="M112.001 45.6666C115.683 45.6666 118.667 42.6818 118.667 38.9999C118.667 35.318 115.683 32.3333 112.001 32.3333C108.319 32.3333 105.334 35.318 105.334 38.9999C105.334 42.6818 108.319 45.6666 112.001 45.6666ZM112.668 34.3332H111.334V35.6665C110.23 35.6665 109.334 36.562 109.334 37.6665C109.334 38.7711 110.23 39.6665 111.334 39.6665H111.668H112.668C113.036 39.6665 113.334 39.965 113.334 40.3332C113.334 40.7014 113.036 40.9999 112.668 40.9999H112.334H111.334C110.966 40.9999 110.668 40.7014 110.668 40.3332H109.334C109.334 41.4378 110.23 42.3332 111.334 42.3332L111.334 43.6665H112.668V42.3332C113.772 42.3332 114.668 41.4378 114.668 40.3332C114.668 39.2286 113.772 38.3332 112.668 38.3332H111.668H111.334C110.966 38.3332 110.668 38.0347 110.668 37.6665C110.668 37.2984 110.966 36.9999 111.334 36.9999H112.334C112.703 36.9999 113.001 37.2984 113.001 37.6665H114.334C114.334 36.6755 113.614 35.8529 112.668 35.6942V34.3332Z" fill="white"/>
<path fill-rule="evenodd" clip-rule="evenodd" d="M10.0007 45.6666C13.6825 45.6666 16.6673 42.6818 16.6673 38.9999C16.6673 35.318 13.6825 32.3333 10.0007 32.3333C6.31875 32.3333 3.33398 35.318 3.33398 38.9999C3.33398 42.6818 6.31875 45.6666 10.0007 45.6666ZM10.6676 34.3332H9.33431V35.6665C8.22974 35.6665 7.33431 36.562 7.33431 37.6665C7.33431 38.7711 8.22974 39.6665 9.33431 39.6665H9.66764H10.6676C11.0358 39.6665 11.3343 39.965 11.3343 40.3332C11.3343 40.7014 11.0358 40.9999 10.6676 40.9999H10.3343H9.33431C8.96612 40.9999 8.66764 40.7014 8.66764 40.3332H7.33431C7.33431 41.4378 8.22974 42.3332 9.33431 42.3332L9.33431 43.6665H10.6676V42.3332C11.7722 42.3332 12.6676 41.4378 12.6676 40.3332C12.6676 39.2286 11.7722 38.3332 10.6676 38.3332H9.66764H9.33431C8.96612 38.3332 8.66764 38.0347 8.66764 37.6665C8.66764 37.2984 8.96612 36.9999 9.33431 36.9999H10.3343C10.7025 36.9999 11.001 37.2984 11.001 37.6665H12.3343C12.3343 36.6755 11.6135 35.8529 10.6676 35.6942V34.3332Z" fill="white"/>
<path fill-rule="evenodd" clip-rule="evenodd" d="M47 24L43 22V38H47V24ZM65 26L61 24V38H65V26ZM55 28L59 30V38H55V28ZM53 24L49 22V38H53V24Z" fill="#4D4D4D"/>
<path d="M43 56H65L62 52L59 53L56 49L49 52L43 46V56Z" fill="#4D4D4D"/>
</g>
<defs>
<clipPath id="clip0_647_6719">
<rect width="136" height="74" fill="white"/>
</clipPath>
</defs>
</svg>
