<svg width="30" height="30" viewBox="0 0 30 30" fill="none" xmlns="http://www.w3.org/2000/svg">
<path fill-rule="evenodd" clip-rule="evenodd" d="M15 27.7C22.014 27.7 27.7 22.014 27.7 15C27.7 7.98598 22.014 2.3 15 2.3C7.98598 2.3 2.3 7.98598 2.3 15C2.3 22.014 7.98598 27.7 15 27.7ZM15 30C23.2843 30 30 23.2843 30 15C30 6.71573 23.2843 0 15 0C6.71573 0 0 6.71573 0 15C0 23.2843 6.71573 30 15 30ZM15.2084 6.55835C15.8435 6.55835 16.3584 7.07322 16.3584 7.70835V17.2917C16.3584 17.9268 15.8435 18.4417 15.2084 18.4417C14.5733 18.4417 14.0584 17.9268 14.0584 17.2917V7.70835C14.0584 7.07322 14.5733 6.55835 15.2084 6.55835ZM16.3584 21.6666C16.3584 21.0315 15.8435 20.5166 15.2084 20.5166C14.5733 20.5166 14.0584 21.0315 14.0584 21.6666V22.0833C14.0584 22.7184 14.5733 23.2333 15.2084 23.2333C15.8435 23.2333 16.3584 22.7184 16.3584 22.0833V21.6666Z" fill="#303030"/>
</svg>
