<svg width="24" height="36" viewBox="0 0 24 36" fill="none" xmlns="http://www.w3.org/2000/svg">
<path fill-rule="evenodd" clip-rule="evenodd" d="M12 0.00391092V0C18.6159 0 23.9999 5.38632 24 12.0104C24.0004 14.3947 22.5501 16.7125 21.1261 18.9884C21.0291 19.1434 20.9322 19.2983 20.8359 19.4529C19.4446 21.6873 18.1906 23.8735 18 25.4679V26.0311H17.9609V30.0319C17.9609 33.3217 15.2858 36 12 36C8.7142 36 6.03906 33.3217 6.03906 30.0319V26.0311H6V25.4523C5.80984 23.8605 4.55856 21.6768 3.16797 19.4451C3.0688 19.2859 2.969 19.1266 2.86907 18.967C1.44843 16.6986 0.00295234 14.3906 0 12.0143C6.08e-05 5.39023 5.38406 0.00391092 12 0.00391092ZM12 1.92417V1.92026C6.42258 1.92026 1.92193 6.42616 1.92188 12.0104C1.92388 13.6226 3.28769 16.002 4.79688 18.4243C4.89388 18.58 4.99147 18.7359 5.08917 18.8919C6.14549 20.579 7.21413 22.2857 7.69531 24.0287H16.3086C16.7927 22.2856 17.8615 20.5773 18.9172 18.89C19.0127 18.7372 19.1082 18.5846 19.2031 18.4322C20.713 16.0075 22.0784 13.6291 22.0781 12.0143C22.0781 6.43007 17.5774 1.92417 12 1.92417ZM16.0391 30.0319V26.0311H7.96094V30.0319V30.0358H16.0391V30.0319ZM12 34.0797C13.5182 34.0797 14.8095 33.2578 15.5 32.0382H8.5C9.19053 33.2578 10.4818 34.0797 12 34.0797ZM16.2616 10.0466C16.5175 9.72633 16.5521 9.28207 16.3489 8.92592C16.1457 8.56977 15.7459 8.37396 15.3404 8.43196L8.34873 9.43196C7.80265 9.51007 7.4232 10.0166 7.50121 10.5633C7.57923 11.1101 8.08515 11.49 8.63123 11.4119L13.1262 10.769L8.70885 16.2972C8.45029 16.6208 8.41786 17.0705 8.62732 17.428C8.83677 17.7854 9.24472 17.9764 9.65299 17.9083L15.6458 16.9083C16.19 16.8175 16.5575 16.3023 16.4668 15.7575C16.3762 15.2127 15.8615 14.8447 15.3174 14.9355L11.8994 15.5059L16.2616 10.0466Z" fill="#303030"/>
</svg>
