<svg width="128" height="40" viewBox="0 0 128 40" fill="none" xmlns="http://www.w3.org/2000/svg">
<g clip-path="url(#clip0_2022_6756)">
<path fill-rule="evenodd" clip-rule="evenodd" d="M20.8048 3.74188C20.3771 4.56689 19.5138 5.1308 18.5183 5.1308C17.0976 5.1308 15.946 3.98227 15.946 2.5654C15.946 1.14853 17.0976 0 18.5183 0C19.939 0 21.0906 1.14853 21.0906 2.5654C21.0906 2.60242 21.0898 2.63926 21.0883 2.6759C25.3465 4.872 28.3056 12.3617 28.3056 21.0147C28.3056 24.5734 27.8067 27.9885 26.8776 30.9488C26.8573 31.0169 26.8238 31.0803 26.7788 31.1353C26.7337 31.1903 26.6781 31.2359 26.6152 31.2692C26.5523 31.3026 26.4834 31.3232 26.4125 31.3298C26.3416 31.3364 26.27 31.3289 26.202 31.3077C26.1341 31.2864 26.071 31.252 26.0165 31.2062C25.962 31.1605 25.9171 31.1044 25.8846 31.0412C25.852 30.978 25.8323 30.909 25.8267 30.8382C25.8211 30.7674 25.8297 30.6961 25.852 30.6286C26.7474 27.7744 27.2305 24.4673 27.2305 21.0147C27.2305 12.867 24.5149 5.85603 20.8048 3.74188ZM17.4594 3.62143C17.7402 3.90151 18.1211 4.05885 18.5183 4.05885C18.9154 4.05885 19.2963 3.90151 19.5772 3.62143C19.858 3.34135 20.0158 2.96149 20.0158 2.5654C20.0158 2.16931 19.858 1.78945 19.5772 1.50937C19.2963 1.22929 18.9154 1.07195 18.5183 1.07195C18.1211 1.07195 17.7402 1.22929 17.4594 1.50937C17.1786 1.78945 17.0208 2.16931 17.0208 2.5654C17.0208 2.96149 17.1786 3.34135 17.4594 3.62143Z" fill="#9FEAF9"/>
<path d="M16.6991 21.4066C16.9166 22.4086 17.9064 23.0454 18.9111 22.8289C19.916 22.612 20.5545 21.6247 20.3374 20.6227C20.1198 19.6207 19.13 18.9839 18.1253 19.2004C17.6429 19.3044 17.2216 19.5953 16.9542 20.009C16.6867 20.4227 16.595 20.9255 16.6991 21.4066Z" fill="#9FEAF9"/>
<path d="M10.4876 31.9263C12.2821 36.9233 15.2176 40 18.5185 40C20.926 40 23.1533 38.3632 24.8902 35.4819C24.9278 35.4215 24.953 35.3543 24.9643 35.2841C24.9756 35.214 24.9728 35.1423 24.9561 35.0732C24.9394 35.0042 24.9091 34.9391 24.8669 34.8818C24.8247 34.8245 24.7716 34.7762 24.7105 34.7396C24.6495 34.703 24.5817 34.6788 24.5112 34.6685C24.4407 34.6583 24.3689 34.6621 24.2999 34.6798C24.2309 34.6974 24.1661 34.7286 24.1093 34.7715C24.0524 34.8144 24.0047 34.8681 23.9689 34.9295C22.408 37.519 20.4907 38.9279 18.5185 38.9279C15.7765 38.9279 13.1583 36.1838 11.4997 31.5651C11.477 31.4975 11.441 31.4351 11.3938 31.3815C11.3466 31.3279 11.2891 31.2843 11.2248 31.2531C11.1605 31.222 11.0905 31.204 11.0191 31.2001C10.9477 31.1962 10.8763 31.2066 10.8089 31.2307C10.7416 31.2547 10.6798 31.2919 10.627 31.3401C10.5743 31.3882 10.5317 31.4464 10.5018 31.5112C10.4719 31.576 10.4553 31.6461 10.4528 31.7173C10.4504 31.7886 10.4621 31.8597 10.4876 31.9263Z" fill="#9FEAF9"/>
<path fill-rule="evenodd" clip-rule="evenodd" d="M37 30.4238C37 29.007 35.8484 27.8584 34.4277 27.8584C33.007 27.8584 31.8554 29.007 31.8554 30.4238C31.8554 30.8851 31.9774 31.3179 32.1911 31.6919C28.4388 33.7132 21.1081 32.5203 14.1469 28.512C11.1007 26.7581 8.43448 24.6484 6.39182 22.4096C6.3444 22.3572 6.28707 22.3147 6.22313 22.2845C6.15919 22.2542 6.08989 22.2369 6.01921 22.2334C5.94853 22.23 5.87786 22.2405 5.81126 22.2643C5.74466 22.2881 5.68343 22.3249 5.63109 22.3724C5.57876 22.4199 5.53634 22.4772 5.50627 22.5411C5.47621 22.605 5.45909 22.6742 5.4559 22.7447C5.4527 22.8152 5.4635 22.8856 5.48767 22.9519C5.51184 23.0183 5.5489 23.0792 5.59673 23.1312C7.71597 25.4538 10.4693 27.6325 13.6093 29.4403C20.9855 33.6875 28.8239 34.9155 32.9275 32.508C33.3497 32.8109 33.8678 32.9892 34.4277 32.9892C35.8484 32.9892 37 31.8407 37 30.4238ZM33.4442 31.5255C33.4554 31.5417 33.4656 31.5586 33.4748 31.5759C33.5892 31.67 33.7171 31.7468 33.8546 31.8036C34.0363 31.8786 34.231 31.9173 34.4277 31.9173C34.6243 31.9173 34.8191 31.8786 35.0007 31.8036C35.1824 31.7285 35.3475 31.6185 35.4866 31.4798C35.6256 31.3412 35.7359 31.1765 35.8112 30.9953C35.8864 30.8141 35.9252 30.6199 35.9252 30.4238C35.9252 30.0277 35.7674 29.6479 35.4866 29.3678C35.2057 29.0877 34.8248 28.9304 34.4277 28.9304C34.0305 28.9304 33.6496 29.0877 33.3688 29.3678C33.088 29.6479 32.9302 30.0277 32.9302 30.4238C32.9302 30.6199 32.9689 30.8141 33.0442 30.9953C33.0984 31.1259 33.1709 31.2479 33.2592 31.3578C33.2705 31.364 33.2817 31.3707 33.2926 31.3777C33.3525 31.4164 33.404 31.4667 33.4442 31.5255Z" fill="#9FEAF9"/>
<path fill-rule="evenodd" clip-rule="evenodd" d="M2.57232 32.9892C3.99321 32.9892 5.14483 31.8407 5.14483 30.4238C5.14483 29.007 3.99301 27.8584 2.57232 27.8584C2.50771 27.8584 2.44366 27.8608 2.38025 27.8655C2.21531 23.5995 6.97076 17.6311 14.1625 13.4901C17.2395 11.7183 20.4376 10.463 23.4279 9.82401C23.4979 9.81025 23.5644 9.78274 23.6236 9.74308C23.6828 9.70342 23.7336 9.6524 23.7728 9.593C23.812 9.53359 23.839 9.467 23.8522 9.39708C23.8654 9.32717 23.8645 9.25534 23.8495 9.18578C23.8346 9.11622 23.8059 9.05032 23.7652 8.99192C23.7245 8.93353 23.6725 8.8838 23.6123 8.84564C23.5521 8.80748 23.4849 8.78165 23.4146 8.76965C23.3443 8.75766 23.2723 8.75974 23.2028 8.77578C20.0998 9.43889 16.7969 10.7354 13.625 12.5617C5.98846 16.9587 0.935215 23.3861 1.32268 28.181C0.53376 28.6191 0 29.4593 0 30.4238C0 31.8407 1.15183 32.9892 2.57232 32.9892ZM2.57232 31.9173C2.17516 31.9173 1.79427 31.7599 1.51344 31.4798C1.23261 31.1998 1.07484 30.8199 1.07484 30.4238C1.07484 30.0277 1.23261 29.6479 1.51344 29.3678C1.79427 29.0877 2.17516 28.9304 2.57232 28.9304C2.96947 28.9304 3.35036 29.0877 3.63119 29.3678C3.91202 29.6479 4.06979 30.0277 4.06979 30.4238C4.06979 30.8199 3.91202 31.1998 3.63119 31.4798C3.35036 31.7599 2.96947 31.9173 2.57232 31.9173Z" fill="#9FEAF9"/>
<path d="M2.01669 11.4947C3.66835 8.6417 7.81251 7.64533 13.0537 8.59728C13.1921 8.62462 13.3143 8.70517 13.3937 8.82154C13.4731 8.93791 13.5034 9.08076 13.4781 9.21924C13.4528 9.35772 13.3739 9.48072 13.2584 9.56168C13.143 9.64264 13.0002 9.67506 12.861 9.65194C8.01607 8.77195 4.31974 9.66079 2.94763 12.0308C1.93708 13.7765 2.24121 16.2125 3.80359 18.9304C3.84052 18.9916 3.86484 19.0594 3.87513 19.1301C3.88541 19.2007 3.88145 19.2727 3.86348 19.3418C3.8455 19.4108 3.81387 19.4757 3.77045 19.5324C3.72703 19.5891 3.67268 19.6366 3.6106 19.6721C3.54852 19.7076 3.47995 19.7304 3.40893 19.7392C3.3379 19.7479 3.26584 19.7424 3.19697 19.723C3.1281 19.7036 3.06382 19.6706 3.00789 19.6261C2.95195 19.5816 2.90549 19.5264 2.87124 19.4637C1.13654 16.4464 0.784244 13.6238 2.01669 11.4947Z" fill="#9FEAF9"/>
<path d="M35.0044 11.5221C36.6527 14.3691 35.4545 18.4358 32.0226 22.4792C31.9772 22.5338 31.9215 22.5789 31.8586 22.6119C31.7957 22.6449 31.7268 22.6651 31.656 22.6714C31.5851 22.6777 31.5138 22.6699 31.446 22.6484C31.3782 22.627 31.3154 22.5924 31.2611 22.5466C31.2069 22.5008 31.1623 22.4447 31.1299 22.3816C31.0975 22.3184 31.078 22.2495 31.0725 22.1788C31.067 22.1081 31.0756 22.0371 31.0979 21.9697C31.1201 21.9024 31.1555 21.8401 31.2021 21.7865C34.374 18.0495 35.4426 14.423 34.0737 12.0582C33.0799 10.3414 30.8709 9.38844 27.8065 9.34864C27.6653 9.34479 27.5313 9.28569 27.4335 9.18412C27.3357 9.08254 27.2818 8.94665 27.2837 8.80583C27.2855 8.665 27.3428 8.53055 27.4433 8.43153C27.5437 8.33252 27.6791 8.2769 27.8204 8.27669C31.2279 8.32091 33.7917 9.42703 35.0044 11.5221Z" fill="#9FEAF9"/>
<path fill-rule="evenodd" clip-rule="evenodd" d="M50.1298 5.36128C47.5783 5.36128 45 7.11923 45 10.4571C45 13.795 47.5738 15.5332 50.1164 15.5332C52.659 15.5332 55.2329 13.7906 55.2329 10.4571C55.2329 7.12362 52.6635 5.36128 50.1298 5.36128ZM50.112 13.5489C48.7068 13.5489 47.2839 12.4942 47.2839 10.4725C47.2839 8.41791 48.7158 7.34336 50.1298 7.34336C51.7847 7.34336 52.9401 8.61568 52.9401 10.4374C52.9401 12.481 51.5171 13.5489 50.112 13.5489Z" fill="white"/>
<path fill-rule="evenodd" clip-rule="evenodd" d="M100.277 10.4571C100.277 7.11923 102.856 5.36128 105.407 5.36128C107.941 5.36128 110.508 7.12362 110.508 10.4571C110.508 13.7906 107.936 15.5332 105.394 15.5332C102.851 15.5332 100.277 13.795 100.277 10.4571ZM102.561 10.4725C102.561 12.4942 103.982 13.5489 105.389 13.5489C106.794 13.5489 108.215 12.481 108.215 10.4374C108.215 8.61568 107.06 7.34336 105.407 7.34336C103.993 7.34336 102.561 8.41791 102.561 10.4725Z" fill="white"/>
<path d="M61.1049 15.4981H60.5518L60.5138 15.4234L55.6004 5.61626H58.1631L60.8551 11.6021L63.5494 5.61626H66.054L61.1049 15.4981Z" fill="white"/>
<path fill-rule="evenodd" clip-rule="evenodd" d="M66.409 10.4395C66.409 13.5335 68.3806 15.5332 71.434 15.5332C73.1759 15.5332 74.4762 15.0102 75.5155 13.8785L75.5958 13.7906L74.3624 12.3249L74.2576 12.4282C73.9144 12.7867 73.4992 13.071 73.0384 13.2628C72.5776 13.4546 72.0813 13.5498 71.5812 13.5423C69.9196 13.5423 68.9382 12.6897 68.7152 11.0724H75.9995V10.4154C75.9995 7.33897 74.1974 5.36128 71.3403 5.36128C68.4832 5.36128 66.409 7.49718 66.409 10.4395ZM73.6889 9.43752H68.7575C69.0564 8.10587 70.011 7.25547 71.318 7.25547C72.625 7.25547 73.4837 8.04874 73.6889 9.43752Z" fill="white"/>
<path d="M95.7471 15.4982H95.1784L92.6893 9.56735L90.2002 15.4982H89.6114L85.6035 5.61636H88.0435L90.062 11.1121L92.4128 5.56143H92.9994L95.4037 11.1121L97.3686 5.61636H99.793L95.7471 15.4982Z" fill="white"/>
<path d="M83.7013 5.63179H83.7972C83.7972 5.63179 84.2411 7.2557 84.4173 7.95228C83.6523 7.7655 82.4947 7.98744 81.6583 8.47087C80.755 8.99386 80.2577 9.75857 80.2577 10.7057V15.2983H78.0273V5.61421H80.1818L80.2287 7.44028C80.5996 6.86889 81.1144 6.40195 81.723 6.085C82.3316 5.76805 83.0132 5.6119 83.7013 5.63179Z" fill="white"/>
<path d="M120.152 15.2983H117.922V7.54353H115.941L116.452 5.61419H117.922V5.08241C117.922 2.81905 119.237 1.46763 121.446 1.46763C122.344 1.45272 123.225 1.71975 123.959 2.23014L124.062 2.30266L123.071 3.95952L122.947 3.85844C122.57 3.53665 122.087 3.36227 121.588 3.36841C120.676 3.36841 120.152 3.96172 120.152 4.99891V5.62078H123.373V7.55013H120.152V15.2983Z" fill="white"/>
<path d="M112.266 15.2982H114.496V1.70269H112.266V15.2982Z" fill="white"/>
<path d="M56.1 29.2732C56.1 29.4732 56.08 29.6532 56.08 29.8532H48.12C48.32 31.8532 49.52 32.8932 51.42 32.8932C52.58 32.8932 53.52 32.5332 54.46 31.6132L55.62 33.0132C54.48 34.2532 53.08 34.7932 51.26 34.7932C48.08 34.7932 45.92 32.7332 45.92 29.2932C45.92 25.9332 48.3 23.8132 51.16 23.8132C54.06 23.8132 56.1 25.8132 56.1 29.2732ZM51.14 25.6132C49.6 25.6132 48.44 26.6932 48.16 28.3332H53.88C53.7 26.6932 52.74 25.6132 51.14 25.6132ZM58.6131 19.7532H60.7531V34.5332H58.6131V19.7532ZM73.5414 29.2732C73.5414 29.4732 73.5214 29.6532 73.5214 29.8532H65.5614C65.7614 31.8532 66.9614 32.8932 68.8614 32.8932C70.0214 32.8932 70.9614 32.5332 71.9014 31.6132L73.0614 33.0132C71.9214 34.2532 70.5214 34.7932 68.7014 34.7932C65.5214 34.7932 63.3614 32.7332 63.3614 29.2932C63.3614 25.9332 65.7414 23.8132 68.6014 23.8132C71.5014 23.8132 73.5414 25.8132 73.5414 29.2732ZM68.5814 25.6132C67.0414 25.6132 65.8814 26.6932 65.6014 28.3332H71.3214C71.1414 26.6932 70.1814 25.6132 68.5814 25.6132ZM80.5545 34.7732C77.5745 34.7732 75.3145 32.7332 75.3145 29.3132C75.3145 26.0932 77.6345 23.8732 80.7345 23.8732C82.2545 23.8732 83.4945 24.3532 84.4545 25.2932L83.2945 26.8532C82.6145 26.1532 81.8145 25.8132 80.8145 25.8132C78.9545 25.8132 77.5145 27.1932 77.5145 29.3332C77.5145 31.6332 78.9745 32.8132 80.6945 32.8132C81.6945 32.8132 82.5145 32.5132 83.3545 31.6932L84.5145 33.1932C83.4545 34.2332 82.2345 34.7732 80.5545 34.7732ZM93.833 33.8532C93.033 34.4532 92.133 34.7932 91.073 34.7932C89.133 34.7932 87.653 33.8132 87.653 31.3132V25.9332H85.533L86.013 24.0932H87.653V21.2132H89.793V24.0932H93.633V25.9332H89.793V31.2932C89.793 32.3532 90.413 32.8532 91.293 32.8532C91.953 32.8532 92.433 32.6532 92.993 32.2332L93.833 33.8532ZM98.155 26.1932C99.115 24.3332 100.715 23.9332 102.075 23.9332V26.1132C100.295 25.9932 98.175 26.6532 98.175 29.4932V34.5332H96.035V24.0932H98.095L98.155 26.1932ZM108.762 34.7932C105.882 34.7932 103.322 32.7532 103.322 29.3132C103.322 25.8532 105.862 23.8132 108.782 23.8132C111.662 23.8132 114.202 25.8332 114.202 29.3132C114.202 32.7332 111.682 34.7932 108.762 34.7932ZM108.762 32.8932C110.462 32.8932 112.002 31.5532 112.002 29.2932C112.002 27.0532 110.522 25.7132 108.782 25.7132C107.062 25.7132 105.522 27.0532 105.522 29.3132C105.522 31.5532 107.022 32.8932 108.762 32.8932ZM122.377 23.8132C124.577 23.8132 126.137 25.3532 126.137 28.3532V34.5332H123.997V28.6132C123.997 26.6932 123.117 25.8132 121.617 25.8132C120.177 25.8132 118.917 26.7332 118.917 29.0132V34.5332H116.777V24.0932H118.837L118.897 25.6932C119.677 24.4332 120.857 23.8132 122.377 23.8132Z" fill="#9FEAF9"/>
</g>
<defs>
<clipPath id="clip0_2022_6756">
<rect width="128" height="40" fill="white"/>
</clipPath>
</defs>
</svg>
