<svg width="559" height="310" viewBox="0 0 559 310" fill="none" xmlns="http://www.w3.org/2000/svg"><path fill-rule="evenodd" clip-rule="evenodd" d="M474.814 166.65a21.65 21.65 0 0 0-.552 2.643l-2.352-.337c.137-.953.338-1.931.612-2.933l2.292.627zm-.751 5.319c-.004.925.06 1.816.182 2.671l-2.353.334a20.768 20.768 0 0 1-.205-3.016l2.376.011zm2.744-10.389c-.433.85-.808 1.681-1.129 2.493l-2.21-.875c.35-.883.756-1.783 1.223-2.698l2.116 1.08zm4.901-36.547c.423.333.825.669 1.206 1.006l-1.575 1.779a25.803 25.803 0 0 0-1.103-.92l1.472-1.865zm-2.796 32.977c-.263.393-.513.782-.751 1.168l-2.022-1.248c.253-.41.519-.824.797-1.24l.838-1.25 1.973 1.324-.835 1.246zm4.159-6.285c-.534.842-1.087 1.688-1.65 2.537l-1.98-1.313a145.02 145.02 0 0 0 1.623-2.495l2.007 1.271zm2.072-23.421c.735.87 1.346 1.753 1.84 2.651l-2.082 1.146a13.844 13.844 0 0 0-1.573-2.264l1.815-1.533zm.975 18.105a46.979 46.979 0 0 1-1.461 2.709l-2.056-1.191c.503-.869.969-1.726 1.388-2.572l2.129 1.054zm2.092-12.403a12.96 12.96 0 0 1 .417 3.27l-2.376.003a10.56 10.56 0 0 0-.34-2.672l2.299-.601zm.066 6.497a21.257 21.257 0 0 1-.905 3.047l-2.224-.835c.345-.92.617-1.821.804-2.705l2.325.493z" fill="#6C5C99"/><ellipse cx="481.003" cy="122.366" rx="2.376" ry="3.267" transform="rotate(69.594 481.003 122.366)" fill="#6C5C99"/><ellipse rx="2.376" ry="3.267" transform="scale(1 -1) rotate(-2.802 -2361.838 -9826.098)" fill="#6C5C99"/><rect x="474.234" y="122.797" width="2.97" height="9.504" rx="1.485" transform="rotate(-53.802 474.234 122.797)" fill="#403366"/><rect x="59" y="43.34" width="340.264" height="197.211" rx="2.484" fill="#332E4D"/><path fill="#484266" d="M270.617 270.855h-68.055v-27.377h68.055z"/><path fill="#201C33" d="M202.562 270.855h-8.942v-27.377h8.942zm-57.127 7.452a7.452 7.452 0 0 1 7.451-7.452h153.737a7.452 7.452 0 0 1 7.452 7.452v1.49h-168.64v-1.49z"/><rect x="66.451" y="43.34" width="340.264" height="197.211" rx="2.484" fill="#484266"/><path fill="#332E4D" d="M75.599 51.523h322.192v181.079H75.599z"/><path d="M219.831 82.546c2.359 4.602 7.296 4.591 9.167 4.098l-1.602 7.4c-7.512.938-9.542-2.523-9.899-3.304-1.187-2.59-.019-7.016 1.113-8.573.373-.514.931-.186 1.221.38zm47.507 0c-2.36 4.602-7.296 4.591-9.168 4.098l1.602 7.4c7.512.938 9.542-2.523 9.9-3.304 1.186-2.59.018-7.016-1.113-8.573-.374-.514-.931-.186-1.221.38z" fill="#D3CFE5"/><path d="M261.84 94.661c0 8.862 2.828 5.821-18.228 5.821-18.082 0-17.599 3.041-17.599-5.82 0-8.862 9.218-16.518 18.07-16.518S261.84 85.8 261.84 94.661z" fill="#8E7CBF"/><path d="M241.883 77.2a2.2 2.2 0 0 1 4.4 0v19.193h-4.4V77.2z" fill="#484266"/><rect x="222.712" y="96.078" width="42.741" height="6.921" rx="3.461" fill="#5F5980"/><path d="M228.156 97.652l1.943 1.305-.742 2.11h-2.401l-.742-2.11 1.942-1.305zm8.171 0l1.943 1.305-.742 2.11h-2.402l-.742-2.11 1.943-1.305zm8.171 0l1.943 1.305-.742 2.11h-2.402l-.742-2.11 1.943-1.305zm8.172 0l1.943 1.305-.742 2.11h-2.401l-.743-2.11 1.943-1.305zm8.171 0l1.942 1.305-.742 2.11h-2.401l-.742-2.11 1.943-1.305zm53.858-54.312c4.493-11.623 15.788-19.87 29.013-19.87 2.613 0 5.151.323 7.576.93a30.975 30.975 0 0 0-17.525-5.4c-14.864 0-27.291 10.418-30.361 24.34h11.297z" fill="#201C33"/><path d="M329.535 137.723h-5.969a2.982 2.982 0 0 0-2.984 2.98 2.983 2.983 0 0 0 2.984 2.981h5.969v-5.961z" fill="#251F48"/><path d="M358.883 123.457c7.019-3.524 11.938-11.713 11.938-21.253 0-9.54-4.919-17.728-11.938-21.252v-1.846h-7.461v.001a17.224 17.224 0 0 0-.249-.001c-10.852 0-19.648 10.341-19.648 23.098 0 12.758 8.796 23.099 19.648 23.099l.249-.001v.001h7.461v-1.846z" fill="#201C33"/><path d="M339.931 143.683h-11.444a2.98 2.98 0 1 1 0-5.961h11.444c8.288 0 15.096-6.325 15.848-14.406h5.988c-.767 11.377-10.25 20.367-21.836 20.367z" fill="#403366"/><ellipse cx="358.634" cy="102.204" rx="19.648" ry="23.099" fill="#403366"/><path d="M372.948 102.206c0 9.639-6.499 17.138-14.158 17.138s-14.157-7.499-14.157-17.138c0-9.64 6.498-17.138 14.157-17.138s14.158 7.498 14.158 17.138z" fill="#161326" stroke="#5F5980" stroke-width="1.987"/><path d="M347.116 37.629c3.229 5.464 4.743 13.386 4.743 16.99v47.339c0 2.744 2.245 4.968 4.989 4.968 2.744 0 4.987-2.224 4.987-4.968V50.135c0-1.982-1.696-11.869-2.051-13.748l-12.668 1.242z" fill="#161326"/><path d="M323.618 23.483c-2.603 0-4.884.373-7.3.981C321.289 21.048 327.054 19 333.53 19c17.105 0 30.973 13.94 30.973 31.135v51.835a4.956 4.956 0 0 1-9.912 0V54.618c0-17.195-13.867-31.135-30.973-31.135z" fill="#403366"/><path fill-rule="evenodd" clip-rule="evenodd" d="M343.48 32.776c-3.837-4.262-9.705-8.043-18.492-7.805-6.454.175-11.213 3.174-14.577 6.952-3.384 3.802-5.284 8.073-6.015 11.177h-2.484c.812-3.447 2.947-8.676 6.644-12.828 3.718-4.177 9.087-7.587 16.364-7.784 9.65-.261 16.181 3.933 20.406 8.627 4.195 4.66 6.433 10.189 7.006 11.985h-2.98a28.041 28.041 0 0 0-5.872-10.324z" fill="#161326"/><rect x="314.828" y="135.238" width="19.373" height="10.432" rx="5.216" fill="#0D0A1A"/><rect x="312.896" y="135.238" width="18.38" height="10.432" rx="5.216" fill="#201C33"/><path d="M153.021 278.307a7.452 7.452 0 0 1 7.451-7.452h153.737a7.452 7.452 0 0 1 7.452 7.452v1.49h-168.64v-1.49z" fill="#332E4D"/><path d="M456.083 257.277h35.605v29.012h-35.605v-29.012z" fill="#484266"/><path fill="#403366" d="M471.468 211.074h4.396v37.412h-4.396z"/><path d="M491.507 230.45c4.533-4.036 4.845-11.084 4.845-11.084s-7.037-.503-11.571 3.533c-4.533 4.036-4.845 11.084-4.845 11.084s7.037.503 11.571-3.533z" fill="#332E4C"/><path d="M479.938 233.983c.179.012 7.093.451 11.568-3.533 4.464-3.975 4.835-10.871 4.845-11.079l-16.413 14.612z" fill="#201C33"/><path d="M456.208 230.45c-4.533-4.036-4.845-11.084-4.845-11.084s7.037-.503 11.57 3.533c4.534 4.036 4.846 11.084 4.846 11.084s-7.038.503-11.571-3.533z" fill="#5F5980"/><path d="M467.777 233.983c-.179.012-7.093.451-11.567-3.533-4.465-3.975-4.836-10.871-4.846-11.079l16.413 14.612z" fill="#201C33"/><path fill-rule="evenodd" clip-rule="evenodd" d="M473.485 191.024c0 .042.046.067.082.045a.052.052 0 0 1 .056 0 .053.053 0 0 0 .082-.045v-.008c0-.021.01-.039.027-.05l18.392-11.433c1.165-.724 2.709-.215 3.056 1.112a22.22 22.22 0 0 1 .723 5.64c0 12.259-9.938 22.198-22.198 22.198s-22.198-9.939-22.198-22.198c0-1.903.239-3.749.689-5.511.341-1.334 1.89-1.85 3.059-1.123l18.203 11.315a.058.058 0 0 1 .027.05v.008z" fill="#332E4C"/><mask id="a" maskUnits="userSpaceOnUse" x="451" y="177" width="45" height="32"><path fill-rule="evenodd" clip-rule="evenodd" d="M473.705 190.682l-.11-.068-.11.068v-.136l-20.34-12.644a22.137 22.137 0 0 0-1.638 8.385c0 12.259 9.938 22.198 22.198 22.198s22.198-9.939 22.198-22.198c0-3.009-.599-5.878-1.683-8.494l-20.515 12.753v.136z" fill="#7360AC"/></mask><g mask="url(#a)" fill="#8E7CBF"><circle cx="482.151" cy="205.189" r="3.736"/><circle cx="492.701" cy="197.275" r="3.736"/><circle cx="456.217" cy="198.154" r="3.736"/><circle cx="470.942" cy="201.45" r="3.517"/><circle cx="464.569" cy="188.483" r="4.615"/><circle cx="483.69" cy="189.146" r="4.396"/></g><path d="M474.575 196.768l21.947-12.898c-.228-1.688-1.079-3.584-1.56-4.729l-21.29 12.226v.131l-.114-.066-.115.066v-.131l-21.473-12.332c-.519 1.216-1.331 3.083-1.602 4.396l21.953 13.321a2.2 2.2 0 0 0 2.254.016z" fill="#100B26"/><path d="M462.187 172.854l-5.114 4.201 4.176 2.637 1.643-6.389a.44.44 0 0 0-.705-.449zm5.275 4.852l-3.795 3.174 3.281 2.11 1.222-4.839a.44.44 0 0 0-.708-.445zm17.612-4.852l5.114 4.201-4.175 2.637-1.643-6.389a.44.44 0 0 1 .704-.449zm-5.274 4.852l3.795 3.174-3.281 2.11-1.222-4.839a.44.44 0 0 1 .708-.445z" fill="#B2ADCC"/><path d="M450.262 176.101a3.297 3.297 0 0 1 4.55-1.017l18.771 11.908 18.771-11.908a3.297 3.297 0 1 1 3.532 5.567l-20.414 12.952a3.291 3.291 0 0 1-1.889.511 3.293 3.293 0 0 1-1.889-.511l-20.414-12.952a3.298 3.298 0 0 1-1.018-4.55z" fill="#797399"/><path d="M451.687 247.164h43.517v7.473h-43.517v-7.473z" fill="#484266"/><path fill="#201C33" d="M456.083 257.277h6.593v29.011h-6.593zm-4.396-10.113h6.593v7.473h-6.593z"/><path fill="#5F5980" d="M142.401 167h29v1h-29zm0 3h29v1h-29zm0 3h38v1h-38z"/><path fill="#201C33" stroke="#332E4C" stroke-width=".5" d="M214.25 92.25h19.5v19.5h-19.5z"/><path d="M221.443 97.227l1.364 1.865c-4.597 3.196-2.486 7.395-.295 8.654-2.076-2.768.956-5.65 2.304-6.214l1.784 2.164 1.014-6.47h-6.171z" fill="#E5004C"/><path fill="#201C33" d="M76 200h34.451v32.604H76z"/><path d="M92.401 215v-6.5l7-.5v7h-7zm0 7.5V217h7v6.5l-7-1zm-2-13.5l-6 1v5h6v-6zm-6 12v-4h6v5l-6-1z" fill="#5F5980"/><path fill="#B2A1E6" d="M109.386 131h74v101.604h-74z"/><path fill="#5F5980" d="M116.386 138h15v15h-15zm19 5h29v1h-29zm0 3h29v1h-29zm-19 41h15v15h-15zm19 5h29v1h-29zm0 3h29v1h-29zm-19 15h15v15h-15zm19 5h29v1h-29zm0 3h29v1h-29z"/><g filter="url(#filter0_d)"><path fill="#B2A1E6" d="M105 156.129h82.499v27.943H105z"/></g><path d="M111.835 166.763c1.149 1.948 3.343 1.936 4.192 1.712l-.753 3.479c-3.532.441-4.487-1.186-4.655-1.554-.512-1.117-.091-2.961.392-3.823.221-.393.595-.203.824.186zm22.101 0c-1.149 1.948-3.343 1.936-4.193 1.712l.753 3.479c3.533.441 4.487-1.186 4.655-1.554.512-1.117.092-2.961-.392-3.823-.221-.393-.594-.203-.823.186z" fill="#D3CFE5"/><path d="M131.469 172.247c0 4.166 1.33 2.736-8.571 2.736-8.502 0-8.275 1.43-8.275-2.736 0-4.167 4.335-7.767 8.497-7.767s8.349 3.6 8.349 7.767z" fill="#484266"/><path d="M122.086 164.034a1.034 1.034 0 0 1 2.069 0v9.025h-2.069v-9.025z" fill="#797399"/><rect x="113.071" y="172.91" width="20.097" height="3.254" rx="1.627" fill="#797399"/><path d="M115.631 173.652l.913.614-.348.992h-1.13l-.349-.992.914-.614zm3.842 0l.914.614-.349.992h-1.129l-.349-.992.913-.614zm3.842 0l.914.614-.349.992h-1.13l-.348-.992.913-.614zm3.843 0l.913.614-.349.992h-1.129l-.349-.992.914-.614zm3.841 0l.914.614-.349.992h-1.129l-.349-.992.913-.614z" fill="#201C33"/><path fill="#5F5980" d="M142 167h29v1h-29zm0 3h29v1h-29zm0 3h38v1h-38z"/><defs><filter id="filter0_d" x="101" y="156.129" width="90.499" height="35.943" filterUnits="userSpaceOnUse" color-interpolation-filters="sRGB"><feFlood flood-opacity="0" result="BackgroundImageFix"/><feColorMatrix in="SourceAlpha" values="0 0 0 0 0 0 0 0 0 0 0 0 0 0 0 0 0 0 127 0"/><feOffset dy="4"/><feGaussianBlur stdDeviation="2"/><feColorMatrix values="0 0 0 0 0.0862745 0 0 0 0 0.0745098 0 0 0 0 0.14902 0 0 0 0.5 0"/><feBlend in2="BackgroundImageFix" result="effect1_dropShadow"/><feBlend in="SourceGraphic" in2="effect1_dropShadow" result="shape"/></filter></defs></svg>