<svg width="20" height="20" viewBox="0 0 20 20" fill="none" xmlns="http://www.w3.org/2000/svg"><path d="M19.792 10c0 5.408-4.384 9.792-9.792 9.792C4.592 19.792.208 15.408.208 10 .208 4.592 4.592.208 10 .208c5.408 0 9.792 4.384 9.792 9.792z" fill="#F4F2FF" stroke="#958FB2" stroke-width=".417"/><circle cx="10" cy="10" r="4" fill="#F2D191"/><path d="M11 3.5c0 .828-1 1.5-1 1.5s-1-.672-1-1.5S9.172 2 10 2c.828 0 1 .672 1 1.5zm4.497 2.936c-.534.633-1.731.503-1.731.503s-.332-1.158.201-1.792c.534-.633 1.098-1.036 1.731-.503.634.534.333 1.158-.2 1.792zM4.23 12.924c.718-.414 1.8.116 1.8.116s-.082 1.202-.8 1.616c-.717.414-1.384.602-1.798-.116-.415-.717.081-1.202.799-1.616zm9.83 1.551c-.585-.586-.353-1.768-.353-1.768s1.182-.232 1.768.353c.585.586.939 1.182.353 1.768-.586.586-1.182.232-1.768-.353zM6.475 5.06c.586.586.353 1.768.353 1.768s-1.182.233-1.767-.353c-.586-.586-.94-1.182-.354-1.768.586-.586 1.182-.232 1.768.354zM9 16.5c0-.828 1-1.5 1-1.5s1 .672 1 1.5-.172 1.5-1 1.5c-.828 0-1-.672-1-1.5zm7.5-5.5c-.828 0-1.5-1-1.5-1s.672-1 1.5-1 1.5.172 1.5 1c0 .828-.672 1-1.5 1zm-13-2C4.328 9 5 10 5 10s-.672 1-1.5 1S2 10.828 2 10c0-.828.672-1 1.5-1z" fill="#F2D191"/></svg>