<svg width="20" height="20" viewBox="0 0 20 20" fill="none" xmlns="http://www.w3.org/2000/svg"><path d="M19.792 10c0 5.408-4.384 9.792-9.792 9.792C4.592 19.792.208 15.408.208 10 .208 4.592 4.592.208 10 .208c5.408 0 9.792 4.384 9.792 9.792z" fill="#332E4D" stroke="#D3CFE5" stroke-width=".417"/><path d="M10.083 17.167a7.083 7.083 0 007.084-7.084s-3.631 5-7.917 1.25C5.917 8.417 10.083 3 10.083 3a7.083 7.083 0 000 14.167z" fill="#B2ADCC"/><path d="M11.5 7l.337 1.036h1.09l-.882.641.337 1.037-.882-.641-.882.64.337-1.036-.882-.64h1.09L11.5 7zm5-1l.337 1.036h1.09l-.882.641.337 1.037-.882-.641-.882.64.337-1.036-.882-.64h1.09L16.5 6zm-4-3l.337 1.036h1.09l-.882.641.337 1.037-.882-.641-.882.64.337-1.036-.882-.64h1.09L12.5 3z" fill="#D3CFE5"/></svg>