<svg width="768" height="310" viewBox="0 0 768 310" fill="none" xmlns="http://www.w3.org/2000/svg">
<path d="M375.56 137.725V136.48L376.91 135.895C376.91 135.055 376.885 134.205 376.835 133.345C376.785 132.475 376.76 131.89 376.76 131.59C376.76 130.6 377.25 130.105 378.23 130.105H379.85V131.305H378.845C378.555 131.305 378.355 131.355 378.245 131.455C378.145 131.545 378.095 131.74 378.095 132.04C378.095 132.34 378.12 132.96 378.17 133.9C378.22 134.83 378.245 135.71 378.245 136.54L376.955 137.05V137.17L378.245 137.665C378.245 138.405 378.22 139.285 378.17 140.305C378.12 141.325 378.095 142.005 378.095 142.345C378.095 142.685 378.15 142.9 378.26 142.99C378.37 143.09 378.565 143.14 378.845 143.14H379.85V144.34H378.23C377.25 144.34 376.76 143.845 376.76 142.855C376.76 142.455 376.785 141.795 376.835 140.875C376.885 139.945 376.91 139.11 376.91 138.37L375.56 137.725ZM387.335 132.25L386.465 135.355L384.905 134.92L386.105 131.905L387.335 132.25ZM385.19 131.965L384.32 135.07L382.76 134.65L383.96 131.635L385.19 131.965ZM391.34 134.875L391.37 135.31C392.18 134.94 392.815 134.755 393.275 134.755C394.085 134.755 394.68 134.995 395.06 135.475C395.45 135.945 395.645 136.685 395.645 137.695V142H394.1V137.74C394.1 137.26 394.015 136.885 393.845 136.615C393.675 136.345 393.41 136.21 393.05 136.21C392.69 136.21 392.135 136.385 391.385 136.735V142H389.84V134.875H391.34ZM399.74 140.71C400.02 140.71 400.33 140.645 400.67 140.515C401.01 140.385 401.28 140.24 401.48 140.08V139.03C400.88 138.98 400.39 138.955 400.01 138.955C399.18 138.955 398.765 139.265 398.765 139.885C398.765 140.435 399.09 140.71 399.74 140.71ZM399.5 142.165C397.9 142.165 397.1 141.405 397.1 139.885C397.1 139.075 397.355 138.51 397.865 138.19C398.385 137.86 399.1 137.695 400.01 137.695C400.44 137.695 400.93 137.72 401.48 137.77C401.48 137.17 401.395 136.76 401.225 136.54C401.055 136.32 400.76 136.21 400.34 136.21C399.92 136.21 399.43 136.26 398.87 136.36C398.31 136.46 397.88 136.56 397.58 136.66L397.295 135.235C398.345 134.915 399.37 134.755 400.37 134.755C401.37 134.755 402.06 134.975 402.44 135.415C402.83 135.855 403.025 136.6 403.025 137.65V140.695L403.19 142.015L401.645 142.165L401.495 141.475C400.655 141.935 399.99 142.165 399.5 142.165ZM405.815 134.875L405.86 135.28C406.24 134.93 406.61 134.755 406.97 134.755C407.48 134.755 407.865 134.945 408.125 135.325C408.645 134.945 409.105 134.755 409.505 134.755C410.105 134.755 410.53 134.93 410.78 135.28C411.04 135.63 411.17 136.28 411.17 137.23V142H409.64V137.89C409.64 136.97 409.56 136.44 409.4 136.3C409.32 136.22 409.205 136.18 409.055 136.18C408.905 136.18 408.715 136.28 408.485 136.48C408.535 136.71 408.56 137.18 408.56 137.89V139.555H407.045V137.89C407.045 136.98 406.99 136.45 406.88 136.3C406.82 136.22 406.715 136.18 406.565 136.18C406.425 136.18 406.21 136.29 405.92 136.51V142H404.345V134.875H405.815ZM412.235 138.445C412.235 137.235 412.505 136.32 413.045 135.7C413.585 135.07 414.335 134.755 415.295 134.755C416.255 134.755 416.995 135.04 417.515 135.61C418.045 136.17 418.32 136.995 418.34 138.085L418.28 139.195H413.9C413.99 140.275 414.53 140.815 415.52 140.815C416.21 140.815 416.94 140.69 417.71 140.44L418.025 141.745C417.705 141.855 417.29 141.95 416.78 142.03C416.27 142.12 415.85 142.165 415.52 142.165C413.33 142.165 412.235 140.925 412.235 138.445ZM415.355 136.15C414.885 136.15 414.53 136.29 414.29 136.57C414.06 136.84 413.93 137.295 413.9 137.935H416.675C416.675 136.745 416.235 136.15 415.355 136.15ZM420.455 134.77L421.325 131.665L422.885 132.1L421.685 135.115L420.455 134.77ZM422.6 135.055L423.47 131.95L425.03 132.37L423.83 135.385L422.6 135.055ZM429.125 142V139.825H431.3V142H429.125ZM429.125 137.65V135.475H431.3V137.65H429.125ZM435.455 134.77L436.325 131.665L437.885 132.1L436.685 135.115L435.455 134.77ZM437.6 135.055L438.47 131.95L440.03 132.37L438.83 135.385L437.6 135.055ZM442.655 142V132.025H444.2V137.74L445.19 137.635C445.75 136.915 446.24 136.135 446.66 135.295L446.87 134.875H448.55C447.92 136.205 447.22 137.315 446.45 138.205C447.09 139.115 447.735 140.19 448.385 141.43L448.685 142H446.93C446.44 140.94 445.88 139.925 445.25 138.955L444.2 139.06V142H442.655ZM449.915 142V140.62H452.15V136.255H450.035V134.875H453.695V140.62H455.81V142H449.915ZM452.84 133.84C452.54 133.84 452.3 133.75 452.12 133.57C451.95 133.38 451.865 133.135 451.865 132.835C451.865 132.535 451.955 132.295 452.135 132.115C452.315 131.935 452.555 131.845 452.855 131.845C453.165 131.845 453.4 131.935 453.56 132.115C453.73 132.285 453.815 132.525 453.815 132.835C453.815 133.145 453.73 133.39 453.56 133.57C453.39 133.75 453.15 133.84 452.84 133.84ZM457.475 142V140.62H459.71V133.39L457.775 133.405L457.76 132.04L461.255 132.025V140.62H463.37V142H457.475ZM464.975 142V140.62H467.21V133.39L465.275 133.405L465.26 132.04L468.755 132.025V140.62H470.87V142H464.975ZM472.955 134.77L473.825 131.665L475.385 132.1L474.185 135.115L472.955 134.77ZM475.1 135.055L475.97 131.95L477.53 132.37L476.33 135.385L475.1 135.055ZM481.595 142V139.825H483.725V141.55C483.725 142.46 483.315 143.325 482.495 144.145L481.58 143.68C482.01 143.09 482.245 142.53 482.285 142H481.595ZM487.955 134.77L488.825 131.665L490.385 132.1L489.185 135.115L487.955 134.77ZM490.1 135.055L490.97 131.95L492.53 132.37L491.33 135.385L490.1 135.055ZM500.84 131.995V140.755L500.99 142L499.475 142.15L499.34 141.46C498.69 141.93 498.055 142.165 497.435 142.165C496.505 142.165 495.805 141.895 495.335 141.355C494.865 140.805 494.63 139.88 494.63 138.58C494.63 137.28 494.915 136.32 495.485 135.7C496.055 135.07 496.795 134.755 497.705 134.755C498.235 134.755 498.77 134.87 499.31 135.1V131.995H500.84ZM497.54 140.725C498.07 140.725 498.66 140.455 499.31 139.915V136.57C498.79 136.32 498.28 136.195 497.78 136.195C496.79 136.195 496.295 136.99 496.295 138.58C496.295 140.01 496.71 140.725 497.54 140.725ZM504.74 140.71C505.02 140.71 505.33 140.645 505.67 140.515C506.01 140.385 506.28 140.24 506.48 140.08V139.03C505.88 138.98 505.39 138.955 505.01 138.955C504.18 138.955 503.765 139.265 503.765 139.885C503.765 140.435 504.09 140.71 504.74 140.71ZM504.5 142.165C502.9 142.165 502.1 141.405 502.1 139.885C502.1 139.075 502.355 138.51 502.865 138.19C503.385 137.86 504.1 137.695 505.01 137.695C505.44 137.695 505.93 137.72 506.48 137.77C506.48 137.17 506.395 136.76 506.225 136.54C506.055 136.32 505.76 136.21 505.34 136.21C504.92 136.21 504.43 136.26 503.87 136.36C503.31 136.46 502.88 136.56 502.58 136.66L502.295 135.235C503.345 134.915 504.37 134.755 505.37 134.755C506.37 134.755 507.06 134.975 507.44 135.415C507.83 135.855 508.025 136.6 508.025 137.65V140.695L508.19 142.015L506.645 142.165L506.495 141.475C505.655 141.935 504.99 142.165 504.5 142.165ZM509.885 136.255V134.875H511.1V133.165L512.645 133.015V134.875H515.45V136.255H512.645V139.255C512.645 139.805 512.7 140.195 512.81 140.425C512.92 140.645 513.145 140.755 513.485 140.755C514.075 140.755 514.765 140.66 515.555 140.47L515.81 141.805C514.94 142.035 514.165 142.15 513.485 142.15C512.525 142.15 511.885 141.935 511.565 141.505C511.255 141.075 511.1 140.325 511.1 139.255V136.255H509.885ZM519.74 140.71C520.02 140.71 520.33 140.645 520.67 140.515C521.01 140.385 521.28 140.24 521.48 140.08V139.03C520.88 138.98 520.39 138.955 520.01 138.955C519.18 138.955 518.765 139.265 518.765 139.885C518.765 140.435 519.09 140.71 519.74 140.71ZM519.5 142.165C517.9 142.165 517.1 141.405 517.1 139.885C517.1 139.075 517.355 138.51 517.865 138.19C518.385 137.86 519.1 137.695 520.01 137.695C520.44 137.695 520.93 137.72 521.48 137.77C521.48 137.17 521.395 136.76 521.225 136.54C521.055 136.32 520.76 136.21 520.34 136.21C519.92 136.21 519.43 136.26 518.87 136.36C518.31 136.46 517.88 136.56 517.58 136.66L517.295 135.235C518.345 134.915 519.37 134.755 520.37 134.755C521.37 134.755 522.06 134.975 522.44 135.415C522.83 135.855 523.025 136.6 523.025 137.65V140.695L523.19 142.015L521.645 142.165L521.495 141.475C520.655 141.935 519.99 142.165 519.5 142.165ZM525.455 134.77L526.325 131.665L527.885 132.1L526.685 135.115L525.455 134.77ZM527.6 135.055L528.47 131.95L530.03 132.37L528.83 135.385L527.6 135.055ZM534.125 142V139.825H536.3V142H534.125ZM534.125 137.65V135.475H536.3V137.65H534.125ZM540.455 134.77L541.325 131.665L542.885 132.1L541.685 135.115L540.455 134.77ZM542.6 135.055L543.47 131.95L545.03 132.37L543.83 135.385L542.6 135.055ZM553.61 142H547.535V140.62H550.01L549.995 134.065L547.67 135.115L547.13 133.855L550.205 132.475H551.405V140.62H553.61V142ZM555.455 134.77L556.325 131.665L557.885 132.1L556.685 135.115L555.455 134.77ZM557.6 135.055L558.47 131.95L560.03 132.37L558.83 135.385L557.6 135.055ZM563.06 144.34V143.14H564.065C564.345 143.14 564.54 143.09 564.65 142.99C564.76 142.9 564.815 142.685 564.815 142.345C564.815 142.005 564.79 141.325 564.74 140.305C564.69 139.285 564.665 138.405 564.665 137.665L565.955 137.17V137.05L564.665 136.54C564.665 135.71 564.69 134.825 564.74 133.885C564.79 132.955 564.815 132.34 564.815 132.04C564.815 131.74 564.76 131.545 564.65 131.455C564.55 131.355 564.355 131.305 564.065 131.305H563.06V130.105H564.68C565.66 130.105 566.15 130.6 566.15 131.59C566.15 131.89 566.125 132.475 566.075 133.345C566.025 134.205 566 135.055 566 135.895L567.35 136.48V137.725L566 138.37C566 139.11 566.025 139.945 566.075 140.875C566.125 141.795 566.15 142.455 566.15 142.855C566.15 143.845 565.66 144.34 564.68 144.34H563.06Z" fill="#332E4D"/>
<rect x="1" y="40" width="340.264" height="197.211" rx="2.48376" fill="#332E4D"/>
<rect x="212.617" y="267.512" width="68.0551" height="27.3767" transform="rotate(180 212.617 267.512)" fill="#484266"/>
<rect x="144.562" y="267.512" width="8.94155" height="27.3767" transform="rotate(180 144.562 267.512)" fill="#201C33"/>
<path d="M87.4351 274.963C87.4351 270.848 90.7711 267.512 94.8863 267.512H248.623C252.739 267.512 256.075 270.848 256.075 274.963V276.453H87.4351V274.963Z" fill="#201C33"/>
<rect x="8.45117" y="40" width="340.264" height="197.211" rx="2.48376" fill="#484266"/>
<rect x="17.5986" y="48.1836" width="322.192" height="181.079" fill="#332E4D"/>
<rect x="288.85" y="180.402" width="38.2591" height="39.0878" fill="#484266"/>
<path d="M293.738 191.576C293.738 188.262 296.425 185.576 299.738 185.576H322.22V208.316C322.22 211.63 319.533 214.316 316.22 214.316H293.738V191.576Z" fill="#332E4C"/>
<path d="M297.391 192.48V203.571C297.391 204.449 298.442 204.901 299.079 204.297L312.879 191.206C313.535 190.584 313.094 189.48 312.191 189.48H300.391C298.734 189.48 297.391 190.824 297.391 192.48Z" fill="#484266"/>
<path d="M318.659 207.545V196.454C318.659 195.576 317.608 195.124 316.971 195.729L303.171 208.819C302.515 209.441 302.955 210.545 303.859 210.545H315.659C317.316 210.545 318.659 209.202 318.659 207.545Z" fill="#484266"/>
<circle cx="300" cy="174" r="3" fill="#332E4C"/>
<circle cx="308" cy="174" r="3" fill="#332E4C"/>
<circle cx="316" cy="174" r="3" fill="#332E4C"/>
<circle cx="324" cy="174" r="3" fill="#332E4C"/>
<circle cx="292" cy="174" r="3" fill="#332E4C"/>
<rect x="142" y="190.965" width="26" height="21" fill="#484266"/>
<rect x="186" y="191" width="46" height="21" fill="#484266"/>
<path d="M28 187H74V204C74 212.284 67.2843 219 59 219H28V187Z" fill="#484266"/>
<circle cx="177.5" cy="201.5" r="13.5" fill="#332E4C"/>
<rect x="147" y="195" width="7" height="1" fill="#332E4C"/>
<rect x="33" y="191" width="29" height="1" fill="#332E4C"/>
<rect x="33" y="193" width="15" height="1" fill="#332E4C"/>
<rect x="50" y="193" width="18" height="1" fill="#332E4C"/>
<rect x="33" y="196" width="29" height="1" fill="#332E4C"/>
<rect x="33" y="201" width="34" height="1" fill="#332E4C"/>
<rect x="33" y="198" width="15" height="1" fill="#332E4C"/>
<rect x="50" y="198" width="18" height="1" fill="#332E4C"/>
<rect x="33" y="204" width="25" height="1" fill="#332E4C"/>
<rect x="33" y="206" width="13" height="1" fill="#332E4C"/>
<rect x="48" y="206" width="15" height="1" fill="#332E4C"/>
<rect x="33" y="209" width="25" height="1" fill="#332E4C"/>
<rect x="33" y="214" width="29" height="1" fill="#332E4C"/>
<rect x="33" y="211" width="13" height="1" fill="#332E4C"/>
<rect x="48" y="211" width="15" height="1" fill="#332E4C"/>
<rect x="193" y="204" width="33" height="2" fill="#332E4C"/>
<rect x="193" y="207" width="33" height="2" fill="#332E4C"/>
<rect x="156" y="195" width="6" height="1" fill="#332E4C"/>
<rect x="147" y="199" width="7" height="1" fill="#332E4C"/>
<rect x="156" y="199" width="6" height="1" fill="#332E4C"/>
<rect x="147" y="202" width="7" height="1" fill="#332E4C"/>
<rect x="156" y="202" width="6" height="1" fill="#332E4C"/>
<rect x="147" y="206" width="7" height="1" fill="#332E4C"/>
<rect x="156" y="206" width="6" height="1" fill="#332E4C"/>
<rect x="193" y="193" width="4" height="4" fill="#332E4C"/>
<rect x="199" y="193" width="6" height="6" fill="#332E4C"/>
<rect x="206" y="193" width="6" height="6" fill="#332E4C"/>
<rect x="213" y="193" width="6" height="6" fill="#332E4C"/>
<rect x="220" y="193" width="6" height="6" fill="#332E4C"/>
<circle cx="90.7101" cy="93.3378" r="2" transform="rotate(42.6519 90.7101 93.3378)" fill="#484266"/>
<circle cx="80.9455" cy="79.5823" r="2.5" transform="rotate(42.6519 80.9455 79.5823)" stroke="#797399" stroke-width="2"/>
<path d="M103.352 73.7109L97.9312 79.5948" stroke="#332E4C" stroke-width="2"/>
<path d="M103.583 79.3633L97.6996 73.9429" stroke="#332E4C" stroke-width="2"/>
<circle cx="256.674" cy="93.6987" r="2" transform="rotate(-152.348 256.674 93.6987)" fill="#5F5980"/>
<circle cx="269.665" cy="104.459" r="2.5" transform="rotate(-152.348 269.665 104.459)" stroke="#797399" stroke-width="2"/>
<path d="M249.542 115.93L253.255 108.843" stroke="#484266" stroke-width="2"/>
<path d="M247.856 110.527L254.942 114.24" stroke="#484266" stroke-width="2"/>
<path d="M107.096 94.56H107.68C107.882 94.56 108.042 94.536 108.16 94.488C108.282 94.4347 108.397 94.3467 108.504 94.224L112.32 89.904C112.437 89.7707 112.549 89.6773 112.656 89.624C112.768 89.5653 112.909 89.536 113.08 89.536H114.4L110.032 94.472C109.92 94.5947 109.813 94.6987 109.712 94.784C109.616 94.8693 109.512 94.9387 109.4 94.992C109.549 95.04 109.68 95.112 109.792 95.208C109.904 95.304 110.021 95.424 110.144 95.568L114.704 101H113.36C113.258 101 113.173 100.992 113.104 100.976C113.034 100.96 112.973 100.939 112.92 100.912C112.872 100.885 112.826 100.851 112.784 100.808C112.741 100.765 112.698 100.72 112.656 100.672L108.696 96.12C108.637 96.056 108.581 96.0027 108.528 95.96C108.48 95.912 108.421 95.872 108.352 95.84C108.288 95.808 108.21 95.7867 108.12 95.776C108.034 95.76 107.928 95.752 107.8 95.752H107.096V101H105.552V89.536H107.096V94.56ZM118.122 101H116.57V89.536H118.122V101ZM122.74 99.696H127.7V101H121.188V89.536H122.74V99.696ZM130.959 99.696H135.919V101H129.407V89.536H130.959V99.696ZM144.69 89.536V90.8H139.186V94.608H143.642V95.824H139.186V99.736H144.69V101H137.626V89.536H144.69ZM156.859 95.272C156.859 96.1307 156.723 96.912 156.451 97.616C156.179 98.32 155.795 98.9227 155.299 99.424C154.803 99.9253 154.208 100.315 153.515 100.592C152.821 100.864 152.053 101 151.211 101H146.923V89.536H151.211C152.053 89.536 152.821 89.6747 153.515 89.952C154.208 90.224 154.803 90.6133 155.299 91.12C155.795 91.6213 156.179 92.224 156.451 92.928C156.723 93.632 156.859 94.4133 156.859 95.272ZM155.267 95.272C155.267 94.568 155.171 93.9387 154.979 93.384C154.787 92.8293 154.515 92.36 154.163 91.976C153.811 91.592 153.384 91.2987 152.883 91.096C152.381 90.8933 151.824 90.792 151.211 90.792H148.483V99.744H151.211C151.824 99.744 152.381 99.6427 152.883 99.44C153.384 99.2373 153.811 98.9467 154.163 98.568C154.515 98.184 154.787 97.7147 154.979 97.16C155.171 96.6053 155.267 95.976 155.267 95.272ZM171.495 101H170.295C170.157 101 170.045 100.965 169.959 100.896C169.874 100.827 169.81 100.739 169.767 100.632L168.695 97.864H163.551L162.479 100.632C162.442 100.728 162.378 100.813 162.287 100.888C162.197 100.963 162.085 101 161.951 101H160.751L165.335 89.536H166.911L171.495 101ZM163.983 96.744H168.263L166.463 92.08C166.346 91.792 166.231 91.432 166.119 91C166.061 91.2187 166.002 91.4213 165.943 91.608C165.89 91.7893 165.837 91.9493 165.783 92.088L163.983 96.744ZM173.738 89.536C173.877 89.536 173.978 89.5547 174.042 89.592C174.112 89.624 174.189 89.6933 174.274 89.8L180.914 98.44C180.898 98.3013 180.888 98.168 180.882 98.04C180.877 97.9067 180.874 97.7787 180.874 97.656V89.536H182.234V101H181.45C181.328 101 181.224 100.979 181.138 100.936C181.058 100.893 180.978 100.821 180.898 100.72L174.266 92.088C174.277 92.2213 174.285 92.352 174.29 92.48C174.296 92.608 174.298 92.7253 174.298 92.832V101H172.938V89.536H173.738ZM195.19 89.536V90.8H189.686V94.608H194.142V95.824H189.686V99.736H195.19V101H188.126V89.536H195.19ZM198.223 89.536C198.361 89.536 198.463 89.5547 198.527 89.592C198.596 89.624 198.673 89.6933 198.759 89.8L205.399 98.44C205.383 98.3013 205.372 98.168 205.367 98.04C205.361 97.9067 205.359 97.7787 205.359 97.656V89.536H206.719V101H205.935C205.812 101 205.708 100.979 205.623 100.936C205.543 100.893 205.463 100.821 205.383 100.72L198.751 92.088C198.761 92.2213 198.769 92.352 198.775 92.48C198.78 92.608 198.783 92.7253 198.783 92.832V101H197.423V89.536H198.223ZM216.581 89.536V90.8H211.077V94.608H215.533V95.824H211.077V99.736H216.581V101H209.517V89.536H216.581ZM224.453 96.856C224.528 96.984 224.592 97.12 224.645 97.264C224.704 97.4027 224.76 97.544 224.813 97.688C224.867 97.5387 224.923 97.3973 224.981 97.264C225.04 97.1253 225.107 96.9867 225.181 96.848L229.061 89.8C229.131 89.6773 229.203 89.6027 229.277 89.576C229.352 89.5493 229.459 89.536 229.597 89.536H230.741V101H229.381V92.576C229.381 92.464 229.384 92.344 229.389 92.216C229.395 92.088 229.403 91.9573 229.413 91.824L225.485 98.992C225.352 99.232 225.165 99.352 224.925 99.352H224.701C224.461 99.352 224.275 99.232 224.141 98.992L220.125 91.8C220.141 91.9387 220.152 92.0747 220.157 92.208C220.168 92.3413 220.173 92.464 220.173 92.576V101H218.813V89.536H219.957C220.096 89.536 220.203 89.5493 220.277 89.576C220.352 89.6027 220.424 89.6773 220.493 89.8L224.453 96.856ZM237.948 96.44V101H236.404V96.44L232.204 89.536H233.564C233.703 89.536 233.812 89.5707 233.892 89.64C233.972 89.7093 234.041 89.7947 234.1 89.896L236.724 94.352C236.831 94.5387 236.919 94.7147 236.988 94.88C237.063 95.0453 237.129 95.208 237.188 95.368C237.247 95.2027 237.311 95.0373 237.38 94.872C237.449 94.7067 237.537 94.5333 237.644 94.352L240.26 89.896C240.308 89.8107 240.372 89.7307 240.452 89.656C240.537 89.576 240.647 89.536 240.78 89.536H242.156L237.948 96.44ZM245.643 89.536V94.112C245.643 94.352 245.637 94.5867 245.627 94.816C245.621 95.0453 245.611 95.2773 245.595 95.512C245.579 95.7413 245.557 95.9787 245.531 96.224C245.509 96.464 245.483 96.7227 245.451 97H244.483C244.451 96.7227 244.421 96.464 244.395 96.224C244.373 95.9787 244.355 95.7413 244.339 95.512C244.323 95.2773 244.309 95.0453 244.299 94.816C244.293 94.5867 244.291 94.352 244.291 94.112V89.536H245.643ZM243.947 100.12C243.947 99.9813 243.971 99.8507 244.019 99.728C244.072 99.6053 244.141 99.4987 244.227 99.408C244.317 99.3173 244.424 99.2453 244.547 99.192C244.669 99.1387 244.8 99.112 244.939 99.112C245.077 99.112 245.208 99.1387 245.331 99.192C245.453 99.2453 245.56 99.3173 245.651 99.408C245.741 99.4987 245.811 99.6053 245.859 99.728C245.912 99.8507 245.939 99.9813 245.939 100.12C245.939 100.264 245.912 100.397 245.859 100.52C245.811 100.637 245.741 100.741 245.651 100.832C245.56 100.923 245.453 100.992 245.331 101.04C245.208 101.093 245.077 101.12 244.939 101.12C244.8 101.12 244.669 101.093 244.547 101.04C244.424 100.992 244.317 100.923 244.227 100.832C244.141 100.741 244.072 100.637 244.019 100.52C243.971 100.397 243.947 100.264 243.947 100.12Z" fill="#D3CFE5"/>
<path d="M95.021 274.963C95.021 270.848 98.3571 267.512 102.472 267.512H256.209C260.325 267.512 263.661 270.848 263.661 274.963V276.453H95.021V274.963Z" fill="#332E4D"/>
<rect x="657" y="80" width="78" height="107" fill="#B2A1E6"/>
<path opacity="0.7" d="M679.636 101.021C681.381 104.464 685.061 104.457 686.453 104.09L685.264 109.58C679.691 110.276 678.185 107.708 677.919 107.129C677.032 105.192 677.919 101.873 678.765 100.742C679.034 100.381 679.433 100.618 679.636 101.021Z" fill="#D3CFE5"/>
<path opacity="0.7" d="M714.914 101.021C713.169 104.464 709.49 104.457 708.097 104.09L709.286 109.58C714.859 110.276 716.365 107.708 716.631 107.129C717.518 105.192 716.631 101.873 715.786 100.742C715.516 100.381 715.118 100.618 714.914 101.021Z" fill="#D3CFE5"/>
<path d="M710.82 110.04C710.82 116.615 712.919 114.358 697.296 114.358C683.88 114.358 684.238 116.615 684.238 110.04C684.238 103.465 691.078 97.7852 697.646 97.7852C704.214 97.7852 710.82 103.465 710.82 110.04Z" fill="#332E4D"/>
<path d="M696.013 97.0815C696.013 96.18 696.744 95.4492 697.645 95.4492C698.547 95.4492 699.278 96.18 699.278 97.0815V111.322H696.013V97.0815Z" fill="#797399"/>
<rect x="681.789" y="111.09" width="31.712" height="5.13531" rx="2.56766" fill="#484266"/>
<path d="M685.828 112.254L687.27 113.222L686.719 114.788H684.937L684.387 113.222L685.828 112.254Z" fill="#201C33"/>
<path d="M691.891 112.254L693.332 113.222L692.782 114.788H691L690.449 113.222L691.891 112.254Z" fill="#201C33"/>
<path d="M697.953 112.254L699.395 113.222L698.844 114.788H697.062L696.512 113.222L697.953 112.254Z" fill="#201C33"/>
<path d="M704.017 112.254L705.458 113.222L704.907 114.788H703.126L702.575 113.222L704.017 112.254Z" fill="#201C33"/>
<path d="M710.079 112.254L711.52 113.222L710.97 114.788H709.188L708.637 113.222L710.079 112.254Z" fill="#201C33"/>
<rect x="657" y="80" width="78" height="7" fill="#5F5980"/>
<circle cx="730.5" cy="83.5" r="1.5" fill="#958FB2"/>
<circle cx="724.5" cy="83.5" r="1.5" fill="#958FB2"/>
<circle cx="718.5" cy="83.5" r="1.5" fill="#958FB2"/>
<rect x="665" y="131" width="6" height="6" fill="#484266"/>
<rect x="663.757" y="174" width="6" height="6" transform="rotate(-45 663.757 174)" fill="#484266"/>
<rect x="676" y="131" width="46" height="1" fill="#484266"/>
<rect x="676" y="135" width="46" height="1" fill="#484266"/>
<rect x="676" y="139" width="27" height="1" fill="#484266"/>
<rect x="676" y="151" width="46" height="1" fill="#484266"/>
<rect x="676" y="155" width="46" height="1" fill="#484266"/>
<rect x="676" y="159" width="27" height="1" fill="#484266"/>
<rect x="676" y="170" width="46" height="1" fill="#484266"/>
<rect x="676" y="174" width="46" height="1" fill="#484266"/>
<rect x="676" y="178" width="27" height="1" fill="#484266"/>
<circle cx="668" cy="154" r="3" fill="#484266"/>
<path d="M581 122.5C584.833 124.333 592 134.5 582 145.5" stroke="#E5004C" stroke-linecap="round"/>
<path d="M591 113.5C594.777 116.848 607.5 134 591 153.5" stroke="#E5004C" stroke-linecap="round"/>
<path d="M599.5 105C603.277 108.348 624.5 133 599.5 163" stroke="#E5004C" stroke-linecap="round"/>
<path d="M608.5 96C612.277 99.3478 641 133 608.5 172" stroke="#E5004C" stroke-linecap="round"/>
</svg>
