<svg width="224" height="50" viewBox="0 0 224 50" fill="none" xmlns="http://www.w3.org/2000/svg"><g clip-path="url(#clip0_2443:1079)"><path d="M49.748 26.712c.037 0-11.793-6.899-11.828-7.095-.25-1.443-.563-3.823-2.194-5.057-1.402-1.063-10.894-5.491-10.914-5.538C22.264 5.268 20.255.766 20.255.766a10.305 10.305 0 00-3.07 3.545 10.143 10.143 0 00-1.163 4.517 25.131 25.131 0 00-12.75 5.518c9.336-1.994 12.003-.032 12.003-.032a28.372 28.372 0 00-8.746 2.96C2.53 19.38.705 21.95.705 21.95s9.062-2.453 15.964.106a15.535 15.535 0 00-8.616 4.036C22.4 28.006 29.346 40.367 32.207 50.324c1.295-17.642-7.55-24.446-7.55-24.446 2.588.214 5.825 2.233 7.874 5.21 6.365-.639 9.88 1.32 9.85 1.32-.069 0 3.45-1.029 5.935-2.12-.212-.317-1.093-1.424-1.589-2.042.06.003 2.015-.096 3.02-1.534zM29.99 18.68c.142-.034 3.265-.86 4.151-.52.797.31.792 2.576.792 2.576s-1.845.234-4.943-2.056zm34.927.937c-3.27 0-6.581 2.242-6.581 6.531 0 4.29 3.3 6.51 6.559 6.51 3.26 0 6.559-2.238 6.559-6.51 0-4.271-3.29-6.531-6.537-6.531zm-.022 10.496c-1.803 0-3.626-1.354-3.626-3.943 0-2.632 1.836-4.011 3.648-4.011 2.122 0 3.603 1.631 3.603 3.965 0 2.62-1.825 3.99-3.625 3.99zm70.9-10.496c-3.272 0-6.584 2.242-6.584 6.531 0 4.29 3.302 6.51 6.559 6.51s6.559-2.238 6.559-6.51c0-4.271-3.297-6.531-6.534-6.531zm-.025 10.496c-1.8 0-3.626-1.354-3.626-3.943 0-2.632 1.838-4.011 3.651-4.011 2.121 0 3.6 1.631 3.6 3.965-.012 2.62-1.835 3.99-3.638 3.99h.013zm-56.781 2.545h-.713l-.047-.098-6.297-12.575h3.284l3.451 7.677 3.454-7.677h3.212L78.99 32.658zm13.244 0c-3.912 0-6.442-2.564-6.442-6.534 0-3.771 2.66-6.507 6.325-6.507s5.976 2.544 5.976 6.485v.844h-9.345c.276 2.073 1.541 3.167 3.673 3.167a4.675 4.675 0 001.875-.356 4.617 4.617 0 001.569-1.074L96 28.55l1.582 1.882-.105.11c-1.345 1.438-3.016 2.116-5.244 2.116zm-3.424-7.818h6.322c-.264-1.78-1.364-2.797-3.04-2.797s-2.908 1.104-3.282 2.797zm105.342 7.818c-3.912 0-6.442-2.564-6.442-6.534 0-3.771 2.659-6.507 6.325-6.507 3.665 0 5.976 2.544 5.976 6.485v.326c0 .113-.012.228-.012.343v.175h-9.333c.276 2.073 1.544 3.167 3.675 3.167a4.68 4.68 0 001.875-.357 4.623 4.623 0 001.569-1.073l.134-.133 1.582 1.882-.105.11c-1.347 1.438-3.011 2.116-5.244 2.116zm-3.424-7.818h6.325c-.264-1.78-1.362-2.797-3.038-2.797-1.676 0-2.914 1.104-3.287 2.797zm-67.241 7.818h-.73l-3.19-7.607-3.192 7.607h-.752l-5.14-12.673h3.128l2.587 7.049 3.016-7.118h.749l3.083 7.118 2.52-7.05h3.108l-5.187 12.674zm-15.407-12.7h-.112c-1.113 0-3.178.449-4.512 2.699v-2.724h-2.769v12.415h2.863V26.46c0-1.215.638-2.196 1.796-2.866 1.07-.62 2.554-.905 3.538-.665l-.804-2.971zm46.61 12.398h-2.864v-9.945h-2.54l.655-2.473h1.885v-.682c0-2.905 1.688-4.637 4.517-4.637a5.48 5.48 0 013.222.981l.132.094-1.265 2.115-.159-.128a2.623 2.623 0 00-1.743-.63c-1.17 0-1.84.76-1.84 2.09v.8h4.128v2.47h-4.128v9.945zm-7.251 0h-2.864v-17.42h2.864v17.42zm37.595-.051h-2.445l-.072-2.103c-.937 1.487-2.446 2.41-4.51 2.41-3.69 0-5.897-2.86-5.897-6.451 0-3.639 2.421-6.522 5.947-6.522 2.037 0 3.501.876 4.412 2.27v-7.064h2.565v17.46zm-2.565-5.644v-1.06c-.216-2.316-1.743-3.68-3.815-3.68-2.203 0-3.907 1.654-3.907 4.227 0 2.574 1.607 4.23 3.788 4.23 2.039-.012 3.718-1.38 3.934-3.722v.005zm25.399 5.997h-.71l-.05-.098-6.295-12.575h3.282l3.454 7.677L211 19.985h3.214l-6.347 12.673z" fill="#fff"/><path d="M169.911 38.605h-2.241c-1.024 0-1.813-.282-2.346-.837-.533-.554-.792-1.379-.792-2.465v-6.537c0-.657-.112-1.116-.333-1.369-.222-.253-.598-.366-1.158-.38h-.389V24.52h.389c.56-.014.949-.142 1.158-.38.209-.238.333-.711.333-1.37v-6.403c0-1.087.267-1.916.792-2.466.526-.55 1.322-.837 2.346-.837h2.241v2.4h-1.581c-.311 0-.71 0-.902.191a1.143 1.143 0 00-.189.766v6.208c0 1.062-.134 1.828-.408 2.34a2.38 2.38 0 01-.725.803c.315.206.572.488.747.82.264.507.394 1.263.394 2.306v6.34c-.029.269.038.54.189.765a.848.848 0 00.645.192h1.83v2.409zm46.534-2.595h1.836a.883.883 0 00.647-.19c.15-.226.217-.496.189-.765v-6.34c0-1.043.13-1.799.394-2.309.174-.33.431-.613.747-.82a2.307 2.307 0 01-.725-.802c-.274-.512-.408-1.278-.408-2.338v-6.21c.027-.27-.04-.54-.19-.766a.868.868 0 00-.647-.189h-1.835v-2.4h2.241c1.023 0 1.813.28 2.343.838.53.556.794 1.378.794 2.465v6.392c0 .658.112 1.119.334 1.372.222.252.598.365 1.158.378l.388.012v2.49h-.388c-.56.015-.951.142-1.158.38-.207.238-.334.712-.334 1.37v6.526c0 1.085-.266 1.914-.794 2.454-.528.54-1.32.839-2.343.839h-2.241l-.008-2.387z" fill="#D34037"/></g><defs><clipPath id="clip0_2443:1079"><path fill="#fff" d="M0 0h224v50H0z"/></clipPath></defs></svg>