<svg width="144" height="32" viewBox="0 0 144 32" fill="none" xmlns="http://www.w3.org/2000/svg"><path fill-rule="evenodd" clip-rule="evenodd" d="M40.81 16.876c.716.407 1.196.68 1.19.68-.604.881-1.799.95-1.842.947.311.372.858 1.038.988 1.23-1.19.536-2.771 1.05-3.369 1.243a4.928 4.928 0 00-.242.081c-.035-.028-2.192-1.158-6.028-.735-1.273-1.793-3.265-2.997-4.848-3.109 0 0 5.452 4.07 4.783 14.787-1.822-6.025-6.152-13.482-14.931-14.547a9.516 9.516 0 015.244-2.509c-4.235-1.503-9.755.042-9.755.042s1.096-1.57 3.527-2.878a17.417 17.417 0 015.323-1.852s-1.642-1.18-7.344.1a15.404 15.404 0 017.752-3.436 6.12 6.12 0 01.682-2.75A6.26 6.26 0 0123.794 2a38.19 38.19 0 002.847 4.98c.003.006.324.155.826.387 1.642.76 5.22 2.414 5.882 2.902.94.699 1.182 2.009 1.344 2.89l.032.17c.015.09 4.027 2.374 6.085 3.547zm-10.9-4.072l-.037.01c1.907 1.368 3.035 1.214 3.035 1.214s-.01-1.376-.504-1.558c-.509-.188-2.21.26-2.494.334z" fill="#CFCFCF"/><path d="M4.95 3.337c-.45.113-.9.45-1.238.788-.337.338-.562.787-.787 1.237C2.7 5.925 2.7 6.487 2.7 7.05v6.188c0 1.575-.9 2.475-2.7 2.475v1.575c1.8 0 2.7.787 2.7 2.474v6.188c0 .563.112 1.125.337 1.688.113.45.338.9.675 1.237a5.02 5.02 0 001.238.9l.24.049c.456.094.855.176 1.335.176h1.35v-1.688h-1.35c-1.575 0-2.363-.787-2.363-2.475V19.65c0-.337-.112-.675-.224-1.012-.113-.338-.338-.676-.563-1.013a2.628 2.628 0 00-.788-.788 2.78 2.78 0 00-1.012-.45c.338-.112.675-.224 1.012-.45.338-.224.563-.45.788-.787.225-.338.337-.675.45-1.013.112-.337.225-.675.225-1.012V7.05c0-1.575.788-2.475 2.362-2.475h1.463V3h-1.35c-.563 0-1.013.112-1.575.337zm46.463 9.901V7.05c0-.563-.113-1.125-.338-1.575-.113-.563-.45-1.012-.788-1.35a4.995 4.995 0 00-1.237-.9 40.076 40.076 0 01-.24-.049C48.355 3.082 47.956 3 47.476 3h-1.35v1.575h1.35c1.575 0 2.362.787 2.362 2.475v6.188c0 .337.113.675.225 1.012.113.338.338.675.563 1.012.225.338.45.563.788.788.337.225.675.337 1.012.45-.337.113-.675.225-1.012.45a2.62 2.62 0 00-.788.788c-.225.337-.45.675-.563 1.012-.112.337-.224.675-.224 1.012v6.188c0 1.575-.788 2.475-2.363 2.475h-1.35V30h1.35c.563 0 1.125-.113 1.575-.337.45-.226.9-.45 1.238-.9.337-.338.675-.788.787-1.238.225-.45.337-1.012.337-1.688V19.65c0-1.575.9-2.475 2.588-2.475V15.6c-1.688.113-2.587-.675-2.587-2.362zm15.388-.638C64.413 12.6 62 14.223 62 17.308 62 20.394 64.41 22 66.789 22c2.38 0 4.789-1.61 4.789-4.691 0-3.081-2.405-4.71-4.777-4.71zm-.016 7.566c-1.316 0-2.647-.975-2.647-2.843 0-1.899 1.34-2.892 2.663-2.892 1.55 0 2.63 1.176 2.63 2.86 0 1.888-1.331 2.875-2.646 2.875zM118.54 12.6c-2.388 0-4.802 1.624-4.802 4.709 0 3.085 2.409 4.691 4.789 4.691s4.787-1.61 4.787-4.691c0-3.081-2.403-4.71-4.774-4.71zm-.017 7.566c-1.317 0-2.647-.975-2.647-2.843 0-1.899 1.34-2.892 2.664-2.892 1.547 0 2.628 1.176 2.628 2.86 0 1.888-1.33 2.875-2.645 2.875zm-41.449 1.802h-.518l-.035-.07-4.6-9.063h2.4l2.52 5.532 2.52-5.532h2.345l-4.632 9.133zm9.668.032c-2.858 0-4.703-1.848-4.703-4.708 0-2.719 1.941-4.693 4.615-4.693 2.674 0 4.361 1.828 4.361 4.671v.607h-6.818c.209 1.495 1.127 2.283 2.683 2.283.468.007.932-.081 1.364-.258.43-.178.82-.44 1.14-.772l.099-.095 1.154 1.355-.075.08c-.973 1.047-2.19 1.53-3.82 1.53zm-2.505-5.634h4.615c-.192-1.283-.995-2.016-2.219-2.016-1.223 0-2.117.786-2.396 2.016zm25.261 5.602h-.532l-2.33-5.482-2.33 5.482h-.551l-3.751-9.133h2.284l1.889 5.079 2.2-5.13h.549l2.251 5.13 1.839-5.08h2.269l-3.787 9.134zm-11.185-9.119h-.09a3.813 3.813 0 00-1.851.419 3.692 3.692 0 00-1.399 1.252l-.044-1.687h-2.016v8.95H95v-4.245c0-.875.466-1.582 1.311-2.065.783-.447 1.866-.652 2.582-.48-.165-.643-.58-2.144-.58-2.144zm34.027 8.934h-2.087v-7.167h-1.854l.478-1.783h1.376v-.492c0-2.091 1.231-3.34 3.298-3.34a4.047 4.047 0 012.353.704l.096.067-.927 1.531-.117-.093a1.935 1.935 0 00-1.271-.453c-.854 0-1.345.549-1.345 1.507v.575h3.015v1.783h-3.015v7.16zm-5.293 0h-2.088V9.218h2.088v12.565z" fill="#CFCFCF"/></svg>