<svg width="54" height="30" viewBox="0 0 54 30" fill="none" xmlns="http://www.w3.org/2000/svg"><path fill-rule="evenodd" clip-rule="evenodd" d="M40.81 14.876c.716.407 1.196.68 1.19.68-.604.881-1.799.95-1.842.947.311.372.858 1.038.988 1.23-1.19.536-2.771 1.05-3.369 1.243a4.928 4.928 0 00-.242.081c-.035-.028-2.192-1.158-6.028-.735-1.273-1.793-3.265-2.997-4.848-3.109 0 0 5.452 4.07 4.783 14.787-1.822-6.025-6.152-13.482-14.931-14.547a9.516 9.516 0 015.244-2.509c-4.235-1.503-9.755.042-9.755.042s1.096-1.57 3.527-2.878a17.419 17.419 0 015.323-1.852s-1.642-1.18-7.344.1a15.404 15.404 0 017.752-3.436 6.12 6.12 0 01.682-2.75A6.26 6.26 0 0123.794 0a38.19 38.19 0 002.847 4.98c.003.006.324.155.826.387 1.642.76 5.22 2.414 5.882 2.902.94.699 1.182 2.009 1.344 2.89l.032.17c.015.09 4.027 2.374 6.085 3.547zm-10.9-4.072l-.037.01c1.907 1.368 3.035 1.214 3.035 1.214s-.01-1.376-.504-1.558c-.509-.188-2.21.26-2.494.334z" fill="#EFEFEF"/><path d="M4.95 1.337c-.45.113-.9.45-1.238.788-.337.337-.562.788-.787 1.237C2.7 3.925 2.7 4.487 2.7 5.05v6.188c0 1.575-.9 2.475-2.7 2.475v1.575c1.8 0 2.7.787 2.7 2.474v6.188c0 .563.112 1.125.337 1.688.113.45.338.9.675 1.237a5.02 5.02 0 001.238.9l.24.049c.456.094.855.176 1.335.176h1.35v-1.688h-1.35c-1.575 0-2.363-.787-2.363-2.475V17.65c0-.337-.112-.675-.224-1.012-.113-.338-.338-.676-.563-1.013a2.628 2.628 0 00-.788-.787 2.78 2.78 0 00-1.012-.45c.338-.113.675-.226 1.012-.45.338-.226.563-.45.788-.788.225-.338.337-.675.45-1.013.112-.337.225-.675.225-1.012V5.05c0-1.575.788-2.475 2.362-2.475h1.463V1h-1.35c-.563 0-1.013.113-1.575.337zm46.463 9.901V5.05c0-.563-.113-1.125-.338-1.575-.113-.563-.45-1.013-.788-1.35a4.995 4.995 0 00-1.237-.9 40.076 40.076 0 01-.24-.049C48.355 1.082 47.956 1 47.476 1h-1.35v1.575h1.35c1.575 0 2.362.787 2.362 2.475v6.188c0 .337.113.675.225 1.012.113.338.338.675.563 1.012.225.338.45.563.788.788.337.225.675.337 1.012.45-.337.113-.675.225-1.012.45a2.62 2.62 0 00-.788.788c-.225.337-.45.675-.563 1.012-.112.337-.224.675-.224 1.012v6.188c0 1.575-.788 2.475-2.363 2.475h-1.35V28h1.35c.563 0 1.125-.113 1.575-.337.45-.226.9-.45 1.238-.9.337-.338.675-.788.787-1.238.225-.45.337-1.012.337-1.688V17.65c0-1.575.9-2.475 2.588-2.475V13.6c-1.688.113-2.587-.675-2.587-2.362z" fill="#EFEFEF"/></svg>