<svg width="56" height="28" viewBox="0 0 56 28" fill="none" xmlns="http://www.w3.org/2000/svg"><path d="M53.116 10.675v-6.31c0-.574-.116-1.148-.347-1.607-.116-.573-.463-1.032-.81-1.376a5.138 5.138 0 0 0-1.273-.918c-.58-.115-1.042-.23-1.62-.23h-1.39v1.607h1.39c1.62 0 2.43.803 2.43 2.524v6.31c0 .344.115.688.231 1.032.116.344.348.689.579 1.033.232.344.463.573.81.803.347.23.695.344 1.042.459-.347.114-.695.23-1.042.459-.347.23-.578.459-.81.803-.231.344-.463.688-.579 1.032-.115.345-.231.689-.231 1.033v6.31c0 1.606-.81 2.524-2.43 2.524h-1.39v1.606h1.39c.578 0 1.157-.114 1.62-.344.463-.23.925-.459 1.273-.918.347-.344.694-.803.81-1.262.231-.459.347-1.032.347-1.72v-6.31c0-1.607.926-2.525 2.662-2.525v-1.606c-1.736.115-2.662-.688-2.662-2.41zM5.316.579c-.464.114-.927.458-1.274.803-.347.344-.579.803-.81 1.262C3 3.217 3 3.79 3 4.364v6.31C3 12.282 2.075 13.2.223 13.2v1.606c1.852 0 2.777.803 2.777 2.524v6.31c0 .574.116 1.147.348 1.721.115.459.347.918.694 1.262s.81.688 1.273.918c.579.114 1.042.23 1.62.23h1.39v-1.722h-1.39c-1.62 0-2.43-.803-2.43-2.524v-6.31c0-.344-.116-.688-.231-1.032-.116-.344-.348-.689-.58-1.033a2.693 2.693 0 0 0-.81-.803 2.87 2.87 0 0 0-1.041-.459c.347-.115.694-.23 1.042-.459.347-.23.578-.459.81-.803.231-.344.347-.688.463-1.033.116-.344.231-.688.231-1.032V4.365c0-1.607.81-2.524 2.43-2.524h1.506V.234h-1.39c-.578 0-1.041.115-1.62.345zm18.75 4.818L17.235.234l.927 10.67-2.894 4.016 1.273 3.9c1.389.574 2.662 1.262 3.82 2.295.115-1.147.347-2.868.578-3.671l-2.199.344c.695-4.475 2.662-8.605 5.324-12.39zM38.763.234C32.283 5.168 30.2 5.856 27.77 11.937l3.356-.689c-4.166 4.36-6.712 10.097-7.175 14.57l.81 1.951h6.481c1.042-2.294 2.547-6.883 8.102-8.949l1.273-3.9-2.893-4.016 1.04-10.67zM28 25.59l-2.083-2.982h4.051L28 25.588zm1.505-9.751l5.324-2.64c-1.157 2.754-1.62 3.213-5.324 2.64zm-3.125 0l-5.324-2.64c1.273 2.754 1.62 3.213 5.324 2.64z" fill="#F4F2FF"/></svg>