<svg width="205" height="32" viewBox="0 0 205 32" fill="none" xmlns="http://www.w3.org/2000/svg"><path d="M83.984 19.488v-6.96c0-2.736-1.488-4.752-5.592-4.752-4.104 0-5.592 2.016-5.592 4.752v6.96c0 2.736 1.488 4.752 5.592 4.752 4.104 0 5.592-2.016 5.592-4.752zm-5.592 3.48c-3.072 0-4.176-1.248-4.176-3.528v-6.864c0-2.28 1.104-3.528 4.176-3.528s4.176 1.248 4.176 3.528v6.864c0 2.28-1.104 3.528-4.176 3.528zm17.813-10.656H94.79l-3.624 10.704-3.6-10.704H86.15L90.11 24h2.136l3.96-11.688zm3.197 7.728v-1.464h7.224V16.32c0-2.4-.96-4.248-4.248-4.248-3.288 0-4.368 1.848-4.368 4.248v3.672c0 2.544 1.056 4.248 4.344 4.248 1.416 0 2.952-.264 4.032-.648l-.24-1.128c-1.152.312-2.496.552-3.696.552-2.328 0-3.048-.888-3.048-2.976zm0-3.768c0-1.968.792-3 2.976-3s2.88 1.032 2.88 3v1.056h-5.856v-1.056zm15.613-4.2c-1.104.408-2.352 1.2-3.6 2.016l-.072-1.776h-1.248V24h1.392v-8.4c1.128-.744 2.472-1.632 3.696-2.16l-.168-1.368zM121.235 24l3.072-10.68L127.379 24h2.088l2.664-11.688h-1.32l-2.424 10.752-3.144-10.752h-1.872l-3.168 10.752-2.4-10.752h-1.32L119.147 24h2.088zm22.011-4.008V16.32c0-2.4-1.248-4.248-4.536-4.248-3.288 0-4.536 1.848-4.536 4.248v3.672c0 2.4 1.248 4.248 4.536 4.248 3.288 0 4.536-1.848 4.536-4.248zm-1.392.048c0 1.968-.96 2.952-3.144 2.952s-3.144-.984-3.144-2.952v-3.768c0-1.968.96-2.952 3.144-2.952s3.144.984 3.144 2.952v3.768zM148.12 24V7.344l-1.392.192V24h1.392zm10.476-16.608c-.696-.216-1.728-.336-2.4-.336-1.848 0-3.024.888-3.024 2.808v2.448h-2.184v1.2h2.184V24h1.392V13.512h3.456l.144-1.2h-3.6v-2.28c0-1.272.408-1.776 1.728-1.776.648 0 1.344.072 2.112.216l.192-1.08zm16.66 12.648c0-3.024-.24-3.624-4.44-4.68-3.36-.84-3.432-.96-3.432-3.552 0-1.992.432-2.76 3.6-2.76 1.248 0 2.736.216 3.912.48l.168-1.2c-1.08-.312-2.736-.552-4.128-.552-4.008 0-4.968 1.368-4.968 3.984 0 3.216.432 3.912 4.296 4.8 3.552.816 3.576 1.08 3.576 3.552 0 2.04-.744 2.856-3.48 2.856-1.392 0-2.856-.216-4.296-.648l-.264 1.152c1.368.528 3.12.768 4.512.768 4.056 0 4.944-1.584 4.944-4.2zm3.959-12.024V24h5.28c3.888 0 4.992-2.016 4.992-4.728v-6.528c0-2.712-1.104-4.728-4.992-4.728h-5.28zm1.416 1.272h3.888c2.688 0 3.552 1.104 3.552 3.384v6.672c0 2.28-.864 3.384-3.552 3.384h-3.888V9.288zm14.156-1.272h-1.416V24h1.416V8.016zm8.664 0h-1.752l-6.36 7.848L202.131 24h1.776l-6.864-8.136 6.408-7.848zM55.116 12.675v-6.31c0-.574-.116-1.148-.347-1.607-.116-.573-.463-1.032-.81-1.376a5.139 5.139 0 00-1.273-.918c-.58-.115-1.042-.23-1.62-.23h-1.39v1.607h1.39c1.62 0 2.43.803 2.43 2.524v6.31c0 .344.115.688.231 1.032.116.344.348.689.579 1.033.232.344.463.573.81.803.347.23.695.344 1.042.459-.347.114-.695.23-1.042.459-.347.23-.578.459-.81.803-.231.344-.463.688-.579 1.032-.115.345-.231.689-.231 1.033v6.31c0 1.606-.81 2.524-2.43 2.524h-1.39v1.606h1.39c.578 0 1.157-.114 1.62-.344.463-.23.925-.459 1.273-.918.347-.344.694-.803.81-1.262.231-.459.347-1.032.347-1.72v-6.31c0-1.607.926-2.525 2.662-2.525v-1.606c-1.736.115-2.662-.688-2.662-2.41zM7.316 2.579c-.464.114-.927.458-1.274.803-.347.344-.579.803-.81 1.262C5 5.217 5 5.79 5 6.364v6.31c0 1.607-.925 2.525-2.777 2.525v1.606c1.852 0 2.777.803 2.777 2.524v6.31c0 .574.116 1.147.348 1.721.115.459.347.918.694 1.262s.81.688 1.273.918c.579.114 1.042.23 1.62.23h1.39v-1.722h-1.39c-1.62 0-2.43-.803-2.43-2.524v-6.31c0-.344-.116-.688-.231-1.032-.116-.345-.348-.689-.58-1.033a2.693 2.693 0 00-.81-.803 2.87 2.87 0 00-1.041-.459c.347-.115.694-.23 1.042-.459.347-.23.578-.459.81-.803.231-.344.347-.688.463-1.033.116-.344.231-.688.231-1.032V6.365c0-1.607.81-2.524 2.43-2.524h1.505V2.234H8.937c-.58 0-1.042.115-1.62.345zm18.75 4.818l-6.83-5.163.927 10.67-2.894 4.016 1.273 3.9c1.389.574 2.662 1.262 3.82 2.295.115-1.147.347-2.868.578-3.671l-2.199.344c.695-4.475 2.662-8.605 5.324-12.39zm14.698-5.163C34.283 7.168 32.2 7.856 29.77 13.937l3.356-.689c-4.166 4.36-6.712 10.097-7.175 14.57l.81 1.951h6.481c1.042-2.294 2.547-6.883 8.102-8.949l1.273-3.9-2.893-4.016 1.041-10.67zM30 27.59l-2.083-2.982h4.051L30 27.588zm1.505-9.752L36.83 15.2c-1.157 2.753-1.62 3.212-5.324 2.638zm-3.125 0L23.056 15.2c1.273 2.753 1.62 3.212 5.324 2.638z" fill="#F4F2FF"/></svg>