<svg width="659" height="310" viewBox="0 0 659 310" fill="none" xmlns="http://www.w3.org/2000/svg">
<rect width="4.37655" height="87.7647" transform="matrix(-0.906243 0.422758 0.421372 0.906888 129.715 149)" fill="#797399"/>
<rect width="4.37655" height="87.7647" transform="matrix(0.906243 0.422758 -0.421372 0.906888 166.851 149)" fill="#797399"/>
<path d="M99.9473 192.33H168.092C170.093 192.33 171.684 194.01 171.574 196.008L167.578 268.705C167.476 270.554 165.947 272.001 164.096 272.001H104.327L99.9473 192.33Z" fill="#958FB2"/>
<path d="M120.171 192.33H192L187.62 272.001H125.302L120.171 192.33Z" fill="#797399"/>
<path d="M107.328 162.953L119.58 188.215H99.6685L87.0143 163.008C86.5487 162.081 87.223 160.988 88.2608 160.988H104.19C105.526 160.988 106.745 161.751 107.328 162.953Z" fill="#484266"/>
<path d="M120.171 192.33H191.893L186.539 216.659C186.187 218.258 184.77 219.397 183.133 219.397H142.019C140.915 219.397 139.877 218.874 139.219 217.988L120.171 192.33Z" fill="#484266"/>
<rect x="286" y="35" width="340.264" height="197.211" rx="2.48376" fill="#332E4D"/>
<rect x="497.617" y="262.512" width="68.0551" height="27.3767" transform="rotate(180 497.617 262.512)" fill="#484266"/>
<rect x="429.562" y="262.512" width="8.94155" height="27.3767" transform="rotate(180 429.562 262.512)" fill="#1B182B"/>
<path d="M372.435 269.963C372.435 265.848 375.771 262.512 379.886 262.512H533.623C537.739 262.512 541.075 265.848 541.075 269.963V271.453H372.435V269.963Z" fill="#201C33"/>
<rect x="293.451" y="35" width="340.264" height="197.211" rx="2.48376" fill="#484266"/>
<rect x="302.599" y="43" width="322.192" height="181.079" fill="#332E4D"/>
<g filter="url(#filter0_d)">
<rect x="327" y="75" width="95.4953" height="131" fill="#B2A1E6"/>
</g>
<path opacity="0.7" d="M356.11 100.64C357.878 104.141 361.614 104.134 363.027 103.762L361.821 109.328C356.17 110.034 354.643 107.43 354.374 106.843C353.472 104.874 354.378 101.498 355.236 100.359C355.508 99.9991 355.907 100.238 356.11 100.64Z" fill="#D3CFE5"/>
<path opacity="0.7" d="M391.89 100.64C390.122 104.141 386.386 104.134 384.973 103.762L386.179 109.328C391.83 110.034 393.357 107.43 393.626 106.843C394.528 104.874 393.622 101.498 392.764 100.359C392.492 99.9991 392.093 100.238 391.89 100.64Z" fill="#D3CFE5"/>
<path d="M387.734 109.793C387.734 116.46 389.862 114.172 374.021 114.172C360.418 114.172 360.781 116.46 360.781 109.793C360.781 103.127 367.716 97.3672 374.376 97.3672C381.035 97.3672 387.734 103.127 387.734 109.793Z" fill="#332E4D"/>
<path d="M372.72 96.655C372.72 95.741 373.461 95 374.376 95C375.29 95 376.031 95.741 376.031 96.655V111.095H372.72V96.655Z" fill="#797399"/>
<rect x="358.297" y="110.857" width="32.1551" height="5.20707" rx="2.60353" fill="#484266"/>
<path d="M362.393 112.041L363.855 113.022L363.296 114.61H361.49L360.931 113.022L362.393 112.041Z" fill="#201C33"/>
<path d="M368.54 112.041L370.002 113.022L369.444 114.61H367.637L367.079 113.022L368.54 112.041Z" fill="#201C33"/>
<path d="M374.687 112.041L376.149 113.022L375.591 114.61H373.784L373.226 113.022L374.687 112.041Z" fill="#201C33"/>
<path d="M380.835 112.041L382.297 113.022L381.739 114.61H379.932L379.374 113.022L380.835 112.041Z" fill="#201C33"/>
<path d="M386.982 112.041L388.444 113.022L387.885 114.61H386.079L385.521 113.022L386.982 112.041Z" fill="#201C33"/>
<rect x="336" y="151" width="78.3551" height="47.7477" fill="#332E4D"/>
<circle cx="374.136" cy="174.781" r="14.0794" fill="#484266"/>
<path d="M379.645 174.781L371.381 180.612L371.381 168.949L379.645 174.781Z" fill="#E6004C"/>
<path d="M354.454 135.383H353.628C353.532 135.383 353.455 135.359 353.396 135.311C353.338 135.263 353.294 135.203 353.264 135.129L352.526 133.223H348.983L348.245 135.129C348.219 135.195 348.175 135.254 348.113 135.306C348.05 135.357 347.973 135.383 347.881 135.383H347.055L350.212 127.488H351.297L354.454 135.383ZM349.281 132.452H352.228L350.989 129.24C350.908 129.042 350.829 128.794 350.752 128.496C350.711 128.647 350.671 128.786 350.631 128.915C350.594 129.04 350.557 129.15 350.52 129.245L349.281 132.452ZM355.294 137.273V129.802H355.878C356.017 129.802 356.105 129.87 356.142 130.006L356.225 130.667C356.463 130.377 356.735 130.143 357.04 129.967C357.349 129.791 357.703 129.703 358.103 129.703C358.423 129.703 358.713 129.765 358.974 129.89C359.235 130.011 359.457 130.193 359.641 130.435C359.824 130.674 359.966 130.972 360.065 131.328C360.164 131.684 360.213 132.094 360.213 132.557C360.213 132.968 360.158 133.352 360.048 133.708C359.938 134.061 359.78 134.367 359.574 134.628C359.369 134.885 359.115 135.089 358.814 135.24C358.517 135.386 358.181 135.46 357.806 135.46C357.461 135.46 357.165 135.403 356.919 135.289C356.676 135.175 356.462 135.014 356.274 134.804V137.273H355.294ZM357.778 130.496C357.459 130.496 357.178 130.569 356.935 130.716C356.697 130.863 356.476 131.071 356.274 131.339V134.039C356.454 134.281 356.651 134.452 356.864 134.551C357.08 134.65 357.321 134.7 357.586 134.7C358.103 134.7 358.502 134.514 358.781 134.143C359.06 133.772 359.2 133.243 359.2 132.557C359.2 132.193 359.167 131.881 359.101 131.62C359.038 131.359 358.946 131.146 358.825 130.981C358.704 130.812 358.555 130.689 358.379 130.612C358.203 130.535 358.002 130.496 357.778 130.496ZM361.373 137.273V129.802H361.957C362.097 129.802 362.185 129.87 362.222 130.006L362.304 130.667C362.543 130.377 362.815 130.143 363.12 129.967C363.428 129.791 363.783 129.703 364.183 129.703C364.503 129.703 364.793 129.765 365.054 129.89C365.314 130.011 365.537 130.193 365.72 130.435C365.904 130.674 366.045 130.972 366.144 131.328C366.244 131.684 366.293 132.094 366.293 132.557C366.293 132.968 366.238 133.352 366.128 133.708C366.018 134.061 365.86 134.367 365.654 134.628C365.448 134.885 365.195 135.089 364.894 135.24C364.596 135.386 364.26 135.46 363.886 135.46C363.54 135.46 363.245 135.403 362.999 135.289C362.756 135.175 362.541 135.014 362.354 134.804V137.273H361.373ZM363.858 130.496C363.538 130.496 363.257 130.569 363.015 130.716C362.776 130.863 362.556 131.071 362.354 131.339V134.039C362.534 134.281 362.73 134.452 362.943 134.551C363.16 134.65 363.401 134.7 363.665 134.7C364.183 134.7 364.582 134.514 364.861 134.143C365.14 133.772 365.279 133.243 365.279 132.557C365.279 132.193 365.246 131.881 365.18 131.62C365.118 131.359 365.026 131.146 364.905 130.981C364.784 130.812 364.635 130.689 364.459 130.612C364.282 130.535 364.082 130.496 363.858 130.496ZM370.674 127.268V135.383H369.694V127.268H370.674ZM374.662 129.714C375.069 129.714 375.437 129.782 375.763 129.918C376.094 130.053 376.373 130.246 376.601 130.496C376.832 130.746 377.009 131.049 377.13 131.405C377.255 131.758 377.317 132.152 377.317 132.59C377.317 133.03 377.255 133.427 377.13 133.78C377.009 134.132 376.832 134.433 376.601 134.683C376.373 134.933 376.094 135.126 375.763 135.262C375.437 135.394 375.069 135.46 374.662 135.46C374.254 135.46 373.885 135.394 373.554 135.262C373.227 135.126 372.948 134.933 372.717 134.683C372.485 134.433 372.307 134.132 372.182 133.78C372.057 133.427 371.995 133.03 371.995 132.59C371.995 132.152 372.057 131.758 372.182 131.405C372.307 131.049 372.485 130.746 372.717 130.496C372.948 130.246 373.227 130.053 373.554 129.918C373.885 129.782 374.254 129.714 374.662 129.714ZM374.662 134.694C375.213 134.694 375.624 134.51 375.896 134.143C376.167 133.772 376.303 133.256 376.303 132.595C376.303 131.93 376.167 131.412 375.896 131.041C375.624 130.67 375.213 130.485 374.662 130.485C374.382 130.485 374.14 130.533 373.934 130.628C373.729 130.724 373.556 130.861 373.416 131.041C373.281 131.221 373.178 131.444 373.108 131.708C373.042 131.969 373.009 132.265 373.009 132.595C373.009 132.926 373.042 133.221 373.108 133.482C373.178 133.743 373.281 133.963 373.416 134.143C373.556 134.32 373.729 134.455 373.934 134.551C374.14 134.646 374.382 134.694 374.662 134.694ZM382.624 135.383H382.189C382.094 135.383 382.017 135.368 381.958 135.339C381.899 135.309 381.86 135.247 381.842 135.151L381.732 134.634C381.585 134.766 381.442 134.885 381.302 134.992C381.163 135.094 381.016 135.183 380.861 135.256C380.707 135.326 380.542 135.379 380.366 135.416C380.193 135.453 380 135.471 379.787 135.471C379.57 135.471 379.367 135.442 379.176 135.383C378.988 135.32 378.825 135.229 378.685 135.107C378.546 134.986 378.434 134.834 378.349 134.65C378.268 134.463 378.228 134.242 378.228 133.989C378.228 133.769 378.289 133.557 378.41 133.355C378.531 133.15 378.726 132.968 378.994 132.81C379.266 132.652 379.62 132.523 380.057 132.424C380.494 132.321 381.029 132.263 381.66 132.248V131.813C381.66 131.379 381.567 131.052 381.379 130.832C381.196 130.608 380.922 130.496 380.558 130.496C380.32 130.496 380.118 130.527 379.952 130.59C379.791 130.648 379.649 130.716 379.528 130.794C379.411 130.867 379.308 130.935 379.22 130.997C379.135 131.056 379.051 131.086 378.966 131.086C378.9 131.086 378.841 131.069 378.79 131.036C378.742 130.999 378.704 130.955 378.674 130.904L378.498 130.59C378.806 130.292 379.139 130.07 379.495 129.923C379.851 129.776 380.246 129.703 380.68 129.703C380.992 129.703 381.269 129.754 381.511 129.857C381.754 129.96 381.958 130.103 382.123 130.287C382.288 130.47 382.413 130.693 382.498 130.953C382.582 131.214 382.624 131.501 382.624 131.813V135.383ZM380.079 134.782C380.252 134.782 380.41 134.766 380.553 134.733C380.696 134.696 380.83 134.646 380.955 134.584C381.084 134.518 381.205 134.439 381.319 134.347C381.436 134.255 381.55 134.151 381.66 134.033V132.871C381.208 132.885 380.825 132.922 380.509 132.981C380.193 133.036 379.936 133.109 379.737 133.201C379.539 133.293 379.394 133.401 379.302 133.526C379.214 133.651 379.17 133.791 379.17 133.945C379.17 134.092 379.194 134.219 379.242 134.325C379.289 134.432 379.354 134.52 379.434 134.589C379.515 134.656 379.611 134.705 379.721 134.738C379.831 134.768 379.951 134.782 380.079 134.782ZM388.038 135.383C387.899 135.383 387.811 135.315 387.774 135.179L387.686 134.501C387.447 134.791 387.173 135.025 386.865 135.201C386.56 135.374 386.209 135.46 385.812 135.46C385.493 135.46 385.203 135.399 384.942 135.278C384.681 135.153 384.459 134.971 384.275 134.733C384.092 134.494 383.95 134.196 383.851 133.84C383.752 133.484 383.702 133.074 383.702 132.612C383.702 132.2 383.757 131.818 383.868 131.466C383.978 131.109 384.136 130.801 384.341 130.54C384.551 130.279 384.804 130.075 385.102 129.929C385.399 129.778 385.737 129.703 386.115 129.703C386.457 129.703 386.749 129.761 386.991 129.879C387.234 129.993 387.451 130.154 387.642 130.364V127.268H388.622V135.383H388.038ZM386.138 134.667C386.457 134.667 386.736 134.593 386.975 134.446C387.217 134.299 387.44 134.092 387.642 133.824V131.124C387.462 130.882 387.263 130.713 387.047 130.617C386.834 130.518 386.597 130.468 386.336 130.468C385.814 130.468 385.414 130.654 385.135 131.025C384.856 131.396 384.716 131.925 384.716 132.612C384.716 132.975 384.747 133.287 384.81 133.548C384.872 133.805 384.964 134.018 385.085 134.187C385.206 134.353 385.355 134.474 385.532 134.551C385.708 134.628 385.91 134.667 386.138 134.667ZM391.356 129.802V135.383H390.375V129.802H391.356ZM391.576 128.05C391.576 128.145 391.556 128.235 391.516 128.32C391.479 128.401 391.428 128.474 391.361 128.54C391.299 128.603 391.226 128.652 391.141 128.689C391.057 128.726 390.967 128.744 390.871 128.744C390.776 128.744 390.686 128.726 390.601 128.689C390.52 128.652 390.447 128.603 390.381 128.54C390.318 128.474 390.269 128.401 390.232 128.32C390.195 128.235 390.177 128.145 390.177 128.05C390.177 127.954 390.195 127.864 390.232 127.78C390.269 127.692 390.318 127.616 390.381 127.554C390.447 127.488 390.52 127.436 390.601 127.4C390.686 127.363 390.776 127.345 390.871 127.345C390.967 127.345 391.057 127.363 391.141 127.4C391.226 127.436 391.299 127.488 391.361 127.554C391.428 127.616 391.479 127.692 391.516 127.78C391.556 127.864 391.576 127.954 391.576 128.05ZM393.084 135.383V129.802H393.668C393.808 129.802 393.896 129.87 393.933 130.006L394.01 130.612C394.252 130.344 394.522 130.127 394.82 129.962C395.121 129.796 395.468 129.714 395.861 129.714C396.166 129.714 396.434 129.765 396.665 129.868C396.9 129.967 397.095 130.11 397.249 130.298C397.407 130.481 397.527 130.704 397.607 130.964C397.688 131.225 397.729 131.513 397.729 131.829V135.383H396.748V131.829C396.748 131.407 396.651 131.08 396.456 130.849C396.265 130.614 395.971 130.496 395.575 130.496C395.284 130.496 395.013 130.566 394.759 130.705C394.509 130.845 394.278 131.034 394.065 131.273V135.383H393.084ZM401.086 129.708C401.328 129.708 401.554 129.736 401.763 129.791C401.976 129.842 402.169 129.919 402.342 130.022H403.857V130.386C403.857 130.507 403.78 130.584 403.625 130.617L402.992 130.705C403.117 130.944 403.179 131.21 403.179 131.504C403.179 131.776 403.126 132.024 403.019 132.248C402.917 132.468 402.772 132.658 402.584 132.815C402.401 132.973 402.18 133.095 401.923 133.179C401.67 133.264 401.391 133.306 401.086 133.306C400.825 133.306 400.579 133.275 400.347 133.212C400.23 133.286 400.14 133.365 400.077 133.449C400.019 133.534 399.989 133.616 399.989 133.697C399.989 133.829 400.043 133.93 400.149 134C400.256 134.066 400.397 134.114 400.573 134.143C400.75 134.173 400.95 134.191 401.174 134.198C401.398 134.206 401.626 134.219 401.857 134.237C402.092 134.252 402.322 134.279 402.546 134.32C402.77 134.36 402.97 134.426 403.146 134.518C403.322 134.61 403.464 134.736 403.57 134.898C403.677 135.06 403.73 135.269 403.73 135.526C403.73 135.765 403.67 135.996 403.548 136.22C403.431 136.444 403.26 136.643 403.036 136.815C402.812 136.992 402.538 137.131 402.215 137.234C401.892 137.34 401.526 137.394 401.119 137.394C400.711 137.394 400.353 137.353 400.044 137.273C399.74 137.192 399.486 137.083 399.284 136.947C399.082 136.812 398.93 136.654 398.827 136.474C398.728 136.297 398.678 136.112 398.678 135.917C398.678 135.642 398.764 135.409 398.937 135.218C399.113 135.023 399.354 134.869 399.659 134.755C399.501 134.681 399.374 134.584 399.279 134.463C399.187 134.338 399.141 134.173 399.141 133.967C399.141 133.886 399.156 133.803 399.185 133.719C399.214 133.631 399.258 133.545 399.317 133.46C399.38 133.376 399.455 133.295 399.543 133.218C399.631 133.141 399.734 133.073 399.852 133.014C399.576 132.86 399.359 132.656 399.201 132.402C399.047 132.145 398.97 131.846 398.97 131.504C398.97 131.232 399.022 130.986 399.124 130.766C399.231 130.542 399.378 130.353 399.565 130.199C399.752 130.041 399.975 129.919 400.232 129.835C400.493 129.75 400.777 129.708 401.086 129.708ZM402.827 135.686C402.827 135.546 402.788 135.434 402.711 135.35C402.634 135.265 402.529 135.201 402.397 135.157C402.265 135.109 402.112 135.074 401.94 135.052C401.767 135.03 401.585 135.016 401.394 135.008C401.203 134.997 401.009 134.986 400.81 134.975C400.612 134.964 400.423 134.944 400.243 134.915C400.033 135.014 399.863 135.135 399.73 135.278C399.602 135.421 399.538 135.592 399.538 135.791C399.538 135.915 399.569 136.031 399.631 136.138C399.697 136.248 399.796 136.341 399.929 136.419C400.061 136.499 400.226 136.562 400.425 136.606C400.627 136.654 400.863 136.678 401.135 136.678C401.4 136.678 401.637 136.654 401.846 136.606C402.055 136.558 402.232 136.49 402.375 136.402C402.522 136.314 402.634 136.209 402.711 136.088C402.788 135.967 402.827 135.833 402.827 135.686ZM401.086 132.656C401.284 132.656 401.458 132.628 401.609 132.573C401.763 132.518 401.892 132.441 401.995 132.342C402.098 132.242 402.175 132.125 402.226 131.989C402.278 131.849 402.303 131.697 402.303 131.532C402.303 131.19 402.199 130.918 401.989 130.716C401.784 130.514 401.482 130.413 401.086 130.413C400.693 130.413 400.392 130.514 400.182 130.716C399.976 130.918 399.874 131.19 399.874 131.532C399.874 131.697 399.899 131.849 399.951 131.989C400.006 132.125 400.085 132.242 400.188 132.342C400.29 132.441 400.417 132.518 400.568 132.573C400.718 132.628 400.891 132.656 401.086 132.656Z" fill="#201C33"/>
<rect x="327" y="75" width="95.4953" height="8.57009" fill="#5F5980"/>
<circle cx="416.986" cy="79.2857" r="1.83645" fill="#B2ADCC"/>
<circle cx="409.64" cy="79.2857" r="1.83645" fill="#B2ADCC"/>
<circle cx="402.294" cy="79.2857" r="1.83645" fill="#B2ADCC"/>
<path d="M457.032 138.856C457.107 138.984 457.171 139.12 457.224 139.264C457.283 139.403 457.339 139.544 457.392 139.688C457.445 139.539 457.501 139.397 457.56 139.264C457.619 139.125 457.685 138.987 457.76 138.848L461.64 131.8C461.709 131.677 461.781 131.603 461.856 131.576C461.931 131.549 462.037 131.536 462.176 131.536H463.32V143H461.96V134.576C461.96 134.464 461.963 134.344 461.968 134.216C461.973 134.088 461.981 133.957 461.992 133.824L458.064 140.992C457.931 141.232 457.744 141.352 457.504 141.352H457.28C457.04 141.352 456.853 141.232 456.72 140.992L452.704 133.8C452.72 133.939 452.731 134.075 452.736 134.208C452.747 134.341 452.752 134.464 452.752 134.576V143H451.392V131.536H452.536C452.675 131.536 452.781 131.549 452.856 131.576C452.931 131.603 453.003 131.677 453.072 131.8L457.032 138.856ZM475.543 143H474.343C474.204 143 474.092 142.965 474.007 142.896C473.921 142.827 473.857 142.739 473.815 142.632L472.743 139.864H467.599L466.527 142.632C466.489 142.728 466.425 142.813 466.335 142.888C466.244 142.963 466.132 143 465.999 143H464.799L469.383 131.536H470.959L475.543 143ZM468.031 138.744H472.311L470.511 134.08C470.393 133.792 470.279 133.432 470.167 133C470.108 133.219 470.049 133.421 469.991 133.608C469.937 133.789 469.884 133.949 469.831 134.088L468.031 138.744ZM483.731 131.536V132.84H480.027V143H478.475V132.84H474.755V131.536H483.731ZM492.66 140.632C492.745 140.632 492.822 140.667 492.892 140.736L493.5 141.4C493.03 141.944 492.46 142.368 491.788 142.672C491.121 142.976 490.316 143.128 489.372 143.128C488.545 143.128 487.796 142.987 487.124 142.704C486.452 142.416 485.878 142.016 485.404 141.504C484.929 140.987 484.561 140.368 484.3 139.648C484.038 138.928 483.908 138.136 483.908 137.272C483.908 136.408 484.046 135.616 484.324 134.896C484.606 134.176 485.001 133.557 485.508 133.04C486.014 132.523 486.62 132.123 487.324 131.84C488.033 131.552 488.814 131.408 489.668 131.408C490.51 131.408 491.236 131.539 491.844 131.8C492.457 132.061 493.001 132.416 493.476 132.864L492.972 133.576C492.934 133.629 492.892 133.675 492.844 133.712C492.796 133.744 492.726 133.76 492.636 133.76C492.566 133.76 492.492 133.736 492.411 133.688C492.337 133.635 492.246 133.571 492.14 133.496C492.033 133.421 491.908 133.341 491.764 133.256C491.62 133.171 491.449 133.091 491.252 133.016C491.054 132.941 490.825 132.88 490.564 132.832C490.302 132.779 490.001 132.752 489.66 132.752C489.046 132.752 488.484 132.859 487.972 133.072C487.465 133.28 487.028 133.579 486.66 133.968C486.292 134.357 486.004 134.832 485.796 135.392C485.593 135.952 485.492 136.579 485.492 137.272C485.492 137.987 485.593 138.624 485.796 139.184C486.004 139.744 486.284 140.219 486.636 140.608C486.993 140.992 487.414 141.285 487.9 141.488C488.385 141.691 488.908 141.792 489.468 141.792C489.809 141.792 490.116 141.773 490.388 141.736C490.66 141.693 490.91 141.629 491.14 141.544C491.374 141.459 491.59 141.352 491.788 141.224C491.99 141.091 492.193 140.933 492.396 140.752C492.486 140.672 492.574 140.632 492.66 140.632ZM504.829 143H503.269V137.784H497.093V143H495.533V131.536H497.093V136.648H503.269V131.536H504.829V143ZM512.272 141.696H517.232V143H510.72V131.536H512.272V141.696ZM528.946 137.272C528.946 138.131 528.81 138.92 528.538 139.64C528.266 140.355 527.882 140.971 527.386 141.488C526.89 142.005 526.293 142.408 525.594 142.696C524.901 142.979 524.133 143.12 523.29 143.12C522.448 143.12 521.68 142.979 520.986 142.696C520.293 142.408 519.698 142.005 519.202 141.488C518.706 140.971 518.322 140.355 518.05 139.64C517.778 138.92 517.642 138.131 517.642 137.272C517.642 136.413 517.778 135.627 518.05 134.912C518.322 134.192 518.706 133.573 519.202 133.056C519.698 132.533 520.293 132.128 520.986 131.84C521.68 131.552 522.448 131.408 523.29 131.408C524.133 131.408 524.901 131.552 525.594 131.84C526.293 132.128 526.89 132.533 527.386 133.056C527.882 133.573 528.266 134.192 528.538 134.912C528.81 135.627 528.946 136.413 528.946 137.272ZM527.354 137.272C527.354 136.568 527.258 135.936 527.066 135.376C526.874 134.816 526.602 134.344 526.25 133.96C525.898 133.571 525.472 133.272 524.97 133.064C524.469 132.856 523.909 132.752 523.29 132.752C522.677 132.752 522.12 132.856 521.618 133.064C521.117 133.272 520.688 133.571 520.33 133.96C519.978 134.344 519.706 134.816 519.514 135.376C519.322 135.936 519.226 136.568 519.226 137.272C519.226 137.976 519.322 138.608 519.514 139.168C519.706 139.723 519.978 140.195 520.33 140.584C520.688 140.968 521.117 141.264 521.618 141.472C522.12 141.675 522.677 141.776 523.29 141.776C523.909 141.776 524.469 141.675 524.97 141.472C525.472 141.264 525.898 140.968 526.25 140.584C526.602 140.195 526.874 139.723 527.066 139.168C527.258 138.608 527.354 137.976 527.354 137.272ZM540.152 143H538.952C538.813 143 538.701 142.965 538.616 142.896C538.531 142.827 538.467 142.739 538.424 142.632L537.352 139.864H532.208L531.136 142.632C531.099 142.728 531.035 142.813 530.944 142.888C530.853 142.963 530.741 143 530.608 143H529.408L533.992 131.536H535.568L540.152 143ZM532.64 138.744H536.92L535.12 134.08C535.003 133.792 534.888 133.432 534.776 133C534.717 133.219 534.659 133.421 534.6 133.608C534.547 133.789 534.493 133.949 534.44 134.088L532.64 138.744ZM551.531 137.272C551.531 138.131 551.395 138.912 551.123 139.616C550.851 140.32 550.467 140.923 549.971 141.424C549.475 141.925 548.88 142.315 548.187 142.592C547.494 142.864 546.726 143 545.883 143H541.595V131.536H545.883C546.726 131.536 547.494 131.675 548.187 131.952C548.88 132.224 549.475 132.613 549.971 133.12C550.467 133.621 550.851 134.224 551.123 134.928C551.395 135.632 551.531 136.413 551.531 137.272ZM549.939 137.272C549.939 136.568 549.843 135.939 549.651 135.384C549.459 134.829 549.187 134.36 548.835 133.976C548.483 133.592 548.056 133.299 547.555 133.096C547.054 132.893 546.496 132.792 545.883 132.792H543.155V141.744H545.883C546.496 141.744 547.054 141.643 547.555 141.44C548.056 141.237 548.483 140.947 548.835 140.568C549.187 140.184 549.459 139.715 549.651 139.16C549.843 138.605 549.939 137.976 549.939 137.272ZM555.482 143H553.93V131.536H555.482V143ZM559.348 131.536C559.487 131.536 559.588 131.555 559.652 131.592C559.722 131.624 559.799 131.693 559.884 131.8L566.524 140.44C566.508 140.301 566.498 140.168 566.492 140.04C566.487 139.907 566.484 139.779 566.484 139.656V131.536H567.844V143H567.06C566.938 143 566.834 142.979 566.748 142.936C566.668 142.893 566.588 142.821 566.508 142.72L559.876 134.088C559.887 134.221 559.895 134.352 559.9 134.48C559.906 134.608 559.908 134.725 559.908 134.832V143H558.548V131.536H559.348ZM575.754 141.872C576.063 141.872 576.346 141.859 576.602 141.832C576.863 141.8 577.109 141.755 577.338 141.696C577.567 141.637 577.783 141.568 577.986 141.488C578.189 141.403 578.391 141.307 578.594 141.2V138.672H576.818C576.717 138.672 576.634 138.643 576.57 138.584C576.511 138.525 576.482 138.453 576.482 138.368V137.488H580.002V141.888C579.714 142.096 579.413 142.277 579.098 142.432C578.789 142.587 578.455 142.717 578.098 142.824C577.746 142.925 577.367 143 576.962 143.048C576.557 143.101 576.117 143.128 575.642 143.128C574.81 143.128 574.047 142.987 573.354 142.704C572.661 142.416 572.063 142.016 571.562 141.504C571.061 140.987 570.669 140.368 570.386 139.648C570.109 138.928 569.97 138.136 569.97 137.272C569.97 136.397 570.106 135.6 570.378 134.88C570.655 134.16 571.047 133.544 571.554 133.032C572.066 132.515 572.682 132.115 573.402 131.832C574.127 131.549 574.938 131.408 575.834 131.408C576.287 131.408 576.709 131.443 577.098 131.512C577.487 131.576 577.847 131.672 578.178 131.8C578.514 131.923 578.823 132.075 579.106 132.256C579.389 132.432 579.653 132.632 579.898 132.856L579.458 133.56C579.367 133.704 579.25 133.776 579.106 133.776C579.021 133.776 578.927 133.747 578.826 133.688C578.693 133.613 578.543 133.523 578.378 133.416C578.213 133.309 578.01 133.208 577.77 133.112C577.535 133.011 577.255 132.925 576.93 132.856C576.61 132.787 576.229 132.752 575.786 132.752C575.141 132.752 574.557 132.859 574.034 133.072C573.511 133.28 573.066 133.581 572.698 133.976C572.33 134.365 572.047 134.84 571.85 135.4C571.653 135.955 571.554 136.579 571.554 137.272C571.554 137.997 571.655 138.645 571.858 139.216C572.066 139.781 572.357 140.261 572.73 140.656C573.103 141.051 573.546 141.352 574.058 141.56C574.57 141.768 575.135 141.872 575.754 141.872ZM581.704 142.12C581.704 141.981 581.728 141.851 581.776 141.728C581.829 141.605 581.899 141.499 581.984 141.408C582.075 141.317 582.181 141.245 582.304 141.192C582.427 141.139 582.557 141.112 582.696 141.112C582.835 141.112 582.965 141.139 583.088 141.192C583.211 141.245 583.317 141.317 583.408 141.408C583.499 141.499 583.568 141.605 583.616 141.728C583.669 141.851 583.696 141.981 583.696 142.12C583.696 142.264 583.669 142.397 583.616 142.52C583.568 142.637 583.499 142.741 583.408 142.832C583.317 142.923 583.211 142.992 583.088 143.04C582.965 143.093 582.835 143.12 582.696 143.12C582.557 143.12 582.427 143.093 582.304 143.04C582.181 142.992 582.075 142.923 581.984 142.832C581.899 142.741 581.829 142.637 581.776 142.52C581.728 142.397 581.704 142.264 581.704 142.12ZM585.095 142.12C585.095 141.981 585.119 141.851 585.167 141.728C585.22 141.605 585.289 141.499 585.375 141.408C585.465 141.317 585.572 141.245 585.695 141.192C585.817 141.139 585.948 141.112 586.087 141.112C586.225 141.112 586.356 141.139 586.479 141.192C586.601 141.245 586.708 141.317 586.799 141.408C586.889 141.499 586.959 141.605 587.007 141.728C587.06 141.851 587.087 141.981 587.087 142.12C587.087 142.264 587.06 142.397 587.007 142.52C586.959 142.637 586.889 142.741 586.799 142.832C586.708 142.923 586.601 142.992 586.479 143.04C586.356 143.093 586.225 143.12 586.087 143.12C585.948 143.12 585.817 143.093 585.695 143.04C585.572 142.992 585.465 142.923 585.375 142.832C585.289 142.741 585.22 142.637 585.167 142.52C585.119 142.397 585.095 142.264 585.095 142.12ZM588.485 142.12C588.485 141.981 588.509 141.851 588.557 141.728C588.611 141.605 588.68 141.499 588.765 141.408C588.856 141.317 588.963 141.245 589.085 141.192C589.208 141.139 589.339 141.112 589.477 141.112C589.616 141.112 589.747 141.139 589.869 141.192C589.992 141.245 590.099 141.317 590.189 141.408C590.28 141.499 590.349 141.605 590.397 141.728C590.451 141.851 590.477 141.981 590.477 142.12C590.477 142.264 590.451 142.397 590.397 142.52C590.349 142.637 590.28 142.741 590.189 142.832C590.099 142.923 589.992 142.992 589.869 143.04C589.747 143.093 589.616 143.12 589.477 143.12C589.339 143.12 589.208 143.093 589.085 143.04C588.963 142.992 588.856 142.923 588.765 142.832C588.68 142.741 588.611 142.637 588.557 142.52C588.509 142.397 588.485 142.264 588.485 142.12Z" fill="#B2ADCC"/>
<path d="M380.021 269.963C380.021 265.848 383.357 262.512 387.472 262.512H541.209C545.325 262.512 548.661 265.848 548.661 269.963V271.453H380.021V269.963Z" fill="#332E4D"/>
<path fill-rule="evenodd" clip-rule="evenodd" d="M229.995 140.777L228.152 140L206 192.519L210.607 194.462L230.816 146.55L246.48 153.157L248.423 148.55L232.759 141.943L229.995 140.777Z" fill="#484266"/>
<path d="M175 191H238.5L228 272H186L175 191Z" fill="#958FB2"/>
<path fill-rule="evenodd" clip-rule="evenodd" d="M206.638 210.019L209.122 210.025L209.117 212.155L209.117 212.155L209.12 211.091L210.185 211.093L210.182 212.158L211.246 212.16L211.237 215.709L209.108 215.704L209.108 215.705L210.173 215.707L210.17 216.773L209.105 216.77L209.105 216.768L208.042 216.765L208.042 216.767L209.106 216.77L209.103 217.835L208.039 217.832L208.036 218.895L208.035 218.895L208.035 218.896L206.97 218.893L206.97 218.893L203.422 218.884L203.422 218.886L202.357 218.883L202.36 217.818L202.361 217.818L202.364 216.752L202.363 216.752L202.36 217.817L201.295 217.814L201.298 216.75L200.233 216.747L200.236 215.684L199.174 215.681L199.183 212.132L200.245 212.135L200.245 212.132L200.246 212.132L200.249 211.069L201.313 211.072L201.316 210.007L203.8 210.013L203.797 211.077L204.861 211.079L204.859 212.144L205.924 212.147L205.926 211.083L206.635 211.085L206.638 210.019ZM201.301 215.684L201.299 216.749L201.298 216.749L201.301 215.684L200.239 215.682L200.239 215.681L201.301 215.684ZM205.904 219.956L206.968 219.959L206.97 218.894L204.488 218.888L204.488 218.887L203.423 218.884L203.42 219.949L204.483 219.952L204.483 219.952L204.484 219.952L204.481 221.016L205.901 221.02L205.904 219.956Z" fill="#797399"/>
<rect x="171" y="184" width="71" height="7" rx="3" fill="#484266"/>
<path d="M178 178C178 175.791 179.791 174 182 174H232C234.209 174 236 175.791 236 178V184H178V178Z" fill="#332E4D"/>
<path d="M195.008 245.307C195.008 235.05 194.359 225.875 204.754 225.875C215.149 225.875 215 233.034 215 244.54C215 246.458 213.876 248.375 212.001 248.375C209.423 248.375 208.801 246.185 208.671 244.746C208.54 246.185 207.836 248.375 204.754 248.375C201.879 248.375 201.099 246.468 200.918 245.044C200.786 246.468 200.199 248.375 198.007 248.375C196.133 248.375 195.008 247.002 195.008 245.307Z" fill="#797399"/>
<circle cx="201.25" cy="234.625" r="1.25" fill="#958FB2"/>
<circle cx="207.5" cy="234.625" r="1.25" fill="#958FB2"/>
<rect x="202.5" y="237.125" width="3.75" height="1.25" fill="#958FB2"/>
<defs>
<filter id="filter0_d" x="323" y="75" width="103.495" height="139" filterUnits="userSpaceOnUse" color-interpolation-filters="sRGB">
<feFlood flood-opacity="0" result="BackgroundImageFix"/>
<feColorMatrix in="SourceAlpha" type="matrix" values="0 0 0 0 0 0 0 0 0 0 0 0 0 0 0 0 0 0 127 0"/>
<feOffset dy="4"/>
<feGaussianBlur stdDeviation="2"/>
<feColorMatrix type="matrix" values="0 0 0 0 0 0 0 0 0 0 0 0 0 0 0 0 0 0 0.25 0"/>
<feBlend mode="normal" in2="BackgroundImageFix" result="effect1_dropShadow"/>
<feBlend mode="normal" in="SourceGraphic" in2="effect1_dropShadow" result="shape"/>
</filter>
</defs>
</svg>
