<svg width="659" height="310" viewBox="0 0 659 310" fill="none" xmlns="http://www.w3.org/2000/svg"><path fill="#797399" d="M129.715 149l-3.967 1.85 36.982 79.593 3.967-1.85z"/><path fill="#797399" d="M166.851 149l3.967 1.85-36.982 79.593-3.967-1.85z"/><path d="M99.947 192.33h68.145a3.487 3.487 0 0 1 3.482 3.678l-3.996 72.697a3.488 3.488 0 0 1-3.482 3.296h-59.769l-4.38-79.671z" fill="#958FB2"/><path d="M120.171 192.33H192l-4.38 79.671h-62.318l-5.131-79.671z" fill="#797399"/><path d="M107.328 162.953l12.252 25.262H99.668l-12.654-25.207a1.394 1.394 0 0 1 1.247-2.02h15.929c1.336 0 2.555.763 3.138 1.965zm12.843 29.377h71.722l-5.354 24.329a3.488 3.488 0 0 1-3.406 2.738h-41.114a3.488 3.488 0 0 1-2.8-1.409l-19.048-25.658z" fill="#484266"/><rect x="286" y="35" width="340.264" height="197.211" rx="2.484" fill="#332E4D"/><path fill="#484266" d="M497.617 262.512h-68.055v-27.377h68.055z"/><path fill="#1B182B" d="M429.562 262.512h-8.942v-27.377h8.942z"/><path d="M372.435 269.963a7.451 7.451 0 0 1 7.451-7.451h153.737a7.451 7.451 0 0 1 7.452 7.451v1.49h-168.64v-1.49z" fill="#201C33"/><rect x="293.451" y="35" width="340.264" height="197.211" rx="2.484" fill="#484266"/><path fill="#332E4D" d="M302.599 43h322.192v181.079H302.599z"/><g filter="url(#filter0_d)"><path fill="#B2A1E6" d="M327 75h95.495v131H327z"/></g><path opacity=".7" d="M356.11 100.64c1.768 3.501 5.504 3.494 6.917 3.122l-1.206 5.566c-5.651.706-7.178-1.898-7.447-2.485-.902-1.969.004-5.345.862-6.484.272-.36.671-.121.874.281zm35.78 0c-1.768 3.501-5.504 3.494-6.917 3.122l1.206 5.566c5.651.706 7.178-1.898 7.447-2.485.902-1.969-.004-5.345-.862-6.484-.272-.36-.671-.121-.874.281z" fill="#D3CFE5"/><path d="M387.734 109.793c0 6.667 2.128 4.379-13.713 4.379-13.603 0-13.24 2.288-13.24-4.379 0-6.666 6.935-12.426 13.595-12.426 6.659 0 13.358 5.76 13.358 12.426z" fill="#332E4D"/><path d="M372.72 96.655a1.655 1.655 0 0 1 3.311 0v14.44h-3.311v-14.44z" fill="#797399"/><rect x="358.297" y="110.857" width="32.155" height="5.207" rx="2.604" fill="#484266"/><path d="M362.393 112.041l1.462.981-.559 1.588h-1.806l-.559-1.588 1.462-.981zm6.147 0l1.462.981-.558 1.588h-1.807l-.558-1.588 1.461-.981zm6.147 0l1.462.981-.558 1.588h-1.807l-.558-1.588 1.461-.981zm6.148 0l1.462.981-.558 1.588h-1.807l-.558-1.588 1.461-.981zm6.147 0l1.462.981-.559 1.588h-1.806l-.558-1.588 1.461-.981z" fill="#201C33"/><path fill="#332E4D" d="M336 151h78.355v47.748H336z"/><circle cx="374.136" cy="174.781" r="14.079" fill="#484266"/><path d="M379.645 174.781l-8.264 5.831v-11.663l8.264 5.832z" fill="#E6004C"/><path d="M354.454 135.383h-.826a.356.356 0 0 1-.232-.072.451.451 0 0 1-.132-.182l-.738-1.906h-3.543l-.738 1.906a.443.443 0 0 1-.132.177.357.357 0 0 1-.232.077h-.826l3.157-7.895h1.085l3.157 7.895zm-5.173-2.931h2.947l-1.239-3.212a5.907 5.907 0 0 1-.237-.744c-.041.151-.081.29-.121.419a4.21 4.21 0 0 1-.111.33l-1.239 3.207zm6.013 4.821v-7.471h.584c.139 0 .227.068.264.204l.083.661c.238-.29.51-.524.815-.7a2.109 2.109 0 0 1 1.063-.264c.32 0 .61.062.871.187.261.121.483.303.667.545a2.6 2.6 0 0 1 .424.893c.099.356.148.766.148 1.229 0 .411-.055.795-.165 1.151-.11.353-.268.659-.474.92a2.25 2.25 0 0 1-.76.612c-.297.146-.633.22-1.008.22-.345 0-.641-.057-.887-.171a1.998 1.998 0 0 1-.645-.485v2.469h-.98zm2.484-6.777c-.319 0-.6.073-.843.22a2.455 2.455 0 0 0-.661.623v2.7c.18.242.377.413.59.512.216.099.457.149.722.149.517 0 .916-.186 1.195-.557.279-.371.419-.9.419-1.586 0-.364-.033-.676-.099-.937a1.777 1.777 0 0 0-.276-.639 1.074 1.074 0 0 0-.446-.369 1.488 1.488 0 0 0-.601-.116zm3.595 6.777v-7.471h.584c.14 0 .228.068.265.204l.082.661c.239-.29.511-.524.816-.7a2.106 2.106 0 0 1 1.063-.264c.32 0 .61.062.871.187.26.121.483.303.666.545.184.239.325.537.424.893.1.356.149.766.149 1.229 0 .411-.055.795-.165 1.151-.11.353-.268.659-.474.92a2.26 2.26 0 0 1-.76.612c-.298.146-.634.22-1.008.22-.346 0-.641-.057-.887-.171a1.987 1.987 0 0 1-.645-.485v2.469h-.981zm2.485-6.777c-.32 0-.601.073-.843.22a2.44 2.44 0 0 0-.661.623v2.7c.18.242.376.413.589.512.217.099.458.149.722.149.518 0 .917-.186 1.196-.557.279-.371.418-.9.418-1.586 0-.364-.033-.676-.099-.937a1.76 1.76 0 0 0-.275-.639 1.074 1.074 0 0 0-.446-.369 1.491 1.491 0 0 0-.601-.116zm6.816-3.228v8.115h-.98v-8.115h.98zm3.988 2.446c.407 0 .775.068 1.101.204.331.135.61.328.838.578.231.25.408.553.529.909.125.353.187.747.187 1.185 0 .44-.062.837-.187 1.19a2.519 2.519 0 0 1-.529.903c-.228.25-.507.443-.838.579a2.915 2.915 0 0 1-1.101.198c-.408 0-.777-.066-1.108-.198a2.355 2.355 0 0 1-.837-.579 2.575 2.575 0 0 1-.535-.903 3.55 3.55 0 0 1-.187-1.19c0-.438.062-.832.187-1.185.125-.356.303-.659.535-.909.231-.25.51-.443.837-.578a2.89 2.89 0 0 1 1.108-.204zm0 4.98c.551 0 .962-.184 1.234-.551.271-.371.407-.887.407-1.548 0-.665-.136-1.183-.407-1.554-.272-.371-.683-.556-1.234-.556-.28 0-.522.048-.728.143a1.397 1.397 0 0 0-.518.413c-.135.18-.238.403-.308.667a3.63 3.63 0 0 0-.099.887c0 .331.033.626.099.887.07.261.173.481.308.661.14.177.313.312.518.408.206.095.448.143.728.143zm7.962.689h-.435a.525.525 0 0 1-.231-.044c-.059-.03-.098-.092-.116-.188l-.11-.517a7.08 7.08 0 0 1-.43.358 2.667 2.667 0 0 1-.441.264 2.37 2.37 0 0 1-.495.16 2.778 2.778 0 0 1-.579.055c-.217 0-.42-.029-.611-.088a1.341 1.341 0 0 1-.827-.733 1.656 1.656 0 0 1-.121-.661c0-.22.061-.432.182-.634.121-.205.316-.387.584-.545.272-.158.626-.287 1.063-.386.437-.103.972-.161 1.603-.176v-.435c0-.434-.093-.761-.281-.981-.183-.224-.457-.336-.821-.336-.238 0-.44.031-.606.094a2.09 2.09 0 0 0-.424.204c-.117.073-.22.141-.308.203a.443.443 0 0 1-.254.089.318.318 0 0 1-.176-.05.456.456 0 0 1-.116-.132l-.176-.314c.308-.298.641-.52.997-.667.356-.147.751-.22 1.185-.22.312 0 .589.051.831.154.243.103.447.246.612.43.165.183.29.406.375.666.084.261.126.548.126.86v3.57zm-2.545-.601c.173 0 .331-.016.474-.049.143-.037.277-.087.402-.149.129-.066.25-.145.364-.237.117-.092.231-.196.341-.314v-1.162a7.674 7.674 0 0 0-1.151.11 3.159 3.159 0 0 0-.772.22c-.198.092-.343.2-.435.325a.712.712 0 0 0-.132.419c0 .147.024.274.072.38a.733.733 0 0 0 .192.264.808.808 0 0 0 .287.149c.11.03.23.044.358.044zm7.959.601c-.139 0-.227-.068-.264-.204l-.088-.678c-.239.29-.513.524-.821.7a2.097 2.097 0 0 1-1.053.259c-.319 0-.609-.061-.87-.182a1.84 1.84 0 0 1-.667-.545 2.6 2.6 0 0 1-.424-.893 4.6 4.6 0 0 1-.149-1.228c0-.412.055-.794.166-1.146.11-.357.268-.665.473-.926a2.22 2.22 0 0 1 1.774-.837c.342 0 .634.058.876.176.243.114.46.275.651.485v-3.096h.98v8.115h-.584zm-1.9-.716c.319 0 .598-.074.837-.221.242-.147.465-.354.667-.622v-2.7c-.18-.242-.379-.411-.595-.507a1.667 1.667 0 0 0-.711-.149c-.522 0-.922.186-1.201.557-.279.371-.419.9-.419 1.587 0 .363.031.675.094.936.062.257.154.47.275.639.121.166.27.287.447.364.176.077.378.116.606.116zm5.218-4.865v5.581h-.981v-5.581h.981zm.22-1.752c0 .095-.02.185-.06.27a.734.734 0 0 1-.375.369.662.662 0 0 1-.27.055.669.669 0 0 1-.27-.055.792.792 0 0 1-.22-.149.792.792 0 0 1-.149-.22.669.669 0 0 1-.055-.27c0-.096.018-.186.055-.27a.73.73 0 0 1 .369-.38.669.669 0 0 1 .27-.055.662.662 0 0 1 .49.209.642.642 0 0 1 .155.226.62.62 0 0 1 .06.27zm1.508 7.333v-5.581h.584c.14 0 .228.068.265.204l.077.606c.242-.268.512-.485.81-.65a2.12 2.12 0 0 1 1.041-.248c.305 0 .573.051.804.154.235.099.43.242.584.43.158.183.278.406.358.666.081.261.122.549.122.865v3.554h-.981v-3.554c0-.422-.097-.749-.292-.98-.191-.235-.485-.353-.881-.353-.291 0-.562.07-.816.209-.25.14-.481.329-.694.568v4.11h-.981zm8.002-5.675c.242 0 .468.028.677.083.213.051.406.128.579.231h1.515v.364c0 .121-.077.198-.232.231l-.633.088c.125.239.187.505.187.799 0 .272-.053.52-.16.744-.102.22-.247.41-.435.567-.183.158-.404.28-.661.364a2.615 2.615 0 0 1-.837.127c-.261 0-.507-.031-.739-.094a1 1 0 0 0-.27.237.441.441 0 0 0-.088.248c0 .132.054.233.16.303.107.066.248.114.424.143.177.03.377.048.601.055.224.008.452.021.683.039.235.015.465.042.689.083.224.04.424.106.6.198.176.092.318.218.424.38.107.162.16.371.16.628 0 .239-.06.47-.182.694a1.806 1.806 0 0 1-.512.595 2.57 2.57 0 0 1-.821.419 3.51 3.51 0 0 1-1.096.16c-.408 0-.766-.041-1.075-.121a2.518 2.518 0 0 1-.76-.326 1.424 1.424 0 0 1-.457-.473 1.124 1.124 0 0 1-.149-.557c0-.275.086-.508.259-.699a1.8 1.8 0 0 1 .722-.463 1.025 1.025 0 0 1-.38-.292c-.092-.125-.138-.29-.138-.496a.76.76 0 0 1 .044-.248c.029-.088.073-.174.132-.259a1.453 1.453 0 0 1 .535-.446 1.76 1.76 0 0 1-.651-.612 1.713 1.713 0 0 1-.231-.898c0-.272.052-.518.154-.738a1.64 1.64 0 0 1 .441-.567c.187-.158.41-.28.667-.364.261-.085.545-.127.854-.127zm1.741 5.978a.478.478 0 0 0-.116-.336.72.72 0 0 0-.314-.193 2.137 2.137 0 0 0-.457-.105 6.494 6.494 0 0 0-.546-.044l-.584-.033a5.476 5.476 0 0 1-.567-.06c-.21.099-.38.22-.513.363a.743.743 0 0 0-.099.86c.066.11.165.203.298.281.132.08.297.143.496.187.202.048.438.072.71.072.265 0 .502-.024.711-.072a1.76 1.76 0 0 0 .529-.204.992.992 0 0 0 .336-.314.734.734 0 0 0 .116-.402zm-1.741-3.03c.198 0 .372-.028.523-.083.154-.055.283-.132.386-.231a.95.95 0 0 0 .231-.353c.052-.14.077-.292.077-.457 0-.342-.104-.614-.314-.816-.205-.202-.507-.303-.903-.303-.393 0-.694.101-.904.303-.206.202-.308.474-.308.816 0 .165.025.317.077.457a1.017 1.017 0 0 0 .617.584c.15.055.323.083.518.083z" fill="#201C33"/><path fill="#5F5980" d="M327 75h95.495v8.57H327z"/><circle cx="416.986" cy="79.286" r="1.836" fill="#B2ADCC"/><circle cx="409.64" cy="79.286" r="1.836" fill="#B2ADCC"/><circle cx="402.294" cy="79.286" r="1.836" fill="#B2ADCC"/><path d="M457.032 138.856c.075.128.139.264.192.408.059.139.115.28.168.424a6.043 6.043 0 0 1 .368-.84l3.88-7.048c.069-.123.141-.197.216-.224a.985.985 0 0 1 .32-.04h1.144V143h-1.36v-8.424a9.299 9.299 0 0 1 .032-.752l-3.928 7.168c-.133.24-.32.36-.56.36h-.224c-.24 0-.427-.12-.56-.36l-4.016-7.192c.016.139.027.275.032.408.011.133.016.256.016.368V143h-1.36v-11.464h1.144c.139 0 .245.013.32.04.075.027.147.101.216.224l3.96 7.056zM475.543 143h-1.2a.517.517 0 0 1-.336-.104.624.624 0 0 1-.192-.264l-1.072-2.768h-5.144l-1.072 2.768a.64.64 0 0 1-.192.256.51.51 0 0 1-.336.112h-1.2l4.584-11.464h1.576L475.543 143zm-7.512-4.256h4.28l-1.8-4.664a8.605 8.605 0 0 1-.344-1.08c-.059.219-.118.421-.176.608a6.897 6.897 0 0 1-.16.48l-1.8 4.656zm15.7-7.208v1.304h-3.704V143h-1.552v-10.16h-3.72v-1.304h8.976zm8.929 9.096c.085 0 .162.035.232.104l.608.664c-.47.544-1.04.968-1.712 1.272-.667.304-1.472.456-2.416.456-.827 0-1.576-.141-2.248-.424a4.991 4.991 0 0 1-1.72-1.2 5.454 5.454 0 0 1-1.104-1.856c-.262-.72-.392-1.512-.392-2.376 0-.864.138-1.656.416-2.376a5.46 5.46 0 0 1 1.184-1.856 5.245 5.245 0 0 1 1.816-1.2c.709-.288 1.49-.432 2.344-.432.842 0 1.568.131 2.176.392a5.496 5.496 0 0 1 1.632 1.064l-.504.712a.64.64 0 0 1-.128.136.376.376 0 0 1-.208.048.444.444 0 0 1-.225-.072l-.271-.192a5.759 5.759 0 0 0-.376-.24 3.373 3.373 0 0 0-.512-.24 3.986 3.986 0 0 0-.688-.184 4.588 4.588 0 0 0-.904-.08 4.35 4.35 0 0 0-1.688.32 3.735 3.735 0 0 0-1.312.896 4.14 4.14 0 0 0-.864 1.424c-.203.56-.304 1.187-.304 1.88 0 .715.101 1.352.304 1.912.208.56.488 1.035.84 1.424a3.6 3.6 0 0 0 1.264.88 4.02 4.02 0 0 0 1.568.304c.341 0 .648-.019.92-.056.272-.043.522-.107.752-.192.234-.085.45-.192.648-.32.202-.133.405-.291.608-.472.09-.08.178-.12.264-.12zM504.829 143h-1.56v-5.216h-6.176V143h-1.56v-11.464h1.56v5.112h6.176v-5.112h1.56V143zm7.443-1.304h4.96V143h-6.512v-11.464h1.552v10.16zm16.674-4.424c0 .859-.136 1.648-.408 2.368a5.415 5.415 0 0 1-1.152 1.848 5.188 5.188 0 0 1-1.792 1.208c-.693.283-1.461.424-2.304.424-.842 0-1.61-.141-2.304-.424a5.212 5.212 0 0 1-1.784-1.208 5.415 5.415 0 0 1-1.152-1.848 6.649 6.649 0 0 1-.408-2.368c0-.859.136-1.645.408-2.36a5.403 5.403 0 0 1 1.152-1.856 5.149 5.149 0 0 1 1.784-1.216c.694-.288 1.462-.432 2.304-.432.843 0 1.611.144 2.304.432a5.125 5.125 0 0 1 1.792 1.216c.496.517.88 1.136 1.152 1.856.272.715.408 1.501.408 2.36zm-1.592 0c0-.704-.096-1.336-.288-1.896a3.969 3.969 0 0 0-.816-1.416 3.517 3.517 0 0 0-1.28-.896 4.343 4.343 0 0 0-1.68-.312c-.613 0-1.17.104-1.672.312-.501.208-.93.507-1.288.896a3.969 3.969 0 0 0-.816 1.416c-.192.56-.288 1.192-.288 1.896s.096 1.336.288 1.896c.192.555.464 1.027.816 1.416.358.384.787.68 1.288.888a4.42 4.42 0 0 0 1.672.304c.619 0 1.179-.101 1.68-.304a3.558 3.558 0 0 0 1.28-.888c.352-.389.624-.861.816-1.416.192-.56.288-1.192.288-1.896zM540.152 143h-1.2a.517.517 0 0 1-.336-.104.641.641 0 0 1-.192-.264l-1.072-2.768h-5.144l-1.072 2.768a.621.621 0 0 1-.192.256.51.51 0 0 1-.336.112h-1.2l4.584-11.464h1.576L540.152 143zm-7.512-4.256h4.28l-1.8-4.664a8.774 8.774 0 0 1-.344-1.08 14.99 14.99 0 0 1-.336 1.088l-1.8 4.656zm18.891-1.472c0 .859-.136 1.64-.408 2.344a5.195 5.195 0 0 1-1.152 1.808 5.187 5.187 0 0 1-1.784 1.168c-.693.272-1.461.408-2.304.408h-4.288v-11.464h4.288c.843 0 1.611.139 2.304.416a5.033 5.033 0 0 1 1.784 1.168c.496.501.88 1.104 1.152 1.808.272.704.408 1.485.408 2.344zm-1.592 0c0-.704-.096-1.333-.288-1.888a3.976 3.976 0 0 0-.816-1.408 3.487 3.487 0 0 0-1.28-.88 4.417 4.417 0 0 0-1.672-.304h-2.728v8.952h2.728c.613 0 1.171-.101 1.672-.304a3.529 3.529 0 0 0 1.28-.872c.352-.384.624-.853.816-1.408.192-.555.288-1.184.288-1.888zm5.543 5.728h-1.552v-11.464h1.552V143zm3.866-11.464a.63.63 0 0 1 .304.056.7.7 0 0 1 .232.208l6.64 8.64a5.903 5.903 0 0 1-.032-.4 10.261 10.261 0 0 1-.008-.384v-8.12h1.36V143h-.784a.692.692 0 0 1-.312-.064.808.808 0 0 1-.24-.216l-6.632-8.632a9.047 9.047 0 0 1 .032.744V143h-1.36v-11.464h.8zm16.406 10.336c.309 0 .592-.013.848-.04a5.528 5.528 0 0 0 1.384-.344c.203-.085.405-.181.608-.288v-2.528h-1.776a.352.352 0 0 1-.248-.088.293.293 0 0 1-.088-.216v-.88h3.52v4.4a6.265 6.265 0 0 1-1.904.936 7.185 7.185 0 0 1-1.136.224c-.405.053-.845.08-1.32.08-.832 0-1.595-.141-2.288-.424a5.347 5.347 0 0 1-1.792-1.2 5.55 5.55 0 0 1-1.176-1.856c-.277-.72-.416-1.512-.416-2.376 0-.875.136-1.672.408-2.392a5.287 5.287 0 0 1 1.176-1.848 5.285 5.285 0 0 1 1.848-1.2c.725-.283 1.536-.424 2.432-.424.453 0 .875.035 1.264.104.389.064.749.16 1.08.288.336.123.645.275.928.456.283.176.547.376.792.6l-.44.704c-.091.144-.208.216-.352.216a.564.564 0 0 1-.28-.088 8.489 8.489 0 0 1-.448-.272 3.542 3.542 0 0 0-.608-.304 4.513 4.513 0 0 0-.84-.256 5.492 5.492 0 0 0-1.144-.104c-.645 0-1.229.107-1.752.32a3.633 3.633 0 0 0-1.336.904 3.947 3.947 0 0 0-.848 1.424c-.197.555-.296 1.179-.296 1.872 0 .725.101 1.373.304 1.944.208.565.499 1.045.872 1.44s.816.696 1.328.904a4.465 4.465 0 0 0 1.696.312zm5.95.248c0-.139.024-.269.072-.392.053-.123.123-.229.208-.32a1.015 1.015 0 0 1 .712-.296 1.015 1.015 0 0 1 .712.296c.091.091.16.197.208.32.053.123.08.253.08.392a1 1 0 0 1-.288.712.918.918 0 0 1-.32.208.978.978 0 0 1-.392.08.978.978 0 0 1-.392-.08.918.918 0 0 1-.32-.208 1.15 1.15 0 0 1-.208-.312 1.09 1.09 0 0 1-.072-.4zm3.391 0c0-.139.024-.269.072-.392.053-.123.122-.229.208-.32a1.004 1.004 0 0 1 1.424 0c.09.091.16.197.208.32.053.123.08.253.08.392a1 1 0 0 1-.288.712.927.927 0 0 1-.32.208.982.982 0 0 1-.392.08.975.975 0 0 1-.392-.08.909.909 0 0 1-.32-.208 1.127 1.127 0 0 1-.208-.312 1.09 1.09 0 0 1-.072-.4zm3.39 0c0-.139.024-.269.072-.392.054-.123.123-.229.208-.32.091-.091.198-.163.32-.216a.982.982 0 0 1 .392-.08 1.004 1.004 0 0 1 .712.296c.091.091.16.197.208.32.054.123.08.253.08.392a.982.982 0 0 1-.08.4.943.943 0 0 1-.528.52.975.975 0 0 1-.392.08.982.982 0 0 1-.392-.08.927.927 0 0 1-.32-.208 1.173 1.173 0 0 1-.208-.312 1.09 1.09 0 0 1-.072-.4z" fill="#B2ADCC"/><path d="M380.021 269.963a7.451 7.451 0 0 1 7.451-7.451h153.737a7.451 7.451 0 0 1 7.452 7.451v1.49h-168.64v-1.49z" fill="#332E4D"/><path fill-rule="evenodd" clip-rule="evenodd" d="M229.995 140.777l-1.843-.777L206 192.519l4.607 1.943 20.209-47.912 15.664 6.607 1.943-4.607-15.664-6.607-2.764-1.166z" fill="#484266"/><path d="M175 191h63.5L228 272h-42l-11-81z" fill="#958FB2"/><path fill-rule="evenodd" clip-rule="evenodd" d="M206.638 210.019l2.484.006-.005 2.13.003-1.064 1.065.002-.003 1.065 1.064.002-.009 3.549-2.129-.005v.001l1.065.002-.003 1.066-1.065-.003v-.002l-1.063-.003v.002l1.064.003-.003 1.065-1.064-.003-.003 1.063h-.001v.001l-1.065-.003-3.548-.009v.002l-1.065-.003.003-1.065h.001l.003-1.066h-.001l-.003 1.065-1.065-.003.003-1.064-1.065-.003.003-1.063-1.062-.003.009-3.549 1.062.003v-.003h.001l.003-1.063 1.064.003.003-1.065 2.484.006-.003 1.064 1.064.002-.002 1.065 1.065.003.002-1.064.709.002.003-1.066zm-5.337 5.665l-.002 1.065h-.001l.003-1.065-1.062-.002v-.001l1.062.003zm4.603 4.272l1.064.003.002-1.065-2.482-.006v-.001l-1.065-.003-.003 1.065 1.063.003h.001l-.003 1.064 1.42.004.003-1.064z" fill="#797399"/><rect x="171" y="184" width="71" height="7" rx="3" fill="#484266"/><path d="M178 178a4 4 0 0 1 4-4h50a4 4 0 0 1 4 4v6h-58v-6z" fill="#332E4D"/><path d="M195.008 245.307c0-10.257-.649-19.432 9.746-19.432S215 233.034 215 244.54c0 1.918-1.124 3.835-2.999 3.835-2.578 0-3.2-2.19-3.33-3.629-.131 1.439-.835 3.629-3.917 3.629-2.875 0-3.655-1.907-3.836-3.331-.132 1.424-.719 3.331-2.911 3.331-1.874 0-2.999-1.373-2.999-3.068z" fill="#797399"/><circle cx="201.25" cy="234.625" r="1.25" fill="#958FB2"/><circle cx="207.5" cy="234.625" r="1.25" fill="#958FB2"/><path fill="#958FB2" d="M202.5 237.125h3.75v1.25h-3.75z"/><defs><filter id="filter0_d" x="323" y="75" width="103.495" height="139" filterUnits="userSpaceOnUse" color-interpolation-filters="sRGB"><feFlood flood-opacity="0" result="BackgroundImageFix"/><feColorMatrix in="SourceAlpha" values="0 0 0 0 0 0 0 0 0 0 0 0 0 0 0 0 0 0 127 0"/><feOffset dy="4"/><feGaussianBlur stdDeviation="2"/><feColorMatrix values="0 0 0 0 0 0 0 0 0 0 0 0 0 0 0 0 0 0 0.25 0"/><feBlend in2="BackgroundImageFix" result="effect1_dropShadow"/><feBlend in="SourceGraphic" in2="effect1_dropShadow" result="shape"/></filter></defs></svg>