<svg xmlns="http://www.w3.org/2000/svg" viewBox="0 0 300 240"><path d="M0 0h300v240H0z"/><path d="M54.5 168c-7.1 0-14.3 4.9-14.3 14.4 0 9.4 7.1 14.3 14.2 14.3s14.2-4.9 14.2-14.3c.1-9.5-7-14.4-14.1-14.4zm0 23c-3.9 0-7.8-3-7.8-8.7 0-5.8 4-8.8 7.9-8.8 4.6 0 7.8 3.6 7.8 8.7-.1 5.8-4 8.8-7.9 8.8zm153.4-23c-7.1 0-14.3 4.9-14.3 14.4 0 9.4 7.1 14.3 14.2 14.3s14.2-4.9 14.2-14.3c.1-9.5-7-14.4-14.1-14.4zm0 23c-3.9 0-7.8-3-7.8-8.7 0-5.8 4-8.8 7.9-8.8 4.6 0 7.8 3.6 7.8 8.7-.1 5.8-4 8.8-7.9 8.8zM85 196.5h-1.5l-.2-.2-13.6-27.6h7.1l7.5 16.9 7.5-16.9h6.9zm28.7.1c-8.5 0-13.9-5.6-13.9-14.4 0-8.3 5.8-14.3 13.7-14.3 7.9 0 12.9 5.6 12.9 14.3v1.9h-20.2c.6 4.6 3.3 7 8 7 2.9 0 5.2-1 7.5-3.1l.3-.3 3.4 4.1-.4.2c-2.9 3.2-6.5 4.6-11.3 4.6zm-7.5-17.1h13.7c-.6-3.9-3-6.1-6.6-6.1-3.5-.1-6.2 2.3-7.1 6.1zm74.9 17h-1.5l-6.9-16.7-7 16.7h-1.6L153 168.7h6.8l5.6 15.5 6.5-15.7h1.6l6.7 15.7 5.4-15.5h6.8zM148 168.7h-.2c-2.4 0-6.9 1-9.8 5.9v-6h-6V196h6.2v-13c0-2.7 1.4-4.8 3.9-6.3 2.3-1.4 5.5-2 7.7-1.5-.6-1.9-1.8-6.5-1.8-6.5zM248.9 196h-6.2v-21.8h-5.5l1.4-5.4h4.1v-1.5c0-6.4 3.7-10.2 9.8-10.2 2.6 0 4.9.7 7 2.2l.3.2-2.8 4.5-.3-.3c-1.1-.9-2.3-1.4-3.8-1.4-2.5 0-4 1.7-4 4.6v1.8h8.9v5.4h-8.9V196zm-15.7 0H227v-38.3h6.2V196zm-25.6-97.7c.1 0-27.8-16.1-27.9-16.6-.6-3.4-1.4-9.1-5.3-12-3.3-2.5-25.7-12.8-25.7-12.9-6.1-8.9-10.9-19.5-10.9-19.5s-9.6 6.4-9.7 19.3c-1.9.4-16 1.8-29.8 13.5 21.9-5 28.2-.4 28.2-.4s-9.6 1.3-20.4 7.3c-9.3 5.1-13.5 11.3-13.5 11.3s21.2-6.1 37.4-.2C116.7 90 110 98 109.7 98c33.7 4.2 50.3 33.4 57.3 57 2.6-42-18.4-58-18.4-58 6.1.4 13.7 5.2 18.6 12.2 14.9-1.7 23.2 2.9 23.1 2.9-.2 0 8.1-2.5 13.9-5.2-.5-.7-2.6-3.4-3.8-4.8.3 0 4.8-.3 7.2-3.8zM161 79.7c.3-.1 7.6-2.1 9.7-1.3 1.9.7 1.9 6.1 1.9 6.1s-4.3.6-11.6-4.8z" fill="#fff"/></svg>