<svg xmlns="http://www.w3.org/2000/svg" viewBox="0 0 300 240"><path d="M54.8 162.92c-7.8 0-11.9 4.3-11.9 11.15v11.55c0 6.85 4.8 11.15 11.9 11.15s11.9-4.3 11.9-11.15v-11.56c0-6.85-4.8-11.14-11.9-11.14zm4.65 22.55c0 2.95-1.75 4.8-4.65 4.8s-4.65-1.85-4.65-4.8v-11.25c0-2.95 1.75-4.8 4.65-4.8s4.65 1.85 4.65 4.8zm22.35.25l-5.1-22.3H69l8.7 32.85h7.8l8.75-32.85H86.9zm22.9-2.9h11.75v-6.4H104.7v-6.5H118v-6.5H97.45v32.85h21v-6.5H104.7zm41.7-9c0-6.25-4.8-10.4-11.35-10.4H122.9v32.85h7.25v-11.65h4.3l4.3 11.65h8l-5.15-13.35a10.13 10.13 0 004.8-9.1zm-12.15 4.45h-4.1v-8.5h4.1c3 0 4.75 1.65 4.75 4.2s-1.8 4.3-4.75 4.3zm38.3 5.6l-3.45-20.45h-6.7l-3.4 20.4-3.1-20.4h-7.3l6.7 32.85h6.7l3.6-20.7 3.65 20.7h6.7l6.7-32.85h-6.9zm24.55-21c-7.8 0-11.9 4.3-11.9 11.15v11.55c0 6.85 4.8 11.15 11.9 11.15s11.9-4.3 11.9-11.15v-11.51c0-6.85-4.8-11.14-11.9-11.14zm4.65 22.55c0 2.95-1.75 4.8-4.65 4.8s-4.65-1.85-4.65-4.8v-11.2c0-2.95 1.75-4.8 4.65-4.8s4.65 1.85 4.65 4.8zm19.5-22.05H214v32.85h19.5v-6.5h-12.25zm35.85 6.5v-6.5h-20.5v32.85h7.25v-12.5h11.75v-6.5h-11.75v-7.3zM135.49 60.93l-23.09-17.7 3.18 36.21-9.71 13.64 4.48 13.26a43.43 43.43 0 0112.81 7.66c.48-3.86 1.27-9.87 1.88-12.56l-7.46 1.56c2.29-15.16 8.74-29.36 17.91-42.07zm7.85 35.36l-17.81-8.93c3.87 9.53 5.13 10.87 17.81 8.93zm38.37-16.85l3.18-36.21c-21.75 16.67-28.83 19.15-37 39.73l11.28-2.17c-14 14.77-22.59 34.39-24.17 49.69l2.82 6.5h21.67c3.36-7.74 8.46-23.33 27.46-30.64l4.48-13.26zm-33.07 50.18l-6.88-10h13.75zm5-33.34l17.81-8.93c-3.82 9.54-5.08 10.88-17.76 8.94z"/></svg>