<svg xmlns="http://www.w3.org/2000/svg" width="81" height="43" viewBox="0 0 81 43"><path d="M74.406 17.03V8.55c0-.77-.156-1.542-.469-2.158-.156-.771-.624-1.388-1.093-1.85a6.936 6.936 0 0 0-1.719-1.234C70.344 3.154 69.719 3 68.937 3h-1.874v2.158h1.874c2.188 0 3.282 1.08 3.282 3.392v8.48c0 .462.156.924.312 1.387.156.462.469.925.781 1.387.313.463.626.771 1.094 1.08.469.308.938.462 1.406.616-.468.154-.937.308-1.406.617a3.626 3.626 0 0 0-1.094 1.079c-.312.462-.624.925-.78 1.387-.157.463-.313.925-.313 1.388v8.479c0 2.158-1.094 3.392-3.281 3.392h-1.876V40h1.876c.78 0 1.562-.154 2.187-.462.625-.309 1.25-.617 1.719-1.234.469-.462.937-1.079 1.094-1.696.312-.616.468-1.387.468-2.312v-8.48c0-2.158 1.25-3.391 3.594-3.391v-2.158c-2.344.154-3.594-.925-3.594-3.238zM9.875 3.461c-.625.155-1.25.617-1.719 1.08-.469.462-.781 1.079-1.094 1.695-.312.771-.312 1.542-.312 2.313v8.48c0 2.157-1.25 3.39-3.75 3.39v2.16c2.5 0 3.75 1.078 3.75 3.39v8.48c0 .77.156 1.542.469 2.313.156.616.468 1.233.937 1.695a6.936 6.936 0 0 0 1.719 1.234c.781.154 1.406.308 2.188.308h1.874v-2.313h-1.874c-2.188 0-3.282-1.079-3.282-3.391v-8.48c0-.462-.156-.924-.312-1.387-.156-.462-.469-.925-.781-1.387a3.626 3.626 0 0 0-1.094-1.08 3.887 3.887 0 0 0-1.407-.616c.47-.154.938-.308 1.407-.617a3.628 3.628 0 0 0 1.093-1.079c.313-.462.47-.925.625-1.387.157-.463.313-.926.313-1.388V8.55c0-2.158 1.094-3.392 3.281-3.392h2.031V3h-1.874c-.782 0-1.407.154-2.188.462zm25.313 6.476L25.968 3l1.25 14.338-3.905 5.395 1.718 5.242c1.875.77 3.594 1.696 5.157 3.083.156-1.541.468-3.854.78-4.933L28 26.587c.938-6.012 3.594-11.562 7.188-16.65zM55.03 3c-8.75 6.63-11.562 7.554-14.843 15.725l4.53-.925c-5.624 5.858-9.062 13.567-9.687 19.58L36.125 40h8.75c1.406-3.083 3.438-9.25 10.938-12.025l1.718-5.242-3.906-5.396L55.031 3zM40.5 37.07l-2.813-4.008h5.47l-2.657 4.01zm2.031-13.103l7.188-3.546c-1.563 3.7-2.188 4.317-7.188 3.546zm-4.218 0l-7.188-3.546c1.719 3.7 2.188 4.317 7.188 3.546z" fill="#D3EAED"/></svg>