<svg xmlns="http://www.w3.org/2000/svg" viewBox="0 0 205 32"><path d="M32.9 16.6s-7.6-4.4-7.6-4.5c-.2-.9-.4-2.5-1.4-3.3-.9-.7-7-3.5-7-3.5-1.7-2.4-3-5.3-3-5.3s-2.6 1.7-2.6 5.2c-.5.1-4.4.5-8.1 3.7 6-1.4 7.7-.1 7.7-.1s-2.6.4-5.6 2c-2.5 1.4-3.7 3.1-3.7 3.1s5.8-1.6 10.2 0c-3.6.5-5.4 2.7-5.5 2.7 9.1 1 13.7 9 15.6 15.4.7-11.4-5-15.8-5-15.8 1.7.1 3.7 1.4 5.1 3.3 4.1-.5 6.3.8 6.3.8s2.2-.7 3.8-1.4c-.1-.2-.7-.9-1-1.3-.1 0 1.2-.1 1.8-1zm-12.7-5.1c.1 0 2.1-.6 2.6-.4.5.2.5 1.7.5 1.7s-1.1.2-3.1-1.3zm33.5-3.6v12.4H52l-.1-1.5c-.7 1.1-1.7 1.7-3.2 1.7-2.6 0-4.1-2-4.1-4.6 0-2.6 1.7-4.6 4.2-4.6 1.4 0 2.4.6 3.1 1.6v-5h1.8zm-1.8 8.4v-.8c-.2-1.6-1.2-2.6-2.7-2.6-1.5 0-2.7 1.2-2.7 3s1.1 3 2.6 3c1.4 0 2.6-.9 2.8-2.6zm12.4.1h-6.7c.2 1.7 1.2 2.5 2.8 2.5 1 0 1.8-.3 2.5-1.1l1 1.2c-1 1-2.1 1.5-3.7 1.5-2.7 0-4.5-1.7-4.5-4.6 0-2.8 2-4.6 4.4-4.6 2.4 0 4.1 1.7 4.1 4.6.2.2.1.3.1.5zm-6.6-1.3h4.8c-.2-1.4-1-2.3-2.3-2.3-1.3 0-2.3.9-2.5 2.3zm16.8-3.5l-4.4 8.9h-.4l-4.4-8.9h2.1l2.6 5.8 2.5-5.8h2z" fill="#f7f7f7"/><path d="M43 24h-1.5c-.5 0-.9-.2-1.2-.6-.3-.4-.5-.8-.5-1.5v-3.8c0-.6-.1-1.2-.4-1.6-.2-.4-.6-.6-1.1-.6v-1.2c.4 0 .8-.3 1-.7.3-.4.4-.9.4-1.6V8.8c0-.6.2-1.2.5-1.5.3-.4.8-.5 1.3-.5H43V8h-.9c-.3 0-.5.2-.6.5-.1.3-.2.7-.2 1.1V13c0 .4-.1.8-.2 1.1-.1.3-.2.5-.4.7-.2.2-.3.3-.5.4-.1.1-.3.1-.3.2.2 0 .4.2.8.6.2.2.3.4.4.7.1.3.2.6.2 1.1v3.5c0 .4.1.7.2 1 .1.3.3.5.6.5h.9V24zm33.2-1.2h.9c.3 0 .5-.2.6-.5.1-.3.2-.6.2-1v-3.5c0-.4.1-.8.2-1.1.1-.3.2-.5.4-.7.3-.4.6-.6.8-.6-.1 0-.2-.1-.3-.2-.1-.1-.3-.2-.5-.4s-.3-.4-.4-.7c-.1-.3-.2-.7-.2-1.1V9.5c0-.4-.1-.8-.2-1.1-.1-.2-.3-.4-.6-.4h-.9V6.8h1.5c.5 0 .9.2 1.3.5.3.4.5.9.5 1.5v3.7c0 .6.1 1.1.4 1.6.2.4.6.6 1 .7V16c-.5 0-.8.2-1.1.6-.3.4-.4.9-.4 1.6V22c0 .6-.2 1.1-.5 1.5-.3.4-.8.5-1.2.6h-1.5v-1.3z" fill="#d34037"/></svg>