<svg width="100" height="100" viewBox="0 0 100 100" fill="none" xmlns="http://www.w3.org/2000/svg"><path d="M54.035 92.132V31.63a4.337 4.337 0 00-4.337-4.337h-2.82a4.337 4.337 0 00-4.337 4.337v20.064a4.33 4.33 0 01-.605 2.21L20.612 89.923c-1.712 2.89.372 6.546 3.732 6.546h25.354a4.337 4.337 0 004.337-4.337z" fill="#403366"/><path d="M45.144 92.132V31.63a4.337 4.337 0 014.337-4.337H52.3a4.337 4.337 0 014.337 4.337v20.064c0 .778.209 1.54.605 2.21l21.325 36.019c1.711 2.89-.372 6.546-3.732 6.546H49.48a4.337 4.337 0 01-4.337-4.337z" fill="#403366"/><path d="M47.312 96.47V36.617h4.337v59.851h-4.337z" fill="#403366"/><rect x="36.036" y="27.078" width="27.324" height="7.807" rx="3.903" fill="#403366"/><path d="M27.787 88.956l12.586-24.581c1.156-1.663 4.467-3.99 8.457 0 2.871 2.871 5.84 2.471 7.871 1.402 1.036-.546 2.463-.36 3.028.665l12.402 22.467a1.735 1.735 0 01-1.519 2.573h-41.28a1.735 1.735 0 01-1.545-2.526z" fill="url(#paint0_linear)"/><circle cx="53.492" cy="6.903" r="3.903" fill="#958FB2" fill-opacity=".4"/><circle cx="44.224" cy="15.264" r="2.819" fill="#958FB2" fill-opacity=".7"/><circle cx="52.299" cy="21.307" r="1.952" fill="#958FB2"/><mask id="a" maskUnits="userSpaceOnUse" x="20" y="27" width="60" height="70"><path d="M54.035 92.132V31.63a4.337 4.337 0 00-4.337-4.337h-2.82a4.337 4.337 0 00-4.337 4.337v20.064a4.33 4.33 0 01-.605 2.21L20.612 89.923c-1.712 2.891.372 6.546 3.732 6.546h25.354a4.337 4.337 0 004.337-4.337z" fill="#403366"/><path d="M45.144 92.132V31.63a4.337 4.337 0 014.337-4.337H52.3a4.337 4.337 0 014.337 4.337v20.064c0 .778.209 1.54.605 2.21l21.325 36.019c1.711 2.891-.372 6.546-3.732 6.546H49.48a4.337 4.337 0 01-4.337-4.337z" fill="#403366"/><path d="M47.312 96.47V36.617h4.337v59.851h-4.337z" fill="#403366"/></mask><g mask="url(#a)"><path opacity=".7" d="M53.682 40.773a.944.944 0 00-1.889 0h1.889zm-.945 14.032h-.944c0 .18.052.357.15.51l.794-.51zm3.927 7.883a.944.944 0 101.59-1.019l-1.59 1.019zm-4.871-21.915v14.032h1.889V40.773h-1.889zm.15 14.541l4.72 7.374 1.591-1.019-4.721-7.373-1.59 1.018z" fill="#5F5980"/></g><defs><linearGradient id="paint0_linear" x1="50.023" y1="62.172" x2="50.023" y2="91.482" gradientUnits="userSpaceOnUse"><stop stop-color="#958FB2" stop-opacity="0"/><stop offset="1" stop-color="#958FB2"/></linearGradient></defs></svg>