<svg width="385" height="466" viewBox="0 0 385 466" fill="none" xmlns="http://www.w3.org/2000/svg"><rect width="26.064" height="62.608" rx="11.757" transform="scale(-1 1) rotate(36.069 -336.762 -341.827)" fill="#484266"/><rect width="28.661" height="54.187" rx="14.33" transform="scale(-1 1) rotate(38.603 -489.559 -233.24)" fill="#332E4D"/><rect width="28.661" height="52.836" rx="14.33" transform="scale(-1 1) rotate(-60 159.536 273.348)" fill="#332E4D"/><rect width="26.064" height="62.608" rx="11.757" transform="scale(-1 1) rotate(-45.558 113.596 247.308)" fill="#484266"/><path d="M120.594 147.009c2.181 1.87-15.581 21.554-24.93 32.331l-4.285-10.517 24.93-24.151c.519 0 2.104.467 4.285 2.337z" fill="#332E4D"/><ellipse cx="145.996" cy="263.399" rx="4.116" ry="10.128" transform="rotate(-30.192 145.996 263.399)" fill="#201C33"/><circle r="8.18" transform="matrix(-1 0 0 1 152.697 259.344)" fill="#484266"/><ellipse cx="245.149" cy="267.372" rx="7.272" ry="12.332" transform="rotate(-120 245.149 267.372)" fill="#201C33"/><circle r="8.18" transform="matrix(-1 0 0 1 240.731 264.797)" fill="#484266"/><path d="M247.83 238.922c2.179-11.438-6.59-22.035-18.234-22.035h-70.369c-12.681 0-21.87 12.089-18.476 24.307 4.277 15.396 16.197 27.725 31.916 30.598 6.957 1.272 14.308 2.271 20.541 2.356 6.849.094 14.96-.879 22.612-2.183 16.634-2.836 28.853-16.467 32.01-33.043z" fill="#D3CFE5"/><ellipse cx="190.71" cy="219.071" rx="34.669" ry="9.349" fill="#201C33"/><path d="M263.554 136.488H124.101v27.337c0 29.22 23.687 52.907 52.907 52.907h33.64c29.219 0 52.906-23.687 52.906-52.906v-27.338z" fill="#D3CFE5"/><path d="M188.374 186.742c-21.849 0-35.967 15.711-40.511 29.605 0 0-4.285.779 43.822.779h43.044c-6.233-12.855-21.814-30.384-46.355-30.384z" fill="#332E4D"/><path d="M162.876 196.391h53.367m-46.073-4.586h38.011m-51.065 10.319h65.655m-69.494 5.35h75.253m-77.941 4.586h80.244" stroke="#5F5980" stroke-width="1.47"/><rect width="32.968" height="102.837" rx="16.484" transform="scale(-1 1) rotate(19.856 -263.846 -152.594)" fill="#484266"/><ellipse cx="265.903" cy="298.326" rx="9.232" ry="15.304" transform="rotate(-101.851 265.903 298.326)" fill="#201C33"/><path d="M277.929 298.685c-.812-5.787-1.644-17.334 1.532-17.221l11.171 10.413c10.64-.808 41.227 39.706 55.19 60.064 16.21 23.878 14.801 41.526 12.07 47.366l3.946 7.25c4.016 9.133-2.79 23.215-6.695 29.115l-15.218-25.539-31.91 5.206 7.145 26.857-23.43-58.932c-3.985-3.138-19.196-29.758-26.303-42.675-4.657-1.451-19.225-27.517-25.926-40.369l24.22-3.952c4.306-.703 11.266 1.319 14.208 2.417z" fill="#D3CFE5"/><path d="M245.796 300.094l24.93 40.122m0 0h-5.453m5.453 0c1.955-2.948 4.743-6.405 8.18-9.725m44.407-8.193c-17.37-10.798-33.914-1.941-44.407 8.193m-.779-31.565l.779 31.565m79.076 68.934l-18.308 10.907" stroke="#958FB2" stroke-width="1.47"/><path d="M116.883 279.923c8.022.045 14.508 3.031 14.487 6.67-.02 3.639-8.598 10.432-16.619 10.387-8.022-.045-12.449-6.911-12.429-10.55.021-3.639 6.54-6.552 14.561-6.507z" fill="#201C33"/><circle r="13.634" transform="matrix(-1 0 0 1 119.815 297.368)" fill="#484266"/><path d="M129.374 292.734c-2.635-3.768-7.339-11.566-5.072-12.62l11.548 3.313c7.17-4.363 43.072 13.123 60.126 22.411 19.886 10.954 25.197 23.83 25.366 28.898l5.354 3.674c6.075 4.97 6.329 17.271 5.697 22.801l-19.783-12.473-20.512 15.038 14.594 16.278-37.457-32.952c-3.915-.778-24.078-14.011-33.67-20.53-3.783.645-23.298-12.43-32.583-19.048l15.569-11.414c2.768-2.03 8.369-3.096 10.823-3.376z" fill="#D3CFE5"/><path d="M307.731 415.938l32.331-5.454 15.192 25.32c.909 6.752-1.324 21.658-17.529 27.267-16.204 5.61-19.476-2.337-19.087-7.011-8.725-12.154-10.907-31.812-10.907-40.122zm-116.327-52l20.417-15.762 19.922 11.943c3.132 4.349 7.105 15.521-2.063 25.417-9.167 9.896-14.382 5.593-15.843 2.205-10.558-5.202-19.354-18.036-22.433-23.803zM0 22.509l16.75-6.622 21.424 51.029 10.907 6.232 22.204 66.61 15.192 10.518 18.308 54.535c-18.075 17.139-44.667 20.905-55.704 20.645l-18.697-52.587 4.285-17.14L10.907 88.34l4.285-10.517L0 22.509z" fill="#403366"/><rect width="14.802" height="45.595" rx="5.879" transform="scale(-1 1) rotate(17.669 -313.791 -154.562)" fill="#332E4D"/><path d="M77.906 157.285l17.53 50.25M68.947 161.96l16.75 49.081m-25.32-45.965l15.971 48.692m-25.32-46.355L67 217.663m-25.71-47.134l16.75 49.861m12.076-79.855c-4.674 3.766-17.84 11.608-33.11 12.855m10.127-79.075C41.68 78.34 27.267 86.312 13.243 86m23.762-17.919c-2.726 2.467-10.517 7.48-19.866 7.79m32.332 60.768L35.447 93.012 25.32 96.518l14.024 44.017 10.128-3.895z" stroke="#5F5980" stroke-width="1.47"/><circle r="35.058" transform="matrix(-1 0 0 1 316.691 188.839)" fill="#B2ADCC"/><circle r="21.035" transform="matrix(-1 0 0 1 316.69 188.84)" fill="#332E4D"/><circle r="14.023" transform="matrix(-1 0 0 1 316.691 188.84)" fill="#201C33"/><circle r="63.583" transform="matrix(-1 0 0 1 319.417 188.451)" stroke="#E6004C" stroke-width="2.939"/><circle r="48.78" transform="matrix(-1 0 0 1 319.417 188.449)" stroke="#E6004C" stroke-width="2.939"/><rect width="60.767" height="10.128" rx="5.064" transform="matrix(-1 0 0 1 216.81 113.117)" fill="#484266"/><rect width="148.802" height="18.698" rx="9.349" transform="matrix(-1 0 0 1 269.007 123.246)" fill="#D3CFE5"/><path d="M203.222 31.317c50.25 11.666 46.484 65.571 40.511 85.697H131.548s-6.304-34.71 3.505-52.977c13.971-26.015 39.404-39.399 68.169-32.72z" fill="#D3CFE5"/><rect x="155.034" y="80.398" width="63.105" height="10.907" rx="1.47" fill="url(#paint0_linear)"/><rect x="150.589" y="78.063" width="71.674" height="2.337" rx="1.169" fill="#332E4D"/><path d="M208.814 33.146l16.695-3.176c-13.727 14.246-24.022 31.577-30.05 48.091H172.18c.742-5.626 1.855-14.155 2.782-18.057l-11.129 2.178c3.431-22.05 12.984-42.647 26.618-61.067l-.279-.181h39.881c-7.698 9.073-14.839 16.423-21.239 32.212z" fill="#403366"/><path d="M132.839 17.62a4.153 4.153 0 014.698 2.498l18.716 45.927-18.502-4.725-8.125-38.783a4.153 4.153 0 013.213-4.917zm117.036 9.686a4.152 4.152 0 00-4.9 2.072l-22.713 44.088L241.11 70.4l11.53-37.91a4.153 4.153 0 00-2.765-5.183z" fill="#D3CFE5"/><path d="M136.565 326.586c10.907-11.167 39.577-29.761 67-14.802 5.194 2.726 15.971 11.374 17.529 24.151l-8.96 12.465m-75.569-21.814l-26.488-22.983m26.488 22.983l-7.012-33.5" stroke="#958FB2" stroke-width="1.47"/><path d="M125.039 140.777h137.895s-15.971 17.529-28.825 28.436c-12.855 10.907-22.593 21.035-45.576 23.762-17.529 0-28.436-12.076-40.511-23.762-12.076-11.686-22.983-28.436-22.983-28.436z" fill="#D3CFE5"/><path d="M188.533 192.975v-52.198m0 52.198c22.983-2.727 32.721-12.855 45.576-23.762 12.854-10.907 28.825-28.436 28.825-28.436h-74.401m0 52.198c-17.529 0-28.436-12.076-40.511-23.762-12.076-11.686-22.983-28.436-22.983-28.436h63.494" stroke="#797399" stroke-width="1.47"/><defs><linearGradient id="paint0_linear" x1="186.586" y1="80.398" x2="186.586" y2="91.305" gradientUnits="userSpaceOnUse"><stop stop-color="#E6004C"/><stop offset="1" stop-color="#B5043F"/></linearGradient></defs></svg>