<svg width="100" height="100" viewBox="0 0 100 100" fill="none" xmlns="http://www.w3.org/2000/svg">
<path d="M27.6702 32.3758L27.6007 27.6393C27.5229 22.3387 31.7985 18 37.0997 18H38.0987C43.3454 18 47.5987 22.2533 47.5987 27.5V33.4026H83.939V77.5567V83.2043L83.9174 84.6301C83.8388 89.8201 79.6091 93.9862 74.4185 93.9862H67.5892H18.0734H17.0143H16.0693C10.8226 93.9862 6.56934 89.7329 6.56934 84.4862V76.5299H27.6702V32.3758Z" fill="#403366"/>
<path d="M6.56976 76.4141H27.7413C27.7413 82.5879 28.2836 94.4608 14.7127 93.9859C8.72105 93.7762 4.3976 88.7618 6.56976 76.4141Z" fill="#6C5C99"/>
<path d="M94.5124 35.0969H46.4054C46.5863 32.8806 47.0111 28.2036 44.5696 24.6488C42.0797 21.0236 39.1709 18.3166 36.0947 18H85.2839C94.4039 19.5197 95.2362 30.0311 94.5124 35.0969Z" fill="#6C5C99"/>
<path d="M44.5693 48.3945H72.7038M44.5693 58.6629H72.7038M44.5693 67.9045H72.7038M44.5693 78.1729H72.7038" stroke="#958FB2" stroke-width="2"/>
</svg>
