<svg width="100" height="100" viewBox="0 0 100 100" fill="none" xmlns="http://www.w3.org/2000/svg"><path d="M27.67 32.376l-.07-4.737C27.524 22.34 31.799 18 37.1 18h.999a9.5 9.5 0 019.5 9.5v5.903h36.34v49.801l-.022 1.426a9.5 9.5 0 01-9.499 9.356H16.07a9.5 9.5 0 01-9.5-9.5V76.53h21.1V32.376z" fill="#403366"/><path d="M6.57 76.414h21.17c0 6.174.543 18.047-13.028 17.572-5.992-.21-10.315-5.224-8.143-17.572zm87.942-41.317H46.405c.181-2.216.606-6.893-1.835-10.448-2.49-3.625-5.4-6.332-8.475-6.649h49.189c9.12 1.52 9.952 12.031 9.228 17.097z" fill="#6C5C99"/><path d="M44.57 48.395h28.134M44.569 58.663h28.135m-28.135 9.242h28.135M44.569 78.172h28.135" stroke="#958FB2" stroke-width="2"/></svg>