<svg width="20" height="20" viewBox="0 0 20 20" fill="none" xmlns="http://www.w3.org/2000/svg">
<path fill-rule="evenodd" clip-rule="evenodd" d="M11.4764 12.8908C10.4956 13.5892 9.29579 14 8 14C4.68629 14 2 11.3137 2 8C2 4.68629 4.68629 2 8 2C11.3137 2 14 4.68629 14 8C14 9.29587 13.5892 10.4958 12.8907 11.4766L16.707 15.2929C17.0975 15.6834 17.0975 16.3166 16.707 16.7071C16.3164 17.0976 15.6833 17.0976 15.2927 16.7071L11.4764 12.8908ZM12 8C12 10.2091 10.2091 12 8 12C5.79086 12 4 10.2091 4 8C4 5.79086 5.79086 4 8 4C10.2091 4 12 5.79086 12 8Z" fill="#958FB2"/>
</svg>
