<svg xmlns="http://www.w3.org/2000/svg" style="display: none;">


  <symbol id="prev" viewBox="0 0 36 36">
    <path d="M20.9999 27L23.1099 24.89L16.2399 18L23.1099 11.11L20.9999 9L11.9999 18L20.9999 27Z" fill="currentColor" />
  </symbol>

  <symbol id="next" viewBox="0 0 36 36">
    <path d="M14.9999 9L12.8899 11.11L19.7599 18L12.8899 24.89L14.9999 27L23.9999 18L14.9999 9Z" fill="currentColor" />
  </symbol>

  <symbol id="closeModal" viewBox="0 0 32 32">
    <path fill-rule="evenodd" clip-rule="evenodd" d="M19.9799 12.4252L19.182 11.6273L15.9899 14.8193L12.7982 11.6276L12.0002 12.4256L15.1919 15.6173L12.0003 18.8089L12.7983 19.6069L15.9899 16.4152L19.1819 19.6072L19.9798 18.8092L16.7879 15.6173L19.9799 12.4252Z" fill="currentColor"/>
  </symbol>

  <symbol id="urlIcon" viewBox="0 0 18 18">
    <path fill-rule="evenodd" clip-rule="evenodd" d="M10.3149 1.82831C11.877 0.266214 14.4097 0.266214 15.9718 1.82831C17.5339 3.39041 17.5339 5.92307 15.9718 7.48517L12.0827 11.3743C10.7158 12.7411 8.49976 12.7411 7.13292 11.3743L8.54714 9.96004C9.13292 10.5458 10.0827 10.5458 10.6685 9.96004L14.5575 6.07095C15.3386 5.2899 15.3386 4.02357 14.5575 3.24252C13.7765 2.46148 12.5102 2.46148 11.7291 3.24253L10.6522 4.31942L10.0824 4.07524C9.49595 3.82388 8.8493 3.76787 8.23599 3.90722L10.3149 1.82831ZM7.48663 15.9705C5.92453 17.5326 3.39187 17.5326 1.82978 15.9705C0.267678 14.4084 0.267679 11.8758 1.82978 10.3137L5.71886 6.42459C7.0857 5.05775 9.30177 5.05775 10.6686 6.42459L9.2544 7.8388C8.66861 7.25301 7.71886 7.25301 7.13308 7.8388L3.24399 11.7279C2.46294 12.5089 2.46294 13.7753 3.24399 14.5563C4.02504 15.3374 5.29137 15.3374 6.07242 14.5563L7.14932 13.4794L7.71909 13.7236C8.30559 13.975 8.95224 14.031 9.56554 13.8916L7.48663 15.9705Z" fill="currentColor"/>
  </symbol>

  <symbol id="arrowDown" viewBox="0 0 20 20">
    <path fill-rule="evenodd" clip-rule="evenodd" d="M10.6247 12.7809C10.2594 13.073 9.74049 13.073 9.37527 12.7809L4.37527 8.78087C3.94401 8.43586 3.87408 7.80657 4.21909 7.37531C4.5641 6.94404 5.1934 6.87412 5.62466 7.21913L9.99996 10.7194L14.3753 7.21913C14.8065 6.87412 15.4358 6.94404 15.7808 7.37531C16.1258 7.80657 16.0559 8.43586 15.6247 8.78087L10.6247 12.7809Z" fill="currentColor"/>
  </symbol>

  <symbol id="gamesIcon" viewBox="0 0 20 20">
    <path fill-rule="evenodd" clip-rule="evenodd" d="M9.39798 13C8.61991 14.7934 7.16564 16 5.5 16C3.01472 16 1 13.3137 1 10C1 6.68629 3.01472 4 5.5 4C5.65678 4 5.81168 4.01069 5.96432 4.03155C6.13998 4.01072 6.31874 4 6.5 4H13.5C13.6813 4 13.86 4.01072 14.0357 4.03155C14.1883 4.01069 14.3432 4 14.5 4C16.9853 4 19 6.68629 19 10C19 13.3137 16.9853 16 14.5 16C12.8344 16 11.3801 14.7934 10.602 13H9.39798ZM7 6H5V8L3 8V10H5V12H7V10H9V8H7V6ZM14 11C15.1046 11 16 10.1046 16 9C16 7.89543 15.1046 7 14 7C12.8954 7 12 7.89543 12 9C12 10.1046 12.8954 11 14 11Z" fill="currentColor"/>
  </symbol>

  <symbol id="searchIcon" viewBox="0 0 20 20">
    <path fill-rule="evenodd" clip-rule="evenodd" d="M11.4764 12.8908C10.4956 13.5892 9.29579 14 8 14C4.68629 14 2 11.3137 2 8C2 4.68629 4.68629 2 8 2C11.3137 2 14 4.68629 14 8C14 9.29587 13.5892 10.4958 12.8907 11.4766L16.707 15.2929C17.0975 15.6834 17.0975 16.3166 16.707 16.7071C16.3164 17.0976 15.6833 17.0976 15.2927 16.7071L11.4764 12.8908ZM12 8C12 10.2091 10.2091 12 8 12C5.79086 12 4 10.2091 4 8C4 5.79086 5.79086 4 8 4C10.2091 4 12 5.79086 12 8Z" fill="currentColor"/>
  </symbol>

</svg>
