<svg width="136" height="74" viewBox="0 0 136 74" fill="none" xmlns="http://www.w3.org/2000/svg">
<g clip-path="url(#clip0_749_8224)">
<rect width="136" height="4" fill="#B2B2B2"/>
<rect width="136" height="70" transform="translate(0 4)" fill="white"/>
<rect width="46" height="34" transform="translate(89 39)" fill="#D34037"/>
<path fill-rule="evenodd" clip-rule="evenodd" d="M112.001 62.6666C115.683 62.6666 118.667 59.6818 118.667 55.9999C118.667 52.318 115.683 49.3333 112.001 49.3333C108.319 49.3333 105.334 52.318 105.334 55.9999C105.334 59.6818 108.319 62.6666 112.001 62.6666ZM112.668 51.3332H111.334V52.6665C110.23 52.6665 109.334 53.562 109.334 54.6665C109.334 55.7711 110.23 56.6665 111.334 56.6665H111.668H112.668C113.036 56.6665 113.334 56.965 113.334 57.3332C113.334 57.7014 113.036 57.9999 112.668 57.9999H112.334H111.334C110.966 57.9999 110.668 57.7014 110.668 57.3332H109.334C109.334 58.4378 110.23 59.3332 111.334 59.3332V60.6665H112.668L112.668 59.3332C113.772 59.3332 114.668 58.4378 114.668 57.3332C114.668 56.2286 113.772 55.3332 112.668 55.3332H111.668H111.334C110.966 55.3332 110.668 55.0347 110.668 54.6665C110.668 54.2984 110.966 53.9999 111.334 53.9999H112.334C112.702 53.9999 113.001 54.2984 113.001 54.6665H114.334C114.334 53.6755 113.614 52.8529 112.668 52.6942V51.3332Z" fill="white"/>
<path fill-rule="evenodd" clip-rule="evenodd" d="M22 31L18 29V45H22V31ZM40 33L36 31V45H40V33ZM30 35L34 37V45H30V35ZM28 31L24 29V45H28V31Z" fill="#B2B2B2"/>
<path d="M48 45H70L67 41L64 42L61 38L54 41L48 35V45Z" fill="#B2B2B2"/>
</g>
<defs>
<clipPath id="clip0_749_8224">
<rect width="136" height="74" fill="white"/>
</clipPath>
</defs>
</svg>
