<svg width="12" height="13" viewBox="0 0 12 13" fill="none" xmlns="http://www.w3.org/2000/svg">
<path d="M6.512 5.27805V9.38205H5.52V5.27805H6.512ZM6.648 4.08205C6.648 4.16739 6.63067 4.24739 6.596 4.32205C6.56133 4.39672 6.51467 4.46205 6.456 4.51805C6.4 4.57405 6.33333 4.61939 6.256 4.65405C6.17867 4.68605 6.096 4.70205 6.008 4.70205C5.92267 4.70205 5.84133 4.68605 5.764 4.65405C5.68933 4.61939 5.624 4.57405 5.568 4.51805C5.512 4.46205 5.46667 4.39672 5.432 4.32205C5.4 4.24739 5.384 4.16739 5.384 4.08205C5.384 3.99405 5.4 3.91139 5.432 3.83405C5.46667 3.75672 5.512 3.69005 5.568 3.63405C5.624 3.57805 5.68933 3.53405 5.764 3.50205C5.84133 3.46739 5.92267 3.45005 6.008 3.45005C6.096 3.45005 6.17867 3.46739 6.256 3.50205C6.33333 3.53405 6.4 3.57805 6.456 3.63405C6.51467 3.69005 6.56133 3.75672 6.596 3.83405C6.63067 3.91139 6.648 3.99405 6.648 4.08205Z" fill="#F2F2F2"/>
<circle cx="6" cy="6.38205" r="5.5" stroke="#F2F2F2"/>
</svg>
